G04 #@! TF.GenerationSoftware,KiCad,Pcbnew,5.0.2-bee76a0~70~ubuntu18.04.1*
G04 #@! TF.CreationDate,2020-01-04T15:46:48+02:00*
G04 #@! TF.ProjectId,swbb_node,73776262-5f6e-46f6-9465-2e6b69636164,rev?*
G04 #@! TF.SameCoordinates,Original*
G04 #@! TF.FileFunction,Copper,L2,Bot*
G04 #@! TF.FilePolarity,Positive*
%FSLAX46Y46*%
G04 Gerber Fmt 4.6, Leading zero omitted, Abs format (unit mm)*
G04 Created by KiCad (PCBNEW 5.0.2-bee76a0~70~ubuntu18.04.1) date Сб 04 янв 2020 15:46:48*
%MOMM*%
%LPD*%
G01*
G04 APERTURE LIST*
G04 #@! TA.AperFunction,Conductor*
%ADD10C,0.100000*%
G04 #@! TD*
G04 #@! TA.AperFunction,SMDPad,CuDef*
%ADD11C,0.950000*%
G04 #@! TD*
G04 #@! TA.AperFunction,SMDPad,CuDef*
%ADD12C,0.600000*%
G04 #@! TD*
G04 #@! TA.AperFunction,ComponentPad*
%ADD13C,1.800000*%
G04 #@! TD*
G04 #@! TA.AperFunction,ComponentPad*
%ADD14R,1.800000X1.800000*%
G04 #@! TD*
G04 #@! TA.AperFunction,ComponentPad*
%ADD15O,1.950000X1.700000*%
G04 #@! TD*
G04 #@! TA.AperFunction,ComponentPad*
%ADD16C,1.700000*%
G04 #@! TD*
G04 #@! TA.AperFunction,ComponentPad*
%ADD17O,1.700000X1.700000*%
G04 #@! TD*
G04 #@! TA.AperFunction,ComponentPad*
%ADD18R,1.700000X1.700000*%
G04 #@! TD*
G04 #@! TA.AperFunction,SMDPad,CuDef*
%ADD19C,1.425000*%
G04 #@! TD*
G04 #@! TA.AperFunction,SMDPad,CuDef*
%ADD20C,1.150000*%
G04 #@! TD*
G04 #@! TA.AperFunction,SMDPad,CuDef*
%ADD21C,0.975000*%
G04 #@! TD*
G04 #@! TA.AperFunction,SMDPad,CuDef*
%ADD22C,1.250000*%
G04 #@! TD*
G04 #@! TA.AperFunction,ComponentPad*
%ADD23C,1.500000*%
G04 #@! TD*
G04 #@! TA.AperFunction,SMDPad,CuDef*
%ADD24R,1.750000X0.550000*%
G04 #@! TD*
G04 #@! TA.AperFunction,ViaPad*
%ADD25C,0.800000*%
G04 #@! TD*
G04 #@! TA.AperFunction,Conductor*
%ADD26C,0.250000*%
G04 #@! TD*
G04 #@! TA.AperFunction,Conductor*
%ADD27C,0.500000*%
G04 #@! TD*
G04 APERTURE END LIST*
D10*
G04 #@! TO.N,D13_SCK*
G04 #@! TO.C,R30*
G36*
X99342779Y-131098144D02*
X99365834Y-131101563D01*
X99388443Y-131107227D01*
X99410387Y-131115079D01*
X99431457Y-131125044D01*
X99451448Y-131137026D01*
X99470168Y-131150910D01*
X99487438Y-131166562D01*
X99503090Y-131183832D01*
X99516974Y-131202552D01*
X99528956Y-131222543D01*
X99538921Y-131243613D01*
X99546773Y-131265557D01*
X99552437Y-131288166D01*
X99555856Y-131311221D01*
X99557000Y-131334500D01*
X99557000Y-131809500D01*
X99555856Y-131832779D01*
X99552437Y-131855834D01*
X99546773Y-131878443D01*
X99538921Y-131900387D01*
X99528956Y-131921457D01*
X99516974Y-131941448D01*
X99503090Y-131960168D01*
X99487438Y-131977438D01*
X99470168Y-131993090D01*
X99451448Y-132006974D01*
X99431457Y-132018956D01*
X99410387Y-132028921D01*
X99388443Y-132036773D01*
X99365834Y-132042437D01*
X99342779Y-132045856D01*
X99319500Y-132047000D01*
X98744500Y-132047000D01*
X98721221Y-132045856D01*
X98698166Y-132042437D01*
X98675557Y-132036773D01*
X98653613Y-132028921D01*
X98632543Y-132018956D01*
X98612552Y-132006974D01*
X98593832Y-131993090D01*
X98576562Y-131977438D01*
X98560910Y-131960168D01*
X98547026Y-131941448D01*
X98535044Y-131921457D01*
X98525079Y-131900387D01*
X98517227Y-131878443D01*
X98511563Y-131855834D01*
X98508144Y-131832779D01*
X98507000Y-131809500D01*
X98507000Y-131334500D01*
X98508144Y-131311221D01*
X98511563Y-131288166D01*
X98517227Y-131265557D01*
X98525079Y-131243613D01*
X98535044Y-131222543D01*
X98547026Y-131202552D01*
X98560910Y-131183832D01*
X98576562Y-131166562D01*
X98593832Y-131150910D01*
X98612552Y-131137026D01*
X98632543Y-131125044D01*
X98653613Y-131115079D01*
X98675557Y-131107227D01*
X98698166Y-131101563D01*
X98721221Y-131098144D01*
X98744500Y-131097000D01*
X99319500Y-131097000D01*
X99342779Y-131098144D01*
X99342779Y-131098144D01*
G37*
D11*
G04 #@! TD*
G04 #@! TO.P,R30,2*
G04 #@! TO.N,D13_SCK*
X99032000Y-131572000D03*
D10*
G04 #@! TO.N,Net-(D15-Pad2)*
G04 #@! TO.C,R30*
G36*
X97592779Y-131098144D02*
X97615834Y-131101563D01*
X97638443Y-131107227D01*
X97660387Y-131115079D01*
X97681457Y-131125044D01*
X97701448Y-131137026D01*
X97720168Y-131150910D01*
X97737438Y-131166562D01*
X97753090Y-131183832D01*
X97766974Y-131202552D01*
X97778956Y-131222543D01*
X97788921Y-131243613D01*
X97796773Y-131265557D01*
X97802437Y-131288166D01*
X97805856Y-131311221D01*
X97807000Y-131334500D01*
X97807000Y-131809500D01*
X97805856Y-131832779D01*
X97802437Y-131855834D01*
X97796773Y-131878443D01*
X97788921Y-131900387D01*
X97778956Y-131921457D01*
X97766974Y-131941448D01*
X97753090Y-131960168D01*
X97737438Y-131977438D01*
X97720168Y-131993090D01*
X97701448Y-132006974D01*
X97681457Y-132018956D01*
X97660387Y-132028921D01*
X97638443Y-132036773D01*
X97615834Y-132042437D01*
X97592779Y-132045856D01*
X97569500Y-132047000D01*
X96994500Y-132047000D01*
X96971221Y-132045856D01*
X96948166Y-132042437D01*
X96925557Y-132036773D01*
X96903613Y-132028921D01*
X96882543Y-132018956D01*
X96862552Y-132006974D01*
X96843832Y-131993090D01*
X96826562Y-131977438D01*
X96810910Y-131960168D01*
X96797026Y-131941448D01*
X96785044Y-131921457D01*
X96775079Y-131900387D01*
X96767227Y-131878443D01*
X96761563Y-131855834D01*
X96758144Y-131832779D01*
X96757000Y-131809500D01*
X96757000Y-131334500D01*
X96758144Y-131311221D01*
X96761563Y-131288166D01*
X96767227Y-131265557D01*
X96775079Y-131243613D01*
X96785044Y-131222543D01*
X96797026Y-131202552D01*
X96810910Y-131183832D01*
X96826562Y-131166562D01*
X96843832Y-131150910D01*
X96862552Y-131137026D01*
X96882543Y-131125044D01*
X96903613Y-131115079D01*
X96925557Y-131107227D01*
X96948166Y-131101563D01*
X96971221Y-131098144D01*
X96994500Y-131097000D01*
X97569500Y-131097000D01*
X97592779Y-131098144D01*
X97592779Y-131098144D01*
G37*
D11*
G04 #@! TD*
G04 #@! TO.P,R30,1*
G04 #@! TO.N,Net-(D15-Pad2)*
X97282000Y-131572000D03*
D10*
G04 #@! TO.N,+5V*
G04 #@! TO.C,U2*
G36*
X83092703Y-141559722D02*
X83107264Y-141561882D01*
X83121543Y-141565459D01*
X83135403Y-141570418D01*
X83148710Y-141576712D01*
X83161336Y-141584280D01*
X83173159Y-141593048D01*
X83184066Y-141602934D01*
X83193952Y-141613841D01*
X83202720Y-141625664D01*
X83210288Y-141638290D01*
X83216582Y-141651597D01*
X83221541Y-141665457D01*
X83225118Y-141679736D01*
X83227278Y-141694297D01*
X83228000Y-141709000D01*
X83228000Y-142009000D01*
X83227278Y-142023703D01*
X83225118Y-142038264D01*
X83221541Y-142052543D01*
X83216582Y-142066403D01*
X83210288Y-142079710D01*
X83202720Y-142092336D01*
X83193952Y-142104159D01*
X83184066Y-142115066D01*
X83173159Y-142124952D01*
X83161336Y-142133720D01*
X83148710Y-142141288D01*
X83135403Y-142147582D01*
X83121543Y-142152541D01*
X83107264Y-142156118D01*
X83092703Y-142158278D01*
X83078000Y-142159000D01*
X81628000Y-142159000D01*
X81613297Y-142158278D01*
X81598736Y-142156118D01*
X81584457Y-142152541D01*
X81570597Y-142147582D01*
X81557290Y-142141288D01*
X81544664Y-142133720D01*
X81532841Y-142124952D01*
X81521934Y-142115066D01*
X81512048Y-142104159D01*
X81503280Y-142092336D01*
X81495712Y-142079710D01*
X81489418Y-142066403D01*
X81484459Y-142052543D01*
X81480882Y-142038264D01*
X81478722Y-142023703D01*
X81478000Y-142009000D01*
X81478000Y-141709000D01*
X81478722Y-141694297D01*
X81480882Y-141679736D01*
X81484459Y-141665457D01*
X81489418Y-141651597D01*
X81495712Y-141638290D01*
X81503280Y-141625664D01*
X81512048Y-141613841D01*
X81521934Y-141602934D01*
X81532841Y-141593048D01*
X81544664Y-141584280D01*
X81557290Y-141576712D01*
X81570597Y-141570418D01*
X81584457Y-141565459D01*
X81598736Y-141561882D01*
X81613297Y-141559722D01*
X81628000Y-141559000D01*
X83078000Y-141559000D01*
X83092703Y-141559722D01*
X83092703Y-141559722D01*
G37*
D12*
G04 #@! TD*
G04 #@! TO.P,U2,8*
G04 #@! TO.N,+5V*
X82353000Y-141859000D03*
D10*
G04 #@! TO.N,Net-(R19-Pad1)*
G04 #@! TO.C,U2*
G36*
X83092703Y-142829722D02*
X83107264Y-142831882D01*
X83121543Y-142835459D01*
X83135403Y-142840418D01*
X83148710Y-142846712D01*
X83161336Y-142854280D01*
X83173159Y-142863048D01*
X83184066Y-142872934D01*
X83193952Y-142883841D01*
X83202720Y-142895664D01*
X83210288Y-142908290D01*
X83216582Y-142921597D01*
X83221541Y-142935457D01*
X83225118Y-142949736D01*
X83227278Y-142964297D01*
X83228000Y-142979000D01*
X83228000Y-143279000D01*
X83227278Y-143293703D01*
X83225118Y-143308264D01*
X83221541Y-143322543D01*
X83216582Y-143336403D01*
X83210288Y-143349710D01*
X83202720Y-143362336D01*
X83193952Y-143374159D01*
X83184066Y-143385066D01*
X83173159Y-143394952D01*
X83161336Y-143403720D01*
X83148710Y-143411288D01*
X83135403Y-143417582D01*
X83121543Y-143422541D01*
X83107264Y-143426118D01*
X83092703Y-143428278D01*
X83078000Y-143429000D01*
X81628000Y-143429000D01*
X81613297Y-143428278D01*
X81598736Y-143426118D01*
X81584457Y-143422541D01*
X81570597Y-143417582D01*
X81557290Y-143411288D01*
X81544664Y-143403720D01*
X81532841Y-143394952D01*
X81521934Y-143385066D01*
X81512048Y-143374159D01*
X81503280Y-143362336D01*
X81495712Y-143349710D01*
X81489418Y-143336403D01*
X81484459Y-143322543D01*
X81480882Y-143308264D01*
X81478722Y-143293703D01*
X81478000Y-143279000D01*
X81478000Y-142979000D01*
X81478722Y-142964297D01*
X81480882Y-142949736D01*
X81484459Y-142935457D01*
X81489418Y-142921597D01*
X81495712Y-142908290D01*
X81503280Y-142895664D01*
X81512048Y-142883841D01*
X81521934Y-142872934D01*
X81532841Y-142863048D01*
X81544664Y-142854280D01*
X81557290Y-142846712D01*
X81570597Y-142840418D01*
X81584457Y-142835459D01*
X81598736Y-142831882D01*
X81613297Y-142829722D01*
X81628000Y-142829000D01*
X83078000Y-142829000D01*
X83092703Y-142829722D01*
X83092703Y-142829722D01*
G37*
D12*
G04 #@! TD*
G04 #@! TO.P,U2,7*
G04 #@! TO.N,Net-(R19-Pad1)*
X82353000Y-143129000D03*
D10*
G04 #@! TO.N,Net-(R20-Pad1)*
G04 #@! TO.C,U2*
G36*
X83092703Y-144099722D02*
X83107264Y-144101882D01*
X83121543Y-144105459D01*
X83135403Y-144110418D01*
X83148710Y-144116712D01*
X83161336Y-144124280D01*
X83173159Y-144133048D01*
X83184066Y-144142934D01*
X83193952Y-144153841D01*
X83202720Y-144165664D01*
X83210288Y-144178290D01*
X83216582Y-144191597D01*
X83221541Y-144205457D01*
X83225118Y-144219736D01*
X83227278Y-144234297D01*
X83228000Y-144249000D01*
X83228000Y-144549000D01*
X83227278Y-144563703D01*
X83225118Y-144578264D01*
X83221541Y-144592543D01*
X83216582Y-144606403D01*
X83210288Y-144619710D01*
X83202720Y-144632336D01*
X83193952Y-144644159D01*
X83184066Y-144655066D01*
X83173159Y-144664952D01*
X83161336Y-144673720D01*
X83148710Y-144681288D01*
X83135403Y-144687582D01*
X83121543Y-144692541D01*
X83107264Y-144696118D01*
X83092703Y-144698278D01*
X83078000Y-144699000D01*
X81628000Y-144699000D01*
X81613297Y-144698278D01*
X81598736Y-144696118D01*
X81584457Y-144692541D01*
X81570597Y-144687582D01*
X81557290Y-144681288D01*
X81544664Y-144673720D01*
X81532841Y-144664952D01*
X81521934Y-144655066D01*
X81512048Y-144644159D01*
X81503280Y-144632336D01*
X81495712Y-144619710D01*
X81489418Y-144606403D01*
X81484459Y-144592543D01*
X81480882Y-144578264D01*
X81478722Y-144563703D01*
X81478000Y-144549000D01*
X81478000Y-144249000D01*
X81478722Y-144234297D01*
X81480882Y-144219736D01*
X81484459Y-144205457D01*
X81489418Y-144191597D01*
X81495712Y-144178290D01*
X81503280Y-144165664D01*
X81512048Y-144153841D01*
X81521934Y-144142934D01*
X81532841Y-144133048D01*
X81544664Y-144124280D01*
X81557290Y-144116712D01*
X81570597Y-144110418D01*
X81584457Y-144105459D01*
X81598736Y-144101882D01*
X81613297Y-144099722D01*
X81628000Y-144099000D01*
X83078000Y-144099000D01*
X83092703Y-144099722D01*
X83092703Y-144099722D01*
G37*
D12*
G04 #@! TD*
G04 #@! TO.P,U2,6*
G04 #@! TO.N,Net-(R20-Pad1)*
X82353000Y-144399000D03*
D10*
G04 #@! TO.N,GND*
G04 #@! TO.C,U2*
G36*
X83092703Y-145369722D02*
X83107264Y-145371882D01*
X83121543Y-145375459D01*
X83135403Y-145380418D01*
X83148710Y-145386712D01*
X83161336Y-145394280D01*
X83173159Y-145403048D01*
X83184066Y-145412934D01*
X83193952Y-145423841D01*
X83202720Y-145435664D01*
X83210288Y-145448290D01*
X83216582Y-145461597D01*
X83221541Y-145475457D01*
X83225118Y-145489736D01*
X83227278Y-145504297D01*
X83228000Y-145519000D01*
X83228000Y-145819000D01*
X83227278Y-145833703D01*
X83225118Y-145848264D01*
X83221541Y-145862543D01*
X83216582Y-145876403D01*
X83210288Y-145889710D01*
X83202720Y-145902336D01*
X83193952Y-145914159D01*
X83184066Y-145925066D01*
X83173159Y-145934952D01*
X83161336Y-145943720D01*
X83148710Y-145951288D01*
X83135403Y-145957582D01*
X83121543Y-145962541D01*
X83107264Y-145966118D01*
X83092703Y-145968278D01*
X83078000Y-145969000D01*
X81628000Y-145969000D01*
X81613297Y-145968278D01*
X81598736Y-145966118D01*
X81584457Y-145962541D01*
X81570597Y-145957582D01*
X81557290Y-145951288D01*
X81544664Y-145943720D01*
X81532841Y-145934952D01*
X81521934Y-145925066D01*
X81512048Y-145914159D01*
X81503280Y-145902336D01*
X81495712Y-145889710D01*
X81489418Y-145876403D01*
X81484459Y-145862543D01*
X81480882Y-145848264D01*
X81478722Y-145833703D01*
X81478000Y-145819000D01*
X81478000Y-145519000D01*
X81478722Y-145504297D01*
X81480882Y-145489736D01*
X81484459Y-145475457D01*
X81489418Y-145461597D01*
X81495712Y-145448290D01*
X81503280Y-145435664D01*
X81512048Y-145423841D01*
X81521934Y-145412934D01*
X81532841Y-145403048D01*
X81544664Y-145394280D01*
X81557290Y-145386712D01*
X81570597Y-145380418D01*
X81584457Y-145375459D01*
X81598736Y-145371882D01*
X81613297Y-145369722D01*
X81628000Y-145369000D01*
X83078000Y-145369000D01*
X83092703Y-145369722D01*
X83092703Y-145369722D01*
G37*
D12*
G04 #@! TD*
G04 #@! TO.P,U2,5*
G04 #@! TO.N,GND*
X82353000Y-145669000D03*
D10*
G04 #@! TO.N,D5_swTX_RS485*
G04 #@! TO.C,U2*
G36*
X88242703Y-145369722D02*
X88257264Y-145371882D01*
X88271543Y-145375459D01*
X88285403Y-145380418D01*
X88298710Y-145386712D01*
X88311336Y-145394280D01*
X88323159Y-145403048D01*
X88334066Y-145412934D01*
X88343952Y-145423841D01*
X88352720Y-145435664D01*
X88360288Y-145448290D01*
X88366582Y-145461597D01*
X88371541Y-145475457D01*
X88375118Y-145489736D01*
X88377278Y-145504297D01*
X88378000Y-145519000D01*
X88378000Y-145819000D01*
X88377278Y-145833703D01*
X88375118Y-145848264D01*
X88371541Y-145862543D01*
X88366582Y-145876403D01*
X88360288Y-145889710D01*
X88352720Y-145902336D01*
X88343952Y-145914159D01*
X88334066Y-145925066D01*
X88323159Y-145934952D01*
X88311336Y-145943720D01*
X88298710Y-145951288D01*
X88285403Y-145957582D01*
X88271543Y-145962541D01*
X88257264Y-145966118D01*
X88242703Y-145968278D01*
X88228000Y-145969000D01*
X86778000Y-145969000D01*
X86763297Y-145968278D01*
X86748736Y-145966118D01*
X86734457Y-145962541D01*
X86720597Y-145957582D01*
X86707290Y-145951288D01*
X86694664Y-145943720D01*
X86682841Y-145934952D01*
X86671934Y-145925066D01*
X86662048Y-145914159D01*
X86653280Y-145902336D01*
X86645712Y-145889710D01*
X86639418Y-145876403D01*
X86634459Y-145862543D01*
X86630882Y-145848264D01*
X86628722Y-145833703D01*
X86628000Y-145819000D01*
X86628000Y-145519000D01*
X86628722Y-145504297D01*
X86630882Y-145489736D01*
X86634459Y-145475457D01*
X86639418Y-145461597D01*
X86645712Y-145448290D01*
X86653280Y-145435664D01*
X86662048Y-145423841D01*
X86671934Y-145412934D01*
X86682841Y-145403048D01*
X86694664Y-145394280D01*
X86707290Y-145386712D01*
X86720597Y-145380418D01*
X86734457Y-145375459D01*
X86748736Y-145371882D01*
X86763297Y-145369722D01*
X86778000Y-145369000D01*
X88228000Y-145369000D01*
X88242703Y-145369722D01*
X88242703Y-145369722D01*
G37*
D12*
G04 #@! TD*
G04 #@! TO.P,U2,4*
G04 #@! TO.N,D5_swTX_RS485*
X87503000Y-145669000D03*
D10*
G04 #@! TO.N,D6_DE_RS485*
G04 #@! TO.C,U2*
G36*
X88242703Y-144099722D02*
X88257264Y-144101882D01*
X88271543Y-144105459D01*
X88285403Y-144110418D01*
X88298710Y-144116712D01*
X88311336Y-144124280D01*
X88323159Y-144133048D01*
X88334066Y-144142934D01*
X88343952Y-144153841D01*
X88352720Y-144165664D01*
X88360288Y-144178290D01*
X88366582Y-144191597D01*
X88371541Y-144205457D01*
X88375118Y-144219736D01*
X88377278Y-144234297D01*
X88378000Y-144249000D01*
X88378000Y-144549000D01*
X88377278Y-144563703D01*
X88375118Y-144578264D01*
X88371541Y-144592543D01*
X88366582Y-144606403D01*
X88360288Y-144619710D01*
X88352720Y-144632336D01*
X88343952Y-144644159D01*
X88334066Y-144655066D01*
X88323159Y-144664952D01*
X88311336Y-144673720D01*
X88298710Y-144681288D01*
X88285403Y-144687582D01*
X88271543Y-144692541D01*
X88257264Y-144696118D01*
X88242703Y-144698278D01*
X88228000Y-144699000D01*
X86778000Y-144699000D01*
X86763297Y-144698278D01*
X86748736Y-144696118D01*
X86734457Y-144692541D01*
X86720597Y-144687582D01*
X86707290Y-144681288D01*
X86694664Y-144673720D01*
X86682841Y-144664952D01*
X86671934Y-144655066D01*
X86662048Y-144644159D01*
X86653280Y-144632336D01*
X86645712Y-144619710D01*
X86639418Y-144606403D01*
X86634459Y-144592543D01*
X86630882Y-144578264D01*
X86628722Y-144563703D01*
X86628000Y-144549000D01*
X86628000Y-144249000D01*
X86628722Y-144234297D01*
X86630882Y-144219736D01*
X86634459Y-144205457D01*
X86639418Y-144191597D01*
X86645712Y-144178290D01*
X86653280Y-144165664D01*
X86662048Y-144153841D01*
X86671934Y-144142934D01*
X86682841Y-144133048D01*
X86694664Y-144124280D01*
X86707290Y-144116712D01*
X86720597Y-144110418D01*
X86734457Y-144105459D01*
X86748736Y-144101882D01*
X86763297Y-144099722D01*
X86778000Y-144099000D01*
X88228000Y-144099000D01*
X88242703Y-144099722D01*
X88242703Y-144099722D01*
G37*
D12*
G04 #@! TD*
G04 #@! TO.P,U2,3*
G04 #@! TO.N,D6_DE_RS485*
X87503000Y-144399000D03*
D10*
G04 #@! TO.N,D6_DE_RS485*
G04 #@! TO.C,U2*
G36*
X88242703Y-142829722D02*
X88257264Y-142831882D01*
X88271543Y-142835459D01*
X88285403Y-142840418D01*
X88298710Y-142846712D01*
X88311336Y-142854280D01*
X88323159Y-142863048D01*
X88334066Y-142872934D01*
X88343952Y-142883841D01*
X88352720Y-142895664D01*
X88360288Y-142908290D01*
X88366582Y-142921597D01*
X88371541Y-142935457D01*
X88375118Y-142949736D01*
X88377278Y-142964297D01*
X88378000Y-142979000D01*
X88378000Y-143279000D01*
X88377278Y-143293703D01*
X88375118Y-143308264D01*
X88371541Y-143322543D01*
X88366582Y-143336403D01*
X88360288Y-143349710D01*
X88352720Y-143362336D01*
X88343952Y-143374159D01*
X88334066Y-143385066D01*
X88323159Y-143394952D01*
X88311336Y-143403720D01*
X88298710Y-143411288D01*
X88285403Y-143417582D01*
X88271543Y-143422541D01*
X88257264Y-143426118D01*
X88242703Y-143428278D01*
X88228000Y-143429000D01*
X86778000Y-143429000D01*
X86763297Y-143428278D01*
X86748736Y-143426118D01*
X86734457Y-143422541D01*
X86720597Y-143417582D01*
X86707290Y-143411288D01*
X86694664Y-143403720D01*
X86682841Y-143394952D01*
X86671934Y-143385066D01*
X86662048Y-143374159D01*
X86653280Y-143362336D01*
X86645712Y-143349710D01*
X86639418Y-143336403D01*
X86634459Y-143322543D01*
X86630882Y-143308264D01*
X86628722Y-143293703D01*
X86628000Y-143279000D01*
X86628000Y-142979000D01*
X86628722Y-142964297D01*
X86630882Y-142949736D01*
X86634459Y-142935457D01*
X86639418Y-142921597D01*
X86645712Y-142908290D01*
X86653280Y-142895664D01*
X86662048Y-142883841D01*
X86671934Y-142872934D01*
X86682841Y-142863048D01*
X86694664Y-142854280D01*
X86707290Y-142846712D01*
X86720597Y-142840418D01*
X86734457Y-142835459D01*
X86748736Y-142831882D01*
X86763297Y-142829722D01*
X86778000Y-142829000D01*
X88228000Y-142829000D01*
X88242703Y-142829722D01*
X88242703Y-142829722D01*
G37*
D12*
G04 #@! TD*
G04 #@! TO.P,U2,2*
G04 #@! TO.N,D6_DE_RS485*
X87503000Y-143129000D03*
D10*
G04 #@! TO.N,D4_swRX_RS485*
G04 #@! TO.C,U2*
G36*
X88242703Y-141559722D02*
X88257264Y-141561882D01*
X88271543Y-141565459D01*
X88285403Y-141570418D01*
X88298710Y-141576712D01*
X88311336Y-141584280D01*
X88323159Y-141593048D01*
X88334066Y-141602934D01*
X88343952Y-141613841D01*
X88352720Y-141625664D01*
X88360288Y-141638290D01*
X88366582Y-141651597D01*
X88371541Y-141665457D01*
X88375118Y-141679736D01*
X88377278Y-141694297D01*
X88378000Y-141709000D01*
X88378000Y-142009000D01*
X88377278Y-142023703D01*
X88375118Y-142038264D01*
X88371541Y-142052543D01*
X88366582Y-142066403D01*
X88360288Y-142079710D01*
X88352720Y-142092336D01*
X88343952Y-142104159D01*
X88334066Y-142115066D01*
X88323159Y-142124952D01*
X88311336Y-142133720D01*
X88298710Y-142141288D01*
X88285403Y-142147582D01*
X88271543Y-142152541D01*
X88257264Y-142156118D01*
X88242703Y-142158278D01*
X88228000Y-142159000D01*
X86778000Y-142159000D01*
X86763297Y-142158278D01*
X86748736Y-142156118D01*
X86734457Y-142152541D01*
X86720597Y-142147582D01*
X86707290Y-142141288D01*
X86694664Y-142133720D01*
X86682841Y-142124952D01*
X86671934Y-142115066D01*
X86662048Y-142104159D01*
X86653280Y-142092336D01*
X86645712Y-142079710D01*
X86639418Y-142066403D01*
X86634459Y-142052543D01*
X86630882Y-142038264D01*
X86628722Y-142023703D01*
X86628000Y-142009000D01*
X86628000Y-141709000D01*
X86628722Y-141694297D01*
X86630882Y-141679736D01*
X86634459Y-141665457D01*
X86639418Y-141651597D01*
X86645712Y-141638290D01*
X86653280Y-141625664D01*
X86662048Y-141613841D01*
X86671934Y-141602934D01*
X86682841Y-141593048D01*
X86694664Y-141584280D01*
X86707290Y-141576712D01*
X86720597Y-141570418D01*
X86734457Y-141565459D01*
X86748736Y-141561882D01*
X86763297Y-141559722D01*
X86778000Y-141559000D01*
X88228000Y-141559000D01*
X88242703Y-141559722D01*
X88242703Y-141559722D01*
G37*
D12*
G04 #@! TD*
G04 #@! TO.P,U2,1*
G04 #@! TO.N,D4_swRX_RS485*
X87503000Y-141859000D03*
D13*
G04 #@! TO.P,D15,2*
G04 #@! TO.N,Net-(D15-Pad2)*
X94996000Y-133096000D03*
D14*
G04 #@! TO.P,D15,1*
G04 #@! TO.N,GND*
X92456000Y-133096000D03*
G04 #@! TD*
D15*
G04 #@! TO.P,J2,7*
G04 #@! TO.N,Net-(F1-Pad1)*
X119761000Y-151525000D03*
G04 #@! TO.P,J2,6*
G04 #@! TO.N,Net-(J2-Pad6)*
X119761000Y-149025000D03*
G04 #@! TO.P,J2,5*
G04 #@! TO.N,Net-(J2-Pad5)*
X119761000Y-146525000D03*
G04 #@! TO.P,J2,4*
G04 #@! TO.N,Net-(J2-Pad4)*
X119761000Y-144025000D03*
G04 #@! TO.P,J2,3*
G04 #@! TO.N,Net-(J2-Pad3)*
X119761000Y-141525000D03*
G04 #@! TO.P,J2,2*
G04 #@! TO.N,GND*
X119761000Y-139025000D03*
D10*
G04 #@! TD*
G04 #@! TO.N,Net-(D11-Pad1)*
G04 #@! TO.C,J2*
G36*
X120510504Y-135676204D02*
X120534773Y-135679804D01*
X120558571Y-135685765D01*
X120581671Y-135694030D01*
X120603849Y-135704520D01*
X120624893Y-135717133D01*
X120644598Y-135731747D01*
X120662777Y-135748223D01*
X120679253Y-135766402D01*
X120693867Y-135786107D01*
X120706480Y-135807151D01*
X120716970Y-135829329D01*
X120725235Y-135852429D01*
X120731196Y-135876227D01*
X120734796Y-135900496D01*
X120736000Y-135925000D01*
X120736000Y-137125000D01*
X120734796Y-137149504D01*
X120731196Y-137173773D01*
X120725235Y-137197571D01*
X120716970Y-137220671D01*
X120706480Y-137242849D01*
X120693867Y-137263893D01*
X120679253Y-137283598D01*
X120662777Y-137301777D01*
X120644598Y-137318253D01*
X120624893Y-137332867D01*
X120603849Y-137345480D01*
X120581671Y-137355970D01*
X120558571Y-137364235D01*
X120534773Y-137370196D01*
X120510504Y-137373796D01*
X120486000Y-137375000D01*
X119036000Y-137375000D01*
X119011496Y-137373796D01*
X118987227Y-137370196D01*
X118963429Y-137364235D01*
X118940329Y-137355970D01*
X118918151Y-137345480D01*
X118897107Y-137332867D01*
X118877402Y-137318253D01*
X118859223Y-137301777D01*
X118842747Y-137283598D01*
X118828133Y-137263893D01*
X118815520Y-137242849D01*
X118805030Y-137220671D01*
X118796765Y-137197571D01*
X118790804Y-137173773D01*
X118787204Y-137149504D01*
X118786000Y-137125000D01*
X118786000Y-135925000D01*
X118787204Y-135900496D01*
X118790804Y-135876227D01*
X118796765Y-135852429D01*
X118805030Y-135829329D01*
X118815520Y-135807151D01*
X118828133Y-135786107D01*
X118842747Y-135766402D01*
X118859223Y-135748223D01*
X118877402Y-135731747D01*
X118897107Y-135717133D01*
X118918151Y-135704520D01*
X118940329Y-135694030D01*
X118963429Y-135685765D01*
X118987227Y-135679804D01*
X119011496Y-135676204D01*
X119036000Y-135675000D01*
X120486000Y-135675000D01*
X120510504Y-135676204D01*
X120510504Y-135676204D01*
G37*
D16*
G04 #@! TO.P,J2,1*
G04 #@! TO.N,Net-(D11-Pad1)*
X119761000Y-136525000D03*
G04 #@! TD*
D15*
G04 #@! TO.P,J1,8*
G04 #@! TO.N,Net-(J1-Pad8)*
X69469000Y-135281000D03*
G04 #@! TO.P,J1,7*
G04 #@! TO.N,Net-(J1-Pad7)*
X69469000Y-137781000D03*
G04 #@! TO.P,J1,6*
G04 #@! TO.N,GND*
X69469000Y-140281000D03*
G04 #@! TO.P,J1,5*
G04 #@! TO.N,Net-(J1-Pad5)*
X69469000Y-142781000D03*
G04 #@! TO.P,J1,4*
G04 #@! TO.N,Net-(D14-Pad2)*
X69469000Y-145281000D03*
G04 #@! TO.P,J1,3*
G04 #@! TO.N,Net-(D13-Pad2)*
X69469000Y-147781000D03*
G04 #@! TO.P,J1,2*
G04 #@! TO.N,GND*
X69469000Y-150281000D03*
D10*
G04 #@! TD*
G04 #@! TO.N,+12V*
G04 #@! TO.C,J1*
G36*
X70218504Y-151932204D02*
X70242773Y-151935804D01*
X70266571Y-151941765D01*
X70289671Y-151950030D01*
X70311849Y-151960520D01*
X70332893Y-151973133D01*
X70352598Y-151987747D01*
X70370777Y-152004223D01*
X70387253Y-152022402D01*
X70401867Y-152042107D01*
X70414480Y-152063151D01*
X70424970Y-152085329D01*
X70433235Y-152108429D01*
X70439196Y-152132227D01*
X70442796Y-152156496D01*
X70444000Y-152181000D01*
X70444000Y-153381000D01*
X70442796Y-153405504D01*
X70439196Y-153429773D01*
X70433235Y-153453571D01*
X70424970Y-153476671D01*
X70414480Y-153498849D01*
X70401867Y-153519893D01*
X70387253Y-153539598D01*
X70370777Y-153557777D01*
X70352598Y-153574253D01*
X70332893Y-153588867D01*
X70311849Y-153601480D01*
X70289671Y-153611970D01*
X70266571Y-153620235D01*
X70242773Y-153626196D01*
X70218504Y-153629796D01*
X70194000Y-153631000D01*
X68744000Y-153631000D01*
X68719496Y-153629796D01*
X68695227Y-153626196D01*
X68671429Y-153620235D01*
X68648329Y-153611970D01*
X68626151Y-153601480D01*
X68605107Y-153588867D01*
X68585402Y-153574253D01*
X68567223Y-153557777D01*
X68550747Y-153539598D01*
X68536133Y-153519893D01*
X68523520Y-153498849D01*
X68513030Y-153476671D01*
X68504765Y-153453571D01*
X68498804Y-153429773D01*
X68495204Y-153405504D01*
X68494000Y-153381000D01*
X68494000Y-152181000D01*
X68495204Y-152156496D01*
X68498804Y-152132227D01*
X68504765Y-152108429D01*
X68513030Y-152085329D01*
X68523520Y-152063151D01*
X68536133Y-152042107D01*
X68550747Y-152022402D01*
X68567223Y-152004223D01*
X68585402Y-151987747D01*
X68605107Y-151973133D01*
X68626151Y-151960520D01*
X68648329Y-151950030D01*
X68671429Y-151941765D01*
X68695227Y-151935804D01*
X68719496Y-151932204D01*
X68744000Y-151931000D01*
X70194000Y-151931000D01*
X70218504Y-151932204D01*
X70218504Y-151932204D01*
G37*
D16*
G04 #@! TO.P,J1,1*
G04 #@! TO.N,+12V*
X69469000Y-152781000D03*
G04 #@! TD*
D17*
G04 #@! TO.P,J3,4*
G04 #@! TO.N,GND*
X117475000Y-128016000D03*
G04 #@! TO.P,J3,3*
G04 #@! TO.N,A5_SCL*
X114935000Y-128016000D03*
G04 #@! TO.P,J3,2*
G04 #@! TO.N,A4_SDA*
X112395000Y-128016000D03*
D18*
G04 #@! TO.P,J3,1*
G04 #@! TO.N,+5V*
X109855000Y-128016000D03*
G04 #@! TD*
D17*
G04 #@! TO.P,J4,5*
G04 #@! TO.N,GND*
X102108000Y-128016000D03*
G04 #@! TO.P,J4,4*
G04 #@! TO.N,Net-(C16-Pad2)*
X99568000Y-128016000D03*
G04 #@! TO.P,J4,3*
G04 #@! TO.N,D1_TX*
X97028000Y-128016000D03*
G04 #@! TO.P,J4,2*
G04 #@! TO.N,D0_RX*
X94488000Y-128016000D03*
D18*
G04 #@! TO.P,J4,1*
G04 #@! TO.N,Net-(D16-Pad2)*
X91948000Y-128016000D03*
G04 #@! TD*
D17*
G04 #@! TO.P,J5,6*
G04 #@! TO.N,GND*
X98552000Y-159766000D03*
G04 #@! TO.P,J5,5*
G04 #@! TO.N,Reset*
X98552000Y-157226000D03*
G04 #@! TO.P,J5,4*
G04 #@! TO.N,D11_MOSI*
X101092000Y-159766000D03*
G04 #@! TO.P,J5,3*
G04 #@! TO.N,D13_SCK*
X101092000Y-157226000D03*
G04 #@! TO.P,J5,2*
G04 #@! TO.N,+5V*
X103632000Y-159766000D03*
D18*
G04 #@! TO.P,J5,1*
G04 #@! TO.N,D12_MISO*
X103632000Y-157226000D03*
G04 #@! TD*
D10*
G04 #@! TO.N,Net-(D16-Pad2)*
G04 #@! TO.C,D16*
G36*
X90022004Y-126380204D02*
X90046273Y-126383804D01*
X90070071Y-126389765D01*
X90093171Y-126398030D01*
X90115349Y-126408520D01*
X90136393Y-126421133D01*
X90156098Y-126435747D01*
X90174277Y-126452223D01*
X90190753Y-126470402D01*
X90205367Y-126490107D01*
X90217980Y-126511151D01*
X90228470Y-126533329D01*
X90236735Y-126556429D01*
X90242696Y-126580227D01*
X90246296Y-126604496D01*
X90247500Y-126629000D01*
X90247500Y-127879000D01*
X90246296Y-127903504D01*
X90242696Y-127927773D01*
X90236735Y-127951571D01*
X90228470Y-127974671D01*
X90217980Y-127996849D01*
X90205367Y-128017893D01*
X90190753Y-128037598D01*
X90174277Y-128055777D01*
X90156098Y-128072253D01*
X90136393Y-128086867D01*
X90115349Y-128099480D01*
X90093171Y-128109970D01*
X90070071Y-128118235D01*
X90046273Y-128124196D01*
X90022004Y-128127796D01*
X89997500Y-128129000D01*
X89072500Y-128129000D01*
X89047996Y-128127796D01*
X89023727Y-128124196D01*
X88999929Y-128118235D01*
X88976829Y-128109970D01*
X88954651Y-128099480D01*
X88933607Y-128086867D01*
X88913902Y-128072253D01*
X88895723Y-128055777D01*
X88879247Y-128037598D01*
X88864633Y-128017893D01*
X88852020Y-127996849D01*
X88841530Y-127974671D01*
X88833265Y-127951571D01*
X88827304Y-127927773D01*
X88823704Y-127903504D01*
X88822500Y-127879000D01*
X88822500Y-126629000D01*
X88823704Y-126604496D01*
X88827304Y-126580227D01*
X88833265Y-126556429D01*
X88841530Y-126533329D01*
X88852020Y-126511151D01*
X88864633Y-126490107D01*
X88879247Y-126470402D01*
X88895723Y-126452223D01*
X88913902Y-126435747D01*
X88933607Y-126421133D01*
X88954651Y-126408520D01*
X88976829Y-126398030D01*
X88999929Y-126389765D01*
X89023727Y-126383804D01*
X89047996Y-126380204D01*
X89072500Y-126379000D01*
X89997500Y-126379000D01*
X90022004Y-126380204D01*
X90022004Y-126380204D01*
G37*
D19*
G04 #@! TD*
G04 #@! TO.P,D16,2*
G04 #@! TO.N,Net-(D16-Pad2)*
X89535000Y-127254000D03*
D10*
G04 #@! TO.N,+5V*
G04 #@! TO.C,D16*
G36*
X87047004Y-126380204D02*
X87071273Y-126383804D01*
X87095071Y-126389765D01*
X87118171Y-126398030D01*
X87140349Y-126408520D01*
X87161393Y-126421133D01*
X87181098Y-126435747D01*
X87199277Y-126452223D01*
X87215753Y-126470402D01*
X87230367Y-126490107D01*
X87242980Y-126511151D01*
X87253470Y-126533329D01*
X87261735Y-126556429D01*
X87267696Y-126580227D01*
X87271296Y-126604496D01*
X87272500Y-126629000D01*
X87272500Y-127879000D01*
X87271296Y-127903504D01*
X87267696Y-127927773D01*
X87261735Y-127951571D01*
X87253470Y-127974671D01*
X87242980Y-127996849D01*
X87230367Y-128017893D01*
X87215753Y-128037598D01*
X87199277Y-128055777D01*
X87181098Y-128072253D01*
X87161393Y-128086867D01*
X87140349Y-128099480D01*
X87118171Y-128109970D01*
X87095071Y-128118235D01*
X87071273Y-128124196D01*
X87047004Y-128127796D01*
X87022500Y-128129000D01*
X86097500Y-128129000D01*
X86072996Y-128127796D01*
X86048727Y-128124196D01*
X86024929Y-128118235D01*
X86001829Y-128109970D01*
X85979651Y-128099480D01*
X85958607Y-128086867D01*
X85938902Y-128072253D01*
X85920723Y-128055777D01*
X85904247Y-128037598D01*
X85889633Y-128017893D01*
X85877020Y-127996849D01*
X85866530Y-127974671D01*
X85858265Y-127951571D01*
X85852304Y-127927773D01*
X85848704Y-127903504D01*
X85847500Y-127879000D01*
X85847500Y-126629000D01*
X85848704Y-126604496D01*
X85852304Y-126580227D01*
X85858265Y-126556429D01*
X85866530Y-126533329D01*
X85877020Y-126511151D01*
X85889633Y-126490107D01*
X85904247Y-126470402D01*
X85920723Y-126452223D01*
X85938902Y-126435747D01*
X85958607Y-126421133D01*
X85979651Y-126408520D01*
X86001829Y-126398030D01*
X86024929Y-126389765D01*
X86048727Y-126383804D01*
X86072996Y-126380204D01*
X86097500Y-126379000D01*
X87022500Y-126379000D01*
X87047004Y-126380204D01*
X87047004Y-126380204D01*
G37*
D19*
G04 #@! TD*
G04 #@! TO.P,D16,1*
G04 #@! TO.N,+5V*
X86560000Y-127254000D03*
D10*
G04 #@! TO.N,GND*
G04 #@! TO.C,R21*
G36*
X82246505Y-147637204D02*
X82270773Y-147640804D01*
X82294572Y-147646765D01*
X82317671Y-147655030D01*
X82339850Y-147665520D01*
X82360893Y-147678132D01*
X82380599Y-147692747D01*
X82398777Y-147709223D01*
X82415253Y-147727401D01*
X82429868Y-147747107D01*
X82442480Y-147768150D01*
X82452970Y-147790329D01*
X82461235Y-147813428D01*
X82467196Y-147837227D01*
X82470796Y-147861495D01*
X82472000Y-147885999D01*
X82472000Y-148786001D01*
X82470796Y-148810505D01*
X82467196Y-148834773D01*
X82461235Y-148858572D01*
X82452970Y-148881671D01*
X82442480Y-148903850D01*
X82429868Y-148924893D01*
X82415253Y-148944599D01*
X82398777Y-148962777D01*
X82380599Y-148979253D01*
X82360893Y-148993868D01*
X82339850Y-149006480D01*
X82317671Y-149016970D01*
X82294572Y-149025235D01*
X82270773Y-149031196D01*
X82246505Y-149034796D01*
X82222001Y-149036000D01*
X81571999Y-149036000D01*
X81547495Y-149034796D01*
X81523227Y-149031196D01*
X81499428Y-149025235D01*
X81476329Y-149016970D01*
X81454150Y-149006480D01*
X81433107Y-148993868D01*
X81413401Y-148979253D01*
X81395223Y-148962777D01*
X81378747Y-148944599D01*
X81364132Y-148924893D01*
X81351520Y-148903850D01*
X81341030Y-148881671D01*
X81332765Y-148858572D01*
X81326804Y-148834773D01*
X81323204Y-148810505D01*
X81322000Y-148786001D01*
X81322000Y-147885999D01*
X81323204Y-147861495D01*
X81326804Y-147837227D01*
X81332765Y-147813428D01*
X81341030Y-147790329D01*
X81351520Y-147768150D01*
X81364132Y-147747107D01*
X81378747Y-147727401D01*
X81395223Y-147709223D01*
X81413401Y-147692747D01*
X81433107Y-147678132D01*
X81454150Y-147665520D01*
X81476329Y-147655030D01*
X81499428Y-147646765D01*
X81523227Y-147640804D01*
X81547495Y-147637204D01*
X81571999Y-147636000D01*
X82222001Y-147636000D01*
X82246505Y-147637204D01*
X82246505Y-147637204D01*
G37*
D20*
G04 #@! TD*
G04 #@! TO.P,R21,2*
G04 #@! TO.N,GND*
X81897000Y-148336000D03*
D10*
G04 #@! TO.N,Net-(R19-Pad1)*
G04 #@! TO.C,R21*
G36*
X84296505Y-147637204D02*
X84320773Y-147640804D01*
X84344572Y-147646765D01*
X84367671Y-147655030D01*
X84389850Y-147665520D01*
X84410893Y-147678132D01*
X84430599Y-147692747D01*
X84448777Y-147709223D01*
X84465253Y-147727401D01*
X84479868Y-147747107D01*
X84492480Y-147768150D01*
X84502970Y-147790329D01*
X84511235Y-147813428D01*
X84517196Y-147837227D01*
X84520796Y-147861495D01*
X84522000Y-147885999D01*
X84522000Y-148786001D01*
X84520796Y-148810505D01*
X84517196Y-148834773D01*
X84511235Y-148858572D01*
X84502970Y-148881671D01*
X84492480Y-148903850D01*
X84479868Y-148924893D01*
X84465253Y-148944599D01*
X84448777Y-148962777D01*
X84430599Y-148979253D01*
X84410893Y-148993868D01*
X84389850Y-149006480D01*
X84367671Y-149016970D01*
X84344572Y-149025235D01*
X84320773Y-149031196D01*
X84296505Y-149034796D01*
X84272001Y-149036000D01*
X83621999Y-149036000D01*
X83597495Y-149034796D01*
X83573227Y-149031196D01*
X83549428Y-149025235D01*
X83526329Y-149016970D01*
X83504150Y-149006480D01*
X83483107Y-148993868D01*
X83463401Y-148979253D01*
X83445223Y-148962777D01*
X83428747Y-148944599D01*
X83414132Y-148924893D01*
X83401520Y-148903850D01*
X83391030Y-148881671D01*
X83382765Y-148858572D01*
X83376804Y-148834773D01*
X83373204Y-148810505D01*
X83372000Y-148786001D01*
X83372000Y-147885999D01*
X83373204Y-147861495D01*
X83376804Y-147837227D01*
X83382765Y-147813428D01*
X83391030Y-147790329D01*
X83401520Y-147768150D01*
X83414132Y-147747107D01*
X83428747Y-147727401D01*
X83445223Y-147709223D01*
X83463401Y-147692747D01*
X83483107Y-147678132D01*
X83504150Y-147665520D01*
X83526329Y-147655030D01*
X83549428Y-147646765D01*
X83573227Y-147640804D01*
X83597495Y-147637204D01*
X83621999Y-147636000D01*
X84272001Y-147636000D01*
X84296505Y-147637204D01*
X84296505Y-147637204D01*
G37*
D20*
G04 #@! TD*
G04 #@! TO.P,R21,1*
G04 #@! TO.N,Net-(R19-Pad1)*
X83947000Y-148336000D03*
D10*
G04 #@! TO.N,Net-(R20-Pad1)*
G04 #@! TO.C,R22*
G36*
X81865505Y-139001204D02*
X81889773Y-139004804D01*
X81913572Y-139010765D01*
X81936671Y-139019030D01*
X81958850Y-139029520D01*
X81979893Y-139042132D01*
X81999599Y-139056747D01*
X82017777Y-139073223D01*
X82034253Y-139091401D01*
X82048868Y-139111107D01*
X82061480Y-139132150D01*
X82071970Y-139154329D01*
X82080235Y-139177428D01*
X82086196Y-139201227D01*
X82089796Y-139225495D01*
X82091000Y-139249999D01*
X82091000Y-140150001D01*
X82089796Y-140174505D01*
X82086196Y-140198773D01*
X82080235Y-140222572D01*
X82071970Y-140245671D01*
X82061480Y-140267850D01*
X82048868Y-140288893D01*
X82034253Y-140308599D01*
X82017777Y-140326777D01*
X81999599Y-140343253D01*
X81979893Y-140357868D01*
X81958850Y-140370480D01*
X81936671Y-140380970D01*
X81913572Y-140389235D01*
X81889773Y-140395196D01*
X81865505Y-140398796D01*
X81841001Y-140400000D01*
X81190999Y-140400000D01*
X81166495Y-140398796D01*
X81142227Y-140395196D01*
X81118428Y-140389235D01*
X81095329Y-140380970D01*
X81073150Y-140370480D01*
X81052107Y-140357868D01*
X81032401Y-140343253D01*
X81014223Y-140326777D01*
X80997747Y-140308599D01*
X80983132Y-140288893D01*
X80970520Y-140267850D01*
X80960030Y-140245671D01*
X80951765Y-140222572D01*
X80945804Y-140198773D01*
X80942204Y-140174505D01*
X80941000Y-140150001D01*
X80941000Y-139249999D01*
X80942204Y-139225495D01*
X80945804Y-139201227D01*
X80951765Y-139177428D01*
X80960030Y-139154329D01*
X80970520Y-139132150D01*
X80983132Y-139111107D01*
X80997747Y-139091401D01*
X81014223Y-139073223D01*
X81032401Y-139056747D01*
X81052107Y-139042132D01*
X81073150Y-139029520D01*
X81095329Y-139019030D01*
X81118428Y-139010765D01*
X81142227Y-139004804D01*
X81166495Y-139001204D01*
X81190999Y-139000000D01*
X81841001Y-139000000D01*
X81865505Y-139001204D01*
X81865505Y-139001204D01*
G37*
D20*
G04 #@! TD*
G04 #@! TO.P,R22,2*
G04 #@! TO.N,Net-(R20-Pad1)*
X81516000Y-139700000D03*
D10*
G04 #@! TO.N,+5V*
G04 #@! TO.C,R22*
G36*
X83915505Y-139001204D02*
X83939773Y-139004804D01*
X83963572Y-139010765D01*
X83986671Y-139019030D01*
X84008850Y-139029520D01*
X84029893Y-139042132D01*
X84049599Y-139056747D01*
X84067777Y-139073223D01*
X84084253Y-139091401D01*
X84098868Y-139111107D01*
X84111480Y-139132150D01*
X84121970Y-139154329D01*
X84130235Y-139177428D01*
X84136196Y-139201227D01*
X84139796Y-139225495D01*
X84141000Y-139249999D01*
X84141000Y-140150001D01*
X84139796Y-140174505D01*
X84136196Y-140198773D01*
X84130235Y-140222572D01*
X84121970Y-140245671D01*
X84111480Y-140267850D01*
X84098868Y-140288893D01*
X84084253Y-140308599D01*
X84067777Y-140326777D01*
X84049599Y-140343253D01*
X84029893Y-140357868D01*
X84008850Y-140370480D01*
X83986671Y-140380970D01*
X83963572Y-140389235D01*
X83939773Y-140395196D01*
X83915505Y-140398796D01*
X83891001Y-140400000D01*
X83240999Y-140400000D01*
X83216495Y-140398796D01*
X83192227Y-140395196D01*
X83168428Y-140389235D01*
X83145329Y-140380970D01*
X83123150Y-140370480D01*
X83102107Y-140357868D01*
X83082401Y-140343253D01*
X83064223Y-140326777D01*
X83047747Y-140308599D01*
X83033132Y-140288893D01*
X83020520Y-140267850D01*
X83010030Y-140245671D01*
X83001765Y-140222572D01*
X82995804Y-140198773D01*
X82992204Y-140174505D01*
X82991000Y-140150001D01*
X82991000Y-139249999D01*
X82992204Y-139225495D01*
X82995804Y-139201227D01*
X83001765Y-139177428D01*
X83010030Y-139154329D01*
X83020520Y-139132150D01*
X83033132Y-139111107D01*
X83047747Y-139091401D01*
X83064223Y-139073223D01*
X83082401Y-139056747D01*
X83102107Y-139042132D01*
X83123150Y-139029520D01*
X83145329Y-139019030D01*
X83168428Y-139010765D01*
X83192227Y-139004804D01*
X83216495Y-139001204D01*
X83240999Y-139000000D01*
X83891001Y-139000000D01*
X83915505Y-139001204D01*
X83915505Y-139001204D01*
G37*
D20*
G04 #@! TD*
G04 #@! TO.P,R22,1*
G04 #@! TO.N,+5V*
X83566000Y-139700000D03*
D10*
G04 #@! TO.N,Net-(J1-Pad5)*
G04 #@! TO.C,R24*
G36*
X90882505Y-154876204D02*
X90906773Y-154879804D01*
X90930572Y-154885765D01*
X90953671Y-154894030D01*
X90975850Y-154904520D01*
X90996893Y-154917132D01*
X91016599Y-154931747D01*
X91034777Y-154948223D01*
X91051253Y-154966401D01*
X91065868Y-154986107D01*
X91078480Y-155007150D01*
X91088970Y-155029329D01*
X91097235Y-155052428D01*
X91103196Y-155076227D01*
X91106796Y-155100495D01*
X91108000Y-155124999D01*
X91108000Y-156025001D01*
X91106796Y-156049505D01*
X91103196Y-156073773D01*
X91097235Y-156097572D01*
X91088970Y-156120671D01*
X91078480Y-156142850D01*
X91065868Y-156163893D01*
X91051253Y-156183599D01*
X91034777Y-156201777D01*
X91016599Y-156218253D01*
X90996893Y-156232868D01*
X90975850Y-156245480D01*
X90953671Y-156255970D01*
X90930572Y-156264235D01*
X90906773Y-156270196D01*
X90882505Y-156273796D01*
X90858001Y-156275000D01*
X90207999Y-156275000D01*
X90183495Y-156273796D01*
X90159227Y-156270196D01*
X90135428Y-156264235D01*
X90112329Y-156255970D01*
X90090150Y-156245480D01*
X90069107Y-156232868D01*
X90049401Y-156218253D01*
X90031223Y-156201777D01*
X90014747Y-156183599D01*
X90000132Y-156163893D01*
X89987520Y-156142850D01*
X89977030Y-156120671D01*
X89968765Y-156097572D01*
X89962804Y-156073773D01*
X89959204Y-156049505D01*
X89958000Y-156025001D01*
X89958000Y-155124999D01*
X89959204Y-155100495D01*
X89962804Y-155076227D01*
X89968765Y-155052428D01*
X89977030Y-155029329D01*
X89987520Y-155007150D01*
X90000132Y-154986107D01*
X90014747Y-154966401D01*
X90031223Y-154948223D01*
X90049401Y-154931747D01*
X90069107Y-154917132D01*
X90090150Y-154904520D01*
X90112329Y-154894030D01*
X90135428Y-154885765D01*
X90159227Y-154879804D01*
X90183495Y-154876204D01*
X90207999Y-154875000D01*
X90858001Y-154875000D01*
X90882505Y-154876204D01*
X90882505Y-154876204D01*
G37*
D20*
G04 #@! TD*
G04 #@! TO.P,R24,2*
G04 #@! TO.N,Net-(J1-Pad5)*
X90533000Y-155575000D03*
D10*
G04 #@! TO.N,GND*
G04 #@! TO.C,R24*
G36*
X92932505Y-154876204D02*
X92956773Y-154879804D01*
X92980572Y-154885765D01*
X93003671Y-154894030D01*
X93025850Y-154904520D01*
X93046893Y-154917132D01*
X93066599Y-154931747D01*
X93084777Y-154948223D01*
X93101253Y-154966401D01*
X93115868Y-154986107D01*
X93128480Y-155007150D01*
X93138970Y-155029329D01*
X93147235Y-155052428D01*
X93153196Y-155076227D01*
X93156796Y-155100495D01*
X93158000Y-155124999D01*
X93158000Y-156025001D01*
X93156796Y-156049505D01*
X93153196Y-156073773D01*
X93147235Y-156097572D01*
X93138970Y-156120671D01*
X93128480Y-156142850D01*
X93115868Y-156163893D01*
X93101253Y-156183599D01*
X93084777Y-156201777D01*
X93066599Y-156218253D01*
X93046893Y-156232868D01*
X93025850Y-156245480D01*
X93003671Y-156255970D01*
X92980572Y-156264235D01*
X92956773Y-156270196D01*
X92932505Y-156273796D01*
X92908001Y-156275000D01*
X92257999Y-156275000D01*
X92233495Y-156273796D01*
X92209227Y-156270196D01*
X92185428Y-156264235D01*
X92162329Y-156255970D01*
X92140150Y-156245480D01*
X92119107Y-156232868D01*
X92099401Y-156218253D01*
X92081223Y-156201777D01*
X92064747Y-156183599D01*
X92050132Y-156163893D01*
X92037520Y-156142850D01*
X92027030Y-156120671D01*
X92018765Y-156097572D01*
X92012804Y-156073773D01*
X92009204Y-156049505D01*
X92008000Y-156025001D01*
X92008000Y-155124999D01*
X92009204Y-155100495D01*
X92012804Y-155076227D01*
X92018765Y-155052428D01*
X92027030Y-155029329D01*
X92037520Y-155007150D01*
X92050132Y-154986107D01*
X92064747Y-154966401D01*
X92081223Y-154948223D01*
X92099401Y-154931747D01*
X92119107Y-154917132D01*
X92140150Y-154904520D01*
X92162329Y-154894030D01*
X92185428Y-154885765D01*
X92209227Y-154879804D01*
X92233495Y-154876204D01*
X92257999Y-154875000D01*
X92908001Y-154875000D01*
X92932505Y-154876204D01*
X92932505Y-154876204D01*
G37*
D20*
G04 #@! TD*
G04 #@! TO.P,R24,1*
G04 #@! TO.N,GND*
X92583000Y-155575000D03*
D10*
G04 #@! TO.N,D7_PJON_SWBB*
G04 #@! TO.C,R25*
G36*
X92932505Y-151447204D02*
X92956773Y-151450804D01*
X92980572Y-151456765D01*
X93003671Y-151465030D01*
X93025850Y-151475520D01*
X93046893Y-151488132D01*
X93066599Y-151502747D01*
X93084777Y-151519223D01*
X93101253Y-151537401D01*
X93115868Y-151557107D01*
X93128480Y-151578150D01*
X93138970Y-151600329D01*
X93147235Y-151623428D01*
X93153196Y-151647227D01*
X93156796Y-151671495D01*
X93158000Y-151695999D01*
X93158000Y-152596001D01*
X93156796Y-152620505D01*
X93153196Y-152644773D01*
X93147235Y-152668572D01*
X93138970Y-152691671D01*
X93128480Y-152713850D01*
X93115868Y-152734893D01*
X93101253Y-152754599D01*
X93084777Y-152772777D01*
X93066599Y-152789253D01*
X93046893Y-152803868D01*
X93025850Y-152816480D01*
X93003671Y-152826970D01*
X92980572Y-152835235D01*
X92956773Y-152841196D01*
X92932505Y-152844796D01*
X92908001Y-152846000D01*
X92257999Y-152846000D01*
X92233495Y-152844796D01*
X92209227Y-152841196D01*
X92185428Y-152835235D01*
X92162329Y-152826970D01*
X92140150Y-152816480D01*
X92119107Y-152803868D01*
X92099401Y-152789253D01*
X92081223Y-152772777D01*
X92064747Y-152754599D01*
X92050132Y-152734893D01*
X92037520Y-152713850D01*
X92027030Y-152691671D01*
X92018765Y-152668572D01*
X92012804Y-152644773D01*
X92009204Y-152620505D01*
X92008000Y-152596001D01*
X92008000Y-151695999D01*
X92009204Y-151671495D01*
X92012804Y-151647227D01*
X92018765Y-151623428D01*
X92027030Y-151600329D01*
X92037520Y-151578150D01*
X92050132Y-151557107D01*
X92064747Y-151537401D01*
X92081223Y-151519223D01*
X92099401Y-151502747D01*
X92119107Y-151488132D01*
X92140150Y-151475520D01*
X92162329Y-151465030D01*
X92185428Y-151456765D01*
X92209227Y-151450804D01*
X92233495Y-151447204D01*
X92257999Y-151446000D01*
X92908001Y-151446000D01*
X92932505Y-151447204D01*
X92932505Y-151447204D01*
G37*
D20*
G04 #@! TD*
G04 #@! TO.P,R25,2*
G04 #@! TO.N,D7_PJON_SWBB*
X92583000Y-152146000D03*
D10*
G04 #@! TO.N,Net-(J1-Pad5)*
G04 #@! TO.C,R25*
G36*
X90882505Y-151447204D02*
X90906773Y-151450804D01*
X90930572Y-151456765D01*
X90953671Y-151465030D01*
X90975850Y-151475520D01*
X90996893Y-151488132D01*
X91016599Y-151502747D01*
X91034777Y-151519223D01*
X91051253Y-151537401D01*
X91065868Y-151557107D01*
X91078480Y-151578150D01*
X91088970Y-151600329D01*
X91097235Y-151623428D01*
X91103196Y-151647227D01*
X91106796Y-151671495D01*
X91108000Y-151695999D01*
X91108000Y-152596001D01*
X91106796Y-152620505D01*
X91103196Y-152644773D01*
X91097235Y-152668572D01*
X91088970Y-152691671D01*
X91078480Y-152713850D01*
X91065868Y-152734893D01*
X91051253Y-152754599D01*
X91034777Y-152772777D01*
X91016599Y-152789253D01*
X90996893Y-152803868D01*
X90975850Y-152816480D01*
X90953671Y-152826970D01*
X90930572Y-152835235D01*
X90906773Y-152841196D01*
X90882505Y-152844796D01*
X90858001Y-152846000D01*
X90207999Y-152846000D01*
X90183495Y-152844796D01*
X90159227Y-152841196D01*
X90135428Y-152835235D01*
X90112329Y-152826970D01*
X90090150Y-152816480D01*
X90069107Y-152803868D01*
X90049401Y-152789253D01*
X90031223Y-152772777D01*
X90014747Y-152754599D01*
X90000132Y-152734893D01*
X89987520Y-152713850D01*
X89977030Y-152691671D01*
X89968765Y-152668572D01*
X89962804Y-152644773D01*
X89959204Y-152620505D01*
X89958000Y-152596001D01*
X89958000Y-151695999D01*
X89959204Y-151671495D01*
X89962804Y-151647227D01*
X89968765Y-151623428D01*
X89977030Y-151600329D01*
X89987520Y-151578150D01*
X90000132Y-151557107D01*
X90014747Y-151537401D01*
X90031223Y-151519223D01*
X90049401Y-151502747D01*
X90069107Y-151488132D01*
X90090150Y-151475520D01*
X90112329Y-151465030D01*
X90135428Y-151456765D01*
X90159227Y-151450804D01*
X90183495Y-151447204D01*
X90207999Y-151446000D01*
X90858001Y-151446000D01*
X90882505Y-151447204D01*
X90882505Y-151447204D01*
G37*
D20*
G04 #@! TD*
G04 #@! TO.P,R25,1*
G04 #@! TO.N,Net-(J1-Pad5)*
X90533000Y-152146000D03*
D10*
G04 #@! TO.N,Net-(J1-Pad7)*
G04 #@! TO.C,R20*
G36*
X76379004Y-143525204D02*
X76403273Y-143528804D01*
X76427071Y-143534765D01*
X76450171Y-143543030D01*
X76472349Y-143553520D01*
X76493393Y-143566133D01*
X76513098Y-143580747D01*
X76531277Y-143597223D01*
X76547753Y-143615402D01*
X76562367Y-143635107D01*
X76574980Y-143656151D01*
X76585470Y-143678329D01*
X76593735Y-143701429D01*
X76599696Y-143725227D01*
X76603296Y-143749496D01*
X76604500Y-143774000D01*
X76604500Y-145024000D01*
X76603296Y-145048504D01*
X76599696Y-145072773D01*
X76593735Y-145096571D01*
X76585470Y-145119671D01*
X76574980Y-145141849D01*
X76562367Y-145162893D01*
X76547753Y-145182598D01*
X76531277Y-145200777D01*
X76513098Y-145217253D01*
X76493393Y-145231867D01*
X76472349Y-145244480D01*
X76450171Y-145254970D01*
X76427071Y-145263235D01*
X76403273Y-145269196D01*
X76379004Y-145272796D01*
X76354500Y-145274000D01*
X75429500Y-145274000D01*
X75404996Y-145272796D01*
X75380727Y-145269196D01*
X75356929Y-145263235D01*
X75333829Y-145254970D01*
X75311651Y-145244480D01*
X75290607Y-145231867D01*
X75270902Y-145217253D01*
X75252723Y-145200777D01*
X75236247Y-145182598D01*
X75221633Y-145162893D01*
X75209020Y-145141849D01*
X75198530Y-145119671D01*
X75190265Y-145096571D01*
X75184304Y-145072773D01*
X75180704Y-145048504D01*
X75179500Y-145024000D01*
X75179500Y-143774000D01*
X75180704Y-143749496D01*
X75184304Y-143725227D01*
X75190265Y-143701429D01*
X75198530Y-143678329D01*
X75209020Y-143656151D01*
X75221633Y-143635107D01*
X75236247Y-143615402D01*
X75252723Y-143597223D01*
X75270902Y-143580747D01*
X75290607Y-143566133D01*
X75311651Y-143553520D01*
X75333829Y-143543030D01*
X75356929Y-143534765D01*
X75380727Y-143528804D01*
X75404996Y-143525204D01*
X75429500Y-143524000D01*
X76354500Y-143524000D01*
X76379004Y-143525204D01*
X76379004Y-143525204D01*
G37*
D19*
G04 #@! TD*
G04 #@! TO.P,R20,2*
G04 #@! TO.N,Net-(J1-Pad7)*
X75892000Y-144399000D03*
D10*
G04 #@! TO.N,Net-(R20-Pad1)*
G04 #@! TO.C,R20*
G36*
X79354004Y-143525204D02*
X79378273Y-143528804D01*
X79402071Y-143534765D01*
X79425171Y-143543030D01*
X79447349Y-143553520D01*
X79468393Y-143566133D01*
X79488098Y-143580747D01*
X79506277Y-143597223D01*
X79522753Y-143615402D01*
X79537367Y-143635107D01*
X79549980Y-143656151D01*
X79560470Y-143678329D01*
X79568735Y-143701429D01*
X79574696Y-143725227D01*
X79578296Y-143749496D01*
X79579500Y-143774000D01*
X79579500Y-145024000D01*
X79578296Y-145048504D01*
X79574696Y-145072773D01*
X79568735Y-145096571D01*
X79560470Y-145119671D01*
X79549980Y-145141849D01*
X79537367Y-145162893D01*
X79522753Y-145182598D01*
X79506277Y-145200777D01*
X79488098Y-145217253D01*
X79468393Y-145231867D01*
X79447349Y-145244480D01*
X79425171Y-145254970D01*
X79402071Y-145263235D01*
X79378273Y-145269196D01*
X79354004Y-145272796D01*
X79329500Y-145274000D01*
X78404500Y-145274000D01*
X78379996Y-145272796D01*
X78355727Y-145269196D01*
X78331929Y-145263235D01*
X78308829Y-145254970D01*
X78286651Y-145244480D01*
X78265607Y-145231867D01*
X78245902Y-145217253D01*
X78227723Y-145200777D01*
X78211247Y-145182598D01*
X78196633Y-145162893D01*
X78184020Y-145141849D01*
X78173530Y-145119671D01*
X78165265Y-145096571D01*
X78159304Y-145072773D01*
X78155704Y-145048504D01*
X78154500Y-145024000D01*
X78154500Y-143774000D01*
X78155704Y-143749496D01*
X78159304Y-143725227D01*
X78165265Y-143701429D01*
X78173530Y-143678329D01*
X78184020Y-143656151D01*
X78196633Y-143635107D01*
X78211247Y-143615402D01*
X78227723Y-143597223D01*
X78245902Y-143580747D01*
X78265607Y-143566133D01*
X78286651Y-143553520D01*
X78308829Y-143543030D01*
X78331929Y-143534765D01*
X78355727Y-143528804D01*
X78379996Y-143525204D01*
X78404500Y-143524000D01*
X79329500Y-143524000D01*
X79354004Y-143525204D01*
X79354004Y-143525204D01*
G37*
D19*
G04 #@! TD*
G04 #@! TO.P,R20,1*
G04 #@! TO.N,Net-(R20-Pad1)*
X78867000Y-144399000D03*
D10*
G04 #@! TO.N,Net-(J1-Pad8)*
G04 #@! TO.C,R23*
G36*
X73801504Y-140803204D02*
X73825773Y-140806804D01*
X73849571Y-140812765D01*
X73872671Y-140821030D01*
X73894849Y-140831520D01*
X73915893Y-140844133D01*
X73935598Y-140858747D01*
X73953777Y-140875223D01*
X73970253Y-140893402D01*
X73984867Y-140913107D01*
X73997480Y-140934151D01*
X74007970Y-140956329D01*
X74016235Y-140979429D01*
X74022196Y-141003227D01*
X74025796Y-141027496D01*
X74027000Y-141052000D01*
X74027000Y-141977000D01*
X74025796Y-142001504D01*
X74022196Y-142025773D01*
X74016235Y-142049571D01*
X74007970Y-142072671D01*
X73997480Y-142094849D01*
X73984867Y-142115893D01*
X73970253Y-142135598D01*
X73953777Y-142153777D01*
X73935598Y-142170253D01*
X73915893Y-142184867D01*
X73894849Y-142197480D01*
X73872671Y-142207970D01*
X73849571Y-142216235D01*
X73825773Y-142222196D01*
X73801504Y-142225796D01*
X73777000Y-142227000D01*
X72527000Y-142227000D01*
X72502496Y-142225796D01*
X72478227Y-142222196D01*
X72454429Y-142216235D01*
X72431329Y-142207970D01*
X72409151Y-142197480D01*
X72388107Y-142184867D01*
X72368402Y-142170253D01*
X72350223Y-142153777D01*
X72333747Y-142135598D01*
X72319133Y-142115893D01*
X72306520Y-142094849D01*
X72296030Y-142072671D01*
X72287765Y-142049571D01*
X72281804Y-142025773D01*
X72278204Y-142001504D01*
X72277000Y-141977000D01*
X72277000Y-141052000D01*
X72278204Y-141027496D01*
X72281804Y-141003227D01*
X72287765Y-140979429D01*
X72296030Y-140956329D01*
X72306520Y-140934151D01*
X72319133Y-140913107D01*
X72333747Y-140893402D01*
X72350223Y-140875223D01*
X72368402Y-140858747D01*
X72388107Y-140844133D01*
X72409151Y-140831520D01*
X72431329Y-140821030D01*
X72454429Y-140812765D01*
X72478227Y-140806804D01*
X72502496Y-140803204D01*
X72527000Y-140802000D01*
X73777000Y-140802000D01*
X73801504Y-140803204D01*
X73801504Y-140803204D01*
G37*
D19*
G04 #@! TD*
G04 #@! TO.P,R23,2*
G04 #@! TO.N,Net-(J1-Pad8)*
X73152000Y-141514500D03*
D10*
G04 #@! TO.N,Net-(J1-Pad7)*
G04 #@! TO.C,R23*
G36*
X73801504Y-143778204D02*
X73825773Y-143781804D01*
X73849571Y-143787765D01*
X73872671Y-143796030D01*
X73894849Y-143806520D01*
X73915893Y-143819133D01*
X73935598Y-143833747D01*
X73953777Y-143850223D01*
X73970253Y-143868402D01*
X73984867Y-143888107D01*
X73997480Y-143909151D01*
X74007970Y-143931329D01*
X74016235Y-143954429D01*
X74022196Y-143978227D01*
X74025796Y-144002496D01*
X74027000Y-144027000D01*
X74027000Y-144952000D01*
X74025796Y-144976504D01*
X74022196Y-145000773D01*
X74016235Y-145024571D01*
X74007970Y-145047671D01*
X73997480Y-145069849D01*
X73984867Y-145090893D01*
X73970253Y-145110598D01*
X73953777Y-145128777D01*
X73935598Y-145145253D01*
X73915893Y-145159867D01*
X73894849Y-145172480D01*
X73872671Y-145182970D01*
X73849571Y-145191235D01*
X73825773Y-145197196D01*
X73801504Y-145200796D01*
X73777000Y-145202000D01*
X72527000Y-145202000D01*
X72502496Y-145200796D01*
X72478227Y-145197196D01*
X72454429Y-145191235D01*
X72431329Y-145182970D01*
X72409151Y-145172480D01*
X72388107Y-145159867D01*
X72368402Y-145145253D01*
X72350223Y-145128777D01*
X72333747Y-145110598D01*
X72319133Y-145090893D01*
X72306520Y-145069849D01*
X72296030Y-145047671D01*
X72287765Y-145024571D01*
X72281804Y-145000773D01*
X72278204Y-144976504D01*
X72277000Y-144952000D01*
X72277000Y-144027000D01*
X72278204Y-144002496D01*
X72281804Y-143978227D01*
X72287765Y-143954429D01*
X72296030Y-143931329D01*
X72306520Y-143909151D01*
X72319133Y-143888107D01*
X72333747Y-143868402D01*
X72350223Y-143850223D01*
X72368402Y-143833747D01*
X72388107Y-143819133D01*
X72409151Y-143806520D01*
X72431329Y-143796030D01*
X72454429Y-143787765D01*
X72478227Y-143781804D01*
X72502496Y-143778204D01*
X72527000Y-143777000D01*
X73777000Y-143777000D01*
X73801504Y-143778204D01*
X73801504Y-143778204D01*
G37*
D19*
G04 #@! TD*
G04 #@! TO.P,R23,1*
G04 #@! TO.N,Net-(J1-Pad7)*
X73152000Y-144489500D03*
D10*
G04 #@! TO.N,Net-(J1-Pad8)*
G04 #@! TO.C,R19*
G36*
X76433004Y-140477204D02*
X76457273Y-140480804D01*
X76481071Y-140486765D01*
X76504171Y-140495030D01*
X76526349Y-140505520D01*
X76547393Y-140518133D01*
X76567098Y-140532747D01*
X76585277Y-140549223D01*
X76601753Y-140567402D01*
X76616367Y-140587107D01*
X76628980Y-140608151D01*
X76639470Y-140630329D01*
X76647735Y-140653429D01*
X76653696Y-140677227D01*
X76657296Y-140701496D01*
X76658500Y-140726000D01*
X76658500Y-141976000D01*
X76657296Y-142000504D01*
X76653696Y-142024773D01*
X76647735Y-142048571D01*
X76639470Y-142071671D01*
X76628980Y-142093849D01*
X76616367Y-142114893D01*
X76601753Y-142134598D01*
X76585277Y-142152777D01*
X76567098Y-142169253D01*
X76547393Y-142183867D01*
X76526349Y-142196480D01*
X76504171Y-142206970D01*
X76481071Y-142215235D01*
X76457273Y-142221196D01*
X76433004Y-142224796D01*
X76408500Y-142226000D01*
X75483500Y-142226000D01*
X75458996Y-142224796D01*
X75434727Y-142221196D01*
X75410929Y-142215235D01*
X75387829Y-142206970D01*
X75365651Y-142196480D01*
X75344607Y-142183867D01*
X75324902Y-142169253D01*
X75306723Y-142152777D01*
X75290247Y-142134598D01*
X75275633Y-142114893D01*
X75263020Y-142093849D01*
X75252530Y-142071671D01*
X75244265Y-142048571D01*
X75238304Y-142024773D01*
X75234704Y-142000504D01*
X75233500Y-141976000D01*
X75233500Y-140726000D01*
X75234704Y-140701496D01*
X75238304Y-140677227D01*
X75244265Y-140653429D01*
X75252530Y-140630329D01*
X75263020Y-140608151D01*
X75275633Y-140587107D01*
X75290247Y-140567402D01*
X75306723Y-140549223D01*
X75324902Y-140532747D01*
X75344607Y-140518133D01*
X75365651Y-140505520D01*
X75387829Y-140495030D01*
X75410929Y-140486765D01*
X75434727Y-140480804D01*
X75458996Y-140477204D01*
X75483500Y-140476000D01*
X76408500Y-140476000D01*
X76433004Y-140477204D01*
X76433004Y-140477204D01*
G37*
D19*
G04 #@! TD*
G04 #@! TO.P,R19,2*
G04 #@! TO.N,Net-(J1-Pad8)*
X75946000Y-141351000D03*
D10*
G04 #@! TO.N,Net-(R19-Pad1)*
G04 #@! TO.C,R19*
G36*
X79408004Y-140477204D02*
X79432273Y-140480804D01*
X79456071Y-140486765D01*
X79479171Y-140495030D01*
X79501349Y-140505520D01*
X79522393Y-140518133D01*
X79542098Y-140532747D01*
X79560277Y-140549223D01*
X79576753Y-140567402D01*
X79591367Y-140587107D01*
X79603980Y-140608151D01*
X79614470Y-140630329D01*
X79622735Y-140653429D01*
X79628696Y-140677227D01*
X79632296Y-140701496D01*
X79633500Y-140726000D01*
X79633500Y-141976000D01*
X79632296Y-142000504D01*
X79628696Y-142024773D01*
X79622735Y-142048571D01*
X79614470Y-142071671D01*
X79603980Y-142093849D01*
X79591367Y-142114893D01*
X79576753Y-142134598D01*
X79560277Y-142152777D01*
X79542098Y-142169253D01*
X79522393Y-142183867D01*
X79501349Y-142196480D01*
X79479171Y-142206970D01*
X79456071Y-142215235D01*
X79432273Y-142221196D01*
X79408004Y-142224796D01*
X79383500Y-142226000D01*
X78458500Y-142226000D01*
X78433996Y-142224796D01*
X78409727Y-142221196D01*
X78385929Y-142215235D01*
X78362829Y-142206970D01*
X78340651Y-142196480D01*
X78319607Y-142183867D01*
X78299902Y-142169253D01*
X78281723Y-142152777D01*
X78265247Y-142134598D01*
X78250633Y-142114893D01*
X78238020Y-142093849D01*
X78227530Y-142071671D01*
X78219265Y-142048571D01*
X78213304Y-142024773D01*
X78209704Y-142000504D01*
X78208500Y-141976000D01*
X78208500Y-140726000D01*
X78209704Y-140701496D01*
X78213304Y-140677227D01*
X78219265Y-140653429D01*
X78227530Y-140630329D01*
X78238020Y-140608151D01*
X78250633Y-140587107D01*
X78265247Y-140567402D01*
X78281723Y-140549223D01*
X78299902Y-140532747D01*
X78319607Y-140518133D01*
X78340651Y-140505520D01*
X78362829Y-140495030D01*
X78385929Y-140486765D01*
X78409727Y-140480804D01*
X78433996Y-140477204D01*
X78458500Y-140476000D01*
X79383500Y-140476000D01*
X79408004Y-140477204D01*
X79408004Y-140477204D01*
G37*
D19*
G04 #@! TD*
G04 #@! TO.P,R19,1*
G04 #@! TO.N,Net-(R19-Pad1)*
X78921000Y-141351000D03*
D10*
G04 #@! TO.N,GND*
G04 #@! TO.C,C9*
G36*
X101359142Y-139636174D02*
X101382803Y-139639684D01*
X101406007Y-139645496D01*
X101428529Y-139653554D01*
X101450153Y-139663782D01*
X101470670Y-139676079D01*
X101489883Y-139690329D01*
X101507607Y-139706393D01*
X101523671Y-139724117D01*
X101537921Y-139743330D01*
X101550218Y-139763847D01*
X101560446Y-139785471D01*
X101568504Y-139807993D01*
X101574316Y-139831197D01*
X101577826Y-139854858D01*
X101579000Y-139878750D01*
X101579000Y-140791250D01*
X101577826Y-140815142D01*
X101574316Y-140838803D01*
X101568504Y-140862007D01*
X101560446Y-140884529D01*
X101550218Y-140906153D01*
X101537921Y-140926670D01*
X101523671Y-140945883D01*
X101507607Y-140963607D01*
X101489883Y-140979671D01*
X101470670Y-140993921D01*
X101450153Y-141006218D01*
X101428529Y-141016446D01*
X101406007Y-141024504D01*
X101382803Y-141030316D01*
X101359142Y-141033826D01*
X101335250Y-141035000D01*
X100847750Y-141035000D01*
X100823858Y-141033826D01*
X100800197Y-141030316D01*
X100776993Y-141024504D01*
X100754471Y-141016446D01*
X100732847Y-141006218D01*
X100712330Y-140993921D01*
X100693117Y-140979671D01*
X100675393Y-140963607D01*
X100659329Y-140945883D01*
X100645079Y-140926670D01*
X100632782Y-140906153D01*
X100622554Y-140884529D01*
X100614496Y-140862007D01*
X100608684Y-140838803D01*
X100605174Y-140815142D01*
X100604000Y-140791250D01*
X100604000Y-139878750D01*
X100605174Y-139854858D01*
X100608684Y-139831197D01*
X100614496Y-139807993D01*
X100622554Y-139785471D01*
X100632782Y-139763847D01*
X100645079Y-139743330D01*
X100659329Y-139724117D01*
X100675393Y-139706393D01*
X100693117Y-139690329D01*
X100712330Y-139676079D01*
X100732847Y-139663782D01*
X100754471Y-139653554D01*
X100776993Y-139645496D01*
X100800197Y-139639684D01*
X100823858Y-139636174D01*
X100847750Y-139635000D01*
X101335250Y-139635000D01*
X101359142Y-139636174D01*
X101359142Y-139636174D01*
G37*
D21*
G04 #@! TD*
G04 #@! TO.P,C9,2*
G04 #@! TO.N,GND*
X101091500Y-140335000D03*
D10*
G04 #@! TO.N,+5V*
G04 #@! TO.C,C9*
G36*
X99484142Y-139636174D02*
X99507803Y-139639684D01*
X99531007Y-139645496D01*
X99553529Y-139653554D01*
X99575153Y-139663782D01*
X99595670Y-139676079D01*
X99614883Y-139690329D01*
X99632607Y-139706393D01*
X99648671Y-139724117D01*
X99662921Y-139743330D01*
X99675218Y-139763847D01*
X99685446Y-139785471D01*
X99693504Y-139807993D01*
X99699316Y-139831197D01*
X99702826Y-139854858D01*
X99704000Y-139878750D01*
X99704000Y-140791250D01*
X99702826Y-140815142D01*
X99699316Y-140838803D01*
X99693504Y-140862007D01*
X99685446Y-140884529D01*
X99675218Y-140906153D01*
X99662921Y-140926670D01*
X99648671Y-140945883D01*
X99632607Y-140963607D01*
X99614883Y-140979671D01*
X99595670Y-140993921D01*
X99575153Y-141006218D01*
X99553529Y-141016446D01*
X99531007Y-141024504D01*
X99507803Y-141030316D01*
X99484142Y-141033826D01*
X99460250Y-141035000D01*
X98972750Y-141035000D01*
X98948858Y-141033826D01*
X98925197Y-141030316D01*
X98901993Y-141024504D01*
X98879471Y-141016446D01*
X98857847Y-141006218D01*
X98837330Y-140993921D01*
X98818117Y-140979671D01*
X98800393Y-140963607D01*
X98784329Y-140945883D01*
X98770079Y-140926670D01*
X98757782Y-140906153D01*
X98747554Y-140884529D01*
X98739496Y-140862007D01*
X98733684Y-140838803D01*
X98730174Y-140815142D01*
X98729000Y-140791250D01*
X98729000Y-139878750D01*
X98730174Y-139854858D01*
X98733684Y-139831197D01*
X98739496Y-139807993D01*
X98747554Y-139785471D01*
X98757782Y-139763847D01*
X98770079Y-139743330D01*
X98784329Y-139724117D01*
X98800393Y-139706393D01*
X98818117Y-139690329D01*
X98837330Y-139676079D01*
X98857847Y-139663782D01*
X98879471Y-139653554D01*
X98901993Y-139645496D01*
X98925197Y-139639684D01*
X98948858Y-139636174D01*
X98972750Y-139635000D01*
X99460250Y-139635000D01*
X99484142Y-139636174D01*
X99484142Y-139636174D01*
G37*
D21*
G04 #@! TD*
G04 #@! TO.P,C9,1*
G04 #@! TO.N,+5V*
X99216500Y-140335000D03*
D10*
G04 #@! TO.N,GND*
G04 #@! TO.C,C10*
G36*
X101445142Y-141880174D02*
X101468803Y-141883684D01*
X101492007Y-141889496D01*
X101514529Y-141897554D01*
X101536153Y-141907782D01*
X101556670Y-141920079D01*
X101575883Y-141934329D01*
X101593607Y-141950393D01*
X101609671Y-141968117D01*
X101623921Y-141987330D01*
X101636218Y-142007847D01*
X101646446Y-142029471D01*
X101654504Y-142051993D01*
X101660316Y-142075197D01*
X101663826Y-142098858D01*
X101665000Y-142122750D01*
X101665000Y-142610250D01*
X101663826Y-142634142D01*
X101660316Y-142657803D01*
X101654504Y-142681007D01*
X101646446Y-142703529D01*
X101636218Y-142725153D01*
X101623921Y-142745670D01*
X101609671Y-142764883D01*
X101593607Y-142782607D01*
X101575883Y-142798671D01*
X101556670Y-142812921D01*
X101536153Y-142825218D01*
X101514529Y-142835446D01*
X101492007Y-142843504D01*
X101468803Y-142849316D01*
X101445142Y-142852826D01*
X101421250Y-142854000D01*
X100508750Y-142854000D01*
X100484858Y-142852826D01*
X100461197Y-142849316D01*
X100437993Y-142843504D01*
X100415471Y-142835446D01*
X100393847Y-142825218D01*
X100373330Y-142812921D01*
X100354117Y-142798671D01*
X100336393Y-142782607D01*
X100320329Y-142764883D01*
X100306079Y-142745670D01*
X100293782Y-142725153D01*
X100283554Y-142703529D01*
X100275496Y-142681007D01*
X100269684Y-142657803D01*
X100266174Y-142634142D01*
X100265000Y-142610250D01*
X100265000Y-142122750D01*
X100266174Y-142098858D01*
X100269684Y-142075197D01*
X100275496Y-142051993D01*
X100283554Y-142029471D01*
X100293782Y-142007847D01*
X100306079Y-141987330D01*
X100320329Y-141968117D01*
X100336393Y-141950393D01*
X100354117Y-141934329D01*
X100373330Y-141920079D01*
X100393847Y-141907782D01*
X100415471Y-141897554D01*
X100437993Y-141889496D01*
X100461197Y-141883684D01*
X100484858Y-141880174D01*
X100508750Y-141879000D01*
X101421250Y-141879000D01*
X101445142Y-141880174D01*
X101445142Y-141880174D01*
G37*
D21*
G04 #@! TD*
G04 #@! TO.P,C10,2*
G04 #@! TO.N,GND*
X100965000Y-142366500D03*
D10*
G04 #@! TO.N,Net-(C10-Pad1)*
G04 #@! TO.C,C10*
G36*
X101445142Y-143755174D02*
X101468803Y-143758684D01*
X101492007Y-143764496D01*
X101514529Y-143772554D01*
X101536153Y-143782782D01*
X101556670Y-143795079D01*
X101575883Y-143809329D01*
X101593607Y-143825393D01*
X101609671Y-143843117D01*
X101623921Y-143862330D01*
X101636218Y-143882847D01*
X101646446Y-143904471D01*
X101654504Y-143926993D01*
X101660316Y-143950197D01*
X101663826Y-143973858D01*
X101665000Y-143997750D01*
X101665000Y-144485250D01*
X101663826Y-144509142D01*
X101660316Y-144532803D01*
X101654504Y-144556007D01*
X101646446Y-144578529D01*
X101636218Y-144600153D01*
X101623921Y-144620670D01*
X101609671Y-144639883D01*
X101593607Y-144657607D01*
X101575883Y-144673671D01*
X101556670Y-144687921D01*
X101536153Y-144700218D01*
X101514529Y-144710446D01*
X101492007Y-144718504D01*
X101468803Y-144724316D01*
X101445142Y-144727826D01*
X101421250Y-144729000D01*
X100508750Y-144729000D01*
X100484858Y-144727826D01*
X100461197Y-144724316D01*
X100437993Y-144718504D01*
X100415471Y-144710446D01*
X100393847Y-144700218D01*
X100373330Y-144687921D01*
X100354117Y-144673671D01*
X100336393Y-144657607D01*
X100320329Y-144639883D01*
X100306079Y-144620670D01*
X100293782Y-144600153D01*
X100283554Y-144578529D01*
X100275496Y-144556007D01*
X100269684Y-144532803D01*
X100266174Y-144509142D01*
X100265000Y-144485250D01*
X100265000Y-143997750D01*
X100266174Y-143973858D01*
X100269684Y-143950197D01*
X100275496Y-143926993D01*
X100283554Y-143904471D01*
X100293782Y-143882847D01*
X100306079Y-143862330D01*
X100320329Y-143843117D01*
X100336393Y-143825393D01*
X100354117Y-143809329D01*
X100373330Y-143795079D01*
X100393847Y-143782782D01*
X100415471Y-143772554D01*
X100437993Y-143764496D01*
X100461197Y-143758684D01*
X100484858Y-143755174D01*
X100508750Y-143754000D01*
X101421250Y-143754000D01*
X101445142Y-143755174D01*
X101445142Y-143755174D01*
G37*
D21*
G04 #@! TD*
G04 #@! TO.P,C10,1*
G04 #@! TO.N,Net-(C10-Pad1)*
X100965000Y-144241500D03*
D10*
G04 #@! TO.N,GND*
G04 #@! TO.C,C11*
G36*
X111859142Y-134514174D02*
X111882803Y-134517684D01*
X111906007Y-134523496D01*
X111928529Y-134531554D01*
X111950153Y-134541782D01*
X111970670Y-134554079D01*
X111989883Y-134568329D01*
X112007607Y-134584393D01*
X112023671Y-134602117D01*
X112037921Y-134621330D01*
X112050218Y-134641847D01*
X112060446Y-134663471D01*
X112068504Y-134685993D01*
X112074316Y-134709197D01*
X112077826Y-134732858D01*
X112079000Y-134756750D01*
X112079000Y-135244250D01*
X112077826Y-135268142D01*
X112074316Y-135291803D01*
X112068504Y-135315007D01*
X112060446Y-135337529D01*
X112050218Y-135359153D01*
X112037921Y-135379670D01*
X112023671Y-135398883D01*
X112007607Y-135416607D01*
X111989883Y-135432671D01*
X111970670Y-135446921D01*
X111950153Y-135459218D01*
X111928529Y-135469446D01*
X111906007Y-135477504D01*
X111882803Y-135483316D01*
X111859142Y-135486826D01*
X111835250Y-135488000D01*
X110922750Y-135488000D01*
X110898858Y-135486826D01*
X110875197Y-135483316D01*
X110851993Y-135477504D01*
X110829471Y-135469446D01*
X110807847Y-135459218D01*
X110787330Y-135446921D01*
X110768117Y-135432671D01*
X110750393Y-135416607D01*
X110734329Y-135398883D01*
X110720079Y-135379670D01*
X110707782Y-135359153D01*
X110697554Y-135337529D01*
X110689496Y-135315007D01*
X110683684Y-135291803D01*
X110680174Y-135268142D01*
X110679000Y-135244250D01*
X110679000Y-134756750D01*
X110680174Y-134732858D01*
X110683684Y-134709197D01*
X110689496Y-134685993D01*
X110697554Y-134663471D01*
X110707782Y-134641847D01*
X110720079Y-134621330D01*
X110734329Y-134602117D01*
X110750393Y-134584393D01*
X110768117Y-134568329D01*
X110787330Y-134554079D01*
X110807847Y-134541782D01*
X110829471Y-134531554D01*
X110851993Y-134523496D01*
X110875197Y-134517684D01*
X110898858Y-134514174D01*
X110922750Y-134513000D01*
X111835250Y-134513000D01*
X111859142Y-134514174D01*
X111859142Y-134514174D01*
G37*
D21*
G04 #@! TD*
G04 #@! TO.P,C11,2*
G04 #@! TO.N,GND*
X111379000Y-135000500D03*
D10*
G04 #@! TO.N,Net-(C11-Pad1)*
G04 #@! TO.C,C11*
G36*
X111859142Y-136389174D02*
X111882803Y-136392684D01*
X111906007Y-136398496D01*
X111928529Y-136406554D01*
X111950153Y-136416782D01*
X111970670Y-136429079D01*
X111989883Y-136443329D01*
X112007607Y-136459393D01*
X112023671Y-136477117D01*
X112037921Y-136496330D01*
X112050218Y-136516847D01*
X112060446Y-136538471D01*
X112068504Y-136560993D01*
X112074316Y-136584197D01*
X112077826Y-136607858D01*
X112079000Y-136631750D01*
X112079000Y-137119250D01*
X112077826Y-137143142D01*
X112074316Y-137166803D01*
X112068504Y-137190007D01*
X112060446Y-137212529D01*
X112050218Y-137234153D01*
X112037921Y-137254670D01*
X112023671Y-137273883D01*
X112007607Y-137291607D01*
X111989883Y-137307671D01*
X111970670Y-137321921D01*
X111950153Y-137334218D01*
X111928529Y-137344446D01*
X111906007Y-137352504D01*
X111882803Y-137358316D01*
X111859142Y-137361826D01*
X111835250Y-137363000D01*
X110922750Y-137363000D01*
X110898858Y-137361826D01*
X110875197Y-137358316D01*
X110851993Y-137352504D01*
X110829471Y-137344446D01*
X110807847Y-137334218D01*
X110787330Y-137321921D01*
X110768117Y-137307671D01*
X110750393Y-137291607D01*
X110734329Y-137273883D01*
X110720079Y-137254670D01*
X110707782Y-137234153D01*
X110697554Y-137212529D01*
X110689496Y-137190007D01*
X110683684Y-137166803D01*
X110680174Y-137143142D01*
X110679000Y-137119250D01*
X110679000Y-136631750D01*
X110680174Y-136607858D01*
X110683684Y-136584197D01*
X110689496Y-136560993D01*
X110697554Y-136538471D01*
X110707782Y-136516847D01*
X110720079Y-136496330D01*
X110734329Y-136477117D01*
X110750393Y-136459393D01*
X110768117Y-136443329D01*
X110787330Y-136429079D01*
X110807847Y-136416782D01*
X110829471Y-136406554D01*
X110851993Y-136398496D01*
X110875197Y-136392684D01*
X110898858Y-136389174D01*
X110922750Y-136388000D01*
X111835250Y-136388000D01*
X111859142Y-136389174D01*
X111859142Y-136389174D01*
G37*
D21*
G04 #@! TD*
G04 #@! TO.P,C11,1*
G04 #@! TO.N,Net-(C11-Pad1)*
X111379000Y-136875500D03*
D10*
G04 #@! TO.N,GND*
G04 #@! TO.C,C12*
G36*
X110970142Y-143121174D02*
X110993803Y-143124684D01*
X111017007Y-143130496D01*
X111039529Y-143138554D01*
X111061153Y-143148782D01*
X111081670Y-143161079D01*
X111100883Y-143175329D01*
X111118607Y-143191393D01*
X111134671Y-143209117D01*
X111148921Y-143228330D01*
X111161218Y-143248847D01*
X111171446Y-143270471D01*
X111179504Y-143292993D01*
X111185316Y-143316197D01*
X111188826Y-143339858D01*
X111190000Y-143363750D01*
X111190000Y-143851250D01*
X111188826Y-143875142D01*
X111185316Y-143898803D01*
X111179504Y-143922007D01*
X111171446Y-143944529D01*
X111161218Y-143966153D01*
X111148921Y-143986670D01*
X111134671Y-144005883D01*
X111118607Y-144023607D01*
X111100883Y-144039671D01*
X111081670Y-144053921D01*
X111061153Y-144066218D01*
X111039529Y-144076446D01*
X111017007Y-144084504D01*
X110993803Y-144090316D01*
X110970142Y-144093826D01*
X110946250Y-144095000D01*
X110033750Y-144095000D01*
X110009858Y-144093826D01*
X109986197Y-144090316D01*
X109962993Y-144084504D01*
X109940471Y-144076446D01*
X109918847Y-144066218D01*
X109898330Y-144053921D01*
X109879117Y-144039671D01*
X109861393Y-144023607D01*
X109845329Y-144005883D01*
X109831079Y-143986670D01*
X109818782Y-143966153D01*
X109808554Y-143944529D01*
X109800496Y-143922007D01*
X109794684Y-143898803D01*
X109791174Y-143875142D01*
X109790000Y-143851250D01*
X109790000Y-143363750D01*
X109791174Y-143339858D01*
X109794684Y-143316197D01*
X109800496Y-143292993D01*
X109808554Y-143270471D01*
X109818782Y-143248847D01*
X109831079Y-143228330D01*
X109845329Y-143209117D01*
X109861393Y-143191393D01*
X109879117Y-143175329D01*
X109898330Y-143161079D01*
X109918847Y-143148782D01*
X109940471Y-143138554D01*
X109962993Y-143130496D01*
X109986197Y-143124684D01*
X110009858Y-143121174D01*
X110033750Y-143120000D01*
X110946250Y-143120000D01*
X110970142Y-143121174D01*
X110970142Y-143121174D01*
G37*
D21*
G04 #@! TD*
G04 #@! TO.P,C12,2*
G04 #@! TO.N,GND*
X110490000Y-143607500D03*
D10*
G04 #@! TO.N,Net-(C12-Pad1)*
G04 #@! TO.C,C12*
G36*
X110970142Y-141246174D02*
X110993803Y-141249684D01*
X111017007Y-141255496D01*
X111039529Y-141263554D01*
X111061153Y-141273782D01*
X111081670Y-141286079D01*
X111100883Y-141300329D01*
X111118607Y-141316393D01*
X111134671Y-141334117D01*
X111148921Y-141353330D01*
X111161218Y-141373847D01*
X111171446Y-141395471D01*
X111179504Y-141417993D01*
X111185316Y-141441197D01*
X111188826Y-141464858D01*
X111190000Y-141488750D01*
X111190000Y-141976250D01*
X111188826Y-142000142D01*
X111185316Y-142023803D01*
X111179504Y-142047007D01*
X111171446Y-142069529D01*
X111161218Y-142091153D01*
X111148921Y-142111670D01*
X111134671Y-142130883D01*
X111118607Y-142148607D01*
X111100883Y-142164671D01*
X111081670Y-142178921D01*
X111061153Y-142191218D01*
X111039529Y-142201446D01*
X111017007Y-142209504D01*
X110993803Y-142215316D01*
X110970142Y-142218826D01*
X110946250Y-142220000D01*
X110033750Y-142220000D01*
X110009858Y-142218826D01*
X109986197Y-142215316D01*
X109962993Y-142209504D01*
X109940471Y-142201446D01*
X109918847Y-142191218D01*
X109898330Y-142178921D01*
X109879117Y-142164671D01*
X109861393Y-142148607D01*
X109845329Y-142130883D01*
X109831079Y-142111670D01*
X109818782Y-142091153D01*
X109808554Y-142069529D01*
X109800496Y-142047007D01*
X109794684Y-142023803D01*
X109791174Y-142000142D01*
X109790000Y-141976250D01*
X109790000Y-141488750D01*
X109791174Y-141464858D01*
X109794684Y-141441197D01*
X109800496Y-141417993D01*
X109808554Y-141395471D01*
X109818782Y-141373847D01*
X109831079Y-141353330D01*
X109845329Y-141334117D01*
X109861393Y-141316393D01*
X109879117Y-141300329D01*
X109898330Y-141286079D01*
X109918847Y-141273782D01*
X109940471Y-141263554D01*
X109962993Y-141255496D01*
X109986197Y-141249684D01*
X110009858Y-141246174D01*
X110033750Y-141245000D01*
X110946250Y-141245000D01*
X110970142Y-141246174D01*
X110970142Y-141246174D01*
G37*
D21*
G04 #@! TD*
G04 #@! TO.P,C12,1*
G04 #@! TO.N,Net-(C12-Pad1)*
X110490000Y-141732500D03*
D10*
G04 #@! TO.N,GND*
G04 #@! TO.C,C13*
G36*
X109827142Y-144928174D02*
X109850803Y-144931684D01*
X109874007Y-144937496D01*
X109896529Y-144945554D01*
X109918153Y-144955782D01*
X109938670Y-144968079D01*
X109957883Y-144982329D01*
X109975607Y-144998393D01*
X109991671Y-145016117D01*
X110005921Y-145035330D01*
X110018218Y-145055847D01*
X110028446Y-145077471D01*
X110036504Y-145099993D01*
X110042316Y-145123197D01*
X110045826Y-145146858D01*
X110047000Y-145170750D01*
X110047000Y-145658250D01*
X110045826Y-145682142D01*
X110042316Y-145705803D01*
X110036504Y-145729007D01*
X110028446Y-145751529D01*
X110018218Y-145773153D01*
X110005921Y-145793670D01*
X109991671Y-145812883D01*
X109975607Y-145830607D01*
X109957883Y-145846671D01*
X109938670Y-145860921D01*
X109918153Y-145873218D01*
X109896529Y-145883446D01*
X109874007Y-145891504D01*
X109850803Y-145897316D01*
X109827142Y-145900826D01*
X109803250Y-145902000D01*
X108890750Y-145902000D01*
X108866858Y-145900826D01*
X108843197Y-145897316D01*
X108819993Y-145891504D01*
X108797471Y-145883446D01*
X108775847Y-145873218D01*
X108755330Y-145860921D01*
X108736117Y-145846671D01*
X108718393Y-145830607D01*
X108702329Y-145812883D01*
X108688079Y-145793670D01*
X108675782Y-145773153D01*
X108665554Y-145751529D01*
X108657496Y-145729007D01*
X108651684Y-145705803D01*
X108648174Y-145682142D01*
X108647000Y-145658250D01*
X108647000Y-145170750D01*
X108648174Y-145146858D01*
X108651684Y-145123197D01*
X108657496Y-145099993D01*
X108665554Y-145077471D01*
X108675782Y-145055847D01*
X108688079Y-145035330D01*
X108702329Y-145016117D01*
X108718393Y-144998393D01*
X108736117Y-144982329D01*
X108755330Y-144968079D01*
X108775847Y-144955782D01*
X108797471Y-144945554D01*
X108819993Y-144937496D01*
X108843197Y-144931684D01*
X108866858Y-144928174D01*
X108890750Y-144927000D01*
X109803250Y-144927000D01*
X109827142Y-144928174D01*
X109827142Y-144928174D01*
G37*
D21*
G04 #@! TD*
G04 #@! TO.P,C13,2*
G04 #@! TO.N,GND*
X109347000Y-145414500D03*
D10*
G04 #@! TO.N,Net-(C13-Pad1)*
G04 #@! TO.C,C13*
G36*
X109827142Y-146803174D02*
X109850803Y-146806684D01*
X109874007Y-146812496D01*
X109896529Y-146820554D01*
X109918153Y-146830782D01*
X109938670Y-146843079D01*
X109957883Y-146857329D01*
X109975607Y-146873393D01*
X109991671Y-146891117D01*
X110005921Y-146910330D01*
X110018218Y-146930847D01*
X110028446Y-146952471D01*
X110036504Y-146974993D01*
X110042316Y-146998197D01*
X110045826Y-147021858D01*
X110047000Y-147045750D01*
X110047000Y-147533250D01*
X110045826Y-147557142D01*
X110042316Y-147580803D01*
X110036504Y-147604007D01*
X110028446Y-147626529D01*
X110018218Y-147648153D01*
X110005921Y-147668670D01*
X109991671Y-147687883D01*
X109975607Y-147705607D01*
X109957883Y-147721671D01*
X109938670Y-147735921D01*
X109918153Y-147748218D01*
X109896529Y-147758446D01*
X109874007Y-147766504D01*
X109850803Y-147772316D01*
X109827142Y-147775826D01*
X109803250Y-147777000D01*
X108890750Y-147777000D01*
X108866858Y-147775826D01*
X108843197Y-147772316D01*
X108819993Y-147766504D01*
X108797471Y-147758446D01*
X108775847Y-147748218D01*
X108755330Y-147735921D01*
X108736117Y-147721671D01*
X108718393Y-147705607D01*
X108702329Y-147687883D01*
X108688079Y-147668670D01*
X108675782Y-147648153D01*
X108665554Y-147626529D01*
X108657496Y-147604007D01*
X108651684Y-147580803D01*
X108648174Y-147557142D01*
X108647000Y-147533250D01*
X108647000Y-147045750D01*
X108648174Y-147021858D01*
X108651684Y-146998197D01*
X108657496Y-146974993D01*
X108665554Y-146952471D01*
X108675782Y-146930847D01*
X108688079Y-146910330D01*
X108702329Y-146891117D01*
X108718393Y-146873393D01*
X108736117Y-146857329D01*
X108755330Y-146843079D01*
X108775847Y-146830782D01*
X108797471Y-146820554D01*
X108819993Y-146812496D01*
X108843197Y-146806684D01*
X108866858Y-146803174D01*
X108890750Y-146802000D01*
X109803250Y-146802000D01*
X109827142Y-146803174D01*
X109827142Y-146803174D01*
G37*
D21*
G04 #@! TD*
G04 #@! TO.P,C13,1*
G04 #@! TO.N,Net-(C13-Pad1)*
X109347000Y-147289500D03*
D10*
G04 #@! TO.N,GND*
G04 #@! TO.C,C14*
G36*
X111605142Y-153915174D02*
X111628803Y-153918684D01*
X111652007Y-153924496D01*
X111674529Y-153932554D01*
X111696153Y-153942782D01*
X111716670Y-153955079D01*
X111735883Y-153969329D01*
X111753607Y-153985393D01*
X111769671Y-154003117D01*
X111783921Y-154022330D01*
X111796218Y-154042847D01*
X111806446Y-154064471D01*
X111814504Y-154086993D01*
X111820316Y-154110197D01*
X111823826Y-154133858D01*
X111825000Y-154157750D01*
X111825000Y-154645250D01*
X111823826Y-154669142D01*
X111820316Y-154692803D01*
X111814504Y-154716007D01*
X111806446Y-154738529D01*
X111796218Y-154760153D01*
X111783921Y-154780670D01*
X111769671Y-154799883D01*
X111753607Y-154817607D01*
X111735883Y-154833671D01*
X111716670Y-154847921D01*
X111696153Y-154860218D01*
X111674529Y-154870446D01*
X111652007Y-154878504D01*
X111628803Y-154884316D01*
X111605142Y-154887826D01*
X111581250Y-154889000D01*
X110668750Y-154889000D01*
X110644858Y-154887826D01*
X110621197Y-154884316D01*
X110597993Y-154878504D01*
X110575471Y-154870446D01*
X110553847Y-154860218D01*
X110533330Y-154847921D01*
X110514117Y-154833671D01*
X110496393Y-154817607D01*
X110480329Y-154799883D01*
X110466079Y-154780670D01*
X110453782Y-154760153D01*
X110443554Y-154738529D01*
X110435496Y-154716007D01*
X110429684Y-154692803D01*
X110426174Y-154669142D01*
X110425000Y-154645250D01*
X110425000Y-154157750D01*
X110426174Y-154133858D01*
X110429684Y-154110197D01*
X110435496Y-154086993D01*
X110443554Y-154064471D01*
X110453782Y-154042847D01*
X110466079Y-154022330D01*
X110480329Y-154003117D01*
X110496393Y-153985393D01*
X110514117Y-153969329D01*
X110533330Y-153955079D01*
X110553847Y-153942782D01*
X110575471Y-153932554D01*
X110597993Y-153924496D01*
X110621197Y-153918684D01*
X110644858Y-153915174D01*
X110668750Y-153914000D01*
X111581250Y-153914000D01*
X111605142Y-153915174D01*
X111605142Y-153915174D01*
G37*
D21*
G04 #@! TD*
G04 #@! TO.P,C14,2*
G04 #@! TO.N,GND*
X111125000Y-154401500D03*
D10*
G04 #@! TO.N,Net-(C14-Pad1)*
G04 #@! TO.C,C14*
G36*
X111605142Y-152040174D02*
X111628803Y-152043684D01*
X111652007Y-152049496D01*
X111674529Y-152057554D01*
X111696153Y-152067782D01*
X111716670Y-152080079D01*
X111735883Y-152094329D01*
X111753607Y-152110393D01*
X111769671Y-152128117D01*
X111783921Y-152147330D01*
X111796218Y-152167847D01*
X111806446Y-152189471D01*
X111814504Y-152211993D01*
X111820316Y-152235197D01*
X111823826Y-152258858D01*
X111825000Y-152282750D01*
X111825000Y-152770250D01*
X111823826Y-152794142D01*
X111820316Y-152817803D01*
X111814504Y-152841007D01*
X111806446Y-152863529D01*
X111796218Y-152885153D01*
X111783921Y-152905670D01*
X111769671Y-152924883D01*
X111753607Y-152942607D01*
X111735883Y-152958671D01*
X111716670Y-152972921D01*
X111696153Y-152985218D01*
X111674529Y-152995446D01*
X111652007Y-153003504D01*
X111628803Y-153009316D01*
X111605142Y-153012826D01*
X111581250Y-153014000D01*
X110668750Y-153014000D01*
X110644858Y-153012826D01*
X110621197Y-153009316D01*
X110597993Y-153003504D01*
X110575471Y-152995446D01*
X110553847Y-152985218D01*
X110533330Y-152972921D01*
X110514117Y-152958671D01*
X110496393Y-152942607D01*
X110480329Y-152924883D01*
X110466079Y-152905670D01*
X110453782Y-152885153D01*
X110443554Y-152863529D01*
X110435496Y-152841007D01*
X110429684Y-152817803D01*
X110426174Y-152794142D01*
X110425000Y-152770250D01*
X110425000Y-152282750D01*
X110426174Y-152258858D01*
X110429684Y-152235197D01*
X110435496Y-152211993D01*
X110443554Y-152189471D01*
X110453782Y-152167847D01*
X110466079Y-152147330D01*
X110480329Y-152128117D01*
X110496393Y-152110393D01*
X110514117Y-152094329D01*
X110533330Y-152080079D01*
X110553847Y-152067782D01*
X110575471Y-152057554D01*
X110597993Y-152049496D01*
X110621197Y-152043684D01*
X110644858Y-152040174D01*
X110668750Y-152039000D01*
X111581250Y-152039000D01*
X111605142Y-152040174D01*
X111605142Y-152040174D01*
G37*
D21*
G04 #@! TD*
G04 #@! TO.P,C14,1*
G04 #@! TO.N,Net-(C14-Pad1)*
X111125000Y-152526500D03*
D10*
G04 #@! TO.N,Net-(C8-Pad2)*
G04 #@! TO.C,C8*
G36*
X93738504Y-146827204D02*
X93762773Y-146830804D01*
X93786571Y-146836765D01*
X93809671Y-146845030D01*
X93831849Y-146855520D01*
X93852893Y-146868133D01*
X93872598Y-146882747D01*
X93890777Y-146899223D01*
X93907253Y-146917402D01*
X93921867Y-146937107D01*
X93934480Y-146958151D01*
X93944970Y-146980329D01*
X93953235Y-147003429D01*
X93959196Y-147027227D01*
X93962796Y-147051496D01*
X93964000Y-147076000D01*
X93964000Y-148326000D01*
X93962796Y-148350504D01*
X93959196Y-148374773D01*
X93953235Y-148398571D01*
X93944970Y-148421671D01*
X93934480Y-148443849D01*
X93921867Y-148464893D01*
X93907253Y-148484598D01*
X93890777Y-148502777D01*
X93872598Y-148519253D01*
X93852893Y-148533867D01*
X93831849Y-148546480D01*
X93809671Y-148556970D01*
X93786571Y-148565235D01*
X93762773Y-148571196D01*
X93738504Y-148574796D01*
X93714000Y-148576000D01*
X92964000Y-148576000D01*
X92939496Y-148574796D01*
X92915227Y-148571196D01*
X92891429Y-148565235D01*
X92868329Y-148556970D01*
X92846151Y-148546480D01*
X92825107Y-148533867D01*
X92805402Y-148519253D01*
X92787223Y-148502777D01*
X92770747Y-148484598D01*
X92756133Y-148464893D01*
X92743520Y-148443849D01*
X92733030Y-148421671D01*
X92724765Y-148398571D01*
X92718804Y-148374773D01*
X92715204Y-148350504D01*
X92714000Y-148326000D01*
X92714000Y-147076000D01*
X92715204Y-147051496D01*
X92718804Y-147027227D01*
X92724765Y-147003429D01*
X92733030Y-146980329D01*
X92743520Y-146958151D01*
X92756133Y-146937107D01*
X92770747Y-146917402D01*
X92787223Y-146899223D01*
X92805402Y-146882747D01*
X92825107Y-146868133D01*
X92846151Y-146855520D01*
X92868329Y-146845030D01*
X92891429Y-146836765D01*
X92915227Y-146830804D01*
X92939496Y-146827204D01*
X92964000Y-146826000D01*
X93714000Y-146826000D01*
X93738504Y-146827204D01*
X93738504Y-146827204D01*
G37*
D22*
G04 #@! TD*
G04 #@! TO.P,C8,2*
G04 #@! TO.N,Net-(C8-Pad2)*
X93339000Y-147701000D03*
D10*
G04 #@! TO.N,GND*
G04 #@! TO.C,C8*
G36*
X96538504Y-146827204D02*
X96562773Y-146830804D01*
X96586571Y-146836765D01*
X96609671Y-146845030D01*
X96631849Y-146855520D01*
X96652893Y-146868133D01*
X96672598Y-146882747D01*
X96690777Y-146899223D01*
X96707253Y-146917402D01*
X96721867Y-146937107D01*
X96734480Y-146958151D01*
X96744970Y-146980329D01*
X96753235Y-147003429D01*
X96759196Y-147027227D01*
X96762796Y-147051496D01*
X96764000Y-147076000D01*
X96764000Y-148326000D01*
X96762796Y-148350504D01*
X96759196Y-148374773D01*
X96753235Y-148398571D01*
X96744970Y-148421671D01*
X96734480Y-148443849D01*
X96721867Y-148464893D01*
X96707253Y-148484598D01*
X96690777Y-148502777D01*
X96672598Y-148519253D01*
X96652893Y-148533867D01*
X96631849Y-148546480D01*
X96609671Y-148556970D01*
X96586571Y-148565235D01*
X96562773Y-148571196D01*
X96538504Y-148574796D01*
X96514000Y-148576000D01*
X95764000Y-148576000D01*
X95739496Y-148574796D01*
X95715227Y-148571196D01*
X95691429Y-148565235D01*
X95668329Y-148556970D01*
X95646151Y-148546480D01*
X95625107Y-148533867D01*
X95605402Y-148519253D01*
X95587223Y-148502777D01*
X95570747Y-148484598D01*
X95556133Y-148464893D01*
X95543520Y-148443849D01*
X95533030Y-148421671D01*
X95524765Y-148398571D01*
X95518804Y-148374773D01*
X95515204Y-148350504D01*
X95514000Y-148326000D01*
X95514000Y-147076000D01*
X95515204Y-147051496D01*
X95518804Y-147027227D01*
X95524765Y-147003429D01*
X95533030Y-146980329D01*
X95543520Y-146958151D01*
X95556133Y-146937107D01*
X95570747Y-146917402D01*
X95587223Y-146899223D01*
X95605402Y-146882747D01*
X95625107Y-146868133D01*
X95646151Y-146855520D01*
X95668329Y-146845030D01*
X95691429Y-146836765D01*
X95715227Y-146830804D01*
X95739496Y-146827204D01*
X95764000Y-146826000D01*
X96514000Y-146826000D01*
X96538504Y-146827204D01*
X96538504Y-146827204D01*
G37*
D22*
G04 #@! TD*
G04 #@! TO.P,C8,1*
G04 #@! TO.N,GND*
X96139000Y-147701000D03*
D10*
G04 #@! TO.N,GND*
G04 #@! TO.C,C7*
G36*
X95903504Y-137048204D02*
X95927773Y-137051804D01*
X95951571Y-137057765D01*
X95974671Y-137066030D01*
X95996849Y-137076520D01*
X96017893Y-137089133D01*
X96037598Y-137103747D01*
X96055777Y-137120223D01*
X96072253Y-137138402D01*
X96086867Y-137158107D01*
X96099480Y-137179151D01*
X96109970Y-137201329D01*
X96118235Y-137224429D01*
X96124196Y-137248227D01*
X96127796Y-137272496D01*
X96129000Y-137297000D01*
X96129000Y-138547000D01*
X96127796Y-138571504D01*
X96124196Y-138595773D01*
X96118235Y-138619571D01*
X96109970Y-138642671D01*
X96099480Y-138664849D01*
X96086867Y-138685893D01*
X96072253Y-138705598D01*
X96055777Y-138723777D01*
X96037598Y-138740253D01*
X96017893Y-138754867D01*
X95996849Y-138767480D01*
X95974671Y-138777970D01*
X95951571Y-138786235D01*
X95927773Y-138792196D01*
X95903504Y-138795796D01*
X95879000Y-138797000D01*
X95129000Y-138797000D01*
X95104496Y-138795796D01*
X95080227Y-138792196D01*
X95056429Y-138786235D01*
X95033329Y-138777970D01*
X95011151Y-138767480D01*
X94990107Y-138754867D01*
X94970402Y-138740253D01*
X94952223Y-138723777D01*
X94935747Y-138705598D01*
X94921133Y-138685893D01*
X94908520Y-138664849D01*
X94898030Y-138642671D01*
X94889765Y-138619571D01*
X94883804Y-138595773D01*
X94880204Y-138571504D01*
X94879000Y-138547000D01*
X94879000Y-137297000D01*
X94880204Y-137272496D01*
X94883804Y-137248227D01*
X94889765Y-137224429D01*
X94898030Y-137201329D01*
X94908520Y-137179151D01*
X94921133Y-137158107D01*
X94935747Y-137138402D01*
X94952223Y-137120223D01*
X94970402Y-137103747D01*
X94990107Y-137089133D01*
X95011151Y-137076520D01*
X95033329Y-137066030D01*
X95056429Y-137057765D01*
X95080227Y-137051804D01*
X95104496Y-137048204D01*
X95129000Y-137047000D01*
X95879000Y-137047000D01*
X95903504Y-137048204D01*
X95903504Y-137048204D01*
G37*
D22*
G04 #@! TD*
G04 #@! TO.P,C7,2*
G04 #@! TO.N,GND*
X95504000Y-137922000D03*
D10*
G04 #@! TO.N,Net-(C7-Pad1)*
G04 #@! TO.C,C7*
G36*
X93103504Y-137048204D02*
X93127773Y-137051804D01*
X93151571Y-137057765D01*
X93174671Y-137066030D01*
X93196849Y-137076520D01*
X93217893Y-137089133D01*
X93237598Y-137103747D01*
X93255777Y-137120223D01*
X93272253Y-137138402D01*
X93286867Y-137158107D01*
X93299480Y-137179151D01*
X93309970Y-137201329D01*
X93318235Y-137224429D01*
X93324196Y-137248227D01*
X93327796Y-137272496D01*
X93329000Y-137297000D01*
X93329000Y-138547000D01*
X93327796Y-138571504D01*
X93324196Y-138595773D01*
X93318235Y-138619571D01*
X93309970Y-138642671D01*
X93299480Y-138664849D01*
X93286867Y-138685893D01*
X93272253Y-138705598D01*
X93255777Y-138723777D01*
X93237598Y-138740253D01*
X93217893Y-138754867D01*
X93196849Y-138767480D01*
X93174671Y-138777970D01*
X93151571Y-138786235D01*
X93127773Y-138792196D01*
X93103504Y-138795796D01*
X93079000Y-138797000D01*
X92329000Y-138797000D01*
X92304496Y-138795796D01*
X92280227Y-138792196D01*
X92256429Y-138786235D01*
X92233329Y-138777970D01*
X92211151Y-138767480D01*
X92190107Y-138754867D01*
X92170402Y-138740253D01*
X92152223Y-138723777D01*
X92135747Y-138705598D01*
X92121133Y-138685893D01*
X92108520Y-138664849D01*
X92098030Y-138642671D01*
X92089765Y-138619571D01*
X92083804Y-138595773D01*
X92080204Y-138571504D01*
X92079000Y-138547000D01*
X92079000Y-137297000D01*
X92080204Y-137272496D01*
X92083804Y-137248227D01*
X92089765Y-137224429D01*
X92098030Y-137201329D01*
X92108520Y-137179151D01*
X92121133Y-137158107D01*
X92135747Y-137138402D01*
X92152223Y-137120223D01*
X92170402Y-137103747D01*
X92190107Y-137089133D01*
X92211151Y-137076520D01*
X92233329Y-137066030D01*
X92256429Y-137057765D01*
X92280227Y-137051804D01*
X92304496Y-137048204D01*
X92329000Y-137047000D01*
X93079000Y-137047000D01*
X93103504Y-137048204D01*
X93103504Y-137048204D01*
G37*
D22*
G04 #@! TD*
G04 #@! TO.P,C7,1*
G04 #@! TO.N,Net-(C7-Pad1)*
X92704000Y-137922000D03*
D10*
G04 #@! TO.N,GND*
G04 #@! TO.C,D7*
G36*
X107710504Y-153266204D02*
X107734773Y-153269804D01*
X107758571Y-153275765D01*
X107781671Y-153284030D01*
X107803849Y-153294520D01*
X107824893Y-153307133D01*
X107844598Y-153321747D01*
X107862777Y-153338223D01*
X107879253Y-153356402D01*
X107893867Y-153376107D01*
X107906480Y-153397151D01*
X107916970Y-153419329D01*
X107925235Y-153442429D01*
X107931196Y-153466227D01*
X107934796Y-153490496D01*
X107936000Y-153515000D01*
X107936000Y-154440000D01*
X107934796Y-154464504D01*
X107931196Y-154488773D01*
X107925235Y-154512571D01*
X107916970Y-154535671D01*
X107906480Y-154557849D01*
X107893867Y-154578893D01*
X107879253Y-154598598D01*
X107862777Y-154616777D01*
X107844598Y-154633253D01*
X107824893Y-154647867D01*
X107803849Y-154660480D01*
X107781671Y-154670970D01*
X107758571Y-154679235D01*
X107734773Y-154685196D01*
X107710504Y-154688796D01*
X107686000Y-154690000D01*
X106436000Y-154690000D01*
X106411496Y-154688796D01*
X106387227Y-154685196D01*
X106363429Y-154679235D01*
X106340329Y-154670970D01*
X106318151Y-154660480D01*
X106297107Y-154647867D01*
X106277402Y-154633253D01*
X106259223Y-154616777D01*
X106242747Y-154598598D01*
X106228133Y-154578893D01*
X106215520Y-154557849D01*
X106205030Y-154535671D01*
X106196765Y-154512571D01*
X106190804Y-154488773D01*
X106187204Y-154464504D01*
X106186000Y-154440000D01*
X106186000Y-153515000D01*
X106187204Y-153490496D01*
X106190804Y-153466227D01*
X106196765Y-153442429D01*
X106205030Y-153419329D01*
X106215520Y-153397151D01*
X106228133Y-153376107D01*
X106242747Y-153356402D01*
X106259223Y-153338223D01*
X106277402Y-153321747D01*
X106297107Y-153307133D01*
X106318151Y-153294520D01*
X106340329Y-153284030D01*
X106363429Y-153275765D01*
X106387227Y-153269804D01*
X106411496Y-153266204D01*
X106436000Y-153265000D01*
X107686000Y-153265000D01*
X107710504Y-153266204D01*
X107710504Y-153266204D01*
G37*
D19*
G04 #@! TD*
G04 #@! TO.P,D7,2*
G04 #@! TO.N,GND*
X107061000Y-153977500D03*
D10*
G04 #@! TO.N,Net-(C14-Pad1)*
G04 #@! TO.C,D7*
G36*
X107710504Y-150291204D02*
X107734773Y-150294804D01*
X107758571Y-150300765D01*
X107781671Y-150309030D01*
X107803849Y-150319520D01*
X107824893Y-150332133D01*
X107844598Y-150346747D01*
X107862777Y-150363223D01*
X107879253Y-150381402D01*
X107893867Y-150401107D01*
X107906480Y-150422151D01*
X107916970Y-150444329D01*
X107925235Y-150467429D01*
X107931196Y-150491227D01*
X107934796Y-150515496D01*
X107936000Y-150540000D01*
X107936000Y-151465000D01*
X107934796Y-151489504D01*
X107931196Y-151513773D01*
X107925235Y-151537571D01*
X107916970Y-151560671D01*
X107906480Y-151582849D01*
X107893867Y-151603893D01*
X107879253Y-151623598D01*
X107862777Y-151641777D01*
X107844598Y-151658253D01*
X107824893Y-151672867D01*
X107803849Y-151685480D01*
X107781671Y-151695970D01*
X107758571Y-151704235D01*
X107734773Y-151710196D01*
X107710504Y-151713796D01*
X107686000Y-151715000D01*
X106436000Y-151715000D01*
X106411496Y-151713796D01*
X106387227Y-151710196D01*
X106363429Y-151704235D01*
X106340329Y-151695970D01*
X106318151Y-151685480D01*
X106297107Y-151672867D01*
X106277402Y-151658253D01*
X106259223Y-151641777D01*
X106242747Y-151623598D01*
X106228133Y-151603893D01*
X106215520Y-151582849D01*
X106205030Y-151560671D01*
X106196765Y-151537571D01*
X106190804Y-151513773D01*
X106187204Y-151489504D01*
X106186000Y-151465000D01*
X106186000Y-150540000D01*
X106187204Y-150515496D01*
X106190804Y-150491227D01*
X106196765Y-150467429D01*
X106205030Y-150444329D01*
X106215520Y-150422151D01*
X106228133Y-150401107D01*
X106242747Y-150381402D01*
X106259223Y-150363223D01*
X106277402Y-150346747D01*
X106297107Y-150332133D01*
X106318151Y-150319520D01*
X106340329Y-150309030D01*
X106363429Y-150300765D01*
X106387227Y-150294804D01*
X106411496Y-150291204D01*
X106436000Y-150290000D01*
X107686000Y-150290000D01*
X107710504Y-150291204D01*
X107710504Y-150291204D01*
G37*
D19*
G04 #@! TD*
G04 #@! TO.P,D7,1*
G04 #@! TO.N,Net-(C14-Pad1)*
X107061000Y-151002500D03*
D10*
G04 #@! TO.N,GND*
G04 #@! TO.C,D3*
G36*
X109488504Y-132765204D02*
X109512773Y-132768804D01*
X109536571Y-132774765D01*
X109559671Y-132783030D01*
X109581849Y-132793520D01*
X109602893Y-132806133D01*
X109622598Y-132820747D01*
X109640777Y-132837223D01*
X109657253Y-132855402D01*
X109671867Y-132875107D01*
X109684480Y-132896151D01*
X109694970Y-132918329D01*
X109703235Y-132941429D01*
X109709196Y-132965227D01*
X109712796Y-132989496D01*
X109714000Y-133014000D01*
X109714000Y-133939000D01*
X109712796Y-133963504D01*
X109709196Y-133987773D01*
X109703235Y-134011571D01*
X109694970Y-134034671D01*
X109684480Y-134056849D01*
X109671867Y-134077893D01*
X109657253Y-134097598D01*
X109640777Y-134115777D01*
X109622598Y-134132253D01*
X109602893Y-134146867D01*
X109581849Y-134159480D01*
X109559671Y-134169970D01*
X109536571Y-134178235D01*
X109512773Y-134184196D01*
X109488504Y-134187796D01*
X109464000Y-134189000D01*
X108214000Y-134189000D01*
X108189496Y-134187796D01*
X108165227Y-134184196D01*
X108141429Y-134178235D01*
X108118329Y-134169970D01*
X108096151Y-134159480D01*
X108075107Y-134146867D01*
X108055402Y-134132253D01*
X108037223Y-134115777D01*
X108020747Y-134097598D01*
X108006133Y-134077893D01*
X107993520Y-134056849D01*
X107983030Y-134034671D01*
X107974765Y-134011571D01*
X107968804Y-133987773D01*
X107965204Y-133963504D01*
X107964000Y-133939000D01*
X107964000Y-133014000D01*
X107965204Y-132989496D01*
X107968804Y-132965227D01*
X107974765Y-132941429D01*
X107983030Y-132918329D01*
X107993520Y-132896151D01*
X108006133Y-132875107D01*
X108020747Y-132855402D01*
X108037223Y-132837223D01*
X108055402Y-132820747D01*
X108075107Y-132806133D01*
X108096151Y-132793520D01*
X108118329Y-132783030D01*
X108141429Y-132774765D01*
X108165227Y-132768804D01*
X108189496Y-132765204D01*
X108214000Y-132764000D01*
X109464000Y-132764000D01*
X109488504Y-132765204D01*
X109488504Y-132765204D01*
G37*
D19*
G04 #@! TD*
G04 #@! TO.P,D3,2*
G04 #@! TO.N,GND*
X108839000Y-133476500D03*
D10*
G04 #@! TO.N,Net-(C11-Pad1)*
G04 #@! TO.C,D3*
G36*
X109488504Y-135740204D02*
X109512773Y-135743804D01*
X109536571Y-135749765D01*
X109559671Y-135758030D01*
X109581849Y-135768520D01*
X109602893Y-135781133D01*
X109622598Y-135795747D01*
X109640777Y-135812223D01*
X109657253Y-135830402D01*
X109671867Y-135850107D01*
X109684480Y-135871151D01*
X109694970Y-135893329D01*
X109703235Y-135916429D01*
X109709196Y-135940227D01*
X109712796Y-135964496D01*
X109714000Y-135989000D01*
X109714000Y-136914000D01*
X109712796Y-136938504D01*
X109709196Y-136962773D01*
X109703235Y-136986571D01*
X109694970Y-137009671D01*
X109684480Y-137031849D01*
X109671867Y-137052893D01*
X109657253Y-137072598D01*
X109640777Y-137090777D01*
X109622598Y-137107253D01*
X109602893Y-137121867D01*
X109581849Y-137134480D01*
X109559671Y-137144970D01*
X109536571Y-137153235D01*
X109512773Y-137159196D01*
X109488504Y-137162796D01*
X109464000Y-137164000D01*
X108214000Y-137164000D01*
X108189496Y-137162796D01*
X108165227Y-137159196D01*
X108141429Y-137153235D01*
X108118329Y-137144970D01*
X108096151Y-137134480D01*
X108075107Y-137121867D01*
X108055402Y-137107253D01*
X108037223Y-137090777D01*
X108020747Y-137072598D01*
X108006133Y-137052893D01*
X107993520Y-137031849D01*
X107983030Y-137009671D01*
X107974765Y-136986571D01*
X107968804Y-136962773D01*
X107965204Y-136938504D01*
X107964000Y-136914000D01*
X107964000Y-135989000D01*
X107965204Y-135964496D01*
X107968804Y-135940227D01*
X107974765Y-135916429D01*
X107983030Y-135893329D01*
X107993520Y-135871151D01*
X108006133Y-135850107D01*
X108020747Y-135830402D01*
X108037223Y-135812223D01*
X108055402Y-135795747D01*
X108075107Y-135781133D01*
X108096151Y-135768520D01*
X108118329Y-135758030D01*
X108141429Y-135749765D01*
X108165227Y-135743804D01*
X108189496Y-135740204D01*
X108214000Y-135739000D01*
X109464000Y-135739000D01*
X109488504Y-135740204D01*
X109488504Y-135740204D01*
G37*
D19*
G04 #@! TD*
G04 #@! TO.P,D3,1*
G04 #@! TO.N,Net-(C11-Pad1)*
X108839000Y-136451500D03*
D10*
G04 #@! TO.N,Net-(C11-Pad1)*
G04 #@! TO.C,D4*
G36*
X106876504Y-133746204D02*
X106900773Y-133749804D01*
X106924571Y-133755765D01*
X106947671Y-133764030D01*
X106969849Y-133774520D01*
X106990893Y-133787133D01*
X107010598Y-133801747D01*
X107028777Y-133818223D01*
X107045253Y-133836402D01*
X107059867Y-133856107D01*
X107072480Y-133877151D01*
X107082970Y-133899329D01*
X107091235Y-133922429D01*
X107097196Y-133946227D01*
X107100796Y-133970496D01*
X107102000Y-133995000D01*
X107102000Y-135245000D01*
X107100796Y-135269504D01*
X107097196Y-135293773D01*
X107091235Y-135317571D01*
X107082970Y-135340671D01*
X107072480Y-135362849D01*
X107059867Y-135383893D01*
X107045253Y-135403598D01*
X107028777Y-135421777D01*
X107010598Y-135438253D01*
X106990893Y-135452867D01*
X106969849Y-135465480D01*
X106947671Y-135475970D01*
X106924571Y-135484235D01*
X106900773Y-135490196D01*
X106876504Y-135493796D01*
X106852000Y-135495000D01*
X105927000Y-135495000D01*
X105902496Y-135493796D01*
X105878227Y-135490196D01*
X105854429Y-135484235D01*
X105831329Y-135475970D01*
X105809151Y-135465480D01*
X105788107Y-135452867D01*
X105768402Y-135438253D01*
X105750223Y-135421777D01*
X105733747Y-135403598D01*
X105719133Y-135383893D01*
X105706520Y-135362849D01*
X105696030Y-135340671D01*
X105687765Y-135317571D01*
X105681804Y-135293773D01*
X105678204Y-135269504D01*
X105677000Y-135245000D01*
X105677000Y-133995000D01*
X105678204Y-133970496D01*
X105681804Y-133946227D01*
X105687765Y-133922429D01*
X105696030Y-133899329D01*
X105706520Y-133877151D01*
X105719133Y-133856107D01*
X105733747Y-133836402D01*
X105750223Y-133818223D01*
X105768402Y-133801747D01*
X105788107Y-133787133D01*
X105809151Y-133774520D01*
X105831329Y-133764030D01*
X105854429Y-133755765D01*
X105878227Y-133749804D01*
X105902496Y-133746204D01*
X105927000Y-133745000D01*
X106852000Y-133745000D01*
X106876504Y-133746204D01*
X106876504Y-133746204D01*
G37*
D19*
G04 #@! TD*
G04 #@! TO.P,D4,2*
G04 #@! TO.N,Net-(C11-Pad1)*
X106389500Y-134620000D03*
D10*
G04 #@! TO.N,D2_IN1*
G04 #@! TO.C,D4*
G36*
X103901504Y-133746204D02*
X103925773Y-133749804D01*
X103949571Y-133755765D01*
X103972671Y-133764030D01*
X103994849Y-133774520D01*
X104015893Y-133787133D01*
X104035598Y-133801747D01*
X104053777Y-133818223D01*
X104070253Y-133836402D01*
X104084867Y-133856107D01*
X104097480Y-133877151D01*
X104107970Y-133899329D01*
X104116235Y-133922429D01*
X104122196Y-133946227D01*
X104125796Y-133970496D01*
X104127000Y-133995000D01*
X104127000Y-135245000D01*
X104125796Y-135269504D01*
X104122196Y-135293773D01*
X104116235Y-135317571D01*
X104107970Y-135340671D01*
X104097480Y-135362849D01*
X104084867Y-135383893D01*
X104070253Y-135403598D01*
X104053777Y-135421777D01*
X104035598Y-135438253D01*
X104015893Y-135452867D01*
X103994849Y-135465480D01*
X103972671Y-135475970D01*
X103949571Y-135484235D01*
X103925773Y-135490196D01*
X103901504Y-135493796D01*
X103877000Y-135495000D01*
X102952000Y-135495000D01*
X102927496Y-135493796D01*
X102903227Y-135490196D01*
X102879429Y-135484235D01*
X102856329Y-135475970D01*
X102834151Y-135465480D01*
X102813107Y-135452867D01*
X102793402Y-135438253D01*
X102775223Y-135421777D01*
X102758747Y-135403598D01*
X102744133Y-135383893D01*
X102731520Y-135362849D01*
X102721030Y-135340671D01*
X102712765Y-135317571D01*
X102706804Y-135293773D01*
X102703204Y-135269504D01*
X102702000Y-135245000D01*
X102702000Y-133995000D01*
X102703204Y-133970496D01*
X102706804Y-133946227D01*
X102712765Y-133922429D01*
X102721030Y-133899329D01*
X102731520Y-133877151D01*
X102744133Y-133856107D01*
X102758747Y-133836402D01*
X102775223Y-133818223D01*
X102793402Y-133801747D01*
X102813107Y-133787133D01*
X102834151Y-133774520D01*
X102856329Y-133764030D01*
X102879429Y-133755765D01*
X102903227Y-133749804D01*
X102927496Y-133746204D01*
X102952000Y-133745000D01*
X103877000Y-133745000D01*
X103901504Y-133746204D01*
X103901504Y-133746204D01*
G37*
D19*
G04 #@! TD*
G04 #@! TO.P,D4,1*
G04 #@! TO.N,D2_IN1*
X103414500Y-134620000D03*
D10*
G04 #@! TO.N,GND*
G04 #@! TO.C,D6*
G36*
X106059504Y-147552204D02*
X106083773Y-147555804D01*
X106107571Y-147561765D01*
X106130671Y-147570030D01*
X106152849Y-147580520D01*
X106173893Y-147593133D01*
X106193598Y-147607747D01*
X106211777Y-147624223D01*
X106228253Y-147642402D01*
X106242867Y-147662107D01*
X106255480Y-147683151D01*
X106265970Y-147705329D01*
X106274235Y-147728429D01*
X106280196Y-147752227D01*
X106283796Y-147776496D01*
X106285000Y-147801000D01*
X106285000Y-148726000D01*
X106283796Y-148750504D01*
X106280196Y-148774773D01*
X106274235Y-148798571D01*
X106265970Y-148821671D01*
X106255480Y-148843849D01*
X106242867Y-148864893D01*
X106228253Y-148884598D01*
X106211777Y-148902777D01*
X106193598Y-148919253D01*
X106173893Y-148933867D01*
X106152849Y-148946480D01*
X106130671Y-148956970D01*
X106107571Y-148965235D01*
X106083773Y-148971196D01*
X106059504Y-148974796D01*
X106035000Y-148976000D01*
X104785000Y-148976000D01*
X104760496Y-148974796D01*
X104736227Y-148971196D01*
X104712429Y-148965235D01*
X104689329Y-148956970D01*
X104667151Y-148946480D01*
X104646107Y-148933867D01*
X104626402Y-148919253D01*
X104608223Y-148902777D01*
X104591747Y-148884598D01*
X104577133Y-148864893D01*
X104564520Y-148843849D01*
X104554030Y-148821671D01*
X104545765Y-148798571D01*
X104539804Y-148774773D01*
X104536204Y-148750504D01*
X104535000Y-148726000D01*
X104535000Y-147801000D01*
X104536204Y-147776496D01*
X104539804Y-147752227D01*
X104545765Y-147728429D01*
X104554030Y-147705329D01*
X104564520Y-147683151D01*
X104577133Y-147662107D01*
X104591747Y-147642402D01*
X104608223Y-147624223D01*
X104626402Y-147607747D01*
X104646107Y-147593133D01*
X104667151Y-147580520D01*
X104689329Y-147570030D01*
X104712429Y-147561765D01*
X104736227Y-147555804D01*
X104760496Y-147552204D01*
X104785000Y-147551000D01*
X106035000Y-147551000D01*
X106059504Y-147552204D01*
X106059504Y-147552204D01*
G37*
D19*
G04 #@! TD*
G04 #@! TO.P,D6,2*
G04 #@! TO.N,GND*
X105410000Y-148263500D03*
D10*
G04 #@! TO.N,Net-(C13-Pad1)*
G04 #@! TO.C,D6*
G36*
X106059504Y-144577204D02*
X106083773Y-144580804D01*
X106107571Y-144586765D01*
X106130671Y-144595030D01*
X106152849Y-144605520D01*
X106173893Y-144618133D01*
X106193598Y-144632747D01*
X106211777Y-144649223D01*
X106228253Y-144667402D01*
X106242867Y-144687107D01*
X106255480Y-144708151D01*
X106265970Y-144730329D01*
X106274235Y-144753429D01*
X106280196Y-144777227D01*
X106283796Y-144801496D01*
X106285000Y-144826000D01*
X106285000Y-145751000D01*
X106283796Y-145775504D01*
X106280196Y-145799773D01*
X106274235Y-145823571D01*
X106265970Y-145846671D01*
X106255480Y-145868849D01*
X106242867Y-145889893D01*
X106228253Y-145909598D01*
X106211777Y-145927777D01*
X106193598Y-145944253D01*
X106173893Y-145958867D01*
X106152849Y-145971480D01*
X106130671Y-145981970D01*
X106107571Y-145990235D01*
X106083773Y-145996196D01*
X106059504Y-145999796D01*
X106035000Y-146001000D01*
X104785000Y-146001000D01*
X104760496Y-145999796D01*
X104736227Y-145996196D01*
X104712429Y-145990235D01*
X104689329Y-145981970D01*
X104667151Y-145971480D01*
X104646107Y-145958867D01*
X104626402Y-145944253D01*
X104608223Y-145927777D01*
X104591747Y-145909598D01*
X104577133Y-145889893D01*
X104564520Y-145868849D01*
X104554030Y-145846671D01*
X104545765Y-145823571D01*
X104539804Y-145799773D01*
X104536204Y-145775504D01*
X104535000Y-145751000D01*
X104535000Y-144826000D01*
X104536204Y-144801496D01*
X104539804Y-144777227D01*
X104545765Y-144753429D01*
X104554030Y-144730329D01*
X104564520Y-144708151D01*
X104577133Y-144687107D01*
X104591747Y-144667402D01*
X104608223Y-144649223D01*
X104626402Y-144632747D01*
X104646107Y-144618133D01*
X104667151Y-144605520D01*
X104689329Y-144595030D01*
X104712429Y-144586765D01*
X104736227Y-144580804D01*
X104760496Y-144577204D01*
X104785000Y-144576000D01*
X106035000Y-144576000D01*
X106059504Y-144577204D01*
X106059504Y-144577204D01*
G37*
D19*
G04 #@! TD*
G04 #@! TO.P,D6,1*
G04 #@! TO.N,Net-(C13-Pad1)*
X105410000Y-145288500D03*
D10*
G04 #@! TO.N,Net-(C13-Pad1)*
G04 #@! TO.C,D9*
G36*
X104281504Y-142090204D02*
X104305773Y-142093804D01*
X104329571Y-142099765D01*
X104352671Y-142108030D01*
X104374849Y-142118520D01*
X104395893Y-142131133D01*
X104415598Y-142145747D01*
X104433777Y-142162223D01*
X104450253Y-142180402D01*
X104464867Y-142200107D01*
X104477480Y-142221151D01*
X104487970Y-142243329D01*
X104496235Y-142266429D01*
X104502196Y-142290227D01*
X104505796Y-142314496D01*
X104507000Y-142339000D01*
X104507000Y-143264000D01*
X104505796Y-143288504D01*
X104502196Y-143312773D01*
X104496235Y-143336571D01*
X104487970Y-143359671D01*
X104477480Y-143381849D01*
X104464867Y-143402893D01*
X104450253Y-143422598D01*
X104433777Y-143440777D01*
X104415598Y-143457253D01*
X104395893Y-143471867D01*
X104374849Y-143484480D01*
X104352671Y-143494970D01*
X104329571Y-143503235D01*
X104305773Y-143509196D01*
X104281504Y-143512796D01*
X104257000Y-143514000D01*
X103007000Y-143514000D01*
X102982496Y-143512796D01*
X102958227Y-143509196D01*
X102934429Y-143503235D01*
X102911329Y-143494970D01*
X102889151Y-143484480D01*
X102868107Y-143471867D01*
X102848402Y-143457253D01*
X102830223Y-143440777D01*
X102813747Y-143422598D01*
X102799133Y-143402893D01*
X102786520Y-143381849D01*
X102776030Y-143359671D01*
X102767765Y-143336571D01*
X102761804Y-143312773D01*
X102758204Y-143288504D01*
X102757000Y-143264000D01*
X102757000Y-142339000D01*
X102758204Y-142314496D01*
X102761804Y-142290227D01*
X102767765Y-142266429D01*
X102776030Y-142243329D01*
X102786520Y-142221151D01*
X102799133Y-142200107D01*
X102813747Y-142180402D01*
X102830223Y-142162223D01*
X102848402Y-142145747D01*
X102868107Y-142131133D01*
X102889151Y-142118520D01*
X102911329Y-142108030D01*
X102934429Y-142099765D01*
X102958227Y-142093804D01*
X102982496Y-142090204D01*
X103007000Y-142089000D01*
X104257000Y-142089000D01*
X104281504Y-142090204D01*
X104281504Y-142090204D01*
G37*
D19*
G04 #@! TD*
G04 #@! TO.P,D9,2*
G04 #@! TO.N,Net-(C13-Pad1)*
X103632000Y-142801500D03*
D10*
G04 #@! TO.N,A0_D14_IN3*
G04 #@! TO.C,D9*
G36*
X104281504Y-139115204D02*
X104305773Y-139118804D01*
X104329571Y-139124765D01*
X104352671Y-139133030D01*
X104374849Y-139143520D01*
X104395893Y-139156133D01*
X104415598Y-139170747D01*
X104433777Y-139187223D01*
X104450253Y-139205402D01*
X104464867Y-139225107D01*
X104477480Y-139246151D01*
X104487970Y-139268329D01*
X104496235Y-139291429D01*
X104502196Y-139315227D01*
X104505796Y-139339496D01*
X104507000Y-139364000D01*
X104507000Y-140289000D01*
X104505796Y-140313504D01*
X104502196Y-140337773D01*
X104496235Y-140361571D01*
X104487970Y-140384671D01*
X104477480Y-140406849D01*
X104464867Y-140427893D01*
X104450253Y-140447598D01*
X104433777Y-140465777D01*
X104415598Y-140482253D01*
X104395893Y-140496867D01*
X104374849Y-140509480D01*
X104352671Y-140519970D01*
X104329571Y-140528235D01*
X104305773Y-140534196D01*
X104281504Y-140537796D01*
X104257000Y-140539000D01*
X103007000Y-140539000D01*
X102982496Y-140537796D01*
X102958227Y-140534196D01*
X102934429Y-140528235D01*
X102911329Y-140519970D01*
X102889151Y-140509480D01*
X102868107Y-140496867D01*
X102848402Y-140482253D01*
X102830223Y-140465777D01*
X102813747Y-140447598D01*
X102799133Y-140427893D01*
X102786520Y-140406849D01*
X102776030Y-140384671D01*
X102767765Y-140361571D01*
X102761804Y-140337773D01*
X102758204Y-140313504D01*
X102757000Y-140289000D01*
X102757000Y-139364000D01*
X102758204Y-139339496D01*
X102761804Y-139315227D01*
X102767765Y-139291429D01*
X102776030Y-139268329D01*
X102786520Y-139246151D01*
X102799133Y-139225107D01*
X102813747Y-139205402D01*
X102830223Y-139187223D01*
X102848402Y-139170747D01*
X102868107Y-139156133D01*
X102889151Y-139143520D01*
X102911329Y-139133030D01*
X102934429Y-139124765D01*
X102958227Y-139118804D01*
X102982496Y-139115204D01*
X103007000Y-139114000D01*
X104257000Y-139114000D01*
X104281504Y-139115204D01*
X104281504Y-139115204D01*
G37*
D19*
G04 #@! TD*
G04 #@! TO.P,D9,1*
G04 #@! TO.N,A0_D14_IN3*
X103632000Y-139826500D03*
D10*
G04 #@! TO.N,Net-(C13-Pad1)*
G04 #@! TO.C,R13*
G36*
X112996505Y-147018204D02*
X113020773Y-147021804D01*
X113044572Y-147027765D01*
X113067671Y-147036030D01*
X113089850Y-147046520D01*
X113110893Y-147059132D01*
X113130599Y-147073747D01*
X113148777Y-147090223D01*
X113165253Y-147108401D01*
X113179868Y-147128107D01*
X113192480Y-147149150D01*
X113202970Y-147171329D01*
X113211235Y-147194428D01*
X113217196Y-147218227D01*
X113220796Y-147242495D01*
X113222000Y-147266999D01*
X113222000Y-147917001D01*
X113220796Y-147941505D01*
X113217196Y-147965773D01*
X113211235Y-147989572D01*
X113202970Y-148012671D01*
X113192480Y-148034850D01*
X113179868Y-148055893D01*
X113165253Y-148075599D01*
X113148777Y-148093777D01*
X113130599Y-148110253D01*
X113110893Y-148124868D01*
X113089850Y-148137480D01*
X113067671Y-148147970D01*
X113044572Y-148156235D01*
X113020773Y-148162196D01*
X112996505Y-148165796D01*
X112972001Y-148167000D01*
X112071999Y-148167000D01*
X112047495Y-148165796D01*
X112023227Y-148162196D01*
X111999428Y-148156235D01*
X111976329Y-148147970D01*
X111954150Y-148137480D01*
X111933107Y-148124868D01*
X111913401Y-148110253D01*
X111895223Y-148093777D01*
X111878747Y-148075599D01*
X111864132Y-148055893D01*
X111851520Y-148034850D01*
X111841030Y-148012671D01*
X111832765Y-147989572D01*
X111826804Y-147965773D01*
X111823204Y-147941505D01*
X111822000Y-147917001D01*
X111822000Y-147266999D01*
X111823204Y-147242495D01*
X111826804Y-147218227D01*
X111832765Y-147194428D01*
X111841030Y-147171329D01*
X111851520Y-147149150D01*
X111864132Y-147128107D01*
X111878747Y-147108401D01*
X111895223Y-147090223D01*
X111913401Y-147073747D01*
X111933107Y-147059132D01*
X111954150Y-147046520D01*
X111976329Y-147036030D01*
X111999428Y-147027765D01*
X112023227Y-147021804D01*
X112047495Y-147018204D01*
X112071999Y-147017000D01*
X112972001Y-147017000D01*
X112996505Y-147018204D01*
X112996505Y-147018204D01*
G37*
D20*
G04 #@! TD*
G04 #@! TO.P,R13,2*
G04 #@! TO.N,Net-(C13-Pad1)*
X112522000Y-147592000D03*
D10*
G04 #@! TO.N,GND*
G04 #@! TO.C,R13*
G36*
X112996505Y-144968204D02*
X113020773Y-144971804D01*
X113044572Y-144977765D01*
X113067671Y-144986030D01*
X113089850Y-144996520D01*
X113110893Y-145009132D01*
X113130599Y-145023747D01*
X113148777Y-145040223D01*
X113165253Y-145058401D01*
X113179868Y-145078107D01*
X113192480Y-145099150D01*
X113202970Y-145121329D01*
X113211235Y-145144428D01*
X113217196Y-145168227D01*
X113220796Y-145192495D01*
X113222000Y-145216999D01*
X113222000Y-145867001D01*
X113220796Y-145891505D01*
X113217196Y-145915773D01*
X113211235Y-145939572D01*
X113202970Y-145962671D01*
X113192480Y-145984850D01*
X113179868Y-146005893D01*
X113165253Y-146025599D01*
X113148777Y-146043777D01*
X113130599Y-146060253D01*
X113110893Y-146074868D01*
X113089850Y-146087480D01*
X113067671Y-146097970D01*
X113044572Y-146106235D01*
X113020773Y-146112196D01*
X112996505Y-146115796D01*
X112972001Y-146117000D01*
X112071999Y-146117000D01*
X112047495Y-146115796D01*
X112023227Y-146112196D01*
X111999428Y-146106235D01*
X111976329Y-146097970D01*
X111954150Y-146087480D01*
X111933107Y-146074868D01*
X111913401Y-146060253D01*
X111895223Y-146043777D01*
X111878747Y-146025599D01*
X111864132Y-146005893D01*
X111851520Y-145984850D01*
X111841030Y-145962671D01*
X111832765Y-145939572D01*
X111826804Y-145915773D01*
X111823204Y-145891505D01*
X111822000Y-145867001D01*
X111822000Y-145216999D01*
X111823204Y-145192495D01*
X111826804Y-145168227D01*
X111832765Y-145144428D01*
X111841030Y-145121329D01*
X111851520Y-145099150D01*
X111864132Y-145078107D01*
X111878747Y-145058401D01*
X111895223Y-145040223D01*
X111913401Y-145023747D01*
X111933107Y-145009132D01*
X111954150Y-144996520D01*
X111976329Y-144986030D01*
X111999428Y-144977765D01*
X112023227Y-144971804D01*
X112047495Y-144968204D01*
X112071999Y-144967000D01*
X112972001Y-144967000D01*
X112996505Y-144968204D01*
X112996505Y-144968204D01*
G37*
D20*
G04 #@! TD*
G04 #@! TO.P,R13,1*
G04 #@! TO.N,GND*
X112522000Y-145542000D03*
D10*
G04 #@! TO.N,Net-(C12-Pad1)*
G04 #@! TO.C,R12*
G36*
X113123505Y-141013204D02*
X113147773Y-141016804D01*
X113171572Y-141022765D01*
X113194671Y-141031030D01*
X113216850Y-141041520D01*
X113237893Y-141054132D01*
X113257599Y-141068747D01*
X113275777Y-141085223D01*
X113292253Y-141103401D01*
X113306868Y-141123107D01*
X113319480Y-141144150D01*
X113329970Y-141166329D01*
X113338235Y-141189428D01*
X113344196Y-141213227D01*
X113347796Y-141237495D01*
X113349000Y-141261999D01*
X113349000Y-141912001D01*
X113347796Y-141936505D01*
X113344196Y-141960773D01*
X113338235Y-141984572D01*
X113329970Y-142007671D01*
X113319480Y-142029850D01*
X113306868Y-142050893D01*
X113292253Y-142070599D01*
X113275777Y-142088777D01*
X113257599Y-142105253D01*
X113237893Y-142119868D01*
X113216850Y-142132480D01*
X113194671Y-142142970D01*
X113171572Y-142151235D01*
X113147773Y-142157196D01*
X113123505Y-142160796D01*
X113099001Y-142162000D01*
X112198999Y-142162000D01*
X112174495Y-142160796D01*
X112150227Y-142157196D01*
X112126428Y-142151235D01*
X112103329Y-142142970D01*
X112081150Y-142132480D01*
X112060107Y-142119868D01*
X112040401Y-142105253D01*
X112022223Y-142088777D01*
X112005747Y-142070599D01*
X111991132Y-142050893D01*
X111978520Y-142029850D01*
X111968030Y-142007671D01*
X111959765Y-141984572D01*
X111953804Y-141960773D01*
X111950204Y-141936505D01*
X111949000Y-141912001D01*
X111949000Y-141261999D01*
X111950204Y-141237495D01*
X111953804Y-141213227D01*
X111959765Y-141189428D01*
X111968030Y-141166329D01*
X111978520Y-141144150D01*
X111991132Y-141123107D01*
X112005747Y-141103401D01*
X112022223Y-141085223D01*
X112040401Y-141068747D01*
X112060107Y-141054132D01*
X112081150Y-141041520D01*
X112103329Y-141031030D01*
X112126428Y-141022765D01*
X112150227Y-141016804D01*
X112174495Y-141013204D01*
X112198999Y-141012000D01*
X113099001Y-141012000D01*
X113123505Y-141013204D01*
X113123505Y-141013204D01*
G37*
D20*
G04 #@! TD*
G04 #@! TO.P,R12,2*
G04 #@! TO.N,Net-(C12-Pad1)*
X112649000Y-141587000D03*
D10*
G04 #@! TO.N,GND*
G04 #@! TO.C,R12*
G36*
X113123505Y-143063204D02*
X113147773Y-143066804D01*
X113171572Y-143072765D01*
X113194671Y-143081030D01*
X113216850Y-143091520D01*
X113237893Y-143104132D01*
X113257599Y-143118747D01*
X113275777Y-143135223D01*
X113292253Y-143153401D01*
X113306868Y-143173107D01*
X113319480Y-143194150D01*
X113329970Y-143216329D01*
X113338235Y-143239428D01*
X113344196Y-143263227D01*
X113347796Y-143287495D01*
X113349000Y-143311999D01*
X113349000Y-143962001D01*
X113347796Y-143986505D01*
X113344196Y-144010773D01*
X113338235Y-144034572D01*
X113329970Y-144057671D01*
X113319480Y-144079850D01*
X113306868Y-144100893D01*
X113292253Y-144120599D01*
X113275777Y-144138777D01*
X113257599Y-144155253D01*
X113237893Y-144169868D01*
X113216850Y-144182480D01*
X113194671Y-144192970D01*
X113171572Y-144201235D01*
X113147773Y-144207196D01*
X113123505Y-144210796D01*
X113099001Y-144212000D01*
X112198999Y-144212000D01*
X112174495Y-144210796D01*
X112150227Y-144207196D01*
X112126428Y-144201235D01*
X112103329Y-144192970D01*
X112081150Y-144182480D01*
X112060107Y-144169868D01*
X112040401Y-144155253D01*
X112022223Y-144138777D01*
X112005747Y-144120599D01*
X111991132Y-144100893D01*
X111978520Y-144079850D01*
X111968030Y-144057671D01*
X111959765Y-144034572D01*
X111953804Y-144010773D01*
X111950204Y-143986505D01*
X111949000Y-143962001D01*
X111949000Y-143311999D01*
X111950204Y-143287495D01*
X111953804Y-143263227D01*
X111959765Y-143239428D01*
X111968030Y-143216329D01*
X111978520Y-143194150D01*
X111991132Y-143173107D01*
X112005747Y-143153401D01*
X112022223Y-143135223D01*
X112040401Y-143118747D01*
X112060107Y-143104132D01*
X112081150Y-143091520D01*
X112103329Y-143081030D01*
X112126428Y-143072765D01*
X112150227Y-143066804D01*
X112174495Y-143063204D01*
X112198999Y-143062000D01*
X113099001Y-143062000D01*
X113123505Y-143063204D01*
X113123505Y-143063204D01*
G37*
D20*
G04 #@! TD*
G04 #@! TO.P,R12,1*
G04 #@! TO.N,GND*
X112649000Y-143637000D03*
D10*
G04 #@! TO.N,Net-(C11-Pad1)*
G04 #@! TO.C,R8*
G36*
X115282505Y-136350204D02*
X115306773Y-136353804D01*
X115330572Y-136359765D01*
X115353671Y-136368030D01*
X115375850Y-136378520D01*
X115396893Y-136391132D01*
X115416599Y-136405747D01*
X115434777Y-136422223D01*
X115451253Y-136440401D01*
X115465868Y-136460107D01*
X115478480Y-136481150D01*
X115488970Y-136503329D01*
X115497235Y-136526428D01*
X115503196Y-136550227D01*
X115506796Y-136574495D01*
X115508000Y-136598999D01*
X115508000Y-137249001D01*
X115506796Y-137273505D01*
X115503196Y-137297773D01*
X115497235Y-137321572D01*
X115488970Y-137344671D01*
X115478480Y-137366850D01*
X115465868Y-137387893D01*
X115451253Y-137407599D01*
X115434777Y-137425777D01*
X115416599Y-137442253D01*
X115396893Y-137456868D01*
X115375850Y-137469480D01*
X115353671Y-137479970D01*
X115330572Y-137488235D01*
X115306773Y-137494196D01*
X115282505Y-137497796D01*
X115258001Y-137499000D01*
X114357999Y-137499000D01*
X114333495Y-137497796D01*
X114309227Y-137494196D01*
X114285428Y-137488235D01*
X114262329Y-137479970D01*
X114240150Y-137469480D01*
X114219107Y-137456868D01*
X114199401Y-137442253D01*
X114181223Y-137425777D01*
X114164747Y-137407599D01*
X114150132Y-137387893D01*
X114137520Y-137366850D01*
X114127030Y-137344671D01*
X114118765Y-137321572D01*
X114112804Y-137297773D01*
X114109204Y-137273505D01*
X114108000Y-137249001D01*
X114108000Y-136598999D01*
X114109204Y-136574495D01*
X114112804Y-136550227D01*
X114118765Y-136526428D01*
X114127030Y-136503329D01*
X114137520Y-136481150D01*
X114150132Y-136460107D01*
X114164747Y-136440401D01*
X114181223Y-136422223D01*
X114199401Y-136405747D01*
X114219107Y-136391132D01*
X114240150Y-136378520D01*
X114262329Y-136368030D01*
X114285428Y-136359765D01*
X114309227Y-136353804D01*
X114333495Y-136350204D01*
X114357999Y-136349000D01*
X115258001Y-136349000D01*
X115282505Y-136350204D01*
X115282505Y-136350204D01*
G37*
D20*
G04 #@! TD*
G04 #@! TO.P,R8,2*
G04 #@! TO.N,Net-(C11-Pad1)*
X114808000Y-136924000D03*
D10*
G04 #@! TO.N,GND*
G04 #@! TO.C,R8*
G36*
X115282505Y-134300204D02*
X115306773Y-134303804D01*
X115330572Y-134309765D01*
X115353671Y-134318030D01*
X115375850Y-134328520D01*
X115396893Y-134341132D01*
X115416599Y-134355747D01*
X115434777Y-134372223D01*
X115451253Y-134390401D01*
X115465868Y-134410107D01*
X115478480Y-134431150D01*
X115488970Y-134453329D01*
X115497235Y-134476428D01*
X115503196Y-134500227D01*
X115506796Y-134524495D01*
X115508000Y-134548999D01*
X115508000Y-135199001D01*
X115506796Y-135223505D01*
X115503196Y-135247773D01*
X115497235Y-135271572D01*
X115488970Y-135294671D01*
X115478480Y-135316850D01*
X115465868Y-135337893D01*
X115451253Y-135357599D01*
X115434777Y-135375777D01*
X115416599Y-135392253D01*
X115396893Y-135406868D01*
X115375850Y-135419480D01*
X115353671Y-135429970D01*
X115330572Y-135438235D01*
X115306773Y-135444196D01*
X115282505Y-135447796D01*
X115258001Y-135449000D01*
X114357999Y-135449000D01*
X114333495Y-135447796D01*
X114309227Y-135444196D01*
X114285428Y-135438235D01*
X114262329Y-135429970D01*
X114240150Y-135419480D01*
X114219107Y-135406868D01*
X114199401Y-135392253D01*
X114181223Y-135375777D01*
X114164747Y-135357599D01*
X114150132Y-135337893D01*
X114137520Y-135316850D01*
X114127030Y-135294671D01*
X114118765Y-135271572D01*
X114112804Y-135247773D01*
X114109204Y-135223505D01*
X114108000Y-135199001D01*
X114108000Y-134548999D01*
X114109204Y-134524495D01*
X114112804Y-134500227D01*
X114118765Y-134476428D01*
X114127030Y-134453329D01*
X114137520Y-134431150D01*
X114150132Y-134410107D01*
X114164747Y-134390401D01*
X114181223Y-134372223D01*
X114199401Y-134355747D01*
X114219107Y-134341132D01*
X114240150Y-134328520D01*
X114262329Y-134318030D01*
X114285428Y-134309765D01*
X114309227Y-134303804D01*
X114333495Y-134300204D01*
X114357999Y-134299000D01*
X115258001Y-134299000D01*
X115282505Y-134300204D01*
X115282505Y-134300204D01*
G37*
D20*
G04 #@! TD*
G04 #@! TO.P,R8,1*
G04 #@! TO.N,GND*
X114808000Y-134874000D03*
D10*
G04 #@! TO.N,+5V*
G04 #@! TO.C,R6*
G36*
X89630505Y-130873204D02*
X89654773Y-130876804D01*
X89678572Y-130882765D01*
X89701671Y-130891030D01*
X89723850Y-130901520D01*
X89744893Y-130914132D01*
X89764599Y-130928747D01*
X89782777Y-130945223D01*
X89799253Y-130963401D01*
X89813868Y-130983107D01*
X89826480Y-131004150D01*
X89836970Y-131026329D01*
X89845235Y-131049428D01*
X89851196Y-131073227D01*
X89854796Y-131097495D01*
X89856000Y-131121999D01*
X89856000Y-132022001D01*
X89854796Y-132046505D01*
X89851196Y-132070773D01*
X89845235Y-132094572D01*
X89836970Y-132117671D01*
X89826480Y-132139850D01*
X89813868Y-132160893D01*
X89799253Y-132180599D01*
X89782777Y-132198777D01*
X89764599Y-132215253D01*
X89744893Y-132229868D01*
X89723850Y-132242480D01*
X89701671Y-132252970D01*
X89678572Y-132261235D01*
X89654773Y-132267196D01*
X89630505Y-132270796D01*
X89606001Y-132272000D01*
X88955999Y-132272000D01*
X88931495Y-132270796D01*
X88907227Y-132267196D01*
X88883428Y-132261235D01*
X88860329Y-132252970D01*
X88838150Y-132242480D01*
X88817107Y-132229868D01*
X88797401Y-132215253D01*
X88779223Y-132198777D01*
X88762747Y-132180599D01*
X88748132Y-132160893D01*
X88735520Y-132139850D01*
X88725030Y-132117671D01*
X88716765Y-132094572D01*
X88710804Y-132070773D01*
X88707204Y-132046505D01*
X88706000Y-132022001D01*
X88706000Y-131121999D01*
X88707204Y-131097495D01*
X88710804Y-131073227D01*
X88716765Y-131049428D01*
X88725030Y-131026329D01*
X88735520Y-131004150D01*
X88748132Y-130983107D01*
X88762747Y-130963401D01*
X88779223Y-130945223D01*
X88797401Y-130928747D01*
X88817107Y-130914132D01*
X88838150Y-130901520D01*
X88860329Y-130891030D01*
X88883428Y-130882765D01*
X88907227Y-130876804D01*
X88931495Y-130873204D01*
X88955999Y-130872000D01*
X89606001Y-130872000D01*
X89630505Y-130873204D01*
X89630505Y-130873204D01*
G37*
D20*
G04 #@! TD*
G04 #@! TO.P,R6,2*
G04 #@! TO.N,+5V*
X89281000Y-131572000D03*
D10*
G04 #@! TO.N,Reset*
G04 #@! TO.C,R6*
G36*
X87580505Y-130873204D02*
X87604773Y-130876804D01*
X87628572Y-130882765D01*
X87651671Y-130891030D01*
X87673850Y-130901520D01*
X87694893Y-130914132D01*
X87714599Y-130928747D01*
X87732777Y-130945223D01*
X87749253Y-130963401D01*
X87763868Y-130983107D01*
X87776480Y-131004150D01*
X87786970Y-131026329D01*
X87795235Y-131049428D01*
X87801196Y-131073227D01*
X87804796Y-131097495D01*
X87806000Y-131121999D01*
X87806000Y-132022001D01*
X87804796Y-132046505D01*
X87801196Y-132070773D01*
X87795235Y-132094572D01*
X87786970Y-132117671D01*
X87776480Y-132139850D01*
X87763868Y-132160893D01*
X87749253Y-132180599D01*
X87732777Y-132198777D01*
X87714599Y-132215253D01*
X87694893Y-132229868D01*
X87673850Y-132242480D01*
X87651671Y-132252970D01*
X87628572Y-132261235D01*
X87604773Y-132267196D01*
X87580505Y-132270796D01*
X87556001Y-132272000D01*
X86905999Y-132272000D01*
X86881495Y-132270796D01*
X86857227Y-132267196D01*
X86833428Y-132261235D01*
X86810329Y-132252970D01*
X86788150Y-132242480D01*
X86767107Y-132229868D01*
X86747401Y-132215253D01*
X86729223Y-132198777D01*
X86712747Y-132180599D01*
X86698132Y-132160893D01*
X86685520Y-132139850D01*
X86675030Y-132117671D01*
X86666765Y-132094572D01*
X86660804Y-132070773D01*
X86657204Y-132046505D01*
X86656000Y-132022001D01*
X86656000Y-131121999D01*
X86657204Y-131097495D01*
X86660804Y-131073227D01*
X86666765Y-131049428D01*
X86675030Y-131026329D01*
X86685520Y-131004150D01*
X86698132Y-130983107D01*
X86712747Y-130963401D01*
X86729223Y-130945223D01*
X86747401Y-130928747D01*
X86767107Y-130914132D01*
X86788150Y-130901520D01*
X86810329Y-130891030D01*
X86833428Y-130882765D01*
X86857227Y-130876804D01*
X86881495Y-130873204D01*
X86905999Y-130872000D01*
X87556001Y-130872000D01*
X87580505Y-130873204D01*
X87580505Y-130873204D01*
G37*
D20*
G04 #@! TD*
G04 #@! TO.P,R6,1*
G04 #@! TO.N,Reset*
X87231000Y-131572000D03*
D10*
G04 #@! TO.N,+5V*
G04 #@! TO.C,R5*
G36*
X89630505Y-134175204D02*
X89654773Y-134178804D01*
X89678572Y-134184765D01*
X89701671Y-134193030D01*
X89723850Y-134203520D01*
X89744893Y-134216132D01*
X89764599Y-134230747D01*
X89782777Y-134247223D01*
X89799253Y-134265401D01*
X89813868Y-134285107D01*
X89826480Y-134306150D01*
X89836970Y-134328329D01*
X89845235Y-134351428D01*
X89851196Y-134375227D01*
X89854796Y-134399495D01*
X89856000Y-134423999D01*
X89856000Y-135324001D01*
X89854796Y-135348505D01*
X89851196Y-135372773D01*
X89845235Y-135396572D01*
X89836970Y-135419671D01*
X89826480Y-135441850D01*
X89813868Y-135462893D01*
X89799253Y-135482599D01*
X89782777Y-135500777D01*
X89764599Y-135517253D01*
X89744893Y-135531868D01*
X89723850Y-135544480D01*
X89701671Y-135554970D01*
X89678572Y-135563235D01*
X89654773Y-135569196D01*
X89630505Y-135572796D01*
X89606001Y-135574000D01*
X88955999Y-135574000D01*
X88931495Y-135572796D01*
X88907227Y-135569196D01*
X88883428Y-135563235D01*
X88860329Y-135554970D01*
X88838150Y-135544480D01*
X88817107Y-135531868D01*
X88797401Y-135517253D01*
X88779223Y-135500777D01*
X88762747Y-135482599D01*
X88748132Y-135462893D01*
X88735520Y-135441850D01*
X88725030Y-135419671D01*
X88716765Y-135396572D01*
X88710804Y-135372773D01*
X88707204Y-135348505D01*
X88706000Y-135324001D01*
X88706000Y-134423999D01*
X88707204Y-134399495D01*
X88710804Y-134375227D01*
X88716765Y-134351428D01*
X88725030Y-134328329D01*
X88735520Y-134306150D01*
X88748132Y-134285107D01*
X88762747Y-134265401D01*
X88779223Y-134247223D01*
X88797401Y-134230747D01*
X88817107Y-134216132D01*
X88838150Y-134203520D01*
X88860329Y-134193030D01*
X88883428Y-134184765D01*
X88907227Y-134178804D01*
X88931495Y-134175204D01*
X88955999Y-134174000D01*
X89606001Y-134174000D01*
X89630505Y-134175204D01*
X89630505Y-134175204D01*
G37*
D20*
G04 #@! TD*
G04 #@! TO.P,R5,2*
G04 #@! TO.N,+5V*
X89281000Y-134874000D03*
D10*
G04 #@! TO.N,A2_D16_Power_Sens*
G04 #@! TO.C,R5*
G36*
X87580505Y-134175204D02*
X87604773Y-134178804D01*
X87628572Y-134184765D01*
X87651671Y-134193030D01*
X87673850Y-134203520D01*
X87694893Y-134216132D01*
X87714599Y-134230747D01*
X87732777Y-134247223D01*
X87749253Y-134265401D01*
X87763868Y-134285107D01*
X87776480Y-134306150D01*
X87786970Y-134328329D01*
X87795235Y-134351428D01*
X87801196Y-134375227D01*
X87804796Y-134399495D01*
X87806000Y-134423999D01*
X87806000Y-135324001D01*
X87804796Y-135348505D01*
X87801196Y-135372773D01*
X87795235Y-135396572D01*
X87786970Y-135419671D01*
X87776480Y-135441850D01*
X87763868Y-135462893D01*
X87749253Y-135482599D01*
X87732777Y-135500777D01*
X87714599Y-135517253D01*
X87694893Y-135531868D01*
X87673850Y-135544480D01*
X87651671Y-135554970D01*
X87628572Y-135563235D01*
X87604773Y-135569196D01*
X87580505Y-135572796D01*
X87556001Y-135574000D01*
X86905999Y-135574000D01*
X86881495Y-135572796D01*
X86857227Y-135569196D01*
X86833428Y-135563235D01*
X86810329Y-135554970D01*
X86788150Y-135544480D01*
X86767107Y-135531868D01*
X86747401Y-135517253D01*
X86729223Y-135500777D01*
X86712747Y-135482599D01*
X86698132Y-135462893D01*
X86685520Y-135441850D01*
X86675030Y-135419671D01*
X86666765Y-135396572D01*
X86660804Y-135372773D01*
X86657204Y-135348505D01*
X86656000Y-135324001D01*
X86656000Y-134423999D01*
X86657204Y-134399495D01*
X86660804Y-134375227D01*
X86666765Y-134351428D01*
X86675030Y-134328329D01*
X86685520Y-134306150D01*
X86698132Y-134285107D01*
X86712747Y-134265401D01*
X86729223Y-134247223D01*
X86747401Y-134230747D01*
X86767107Y-134216132D01*
X86788150Y-134203520D01*
X86810329Y-134193030D01*
X86833428Y-134184765D01*
X86857227Y-134178804D01*
X86881495Y-134175204D01*
X86905999Y-134174000D01*
X87556001Y-134174000D01*
X87580505Y-134175204D01*
X87580505Y-134175204D01*
G37*
D20*
G04 #@! TD*
G04 #@! TO.P,R5,1*
G04 #@! TO.N,A2_D16_Power_Sens*
X87231000Y-134874000D03*
D10*
G04 #@! TO.N,Net-(C14-Pad1)*
G04 #@! TO.C,R14*
G36*
X113885505Y-151953204D02*
X113909773Y-151956804D01*
X113933572Y-151962765D01*
X113956671Y-151971030D01*
X113978850Y-151981520D01*
X113999893Y-151994132D01*
X114019599Y-152008747D01*
X114037777Y-152025223D01*
X114054253Y-152043401D01*
X114068868Y-152063107D01*
X114081480Y-152084150D01*
X114091970Y-152106329D01*
X114100235Y-152129428D01*
X114106196Y-152153227D01*
X114109796Y-152177495D01*
X114111000Y-152201999D01*
X114111000Y-152852001D01*
X114109796Y-152876505D01*
X114106196Y-152900773D01*
X114100235Y-152924572D01*
X114091970Y-152947671D01*
X114081480Y-152969850D01*
X114068868Y-152990893D01*
X114054253Y-153010599D01*
X114037777Y-153028777D01*
X114019599Y-153045253D01*
X113999893Y-153059868D01*
X113978850Y-153072480D01*
X113956671Y-153082970D01*
X113933572Y-153091235D01*
X113909773Y-153097196D01*
X113885505Y-153100796D01*
X113861001Y-153102000D01*
X112960999Y-153102000D01*
X112936495Y-153100796D01*
X112912227Y-153097196D01*
X112888428Y-153091235D01*
X112865329Y-153082970D01*
X112843150Y-153072480D01*
X112822107Y-153059868D01*
X112802401Y-153045253D01*
X112784223Y-153028777D01*
X112767747Y-153010599D01*
X112753132Y-152990893D01*
X112740520Y-152969850D01*
X112730030Y-152947671D01*
X112721765Y-152924572D01*
X112715804Y-152900773D01*
X112712204Y-152876505D01*
X112711000Y-152852001D01*
X112711000Y-152201999D01*
X112712204Y-152177495D01*
X112715804Y-152153227D01*
X112721765Y-152129428D01*
X112730030Y-152106329D01*
X112740520Y-152084150D01*
X112753132Y-152063107D01*
X112767747Y-152043401D01*
X112784223Y-152025223D01*
X112802401Y-152008747D01*
X112822107Y-151994132D01*
X112843150Y-151981520D01*
X112865329Y-151971030D01*
X112888428Y-151962765D01*
X112912227Y-151956804D01*
X112936495Y-151953204D01*
X112960999Y-151952000D01*
X113861001Y-151952000D01*
X113885505Y-151953204D01*
X113885505Y-151953204D01*
G37*
D20*
G04 #@! TD*
G04 #@! TO.P,R14,2*
G04 #@! TO.N,Net-(C14-Pad1)*
X113411000Y-152527000D03*
D10*
G04 #@! TO.N,GND*
G04 #@! TO.C,R14*
G36*
X113885505Y-154003204D02*
X113909773Y-154006804D01*
X113933572Y-154012765D01*
X113956671Y-154021030D01*
X113978850Y-154031520D01*
X113999893Y-154044132D01*
X114019599Y-154058747D01*
X114037777Y-154075223D01*
X114054253Y-154093401D01*
X114068868Y-154113107D01*
X114081480Y-154134150D01*
X114091970Y-154156329D01*
X114100235Y-154179428D01*
X114106196Y-154203227D01*
X114109796Y-154227495D01*
X114111000Y-154251999D01*
X114111000Y-154902001D01*
X114109796Y-154926505D01*
X114106196Y-154950773D01*
X114100235Y-154974572D01*
X114091970Y-154997671D01*
X114081480Y-155019850D01*
X114068868Y-155040893D01*
X114054253Y-155060599D01*
X114037777Y-155078777D01*
X114019599Y-155095253D01*
X113999893Y-155109868D01*
X113978850Y-155122480D01*
X113956671Y-155132970D01*
X113933572Y-155141235D01*
X113909773Y-155147196D01*
X113885505Y-155150796D01*
X113861001Y-155152000D01*
X112960999Y-155152000D01*
X112936495Y-155150796D01*
X112912227Y-155147196D01*
X112888428Y-155141235D01*
X112865329Y-155132970D01*
X112843150Y-155122480D01*
X112822107Y-155109868D01*
X112802401Y-155095253D01*
X112784223Y-155078777D01*
X112767747Y-155060599D01*
X112753132Y-155040893D01*
X112740520Y-155019850D01*
X112730030Y-154997671D01*
X112721765Y-154974572D01*
X112715804Y-154950773D01*
X112712204Y-154926505D01*
X112711000Y-154902001D01*
X112711000Y-154251999D01*
X112712204Y-154227495D01*
X112715804Y-154203227D01*
X112721765Y-154179428D01*
X112730030Y-154156329D01*
X112740520Y-154134150D01*
X112753132Y-154113107D01*
X112767747Y-154093401D01*
X112784223Y-154075223D01*
X112802401Y-154058747D01*
X112822107Y-154044132D01*
X112843150Y-154031520D01*
X112865329Y-154021030D01*
X112888428Y-154012765D01*
X112912227Y-154006804D01*
X112936495Y-154003204D01*
X112960999Y-154002000D01*
X113861001Y-154002000D01*
X113885505Y-154003204D01*
X113885505Y-154003204D01*
G37*
D20*
G04 #@! TD*
G04 #@! TO.P,R14,1*
G04 #@! TO.N,GND*
X113411000Y-154577000D03*
D10*
G04 #@! TO.N,GND*
G04 #@! TO.C,C6*
G36*
X72530642Y-126682174D02*
X72554303Y-126685684D01*
X72577507Y-126691496D01*
X72600029Y-126699554D01*
X72621653Y-126709782D01*
X72642170Y-126722079D01*
X72661383Y-126736329D01*
X72679107Y-126752393D01*
X72695171Y-126770117D01*
X72709421Y-126789330D01*
X72721718Y-126809847D01*
X72731946Y-126831471D01*
X72740004Y-126853993D01*
X72745816Y-126877197D01*
X72749326Y-126900858D01*
X72750500Y-126924750D01*
X72750500Y-127837250D01*
X72749326Y-127861142D01*
X72745816Y-127884803D01*
X72740004Y-127908007D01*
X72731946Y-127930529D01*
X72721718Y-127952153D01*
X72709421Y-127972670D01*
X72695171Y-127991883D01*
X72679107Y-128009607D01*
X72661383Y-128025671D01*
X72642170Y-128039921D01*
X72621653Y-128052218D01*
X72600029Y-128062446D01*
X72577507Y-128070504D01*
X72554303Y-128076316D01*
X72530642Y-128079826D01*
X72506750Y-128081000D01*
X72019250Y-128081000D01*
X71995358Y-128079826D01*
X71971697Y-128076316D01*
X71948493Y-128070504D01*
X71925971Y-128062446D01*
X71904347Y-128052218D01*
X71883830Y-128039921D01*
X71864617Y-128025671D01*
X71846893Y-128009607D01*
X71830829Y-127991883D01*
X71816579Y-127972670D01*
X71804282Y-127952153D01*
X71794054Y-127930529D01*
X71785996Y-127908007D01*
X71780184Y-127884803D01*
X71776674Y-127861142D01*
X71775500Y-127837250D01*
X71775500Y-126924750D01*
X71776674Y-126900858D01*
X71780184Y-126877197D01*
X71785996Y-126853993D01*
X71794054Y-126831471D01*
X71804282Y-126809847D01*
X71816579Y-126789330D01*
X71830829Y-126770117D01*
X71846893Y-126752393D01*
X71864617Y-126736329D01*
X71883830Y-126722079D01*
X71904347Y-126709782D01*
X71925971Y-126699554D01*
X71948493Y-126691496D01*
X71971697Y-126685684D01*
X71995358Y-126682174D01*
X72019250Y-126681000D01*
X72506750Y-126681000D01*
X72530642Y-126682174D01*
X72530642Y-126682174D01*
G37*
D21*
G04 #@! TD*
G04 #@! TO.P,C6,2*
G04 #@! TO.N,GND*
X72263000Y-127381000D03*
D10*
G04 #@! TO.N,+5V*
G04 #@! TO.C,C6*
G36*
X74405642Y-126682174D02*
X74429303Y-126685684D01*
X74452507Y-126691496D01*
X74475029Y-126699554D01*
X74496653Y-126709782D01*
X74517170Y-126722079D01*
X74536383Y-126736329D01*
X74554107Y-126752393D01*
X74570171Y-126770117D01*
X74584421Y-126789330D01*
X74596718Y-126809847D01*
X74606946Y-126831471D01*
X74615004Y-126853993D01*
X74620816Y-126877197D01*
X74624326Y-126900858D01*
X74625500Y-126924750D01*
X74625500Y-127837250D01*
X74624326Y-127861142D01*
X74620816Y-127884803D01*
X74615004Y-127908007D01*
X74606946Y-127930529D01*
X74596718Y-127952153D01*
X74584421Y-127972670D01*
X74570171Y-127991883D01*
X74554107Y-128009607D01*
X74536383Y-128025671D01*
X74517170Y-128039921D01*
X74496653Y-128052218D01*
X74475029Y-128062446D01*
X74452507Y-128070504D01*
X74429303Y-128076316D01*
X74405642Y-128079826D01*
X74381750Y-128081000D01*
X73894250Y-128081000D01*
X73870358Y-128079826D01*
X73846697Y-128076316D01*
X73823493Y-128070504D01*
X73800971Y-128062446D01*
X73779347Y-128052218D01*
X73758830Y-128039921D01*
X73739617Y-128025671D01*
X73721893Y-128009607D01*
X73705829Y-127991883D01*
X73691579Y-127972670D01*
X73679282Y-127952153D01*
X73669054Y-127930529D01*
X73660996Y-127908007D01*
X73655184Y-127884803D01*
X73651674Y-127861142D01*
X73650500Y-127837250D01*
X73650500Y-126924750D01*
X73651674Y-126900858D01*
X73655184Y-126877197D01*
X73660996Y-126853993D01*
X73669054Y-126831471D01*
X73679282Y-126809847D01*
X73691579Y-126789330D01*
X73705829Y-126770117D01*
X73721893Y-126752393D01*
X73739617Y-126736329D01*
X73758830Y-126722079D01*
X73779347Y-126709782D01*
X73800971Y-126699554D01*
X73823493Y-126691496D01*
X73846697Y-126685684D01*
X73870358Y-126682174D01*
X73894250Y-126681000D01*
X74381750Y-126681000D01*
X74405642Y-126682174D01*
X74405642Y-126682174D01*
G37*
D21*
G04 #@! TD*
G04 #@! TO.P,C6,1*
G04 #@! TO.N,+5V*
X74138000Y-127381000D03*
D10*
G04 #@! TO.N,GND*
G04 #@! TO.C,C2*
G36*
X78966142Y-151182174D02*
X78989803Y-151185684D01*
X79013007Y-151191496D01*
X79035529Y-151199554D01*
X79057153Y-151209782D01*
X79077670Y-151222079D01*
X79096883Y-151236329D01*
X79114607Y-151252393D01*
X79130671Y-151270117D01*
X79144921Y-151289330D01*
X79157218Y-151309847D01*
X79167446Y-151331471D01*
X79175504Y-151353993D01*
X79181316Y-151377197D01*
X79184826Y-151400858D01*
X79186000Y-151424750D01*
X79186000Y-151912250D01*
X79184826Y-151936142D01*
X79181316Y-151959803D01*
X79175504Y-151983007D01*
X79167446Y-152005529D01*
X79157218Y-152027153D01*
X79144921Y-152047670D01*
X79130671Y-152066883D01*
X79114607Y-152084607D01*
X79096883Y-152100671D01*
X79077670Y-152114921D01*
X79057153Y-152127218D01*
X79035529Y-152137446D01*
X79013007Y-152145504D01*
X78989803Y-152151316D01*
X78966142Y-152154826D01*
X78942250Y-152156000D01*
X78029750Y-152156000D01*
X78005858Y-152154826D01*
X77982197Y-152151316D01*
X77958993Y-152145504D01*
X77936471Y-152137446D01*
X77914847Y-152127218D01*
X77894330Y-152114921D01*
X77875117Y-152100671D01*
X77857393Y-152084607D01*
X77841329Y-152066883D01*
X77827079Y-152047670D01*
X77814782Y-152027153D01*
X77804554Y-152005529D01*
X77796496Y-151983007D01*
X77790684Y-151959803D01*
X77787174Y-151936142D01*
X77786000Y-151912250D01*
X77786000Y-151424750D01*
X77787174Y-151400858D01*
X77790684Y-151377197D01*
X77796496Y-151353993D01*
X77804554Y-151331471D01*
X77814782Y-151309847D01*
X77827079Y-151289330D01*
X77841329Y-151270117D01*
X77857393Y-151252393D01*
X77875117Y-151236329D01*
X77894330Y-151222079D01*
X77914847Y-151209782D01*
X77936471Y-151199554D01*
X77958993Y-151191496D01*
X77982197Y-151185684D01*
X78005858Y-151182174D01*
X78029750Y-151181000D01*
X78942250Y-151181000D01*
X78966142Y-151182174D01*
X78966142Y-151182174D01*
G37*
D21*
G04 #@! TD*
G04 #@! TO.P,C2,2*
G04 #@! TO.N,GND*
X78486000Y-151668500D03*
D10*
G04 #@! TO.N,Net-(C1-Pad1)*
G04 #@! TO.C,C2*
G36*
X78966142Y-153057174D02*
X78989803Y-153060684D01*
X79013007Y-153066496D01*
X79035529Y-153074554D01*
X79057153Y-153084782D01*
X79077670Y-153097079D01*
X79096883Y-153111329D01*
X79114607Y-153127393D01*
X79130671Y-153145117D01*
X79144921Y-153164330D01*
X79157218Y-153184847D01*
X79167446Y-153206471D01*
X79175504Y-153228993D01*
X79181316Y-153252197D01*
X79184826Y-153275858D01*
X79186000Y-153299750D01*
X79186000Y-153787250D01*
X79184826Y-153811142D01*
X79181316Y-153834803D01*
X79175504Y-153858007D01*
X79167446Y-153880529D01*
X79157218Y-153902153D01*
X79144921Y-153922670D01*
X79130671Y-153941883D01*
X79114607Y-153959607D01*
X79096883Y-153975671D01*
X79077670Y-153989921D01*
X79057153Y-154002218D01*
X79035529Y-154012446D01*
X79013007Y-154020504D01*
X78989803Y-154026316D01*
X78966142Y-154029826D01*
X78942250Y-154031000D01*
X78029750Y-154031000D01*
X78005858Y-154029826D01*
X77982197Y-154026316D01*
X77958993Y-154020504D01*
X77936471Y-154012446D01*
X77914847Y-154002218D01*
X77894330Y-153989921D01*
X77875117Y-153975671D01*
X77857393Y-153959607D01*
X77841329Y-153941883D01*
X77827079Y-153922670D01*
X77814782Y-153902153D01*
X77804554Y-153880529D01*
X77796496Y-153858007D01*
X77790684Y-153834803D01*
X77787174Y-153811142D01*
X77786000Y-153787250D01*
X77786000Y-153299750D01*
X77787174Y-153275858D01*
X77790684Y-153252197D01*
X77796496Y-153228993D01*
X77804554Y-153206471D01*
X77814782Y-153184847D01*
X77827079Y-153164330D01*
X77841329Y-153145117D01*
X77857393Y-153127393D01*
X77875117Y-153111329D01*
X77894330Y-153097079D01*
X77914847Y-153084782D01*
X77936471Y-153074554D01*
X77958993Y-153066496D01*
X77982197Y-153060684D01*
X78005858Y-153057174D01*
X78029750Y-153056000D01*
X78942250Y-153056000D01*
X78966142Y-153057174D01*
X78966142Y-153057174D01*
G37*
D21*
G04 #@! TD*
G04 #@! TO.P,C2,1*
G04 #@! TO.N,Net-(C1-Pad1)*
X78486000Y-153543500D03*
D10*
G04 #@! TO.N,GND*
G04 #@! TO.C,C4*
G36*
X71896504Y-128916204D02*
X71920773Y-128919804D01*
X71944571Y-128925765D01*
X71967671Y-128934030D01*
X71989849Y-128944520D01*
X72010893Y-128957133D01*
X72030598Y-128971747D01*
X72048777Y-128988223D01*
X72065253Y-129006402D01*
X72079867Y-129026107D01*
X72092480Y-129047151D01*
X72102970Y-129069329D01*
X72111235Y-129092429D01*
X72117196Y-129116227D01*
X72120796Y-129140496D01*
X72122000Y-129165000D01*
X72122000Y-129915000D01*
X72120796Y-129939504D01*
X72117196Y-129963773D01*
X72111235Y-129987571D01*
X72102970Y-130010671D01*
X72092480Y-130032849D01*
X72079867Y-130053893D01*
X72065253Y-130073598D01*
X72048777Y-130091777D01*
X72030598Y-130108253D01*
X72010893Y-130122867D01*
X71989849Y-130135480D01*
X71967671Y-130145970D01*
X71944571Y-130154235D01*
X71920773Y-130160196D01*
X71896504Y-130163796D01*
X71872000Y-130165000D01*
X70622000Y-130165000D01*
X70597496Y-130163796D01*
X70573227Y-130160196D01*
X70549429Y-130154235D01*
X70526329Y-130145970D01*
X70504151Y-130135480D01*
X70483107Y-130122867D01*
X70463402Y-130108253D01*
X70445223Y-130091777D01*
X70428747Y-130073598D01*
X70414133Y-130053893D01*
X70401520Y-130032849D01*
X70391030Y-130010671D01*
X70382765Y-129987571D01*
X70376804Y-129963773D01*
X70373204Y-129939504D01*
X70372000Y-129915000D01*
X70372000Y-129165000D01*
X70373204Y-129140496D01*
X70376804Y-129116227D01*
X70382765Y-129092429D01*
X70391030Y-129069329D01*
X70401520Y-129047151D01*
X70414133Y-129026107D01*
X70428747Y-129006402D01*
X70445223Y-128988223D01*
X70463402Y-128971747D01*
X70483107Y-128957133D01*
X70504151Y-128944520D01*
X70526329Y-128934030D01*
X70549429Y-128925765D01*
X70573227Y-128919804D01*
X70597496Y-128916204D01*
X70622000Y-128915000D01*
X71872000Y-128915000D01*
X71896504Y-128916204D01*
X71896504Y-128916204D01*
G37*
D22*
G04 #@! TD*
G04 #@! TO.P,C4,2*
G04 #@! TO.N,GND*
X71247000Y-129540000D03*
D10*
G04 #@! TO.N,Net-(C4-Pad1)*
G04 #@! TO.C,C4*
G36*
X71896504Y-131716204D02*
X71920773Y-131719804D01*
X71944571Y-131725765D01*
X71967671Y-131734030D01*
X71989849Y-131744520D01*
X72010893Y-131757133D01*
X72030598Y-131771747D01*
X72048777Y-131788223D01*
X72065253Y-131806402D01*
X72079867Y-131826107D01*
X72092480Y-131847151D01*
X72102970Y-131869329D01*
X72111235Y-131892429D01*
X72117196Y-131916227D01*
X72120796Y-131940496D01*
X72122000Y-131965000D01*
X72122000Y-132715000D01*
X72120796Y-132739504D01*
X72117196Y-132763773D01*
X72111235Y-132787571D01*
X72102970Y-132810671D01*
X72092480Y-132832849D01*
X72079867Y-132853893D01*
X72065253Y-132873598D01*
X72048777Y-132891777D01*
X72030598Y-132908253D01*
X72010893Y-132922867D01*
X71989849Y-132935480D01*
X71967671Y-132945970D01*
X71944571Y-132954235D01*
X71920773Y-132960196D01*
X71896504Y-132963796D01*
X71872000Y-132965000D01*
X70622000Y-132965000D01*
X70597496Y-132963796D01*
X70573227Y-132960196D01*
X70549429Y-132954235D01*
X70526329Y-132945970D01*
X70504151Y-132935480D01*
X70483107Y-132922867D01*
X70463402Y-132908253D01*
X70445223Y-132891777D01*
X70428747Y-132873598D01*
X70414133Y-132853893D01*
X70401520Y-132832849D01*
X70391030Y-132810671D01*
X70382765Y-132787571D01*
X70376804Y-132763773D01*
X70373204Y-132739504D01*
X70372000Y-132715000D01*
X70372000Y-131965000D01*
X70373204Y-131940496D01*
X70376804Y-131916227D01*
X70382765Y-131892429D01*
X70391030Y-131869329D01*
X70401520Y-131847151D01*
X70414133Y-131826107D01*
X70428747Y-131806402D01*
X70445223Y-131788223D01*
X70463402Y-131771747D01*
X70483107Y-131757133D01*
X70504151Y-131744520D01*
X70526329Y-131734030D01*
X70549429Y-131725765D01*
X70573227Y-131719804D01*
X70597496Y-131716204D01*
X70622000Y-131715000D01*
X71872000Y-131715000D01*
X71896504Y-131716204D01*
X71896504Y-131716204D01*
G37*
D22*
G04 #@! TD*
G04 #@! TO.P,C4,1*
G04 #@! TO.N,Net-(C4-Pad1)*
X71247000Y-132340000D03*
D10*
G04 #@! TO.N,GND*
G04 #@! TO.C,C3*
G36*
X73164504Y-137683204D02*
X73188773Y-137686804D01*
X73212571Y-137692765D01*
X73235671Y-137701030D01*
X73257849Y-137711520D01*
X73278893Y-137724133D01*
X73298598Y-137738747D01*
X73316777Y-137755223D01*
X73333253Y-137773402D01*
X73347867Y-137793107D01*
X73360480Y-137814151D01*
X73370970Y-137836329D01*
X73379235Y-137859429D01*
X73385196Y-137883227D01*
X73388796Y-137907496D01*
X73390000Y-137932000D01*
X73390000Y-139182000D01*
X73388796Y-139206504D01*
X73385196Y-139230773D01*
X73379235Y-139254571D01*
X73370970Y-139277671D01*
X73360480Y-139299849D01*
X73347867Y-139320893D01*
X73333253Y-139340598D01*
X73316777Y-139358777D01*
X73298598Y-139375253D01*
X73278893Y-139389867D01*
X73257849Y-139402480D01*
X73235671Y-139412970D01*
X73212571Y-139421235D01*
X73188773Y-139427196D01*
X73164504Y-139430796D01*
X73140000Y-139432000D01*
X72390000Y-139432000D01*
X72365496Y-139430796D01*
X72341227Y-139427196D01*
X72317429Y-139421235D01*
X72294329Y-139412970D01*
X72272151Y-139402480D01*
X72251107Y-139389867D01*
X72231402Y-139375253D01*
X72213223Y-139358777D01*
X72196747Y-139340598D01*
X72182133Y-139320893D01*
X72169520Y-139299849D01*
X72159030Y-139277671D01*
X72150765Y-139254571D01*
X72144804Y-139230773D01*
X72141204Y-139206504D01*
X72140000Y-139182000D01*
X72140000Y-137932000D01*
X72141204Y-137907496D01*
X72144804Y-137883227D01*
X72150765Y-137859429D01*
X72159030Y-137836329D01*
X72169520Y-137814151D01*
X72182133Y-137793107D01*
X72196747Y-137773402D01*
X72213223Y-137755223D01*
X72231402Y-137738747D01*
X72251107Y-137724133D01*
X72272151Y-137711520D01*
X72294329Y-137701030D01*
X72317429Y-137692765D01*
X72341227Y-137686804D01*
X72365496Y-137683204D01*
X72390000Y-137682000D01*
X73140000Y-137682000D01*
X73164504Y-137683204D01*
X73164504Y-137683204D01*
G37*
D22*
G04 #@! TD*
G04 #@! TO.P,C3,2*
G04 #@! TO.N,GND*
X72765000Y-138557000D03*
D10*
G04 #@! TO.N,Net-(C3-Pad1)*
G04 #@! TO.C,C3*
G36*
X75964504Y-137683204D02*
X75988773Y-137686804D01*
X76012571Y-137692765D01*
X76035671Y-137701030D01*
X76057849Y-137711520D01*
X76078893Y-137724133D01*
X76098598Y-137738747D01*
X76116777Y-137755223D01*
X76133253Y-137773402D01*
X76147867Y-137793107D01*
X76160480Y-137814151D01*
X76170970Y-137836329D01*
X76179235Y-137859429D01*
X76185196Y-137883227D01*
X76188796Y-137907496D01*
X76190000Y-137932000D01*
X76190000Y-139182000D01*
X76188796Y-139206504D01*
X76185196Y-139230773D01*
X76179235Y-139254571D01*
X76170970Y-139277671D01*
X76160480Y-139299849D01*
X76147867Y-139320893D01*
X76133253Y-139340598D01*
X76116777Y-139358777D01*
X76098598Y-139375253D01*
X76078893Y-139389867D01*
X76057849Y-139402480D01*
X76035671Y-139412970D01*
X76012571Y-139421235D01*
X75988773Y-139427196D01*
X75964504Y-139430796D01*
X75940000Y-139432000D01*
X75190000Y-139432000D01*
X75165496Y-139430796D01*
X75141227Y-139427196D01*
X75117429Y-139421235D01*
X75094329Y-139412970D01*
X75072151Y-139402480D01*
X75051107Y-139389867D01*
X75031402Y-139375253D01*
X75013223Y-139358777D01*
X74996747Y-139340598D01*
X74982133Y-139320893D01*
X74969520Y-139299849D01*
X74959030Y-139277671D01*
X74950765Y-139254571D01*
X74944804Y-139230773D01*
X74941204Y-139206504D01*
X74940000Y-139182000D01*
X74940000Y-137932000D01*
X74941204Y-137907496D01*
X74944804Y-137883227D01*
X74950765Y-137859429D01*
X74959030Y-137836329D01*
X74969520Y-137814151D01*
X74982133Y-137793107D01*
X74996747Y-137773402D01*
X75013223Y-137755223D01*
X75031402Y-137738747D01*
X75051107Y-137724133D01*
X75072151Y-137711520D01*
X75094329Y-137701030D01*
X75117429Y-137692765D01*
X75141227Y-137686804D01*
X75165496Y-137683204D01*
X75190000Y-137682000D01*
X75940000Y-137682000D01*
X75964504Y-137683204D01*
X75964504Y-137683204D01*
G37*
D22*
G04 #@! TD*
G04 #@! TO.P,C3,1*
G04 #@! TO.N,Net-(C3-Pad1)*
X75565000Y-138557000D03*
D23*
G04 #@! TO.P,Y1,2*
G04 #@! TO.N,Net-(C8-Pad2)*
X92710000Y-145469000D03*
G04 #@! TO.P,Y1,1*
G04 #@! TO.N,Net-(C7-Pad1)*
X92710000Y-140589000D03*
G04 #@! TD*
D10*
G04 #@! TO.N,Net-(C8-Pad2)*
G04 #@! TO.C,R4*
G36*
X91533505Y-143589204D02*
X91557773Y-143592804D01*
X91581572Y-143598765D01*
X91604671Y-143607030D01*
X91626850Y-143617520D01*
X91647893Y-143630132D01*
X91667599Y-143644747D01*
X91685777Y-143661223D01*
X91702253Y-143679401D01*
X91716868Y-143699107D01*
X91729480Y-143720150D01*
X91739970Y-143742329D01*
X91748235Y-143765428D01*
X91754196Y-143789227D01*
X91757796Y-143813495D01*
X91759000Y-143837999D01*
X91759000Y-144488001D01*
X91757796Y-144512505D01*
X91754196Y-144536773D01*
X91748235Y-144560572D01*
X91739970Y-144583671D01*
X91729480Y-144605850D01*
X91716868Y-144626893D01*
X91702253Y-144646599D01*
X91685777Y-144664777D01*
X91667599Y-144681253D01*
X91647893Y-144695868D01*
X91626850Y-144708480D01*
X91604671Y-144718970D01*
X91581572Y-144727235D01*
X91557773Y-144733196D01*
X91533505Y-144736796D01*
X91509001Y-144738000D01*
X90608999Y-144738000D01*
X90584495Y-144736796D01*
X90560227Y-144733196D01*
X90536428Y-144727235D01*
X90513329Y-144718970D01*
X90491150Y-144708480D01*
X90470107Y-144695868D01*
X90450401Y-144681253D01*
X90432223Y-144664777D01*
X90415747Y-144646599D01*
X90401132Y-144626893D01*
X90388520Y-144605850D01*
X90378030Y-144583671D01*
X90369765Y-144560572D01*
X90363804Y-144536773D01*
X90360204Y-144512505D01*
X90359000Y-144488001D01*
X90359000Y-143837999D01*
X90360204Y-143813495D01*
X90363804Y-143789227D01*
X90369765Y-143765428D01*
X90378030Y-143742329D01*
X90388520Y-143720150D01*
X90401132Y-143699107D01*
X90415747Y-143679401D01*
X90432223Y-143661223D01*
X90450401Y-143644747D01*
X90470107Y-143630132D01*
X90491150Y-143617520D01*
X90513329Y-143607030D01*
X90536428Y-143598765D01*
X90560227Y-143592804D01*
X90584495Y-143589204D01*
X90608999Y-143588000D01*
X91509001Y-143588000D01*
X91533505Y-143589204D01*
X91533505Y-143589204D01*
G37*
D20*
G04 #@! TD*
G04 #@! TO.P,R4,2*
G04 #@! TO.N,Net-(C8-Pad2)*
X91059000Y-144163000D03*
D10*
G04 #@! TO.N,Net-(C7-Pad1)*
G04 #@! TO.C,R4*
G36*
X91533505Y-141539204D02*
X91557773Y-141542804D01*
X91581572Y-141548765D01*
X91604671Y-141557030D01*
X91626850Y-141567520D01*
X91647893Y-141580132D01*
X91667599Y-141594747D01*
X91685777Y-141611223D01*
X91702253Y-141629401D01*
X91716868Y-141649107D01*
X91729480Y-141670150D01*
X91739970Y-141692329D01*
X91748235Y-141715428D01*
X91754196Y-141739227D01*
X91757796Y-141763495D01*
X91759000Y-141787999D01*
X91759000Y-142438001D01*
X91757796Y-142462505D01*
X91754196Y-142486773D01*
X91748235Y-142510572D01*
X91739970Y-142533671D01*
X91729480Y-142555850D01*
X91716868Y-142576893D01*
X91702253Y-142596599D01*
X91685777Y-142614777D01*
X91667599Y-142631253D01*
X91647893Y-142645868D01*
X91626850Y-142658480D01*
X91604671Y-142668970D01*
X91581572Y-142677235D01*
X91557773Y-142683196D01*
X91533505Y-142686796D01*
X91509001Y-142688000D01*
X90608999Y-142688000D01*
X90584495Y-142686796D01*
X90560227Y-142683196D01*
X90536428Y-142677235D01*
X90513329Y-142668970D01*
X90491150Y-142658480D01*
X90470107Y-142645868D01*
X90450401Y-142631253D01*
X90432223Y-142614777D01*
X90415747Y-142596599D01*
X90401132Y-142576893D01*
X90388520Y-142555850D01*
X90378030Y-142533671D01*
X90369765Y-142510572D01*
X90363804Y-142486773D01*
X90360204Y-142462505D01*
X90359000Y-142438001D01*
X90359000Y-141787999D01*
X90360204Y-141763495D01*
X90363804Y-141739227D01*
X90369765Y-141715428D01*
X90378030Y-141692329D01*
X90388520Y-141670150D01*
X90401132Y-141649107D01*
X90415747Y-141629401D01*
X90432223Y-141611223D01*
X90450401Y-141594747D01*
X90470107Y-141580132D01*
X90491150Y-141567520D01*
X90513329Y-141557030D01*
X90536428Y-141548765D01*
X90560227Y-141542804D01*
X90584495Y-141539204D01*
X90608999Y-141538000D01*
X91509001Y-141538000D01*
X91533505Y-141539204D01*
X91533505Y-141539204D01*
G37*
D20*
G04 #@! TD*
G04 #@! TO.P,R4,1*
G04 #@! TO.N,Net-(C7-Pad1)*
X91059000Y-142113000D03*
D10*
G04 #@! TO.N,GND*
G04 #@! TO.C,R3*
G36*
X83755142Y-127444174D02*
X83778803Y-127447684D01*
X83802007Y-127453496D01*
X83824529Y-127461554D01*
X83846153Y-127471782D01*
X83866670Y-127484079D01*
X83885883Y-127498329D01*
X83903607Y-127514393D01*
X83919671Y-127532117D01*
X83933921Y-127551330D01*
X83946218Y-127571847D01*
X83956446Y-127593471D01*
X83964504Y-127615993D01*
X83970316Y-127639197D01*
X83973826Y-127662858D01*
X83975000Y-127686750D01*
X83975000Y-128599250D01*
X83973826Y-128623142D01*
X83970316Y-128646803D01*
X83964504Y-128670007D01*
X83956446Y-128692529D01*
X83946218Y-128714153D01*
X83933921Y-128734670D01*
X83919671Y-128753883D01*
X83903607Y-128771607D01*
X83885883Y-128787671D01*
X83866670Y-128801921D01*
X83846153Y-128814218D01*
X83824529Y-128824446D01*
X83802007Y-128832504D01*
X83778803Y-128838316D01*
X83755142Y-128841826D01*
X83731250Y-128843000D01*
X83243750Y-128843000D01*
X83219858Y-128841826D01*
X83196197Y-128838316D01*
X83172993Y-128832504D01*
X83150471Y-128824446D01*
X83128847Y-128814218D01*
X83108330Y-128801921D01*
X83089117Y-128787671D01*
X83071393Y-128771607D01*
X83055329Y-128753883D01*
X83041079Y-128734670D01*
X83028782Y-128714153D01*
X83018554Y-128692529D01*
X83010496Y-128670007D01*
X83004684Y-128646803D01*
X83001174Y-128623142D01*
X83000000Y-128599250D01*
X83000000Y-127686750D01*
X83001174Y-127662858D01*
X83004684Y-127639197D01*
X83010496Y-127615993D01*
X83018554Y-127593471D01*
X83028782Y-127571847D01*
X83041079Y-127551330D01*
X83055329Y-127532117D01*
X83071393Y-127514393D01*
X83089117Y-127498329D01*
X83108330Y-127484079D01*
X83128847Y-127471782D01*
X83150471Y-127461554D01*
X83172993Y-127453496D01*
X83196197Y-127447684D01*
X83219858Y-127444174D01*
X83243750Y-127443000D01*
X83731250Y-127443000D01*
X83755142Y-127444174D01*
X83755142Y-127444174D01*
G37*
D21*
G04 #@! TD*
G04 #@! TO.P,R3,2*
G04 #@! TO.N,GND*
X83487500Y-128143000D03*
D10*
G04 #@! TO.N,Net-(IC1-Pad2)*
G04 #@! TO.C,R3*
G36*
X81880142Y-127444174D02*
X81903803Y-127447684D01*
X81927007Y-127453496D01*
X81949529Y-127461554D01*
X81971153Y-127471782D01*
X81991670Y-127484079D01*
X82010883Y-127498329D01*
X82028607Y-127514393D01*
X82044671Y-127532117D01*
X82058921Y-127551330D01*
X82071218Y-127571847D01*
X82081446Y-127593471D01*
X82089504Y-127615993D01*
X82095316Y-127639197D01*
X82098826Y-127662858D01*
X82100000Y-127686750D01*
X82100000Y-128599250D01*
X82098826Y-128623142D01*
X82095316Y-128646803D01*
X82089504Y-128670007D01*
X82081446Y-128692529D01*
X82071218Y-128714153D01*
X82058921Y-128734670D01*
X82044671Y-128753883D01*
X82028607Y-128771607D01*
X82010883Y-128787671D01*
X81991670Y-128801921D01*
X81971153Y-128814218D01*
X81949529Y-128824446D01*
X81927007Y-128832504D01*
X81903803Y-128838316D01*
X81880142Y-128841826D01*
X81856250Y-128843000D01*
X81368750Y-128843000D01*
X81344858Y-128841826D01*
X81321197Y-128838316D01*
X81297993Y-128832504D01*
X81275471Y-128824446D01*
X81253847Y-128814218D01*
X81233330Y-128801921D01*
X81214117Y-128787671D01*
X81196393Y-128771607D01*
X81180329Y-128753883D01*
X81166079Y-128734670D01*
X81153782Y-128714153D01*
X81143554Y-128692529D01*
X81135496Y-128670007D01*
X81129684Y-128646803D01*
X81126174Y-128623142D01*
X81125000Y-128599250D01*
X81125000Y-127686750D01*
X81126174Y-127662858D01*
X81129684Y-127639197D01*
X81135496Y-127615993D01*
X81143554Y-127593471D01*
X81153782Y-127571847D01*
X81166079Y-127551330D01*
X81180329Y-127532117D01*
X81196393Y-127514393D01*
X81214117Y-127498329D01*
X81233330Y-127484079D01*
X81253847Y-127471782D01*
X81275471Y-127461554D01*
X81297993Y-127453496D01*
X81321197Y-127447684D01*
X81344858Y-127444174D01*
X81368750Y-127443000D01*
X81856250Y-127443000D01*
X81880142Y-127444174D01*
X81880142Y-127444174D01*
G37*
D21*
G04 #@! TD*
G04 #@! TO.P,R3,1*
G04 #@! TO.N,Net-(IC1-Pad2)*
X81612500Y-128143000D03*
D10*
G04 #@! TO.N,Net-(IC1-Pad2)*
G04 #@! TO.C,R2*
G36*
X74143505Y-133266204D02*
X74167773Y-133269804D01*
X74191572Y-133275765D01*
X74214671Y-133284030D01*
X74236850Y-133294520D01*
X74257893Y-133307132D01*
X74277599Y-133321747D01*
X74295777Y-133338223D01*
X74312253Y-133356401D01*
X74326868Y-133376107D01*
X74339480Y-133397150D01*
X74349970Y-133419329D01*
X74358235Y-133442428D01*
X74364196Y-133466227D01*
X74367796Y-133490495D01*
X74369000Y-133514999D01*
X74369000Y-134165001D01*
X74367796Y-134189505D01*
X74364196Y-134213773D01*
X74358235Y-134237572D01*
X74349970Y-134260671D01*
X74339480Y-134282850D01*
X74326868Y-134303893D01*
X74312253Y-134323599D01*
X74295777Y-134341777D01*
X74277599Y-134358253D01*
X74257893Y-134372868D01*
X74236850Y-134385480D01*
X74214671Y-134395970D01*
X74191572Y-134404235D01*
X74167773Y-134410196D01*
X74143505Y-134413796D01*
X74119001Y-134415000D01*
X73218999Y-134415000D01*
X73194495Y-134413796D01*
X73170227Y-134410196D01*
X73146428Y-134404235D01*
X73123329Y-134395970D01*
X73101150Y-134385480D01*
X73080107Y-134372868D01*
X73060401Y-134358253D01*
X73042223Y-134341777D01*
X73025747Y-134323599D01*
X73011132Y-134303893D01*
X72998520Y-134282850D01*
X72988030Y-134260671D01*
X72979765Y-134237572D01*
X72973804Y-134213773D01*
X72970204Y-134189505D01*
X72969000Y-134165001D01*
X72969000Y-133514999D01*
X72970204Y-133490495D01*
X72973804Y-133466227D01*
X72979765Y-133442428D01*
X72988030Y-133419329D01*
X72998520Y-133397150D01*
X73011132Y-133376107D01*
X73025747Y-133356401D01*
X73042223Y-133338223D01*
X73060401Y-133321747D01*
X73080107Y-133307132D01*
X73101150Y-133294520D01*
X73123329Y-133284030D01*
X73146428Y-133275765D01*
X73170227Y-133269804D01*
X73194495Y-133266204D01*
X73218999Y-133265000D01*
X74119001Y-133265000D01*
X74143505Y-133266204D01*
X74143505Y-133266204D01*
G37*
D20*
G04 #@! TD*
G04 #@! TO.P,R2,2*
G04 #@! TO.N,Net-(IC1-Pad2)*
X73669000Y-133840000D03*
D10*
G04 #@! TO.N,Net-(C1-Pad1)*
G04 #@! TO.C,R2*
G36*
X74143505Y-135316204D02*
X74167773Y-135319804D01*
X74191572Y-135325765D01*
X74214671Y-135334030D01*
X74236850Y-135344520D01*
X74257893Y-135357132D01*
X74277599Y-135371747D01*
X74295777Y-135388223D01*
X74312253Y-135406401D01*
X74326868Y-135426107D01*
X74339480Y-135447150D01*
X74349970Y-135469329D01*
X74358235Y-135492428D01*
X74364196Y-135516227D01*
X74367796Y-135540495D01*
X74369000Y-135564999D01*
X74369000Y-136215001D01*
X74367796Y-136239505D01*
X74364196Y-136263773D01*
X74358235Y-136287572D01*
X74349970Y-136310671D01*
X74339480Y-136332850D01*
X74326868Y-136353893D01*
X74312253Y-136373599D01*
X74295777Y-136391777D01*
X74277599Y-136408253D01*
X74257893Y-136422868D01*
X74236850Y-136435480D01*
X74214671Y-136445970D01*
X74191572Y-136454235D01*
X74167773Y-136460196D01*
X74143505Y-136463796D01*
X74119001Y-136465000D01*
X73218999Y-136465000D01*
X73194495Y-136463796D01*
X73170227Y-136460196D01*
X73146428Y-136454235D01*
X73123329Y-136445970D01*
X73101150Y-136435480D01*
X73080107Y-136422868D01*
X73060401Y-136408253D01*
X73042223Y-136391777D01*
X73025747Y-136373599D01*
X73011132Y-136353893D01*
X72998520Y-136332850D01*
X72988030Y-136310671D01*
X72979765Y-136287572D01*
X72973804Y-136263773D01*
X72970204Y-136239505D01*
X72969000Y-136215001D01*
X72969000Y-135564999D01*
X72970204Y-135540495D01*
X72973804Y-135516227D01*
X72979765Y-135492428D01*
X72988030Y-135469329D01*
X72998520Y-135447150D01*
X73011132Y-135426107D01*
X73025747Y-135406401D01*
X73042223Y-135388223D01*
X73060401Y-135371747D01*
X73080107Y-135357132D01*
X73101150Y-135344520D01*
X73123329Y-135334030D01*
X73146428Y-135325765D01*
X73170227Y-135319804D01*
X73194495Y-135316204D01*
X73218999Y-135315000D01*
X74119001Y-135315000D01*
X74143505Y-135316204D01*
X74143505Y-135316204D01*
G37*
D20*
G04 #@! TD*
G04 #@! TO.P,R2,1*
G04 #@! TO.N,Net-(C1-Pad1)*
X73669000Y-135890000D03*
D24*
G04 #@! TO.P,IC1,8*
G04 #@! TO.N,+5V*
X84582000Y-135509000D03*
G04 #@! TO.P,IC1,7*
G04 #@! TO.N,A2_D16_Power_Sens*
X84582000Y-134239000D03*
G04 #@! TO.P,IC1,6*
G04 #@! TO.N,Reset*
X84582000Y-132969000D03*
G04 #@! TO.P,IC1,5*
G04 #@! TO.N,GND*
X84582000Y-131699000D03*
G04 #@! TO.P,IC1,4*
G04 #@! TO.N,Net-(C4-Pad1)*
X77182000Y-131699000D03*
G04 #@! TO.P,IC1,3*
G04 #@! TO.N,Net-(C3-Pad1)*
X77182000Y-132969000D03*
G04 #@! TO.P,IC1,2*
G04 #@! TO.N,Net-(IC1-Pad2)*
X77182000Y-134239000D03*
G04 #@! TO.P,IC1,1*
G04 #@! TO.N,Net-(C1-Pad1)*
X77182000Y-135509000D03*
G04 #@! TD*
D25*
G04 #@! TO.N,Net-(C1-Pad1)*
X80929500Y-155189500D03*
X83439000Y-154686000D03*
G04 #@! TO.N,GND*
X86995000Y-159893000D03*
X67319000Y-141868000D03*
G04 #@! TO.N,+5V*
X111767000Y-132574000D03*
X99346800Y-142196100D03*
G04 #@! TO.N,Reset*
X88247500Y-132534600D03*
G04 #@! TO.N,Net-(C14-Pad1)*
X110041900Y-150810100D03*
G04 #@! TO.N,Net-(C11-Pad1)*
X113746500Y-137891500D03*
G04 #@! TO.N,Net-(C12-Pad1)*
X113276500Y-140393300D03*
G04 #@! TO.N,Net-(C13-Pad1)*
X113204600Y-148768800D03*
G04 #@! TO.N,D2_IN1*
X99379500Y-135604100D03*
G04 #@! TO.N,A5_SCL*
X101205100Y-132262800D03*
G04 #@! TO.N,A0_D14_IN3*
X103973603Y-141123997D03*
G04 #@! TO.N,Net-(C10-Pad1)*
X101428900Y-148336800D03*
X104945300Y-143817000D03*
G04 #@! TO.N,D3_IN2*
X105827000Y-137473500D03*
X102706010Y-141168900D03*
G04 #@! TO.N,D7_PJON_SWBB*
X94904900Y-148625100D03*
G04 #@! TO.N,A2_D16_Power_Sens*
X99726640Y-138470960D03*
G04 #@! TO.N,D6_DE_RS485*
X91973700Y-147315600D03*
G04 #@! TO.N,D5_swTX_RS485*
X88961800Y-146590300D03*
G04 #@! TO.N,D4_swRX_RS485*
X91477793Y-137817597D03*
G04 #@! TD*
D26*
G04 #@! TO.N,Net-(IC1-Pad2)*
X77182000Y-134239000D02*
X75981700Y-134239000D01*
X75955700Y-133840000D02*
X75955700Y-132570200D01*
X75955700Y-132570200D02*
X76157300Y-132368600D01*
X76157300Y-132368600D02*
X78126100Y-132368600D01*
X78126100Y-132368600D02*
X81612500Y-128882200D01*
X81612500Y-128882200D02*
X81612500Y-127635000D01*
X75981700Y-134239000D02*
X75981700Y-133866000D01*
X75981700Y-133866000D02*
X75955700Y-133840000D01*
X75955700Y-133840000D02*
X73669000Y-133840000D01*
G04 #@! TO.N,Net-(C1-Pad1)*
X75981700Y-135509000D02*
X75600700Y-135890000D01*
X75600700Y-135890000D02*
X73669000Y-135890000D01*
X80929500Y-154686000D02*
X79628500Y-154686000D01*
X79628500Y-154686000D02*
X78486000Y-153543500D01*
X80929500Y-154686000D02*
X80929500Y-155189500D01*
X77182000Y-135509000D02*
X75981700Y-135509000D01*
X81818500Y-153797000D02*
X80929500Y-154686000D01*
X82550000Y-153797000D02*
X83439000Y-154686000D01*
X81818500Y-153797000D02*
X82550000Y-153797000D01*
X76416500Y-151474000D02*
X78486000Y-153543500D01*
X71383000Y-133604000D02*
X67183000Y-133604000D01*
X73669000Y-135890000D02*
X71383000Y-133604000D01*
X66040000Y-150495000D02*
X67019000Y-151474000D01*
X67183000Y-133604000D02*
X66040000Y-134747000D01*
X66040000Y-134747000D02*
X66040000Y-150495000D01*
X67019000Y-151474000D02*
X76416500Y-151474000D01*
D27*
G04 #@! TO.N,GND*
X107061000Y-153977500D02*
X105410000Y-152326500D01*
X105410000Y-152326500D02*
X105410000Y-148263500D01*
X108881000Y-154401500D02*
X108457000Y-153977500D01*
X108457000Y-153977500D02*
X107061000Y-153977500D01*
X78486000Y-151668500D02*
X81575800Y-148578700D01*
D26*
X81575800Y-148578700D02*
X81897000Y-148578700D01*
X81897000Y-148578700D02*
X81897000Y-148336000D01*
D27*
X70769300Y-150281000D02*
X77098500Y-150281000D01*
X77098500Y-150281000D02*
X78486000Y-151668500D01*
D26*
X93300300Y-133096000D02*
X93300300Y-133197700D01*
X93300300Y-133197700D02*
X94451300Y-134348700D01*
X94451300Y-134348700D02*
X96841400Y-134348700D01*
X71041000Y-140281000D02*
X72765000Y-138557000D01*
X70769300Y-140281000D02*
X71041000Y-140281000D01*
D27*
X81897000Y-148336000D02*
X81897000Y-146125000D01*
D26*
X81897000Y-146125000D02*
X82353000Y-145669000D01*
X84582000Y-131699000D02*
X83534000Y-131699000D01*
X92456000Y-133096000D02*
X93300300Y-133096000D01*
X100965000Y-142366500D02*
X101091500Y-142240000D01*
X101091500Y-142240000D02*
X101091500Y-140335000D01*
X114808000Y-135000500D02*
X114808000Y-134874000D01*
D27*
X116936400Y-139025000D02*
X116936400Y-137128900D01*
X116936400Y-137128900D02*
X114808000Y-135000500D01*
X114808000Y-135000500D02*
X111379000Y-135000500D01*
X96139000Y-155575000D02*
X92583000Y-155575000D01*
X112649000Y-143637000D02*
X116936400Y-139349600D01*
X116936400Y-139349600D02*
X116936400Y-139025000D01*
X116936400Y-139025000D02*
X118460700Y-139025000D01*
X72263000Y-128412900D02*
X72263000Y-127381000D01*
X71247000Y-129540000D02*
X72263000Y-128524000D01*
X72263000Y-128524000D02*
X72263000Y-128412900D01*
X108881000Y-154401500D02*
X111125000Y-154401500D01*
X96139000Y-147701000D02*
X96139000Y-155575000D01*
D26*
X112522000Y-144271500D02*
X110490000Y-144271500D01*
X112649000Y-143637000D02*
X112649000Y-144144500D01*
X112649000Y-144144500D02*
X112522000Y-144271500D01*
D27*
X112522000Y-144271500D02*
X112522000Y-145542000D01*
D26*
X110490000Y-144271500D02*
X110490000Y-143607500D01*
X111125000Y-154401500D02*
X111300500Y-154577000D01*
D27*
X111300500Y-154577000D02*
X113411000Y-154577000D01*
X119761000Y-139025000D02*
X118460700Y-139025000D01*
X69469000Y-150281000D02*
X70769300Y-150281000D01*
X111379000Y-135000500D02*
X110363000Y-135000500D01*
X110363000Y-135000500D02*
X108839000Y-133476500D01*
X69469000Y-140281000D02*
X70769300Y-140281000D01*
D26*
X98171000Y-159766000D02*
X98552000Y-159766000D01*
D27*
X96139000Y-155575000D02*
X96139000Y-157734000D01*
X96139000Y-157734000D02*
X98171000Y-159766000D01*
D26*
X98552000Y-160274000D02*
X98552000Y-159766000D01*
X101219000Y-128143000D02*
X101346000Y-128016000D01*
X98157000Y-133033100D02*
X98157000Y-130697000D01*
X96841400Y-134348700D02*
X98157000Y-133033100D01*
X98157000Y-130697000D02*
X99187000Y-129667000D01*
X101346000Y-128016000D02*
X102108000Y-128016000D01*
X99187000Y-129667000D02*
X100203000Y-129667000D01*
X100203000Y-129667000D02*
X101219000Y-128651000D01*
X101219000Y-128651000D02*
X101219000Y-128143000D01*
X81897000Y-149207000D02*
X81897000Y-148578700D01*
D27*
X83713600Y-151023600D02*
X81897000Y-149207000D01*
X92583000Y-156210000D02*
X91440000Y-157353000D01*
X87762500Y-153719800D02*
X85066300Y-151023600D01*
D26*
X92583000Y-155575000D02*
X92583000Y-156210000D01*
D27*
X85066300Y-151023600D02*
X83713600Y-151023600D01*
X89408000Y-157353000D02*
X87762500Y-155707500D01*
X87762500Y-155707500D02*
X87762500Y-153719800D01*
X83534000Y-127681500D02*
X83534000Y-131699000D01*
X80391000Y-126746000D02*
X82598500Y-126746000D01*
X78359000Y-128778000D02*
X80391000Y-126746000D01*
X82598500Y-126746000D02*
X83534000Y-127681500D01*
X72263000Y-128412900D02*
X72628100Y-128778000D01*
X72628100Y-128778000D02*
X78359000Y-128778000D01*
D26*
X101091500Y-138810500D02*
X101091500Y-140335000D01*
X99302300Y-137021300D02*
X101091500Y-138810500D01*
X96841400Y-134941400D02*
X98921300Y-137021300D01*
X96841400Y-134348700D02*
X96841400Y-134941400D01*
X96777962Y-139195962D02*
X99952462Y-139195962D01*
X100535263Y-139778763D02*
X101091500Y-140335000D01*
X95504000Y-137922000D02*
X96777962Y-139195962D01*
X99952462Y-139195962D02*
X100535263Y-139778763D01*
X98921300Y-137021300D02*
X99302300Y-137021300D01*
D27*
X98552000Y-160782000D02*
X98552000Y-160274000D01*
X105283000Y-161925000D02*
X99695000Y-161925000D01*
X99695000Y-161925000D02*
X98552000Y-160782000D01*
X108881000Y-154401500D02*
X108881000Y-158327000D01*
X108881000Y-158327000D02*
X105283000Y-161925000D01*
X113411000Y-154577000D02*
X115062000Y-152926000D01*
D26*
X113157000Y-145542000D02*
X112522000Y-145542000D01*
D27*
X115062000Y-147447000D02*
X113157000Y-145542000D01*
X115062000Y-152926000D02*
X115062000Y-147447000D01*
D26*
X110236500Y-144271500D02*
X110490000Y-144271500D01*
X109347000Y-145414500D02*
X109347000Y-145161000D01*
X109347000Y-145161000D02*
X110236500Y-144271500D01*
D27*
X115951000Y-134874000D02*
X114808000Y-134874000D01*
X117475000Y-128016000D02*
X117475000Y-133350000D01*
X117475000Y-133350000D02*
X115951000Y-134874000D01*
X86995000Y-159766000D02*
X86995000Y-160020000D01*
X87394999Y-159493001D02*
X86995000Y-159893000D01*
X88232900Y-159417100D02*
X87470900Y-159417100D01*
X89662000Y-157480000D02*
X89662000Y-157988000D01*
X87470900Y-159417100D02*
X86995000Y-159893000D01*
X89662000Y-157988000D02*
X88232900Y-159417100D01*
X91440000Y-157353000D02*
X89408000Y-157353000D01*
X89535000Y-157353000D02*
X89662000Y-157480000D01*
X89408000Y-157353000D02*
X89535000Y-157353000D01*
X67994000Y-150281000D02*
X67319000Y-149606000D01*
X69469000Y-150281000D02*
X67994000Y-150281000D01*
X67319000Y-149606000D02*
X67319000Y-141868000D01*
X67319000Y-141868000D02*
X67319000Y-141868000D01*
X77216000Y-138303000D02*
X83534000Y-131985000D01*
X77216000Y-142367000D02*
X77216000Y-138303000D01*
X83534000Y-131985000D02*
X83534000Y-131699000D01*
X72390000Y-142875000D02*
X76708000Y-142875000D01*
X76708000Y-142875000D02*
X77216000Y-142367000D01*
X71041000Y-141526000D02*
X72390000Y-142875000D01*
X71041000Y-140281000D02*
X71041000Y-141526000D01*
D26*
G04 #@! TO.N,+5V*
X83981900Y-135509000D02*
X83981900Y-139284100D01*
X83981900Y-139284100D02*
X83566000Y-139700000D01*
X89281000Y-133604000D02*
X89281000Y-131572000D01*
X89281000Y-134874000D02*
X89281000Y-133604000D01*
X99216500Y-140335000D02*
X99216500Y-142065800D01*
X99216500Y-142065800D02*
X99346800Y-142196100D01*
X89281000Y-131572000D02*
X89281000Y-129975000D01*
X89281000Y-129975000D02*
X86560000Y-127254000D01*
X84582000Y-135509000D02*
X83981900Y-135509000D01*
X82353000Y-141859000D02*
X83566000Y-140646000D01*
X83566000Y-140646000D02*
X83566000Y-139700000D01*
X109855000Y-129191300D02*
X111767000Y-131103300D01*
X111767000Y-131103300D02*
X111767000Y-132574000D01*
X109855000Y-128016000D02*
X109855000Y-129191300D01*
X85436010Y-126130010D02*
X75388990Y-126130010D01*
X75388990Y-126130010D02*
X74138000Y-127381000D01*
X86560000Y-127254000D02*
X85436010Y-126130010D01*
X83185000Y-133971200D02*
X83552200Y-133604000D01*
X83552200Y-133604000D02*
X89281000Y-133604000D01*
X83981900Y-135509000D02*
X83185000Y-134712100D01*
X83185000Y-134712100D02*
X83185000Y-133971200D01*
X85782300Y-135509000D02*
X84582000Y-135509000D01*
X95377000Y-140335000D02*
X94104000Y-139062000D01*
X99216500Y-140335000D02*
X95377000Y-140335000D01*
X94104000Y-139062000D02*
X94104000Y-137030000D01*
X94104000Y-137030000D02*
X93556100Y-136482100D01*
X93556100Y-136482100D02*
X86755400Y-136482100D01*
X86755400Y-136482100D02*
X85782300Y-135509000D01*
X103251000Y-159766000D02*
X103632000Y-159766000D01*
X98933000Y-142609900D02*
X98933000Y-145161000D01*
X101981000Y-158496000D02*
X103251000Y-159766000D01*
X99346800Y-142196100D02*
X98933000Y-142609900D01*
X100634700Y-158496000D02*
X101981000Y-158496000D01*
X98933000Y-145161000D02*
X99822000Y-146050000D01*
X99822000Y-146050000D02*
X99822000Y-157683300D01*
X99822000Y-157683300D02*
X100634700Y-158496000D01*
G04 #@! TO.N,Reset*
X88247500Y-132534600D02*
X87284900Y-131572000D01*
X87284900Y-131572000D02*
X87231000Y-131572000D01*
X87231000Y-131572000D02*
X85834000Y-132969000D01*
X85834000Y-132969000D02*
X84582000Y-132969000D01*
X98552000Y-147193000D02*
X98552000Y-157226000D01*
X94488000Y-143129000D02*
X98552000Y-147193000D01*
X89575500Y-143129000D02*
X94488000Y-143129000D01*
X81271000Y-142485000D02*
X88931500Y-142485000D01*
X81026000Y-142240000D02*
X81271000Y-142485000D01*
X81026000Y-141351000D02*
X81026000Y-142240000D01*
X88931500Y-142485000D02*
X89575500Y-143129000D01*
X84582000Y-132969000D02*
X83381700Y-132969000D01*
X82541000Y-133809700D02*
X82541000Y-140598000D01*
X83381700Y-132969000D02*
X82541000Y-133809700D01*
X82042000Y-141097000D02*
X81280000Y-141097000D01*
X82541000Y-140598000D02*
X82042000Y-141097000D01*
X81280000Y-141097000D02*
X81026000Y-141351000D01*
G04 #@! TO.N,Net-(C4-Pad1)*
X77182000Y-131699000D02*
X71888000Y-131699000D01*
X71888000Y-131699000D02*
X71247000Y-132340000D01*
G04 #@! TO.N,Net-(C3-Pad1)*
X75946000Y-138557000D02*
X75565000Y-138557000D01*
X78994000Y-135509000D02*
X75946000Y-138557000D01*
X77182000Y-132969000D02*
X78994000Y-132969000D01*
X78994000Y-132969000D02*
X78994000Y-135509000D01*
G04 #@! TO.N,D13_SCK*
X98607400Y-131996600D02*
X99032000Y-131572000D01*
X100076000Y-136525000D02*
X99187000Y-136525000D01*
X98607400Y-135945400D02*
X98607400Y-131996600D01*
X101981000Y-138430000D02*
X100076000Y-136525000D01*
X101981000Y-141631600D02*
X101981000Y-138430000D01*
X99187000Y-136525000D02*
X98607400Y-135945400D01*
X102235000Y-142875000D02*
X102235000Y-141885600D01*
X101092000Y-157226000D02*
X101092000Y-156050700D01*
X100604800Y-155563500D02*
X100604800Y-145816800D01*
X101806000Y-143304000D02*
X102235000Y-142875000D01*
X100028000Y-143304000D02*
X101806000Y-143304000D01*
X100604800Y-145816800D02*
X99568000Y-144780000D01*
X102235000Y-141885600D02*
X101981000Y-141631600D01*
X99568000Y-144780000D02*
X99568000Y-143764000D01*
X101092000Y-156050700D02*
X100604800Y-155563500D01*
X99568000Y-143764000D02*
X100028000Y-143304000D01*
G04 #@! TO.N,Net-(C14-Pad1)*
X111125000Y-152526500D02*
X110041900Y-151443400D01*
X110041900Y-151443400D02*
X110041900Y-151002500D01*
X113411000Y-152527000D02*
X111125500Y-152527000D01*
X111125500Y-152527000D02*
X111125000Y-152526500D01*
X110041900Y-151002500D02*
X110041900Y-150810100D01*
X110041900Y-151002500D02*
X107061000Y-151002500D01*
G04 #@! TO.N,Net-(C8-Pad2)*
X92710000Y-145469000D02*
X92365000Y-145469000D01*
X92365000Y-145469000D02*
X91059000Y-144163000D01*
X93339000Y-147701000D02*
X93339000Y-146098000D01*
X93339000Y-146098000D02*
X92710000Y-145469000D01*
G04 #@! TO.N,Net-(C7-Pad1)*
X92704000Y-140586000D02*
X92586000Y-140586000D01*
X92586000Y-140586000D02*
X91059000Y-142113000D01*
X92710000Y-140589000D02*
X92707000Y-140586000D01*
X92707000Y-140586000D02*
X92704000Y-140586000D01*
X92704000Y-140586000D02*
X92704000Y-137922000D01*
G04 #@! TO.N,Net-(C11-Pad1)*
X111379000Y-136875500D02*
X109263000Y-136875500D01*
X109263000Y-136875500D02*
X108839000Y-136451500D01*
X113746500Y-137891400D02*
X112394900Y-137891400D01*
X112394900Y-137891400D02*
X111379000Y-136875500D01*
X108839000Y-136451500D02*
X108221000Y-136451500D01*
X108221000Y-136451500D02*
X106389500Y-134620000D01*
X114808000Y-136924000D02*
X113840600Y-137891400D01*
X113840600Y-137891400D02*
X113746500Y-137891400D01*
X113746500Y-137891400D02*
X113746500Y-137891500D01*
G04 #@! TO.N,Net-(C12-Pad1)*
X112649000Y-141587000D02*
X110635500Y-141587000D01*
X110635500Y-141587000D02*
X110490000Y-141732500D01*
X112649000Y-141587000D02*
X112649000Y-141020800D01*
X112649000Y-141020800D02*
X113276500Y-140393300D01*
G04 #@! TO.N,Net-(C13-Pad1)*
X112522000Y-147592000D02*
X112522000Y-148086200D01*
X112522000Y-148086200D02*
X113204600Y-148768800D01*
X105708300Y-144990200D02*
X105410000Y-145288500D01*
X103632000Y-142801500D02*
X104968000Y-142801500D01*
X104968000Y-142801500D02*
X105708300Y-143541800D01*
X105708300Y-143541800D02*
X105708300Y-144990200D01*
X105708300Y-144990200D02*
X108007600Y-147289500D01*
X108007600Y-147289500D02*
X109347000Y-147289500D01*
X112522000Y-147592000D02*
X109649500Y-147592000D01*
X109649500Y-147592000D02*
X109347000Y-147289500D01*
G04 #@! TO.N,D2_IN1*
X99379500Y-135604100D02*
X100363600Y-134620000D01*
X100363600Y-134620000D02*
X103414500Y-134620000D01*
G04 #@! TO.N,A5_SCL*
X113030000Y-126238000D02*
X107229900Y-126238000D01*
X107229900Y-126238000D02*
X101205100Y-132262800D01*
X114173000Y-127381000D02*
X113030000Y-126238000D01*
X114935000Y-128016000D02*
X114173000Y-128016000D01*
X114173000Y-128016000D02*
X114173000Y-127381000D01*
G04 #@! TO.N,A0_D14_IN3*
X103632000Y-140782394D02*
X103973603Y-141123997D01*
X103632000Y-139826500D02*
X103632000Y-140782394D01*
G04 #@! TO.N,Net-(C10-Pad1)*
X101428900Y-144241500D02*
X101428900Y-148336800D01*
X101428900Y-144241500D02*
X104520800Y-144241500D01*
X104520800Y-144241500D02*
X104945300Y-143817000D01*
X100965000Y-144241500D02*
X101428900Y-144241500D01*
G04 #@! TO.N,D3_IN2*
X102431011Y-140893901D02*
X102706010Y-141168900D01*
X105827000Y-137473500D02*
X103064500Y-137473500D01*
X102431011Y-138106989D02*
X102431011Y-140893901D01*
X103064500Y-137473500D02*
X102431011Y-138106989D01*
G04 #@! TO.N,Net-(R19-Pad1)*
X83947000Y-148336000D02*
X84091500Y-148191500D01*
X84091500Y-148191500D02*
X84091500Y-144583600D01*
X84091500Y-144583600D02*
X82636900Y-143129000D01*
X82636900Y-143129000D02*
X82353000Y-143129000D01*
X78921000Y-141351000D02*
X80699000Y-143129000D01*
X80699000Y-143129000D02*
X82353000Y-143129000D01*
G04 #@! TO.N,Net-(J1-Pad8)*
X73719200Y-141351000D02*
X73315500Y-141351000D01*
X73315500Y-141351000D02*
X73152000Y-141514500D01*
X75946000Y-141351000D02*
X73719200Y-141351000D01*
X73719200Y-141351000D02*
X73719200Y-137682200D01*
X73719200Y-137682200D02*
X71318000Y-135281000D01*
X71318000Y-135281000D02*
X69469000Y-135281000D01*
G04 #@! TO.N,Net-(J1-Pad7)*
X75892000Y-144399000D02*
X75801500Y-144489500D01*
X75801500Y-144489500D02*
X73152000Y-144489500D01*
X73152000Y-144489500D02*
X70193500Y-141531000D01*
X70193500Y-141531000D02*
X68861400Y-141531000D01*
X68861400Y-141531000D02*
X68144400Y-140814000D01*
X68144400Y-140814000D02*
X68144400Y-139766700D01*
X68144400Y-139766700D02*
X68954800Y-138956300D01*
X68954800Y-138956300D02*
X69469000Y-138956300D01*
X69469000Y-137781000D02*
X69469000Y-138956300D01*
G04 #@! TO.N,Net-(R20-Pad1)*
X82353000Y-144399000D02*
X78867000Y-144399000D01*
X77791011Y-143323011D02*
X77791011Y-140267989D01*
X78359000Y-139700000D02*
X80841000Y-139700000D01*
X78867000Y-144399000D02*
X77791011Y-143323011D01*
X77791011Y-140267989D02*
X78359000Y-139700000D01*
X80841000Y-139700000D02*
X81516000Y-139700000D01*
G04 #@! TO.N,Net-(J1-Pad5)*
X90533000Y-155575000D02*
X90533000Y-152146000D01*
X82931000Y-147009200D02*
X82931000Y-149352000D01*
X83609300Y-146330900D02*
X82931000Y-147009200D01*
X83609300Y-145343500D02*
X83609300Y-146330900D01*
X83707100Y-150128100D02*
X88515100Y-150128100D01*
X69469000Y-143129000D02*
X72390000Y-146050000D01*
X79583200Y-146050000D02*
X80599200Y-145034000D01*
X80599200Y-145034000D02*
X83299800Y-145034000D01*
X69469000Y-142781000D02*
X69469000Y-143129000D01*
X72390000Y-146050000D02*
X79583200Y-146050000D01*
X88515100Y-150128100D02*
X90533000Y-152146000D01*
X82931000Y-149352000D02*
X83707100Y-150128100D01*
X83299800Y-145034000D02*
X83609300Y-145343500D01*
G04 #@! TO.N,D7_PJON_SWBB*
X92583000Y-152146000D02*
X94904900Y-149824100D01*
X94904900Y-149824100D02*
X94904900Y-148625100D01*
G04 #@! TO.N,A2_D16_Power_Sens*
X84582000Y-134239000D02*
X86596000Y-134239000D01*
X86596000Y-134239000D02*
X87231000Y-134874000D01*
X99326641Y-138070961D02*
X99726640Y-138470960D01*
X88388700Y-136031700D02*
X97287380Y-136031700D01*
X87231000Y-134874000D02*
X88388700Y-136031700D01*
X97287380Y-136031700D02*
X99326641Y-138070961D01*
G04 #@! TO.N,D6_DE_RS485*
X88138000Y-143764000D02*
X87503000Y-143129000D01*
X88138000Y-143764000D02*
X87503000Y-144399000D01*
X88392000Y-143764000D02*
X88138000Y-143764000D01*
X88478900Y-143850900D02*
X88392000Y-143764000D01*
X91973700Y-147315600D02*
X88509000Y-143850900D01*
X88509000Y-143850900D02*
X88478900Y-143850900D01*
G04 #@! TO.N,D5_swTX_RS485*
X87503000Y-145669000D02*
X88424300Y-146590300D01*
X88424300Y-146590300D02*
X88961800Y-146590300D01*
G04 #@! TO.N,D4_swRX_RS485*
X91477793Y-137884207D02*
X91477793Y-137817597D01*
X87503000Y-141859000D02*
X91477793Y-137884207D01*
G04 #@! TO.N,Net-(D15-Pad2)*
X94996000Y-133096000D02*
X95758000Y-133096000D01*
X95758000Y-133096000D02*
X97282000Y-131572000D01*
G04 #@! TO.N,Net-(D16-Pad2)*
X91948000Y-128016000D02*
X90297000Y-128016000D01*
X90297000Y-128016000D02*
X89535000Y-127254000D01*
G04 #@! TD*
M02*
