G04 #@! TF.GenerationSoftware,KiCad,Pcbnew,5.0.2-bee76a0~70~ubuntu18.04.1*
G04 #@! TF.CreationDate,2020-01-04T15:46:48+02:00*
G04 #@! TF.ProjectId,swbb_node,73776262-5f6e-46f6-9465-2e6b69636164,rev?*
G04 #@! TF.SameCoordinates,Original*
G04 #@! TF.FileFunction,Legend,Top*
G04 #@! TF.FilePolarity,Positive*
%FSLAX46Y46*%
G04 Gerber Fmt 4.6, Leading zero omitted, Abs format (unit mm)*
G04 Created by KiCad (PCBNEW 5.0.2-bee76a0~70~ubuntu18.04.1) date Сб 04 янв 2020 15:46:48*
%MOMM*%
%LPD*%
G01*
G04 APERTURE LIST*
%ADD10C,0.300000*%
%ADD11C,0.200000*%
%ADD12C,0.120000*%
%ADD13C,0.150000*%
G04 APERTURE END LIST*
D10*
X71152000Y-153650142D02*
X72294857Y-153650142D01*
X71723428Y-154221571D02*
X71723428Y-153078714D01*
X73794857Y-154221571D02*
X72937714Y-154221571D01*
X73366285Y-154221571D02*
X73366285Y-152721571D01*
X73223428Y-152935857D01*
X73080571Y-153078714D01*
X72937714Y-153150142D01*
X74366285Y-152864428D02*
X74437714Y-152793000D01*
X74580571Y-152721571D01*
X74937714Y-152721571D01*
X75080571Y-152793000D01*
X75152000Y-152864428D01*
X75223428Y-153007285D01*
X75223428Y-153150142D01*
X75152000Y-153364428D01*
X74294857Y-154221571D01*
X75223428Y-154221571D01*
D11*
X114284238Y-130198761D02*
X114379476Y-130246380D01*
X114569952Y-130246380D01*
X114665190Y-130198761D01*
X114712809Y-130103523D01*
X114712809Y-130055904D01*
X114665190Y-129960666D01*
X114569952Y-129913047D01*
X114427095Y-129913047D01*
X114331857Y-129865428D01*
X114284238Y-129770190D01*
X114284238Y-129722571D01*
X114331857Y-129627333D01*
X114427095Y-129579714D01*
X114569952Y-129579714D01*
X114665190Y-129627333D01*
X115569952Y-130198761D02*
X115474714Y-130246380D01*
X115284238Y-130246380D01*
X115189000Y-130198761D01*
X115141380Y-130151142D01*
X115093761Y-130055904D01*
X115093761Y-129770190D01*
X115141380Y-129674952D01*
X115189000Y-129627333D01*
X115284238Y-129579714D01*
X115474714Y-129579714D01*
X115569952Y-129627333D01*
X116141380Y-130246380D02*
X116046142Y-130198761D01*
X115998523Y-130103523D01*
X115998523Y-129246380D01*
D10*
X79395142Y-127901000D02*
X79252285Y-127829571D01*
X79038000Y-127829571D01*
X78823714Y-127901000D01*
X78680857Y-128043857D01*
X78609428Y-128186714D01*
X78538000Y-128472428D01*
X78538000Y-128686714D01*
X78609428Y-128972428D01*
X78680857Y-129115285D01*
X78823714Y-129258142D01*
X79038000Y-129329571D01*
X79180857Y-129329571D01*
X79395142Y-129258142D01*
X79466571Y-129186714D01*
X79466571Y-128686714D01*
X79180857Y-128686714D01*
X80395142Y-127829571D02*
X80680857Y-127829571D01*
X80823714Y-127901000D01*
X80966571Y-128043857D01*
X81038000Y-128329571D01*
X81038000Y-128829571D01*
X80966571Y-129115285D01*
X80823714Y-129258142D01*
X80680857Y-129329571D01*
X80395142Y-129329571D01*
X80252285Y-129258142D01*
X80109428Y-129115285D01*
X80038000Y-128829571D01*
X80038000Y-128329571D01*
X80109428Y-128043857D01*
X80252285Y-127901000D01*
X80395142Y-127829571D01*
X82395142Y-129329571D02*
X81680857Y-129329571D01*
X81680857Y-127829571D01*
X82823714Y-128901000D02*
X83538000Y-128901000D01*
X82680857Y-129329571D02*
X83180857Y-127829571D01*
X83680857Y-129329571D01*
X84680857Y-128543857D02*
X84895142Y-128615285D01*
X84966571Y-128686714D01*
X85038000Y-128829571D01*
X85038000Y-129043857D01*
X84966571Y-129186714D01*
X84895142Y-129258142D01*
X84752285Y-129329571D01*
X84180857Y-129329571D01*
X84180857Y-127829571D01*
X84680857Y-127829571D01*
X84823714Y-127901000D01*
X84895142Y-127972428D01*
X84966571Y-128115285D01*
X84966571Y-128258142D01*
X84895142Y-128401000D01*
X84823714Y-128472428D01*
X84680857Y-128543857D01*
X84180857Y-128543857D01*
D11*
X101544523Y-129960714D02*
X101544523Y-130770238D01*
X101496904Y-130865476D01*
X101449285Y-130913095D01*
X101354047Y-130960714D01*
X101211190Y-130960714D01*
X101115952Y-130913095D01*
X101544523Y-130579761D02*
X101449285Y-130627380D01*
X101258809Y-130627380D01*
X101163571Y-130579761D01*
X101115952Y-130532142D01*
X101068333Y-130436904D01*
X101068333Y-130151190D01*
X101115952Y-130055952D01*
X101163571Y-130008333D01*
X101258809Y-129960714D01*
X101449285Y-129960714D01*
X101544523Y-130008333D01*
X102020714Y-129960714D02*
X102020714Y-130627380D01*
X102020714Y-130055952D02*
X102068333Y-130008333D01*
X102163571Y-129960714D01*
X102306428Y-129960714D01*
X102401666Y-130008333D01*
X102449285Y-130103571D01*
X102449285Y-130627380D01*
X103354047Y-130627380D02*
X103354047Y-129627380D01*
X103354047Y-130579761D02*
X103258809Y-130627380D01*
X103068333Y-130627380D01*
X102973095Y-130579761D01*
X102925476Y-130532142D01*
X102877857Y-130436904D01*
X102877857Y-130151190D01*
X102925476Y-130055952D01*
X102973095Y-130008333D01*
X103068333Y-129960714D01*
X103258809Y-129960714D01*
X103354047Y-130008333D01*
X98806095Y-130500380D02*
X98806095Y-129833714D01*
X98806095Y-130024190D02*
X98853714Y-129928952D01*
X98901333Y-129881333D01*
X98996571Y-129833714D01*
X99091809Y-129833714D01*
X99377523Y-130452761D02*
X99472761Y-130500380D01*
X99663238Y-130500380D01*
X99758476Y-130452761D01*
X99806095Y-130357523D01*
X99806095Y-130309904D01*
X99758476Y-130214666D01*
X99663238Y-130167047D01*
X99520380Y-130167047D01*
X99425142Y-130119428D01*
X99377523Y-130024190D01*
X99377523Y-129976571D01*
X99425142Y-129881333D01*
X99520380Y-129833714D01*
X99663238Y-129833714D01*
X99758476Y-129881333D01*
X100091809Y-129833714D02*
X100472761Y-129833714D01*
X100234666Y-129500380D02*
X100234666Y-130357523D01*
X100282285Y-130452761D01*
X100377523Y-130500380D01*
X100472761Y-130500380D01*
X96559761Y-129960714D02*
X96940714Y-129960714D01*
X96702619Y-129627380D02*
X96702619Y-130484523D01*
X96750238Y-130579761D01*
X96845476Y-130627380D01*
X96940714Y-130627380D01*
X97178809Y-130627380D02*
X97702619Y-129960714D01*
X97178809Y-129960714D02*
X97702619Y-130627380D01*
X94011809Y-130627380D02*
X94011809Y-129960714D01*
X94011809Y-130151190D02*
X94059428Y-130055952D01*
X94107047Y-130008333D01*
X94202285Y-129960714D01*
X94297523Y-129960714D01*
X94535619Y-130627380D02*
X95059428Y-129960714D01*
X94535619Y-129960714D02*
X95059428Y-130627380D01*
X90963857Y-130246428D02*
X91725761Y-130246428D01*
X91344809Y-130627380D02*
X91344809Y-129865476D01*
X92678142Y-129627380D02*
X92201952Y-129627380D01*
X92154333Y-130103571D01*
X92201952Y-130055952D01*
X92297190Y-130008333D01*
X92535285Y-130008333D01*
X92630523Y-130055952D01*
X92678142Y-130103571D01*
X92725761Y-130198809D01*
X92725761Y-130436904D01*
X92678142Y-130532142D01*
X92630523Y-130579761D01*
X92535285Y-130627380D01*
X92297190Y-130627380D01*
X92201952Y-130579761D01*
X92154333Y-130532142D01*
X91154428Y-159297714D02*
X91392523Y-159964380D01*
X91630619Y-159297714D01*
X92535380Y-159964380D02*
X91963952Y-159964380D01*
X92249666Y-159964380D02*
X92249666Y-158964380D01*
X92154428Y-159107238D01*
X92059190Y-159202476D01*
X91963952Y-159250095D01*
X92963952Y-159869142D02*
X93011571Y-159916761D01*
X92963952Y-159964380D01*
X92916333Y-159916761D01*
X92963952Y-159869142D01*
X92963952Y-159964380D01*
X93630619Y-158964380D02*
X93725857Y-158964380D01*
X93821095Y-159012000D01*
X93868714Y-159059619D01*
X93916333Y-159154857D01*
X93963952Y-159345333D01*
X93963952Y-159583428D01*
X93916333Y-159773904D01*
X93868714Y-159869142D01*
X93821095Y-159916761D01*
X93725857Y-159964380D01*
X93630619Y-159964380D01*
X93535380Y-159916761D01*
X93487761Y-159869142D01*
X93440142Y-159773904D01*
X93392523Y-159583428D01*
X93392523Y-159345333D01*
X93440142Y-159154857D01*
X93487761Y-159059619D01*
X93535380Y-159012000D01*
X93630619Y-158964380D01*
D10*
X89670285Y-155288142D02*
X89884571Y-155359571D01*
X90241714Y-155359571D01*
X90384571Y-155288142D01*
X90456000Y-155216714D01*
X90527428Y-155073857D01*
X90527428Y-154931000D01*
X90456000Y-154788142D01*
X90384571Y-154716714D01*
X90241714Y-154645285D01*
X89956000Y-154573857D01*
X89813142Y-154502428D01*
X89741714Y-154431000D01*
X89670285Y-154288142D01*
X89670285Y-154145285D01*
X89741714Y-154002428D01*
X89813142Y-153931000D01*
X89956000Y-153859571D01*
X90313142Y-153859571D01*
X90527428Y-153931000D01*
X91027428Y-153859571D02*
X91384571Y-155359571D01*
X91670285Y-154288142D01*
X91956000Y-155359571D01*
X92313142Y-153859571D01*
X93384571Y-154573857D02*
X93598857Y-154645285D01*
X93670285Y-154716714D01*
X93741714Y-154859571D01*
X93741714Y-155073857D01*
X93670285Y-155216714D01*
X93598857Y-155288142D01*
X93456000Y-155359571D01*
X92884571Y-155359571D01*
X92884571Y-153859571D01*
X93384571Y-153859571D01*
X93527428Y-153931000D01*
X93598857Y-154002428D01*
X93670285Y-154145285D01*
X93670285Y-154288142D01*
X93598857Y-154431000D01*
X93527428Y-154502428D01*
X93384571Y-154573857D01*
X92884571Y-154573857D01*
X94884571Y-154573857D02*
X95098857Y-154645285D01*
X95170285Y-154716714D01*
X95241714Y-154859571D01*
X95241714Y-155073857D01*
X95170285Y-155216714D01*
X95098857Y-155288142D01*
X94956000Y-155359571D01*
X94384571Y-155359571D01*
X94384571Y-153859571D01*
X94884571Y-153859571D01*
X95027428Y-153931000D01*
X95098857Y-154002428D01*
X95170285Y-154145285D01*
X95170285Y-154288142D01*
X95098857Y-154431000D01*
X95027428Y-154502428D01*
X94884571Y-154573857D01*
X94384571Y-154573857D01*
X89813142Y-157909571D02*
X89813142Y-156409571D01*
X90670285Y-157909571D01*
X90670285Y-156409571D01*
X91670285Y-156409571D02*
X91956000Y-156409571D01*
X92098857Y-156481000D01*
X92241714Y-156623857D01*
X92313142Y-156909571D01*
X92313142Y-157409571D01*
X92241714Y-157695285D01*
X92098857Y-157838142D01*
X91956000Y-157909571D01*
X91670285Y-157909571D01*
X91527428Y-157838142D01*
X91384571Y-157695285D01*
X91313142Y-157409571D01*
X91313142Y-156909571D01*
X91384571Y-156623857D01*
X91527428Y-156481000D01*
X91670285Y-156409571D01*
X92956000Y-157909571D02*
X92956000Y-156409571D01*
X93313142Y-156409571D01*
X93527428Y-156481000D01*
X93670285Y-156623857D01*
X93741714Y-156766714D01*
X93813142Y-157052428D01*
X93813142Y-157266714D01*
X93741714Y-157552428D01*
X93670285Y-157695285D01*
X93527428Y-157838142D01*
X93313142Y-157909571D01*
X92956000Y-157909571D01*
X94456000Y-157123857D02*
X94956000Y-157123857D01*
X95170285Y-157909571D02*
X94456000Y-157909571D01*
X94456000Y-156409571D01*
X95170285Y-156409571D01*
D12*
G04 #@! TO.C,D12*
X114564000Y-158123000D02*
X110504000Y-158123000D01*
X114564000Y-160393000D02*
X114564000Y-158123000D01*
X110504000Y-160393000D02*
X114564000Y-160393000D01*
G04 #@! TO.C,C15*
X87556078Y-147499000D02*
X87038922Y-147499000D01*
X87556078Y-148919000D02*
X87038922Y-148919000D01*
G04 #@! TO.C,C16*
X100278000Y-132595252D02*
X100278000Y-132072748D01*
X98858000Y-132595252D02*
X98858000Y-132072748D01*
G04 #@! TO.C,J2*
X117661000Y-136825000D02*
X118261000Y-136525000D01*
X117661000Y-136225000D02*
X117661000Y-136825000D01*
X118261000Y-136525000D02*
X117661000Y-136225000D01*
X121351000Y-151845000D02*
X121351000Y-151525000D01*
X124771000Y-151845000D02*
X121351000Y-151845000D01*
X124851000Y-151525000D02*
X124771000Y-151845000D01*
X124771000Y-151205000D02*
X124851000Y-151525000D01*
X121351000Y-151205000D02*
X124771000Y-151205000D01*
X121351000Y-151525000D02*
X121351000Y-151205000D01*
X120351000Y-150195000D02*
X120351000Y-150355000D01*
X121351000Y-149345000D02*
X121351000Y-149025000D01*
X124771000Y-149345000D02*
X121351000Y-149345000D01*
X124851000Y-149025000D02*
X124771000Y-149345000D01*
X124771000Y-148705000D02*
X124851000Y-149025000D01*
X121351000Y-148705000D02*
X124771000Y-148705000D01*
X121351000Y-149025000D02*
X121351000Y-148705000D01*
X120351000Y-147695000D02*
X120351000Y-147855000D01*
X121351000Y-146845000D02*
X121351000Y-146525000D01*
X124771000Y-146845000D02*
X121351000Y-146845000D01*
X124851000Y-146525000D02*
X124771000Y-146845000D01*
X124771000Y-146205000D02*
X124851000Y-146525000D01*
X121351000Y-146205000D02*
X124771000Y-146205000D01*
X121351000Y-146525000D02*
X121351000Y-146205000D01*
X120351000Y-145195000D02*
X120351000Y-145355000D01*
X121351000Y-144345000D02*
X121351000Y-144025000D01*
X124771000Y-144345000D02*
X121351000Y-144345000D01*
X124851000Y-144025000D02*
X124771000Y-144345000D01*
X124771000Y-143705000D02*
X124851000Y-144025000D01*
X121351000Y-143705000D02*
X124771000Y-143705000D01*
X121351000Y-144025000D02*
X121351000Y-143705000D01*
X120351000Y-142695000D02*
X120351000Y-142855000D01*
X121351000Y-141845000D02*
X121351000Y-141525000D01*
X124771000Y-141845000D02*
X121351000Y-141845000D01*
X124851000Y-141525000D02*
X124771000Y-141845000D01*
X124771000Y-141205000D02*
X124851000Y-141525000D01*
X121351000Y-141205000D02*
X124771000Y-141205000D01*
X121351000Y-141525000D02*
X121351000Y-141205000D01*
X120351000Y-140195000D02*
X120351000Y-140355000D01*
X121351000Y-139345000D02*
X121351000Y-139025000D01*
X124771000Y-139345000D02*
X121351000Y-139345000D01*
X124851000Y-139025000D02*
X124771000Y-139345000D01*
X124771000Y-138705000D02*
X124851000Y-139025000D01*
X121351000Y-138705000D02*
X124771000Y-138705000D01*
X121351000Y-139025000D02*
X121351000Y-138705000D01*
X120351000Y-137695000D02*
X120351000Y-137855000D01*
X121351000Y-136845000D02*
X121351000Y-136525000D01*
X124771000Y-136845000D02*
X121351000Y-136845000D01*
X124851000Y-136525000D02*
X124771000Y-136845000D01*
X124771000Y-136205000D02*
X124851000Y-136525000D01*
X121351000Y-136205000D02*
X124771000Y-136205000D01*
X121351000Y-136525000D02*
X121351000Y-136205000D01*
X121351000Y-135135000D02*
X121351000Y-152915000D01*
X120351000Y-152915000D02*
X120351000Y-154135000D01*
X125351000Y-152915000D02*
X120351000Y-152915000D01*
X125351000Y-154135000D02*
X125351000Y-152915000D01*
X120351000Y-135135000D02*
X120351000Y-133915000D01*
X125351000Y-135135000D02*
X120351000Y-135135000D01*
X125351000Y-133915000D02*
X125351000Y-135135000D01*
X118151000Y-152915000D02*
X120351000Y-152915000D01*
X118151000Y-154135000D02*
X118151000Y-152915000D01*
X126571000Y-154135000D02*
X118151000Y-154135000D01*
X126571000Y-133915000D02*
X126571000Y-154135000D01*
X118151000Y-133915000D02*
X126571000Y-133915000D01*
X118151000Y-135135000D02*
X118151000Y-133915000D01*
X120351000Y-135135000D02*
X118151000Y-135135000D01*
G04 #@! TO.C,J1*
X71569000Y-152481000D02*
X70969000Y-152781000D01*
X71569000Y-153081000D02*
X71569000Y-152481000D01*
X70969000Y-152781000D02*
X71569000Y-153081000D01*
X67879000Y-134961000D02*
X67879000Y-135281000D01*
X64459000Y-134961000D02*
X67879000Y-134961000D01*
X64379000Y-135281000D02*
X64459000Y-134961000D01*
X64459000Y-135601000D02*
X64379000Y-135281000D01*
X67879000Y-135601000D02*
X64459000Y-135601000D01*
X67879000Y-135281000D02*
X67879000Y-135601000D01*
X68879000Y-136611000D02*
X68879000Y-136451000D01*
X67879000Y-137461000D02*
X67879000Y-137781000D01*
X64459000Y-137461000D02*
X67879000Y-137461000D01*
X64379000Y-137781000D02*
X64459000Y-137461000D01*
X64459000Y-138101000D02*
X64379000Y-137781000D01*
X67879000Y-138101000D02*
X64459000Y-138101000D01*
X67879000Y-137781000D02*
X67879000Y-138101000D01*
X68879000Y-139111000D02*
X68879000Y-138951000D01*
X67879000Y-139961000D02*
X67879000Y-140281000D01*
X64459000Y-139961000D02*
X67879000Y-139961000D01*
X64379000Y-140281000D02*
X64459000Y-139961000D01*
X64459000Y-140601000D02*
X64379000Y-140281000D01*
X67879000Y-140601000D02*
X64459000Y-140601000D01*
X67879000Y-140281000D02*
X67879000Y-140601000D01*
X68879000Y-141611000D02*
X68879000Y-141451000D01*
X67879000Y-142461000D02*
X67879000Y-142781000D01*
X64459000Y-142461000D02*
X67879000Y-142461000D01*
X64379000Y-142781000D02*
X64459000Y-142461000D01*
X64459000Y-143101000D02*
X64379000Y-142781000D01*
X67879000Y-143101000D02*
X64459000Y-143101000D01*
X67879000Y-142781000D02*
X67879000Y-143101000D01*
X68879000Y-144111000D02*
X68879000Y-143951000D01*
X67879000Y-144961000D02*
X67879000Y-145281000D01*
X64459000Y-144961000D02*
X67879000Y-144961000D01*
X64379000Y-145281000D02*
X64459000Y-144961000D01*
X64459000Y-145601000D02*
X64379000Y-145281000D01*
X67879000Y-145601000D02*
X64459000Y-145601000D01*
X67879000Y-145281000D02*
X67879000Y-145601000D01*
X68879000Y-146611000D02*
X68879000Y-146451000D01*
X67879000Y-147461000D02*
X67879000Y-147781000D01*
X64459000Y-147461000D02*
X67879000Y-147461000D01*
X64379000Y-147781000D02*
X64459000Y-147461000D01*
X64459000Y-148101000D02*
X64379000Y-147781000D01*
X67879000Y-148101000D02*
X64459000Y-148101000D01*
X67879000Y-147781000D02*
X67879000Y-148101000D01*
X68879000Y-149111000D02*
X68879000Y-148951000D01*
X67879000Y-149961000D02*
X67879000Y-150281000D01*
X64459000Y-149961000D02*
X67879000Y-149961000D01*
X64379000Y-150281000D02*
X64459000Y-149961000D01*
X64459000Y-150601000D02*
X64379000Y-150281000D01*
X67879000Y-150601000D02*
X64459000Y-150601000D01*
X67879000Y-150281000D02*
X67879000Y-150601000D01*
X68879000Y-151611000D02*
X68879000Y-151451000D01*
X67879000Y-152461000D02*
X67879000Y-152781000D01*
X64459000Y-152461000D02*
X67879000Y-152461000D01*
X64379000Y-152781000D02*
X64459000Y-152461000D01*
X64459000Y-153101000D02*
X64379000Y-152781000D01*
X67879000Y-153101000D02*
X64459000Y-153101000D01*
X67879000Y-152781000D02*
X67879000Y-153101000D01*
X67879000Y-154171000D02*
X67879000Y-133891000D01*
X68879000Y-133891000D02*
X68879000Y-132671000D01*
X63879000Y-133891000D02*
X68879000Y-133891000D01*
X63879000Y-132671000D02*
X63879000Y-133891000D01*
X68879000Y-154171000D02*
X68879000Y-155391000D01*
X63879000Y-154171000D02*
X68879000Y-154171000D01*
X63879000Y-155391000D02*
X63879000Y-154171000D01*
X71079000Y-133891000D02*
X68879000Y-133891000D01*
X71079000Y-132671000D02*
X71079000Y-133891000D01*
X62659000Y-132671000D02*
X71079000Y-132671000D01*
X62659000Y-155391000D02*
X62659000Y-132671000D01*
X71079000Y-155391000D02*
X62659000Y-155391000D01*
X71079000Y-154171000D02*
X71079000Y-155391000D01*
X68879000Y-154171000D02*
X71079000Y-154171000D01*
G04 #@! TO.C,J3*
X108525000Y-129346000D02*
X108525000Y-128016000D01*
X109855000Y-129346000D02*
X108525000Y-129346000D01*
X111125000Y-129346000D02*
X111125000Y-126686000D01*
X111125000Y-126686000D02*
X118805000Y-126686000D01*
X111125000Y-129346000D02*
X118805000Y-129346000D01*
X118805000Y-129346000D02*
X118805000Y-126686000D01*
G04 #@! TO.C,J4*
X90618000Y-129346000D02*
X90618000Y-128016000D01*
X91948000Y-129346000D02*
X90618000Y-129346000D01*
X93218000Y-129346000D02*
X93218000Y-126686000D01*
X93218000Y-126686000D02*
X103438000Y-126686000D01*
X93218000Y-129346000D02*
X103438000Y-129346000D01*
X103438000Y-129346000D02*
X103438000Y-126686000D01*
G04 #@! TO.C,J5*
X104962000Y-155896000D02*
X104962000Y-157226000D01*
X103632000Y-155896000D02*
X104962000Y-155896000D01*
X104962000Y-158496000D02*
X104962000Y-161096000D01*
X102362000Y-158496000D02*
X104962000Y-158496000D01*
X102362000Y-155896000D02*
X102362000Y-158496000D01*
X104962000Y-161096000D02*
X97222000Y-161096000D01*
X102362000Y-155896000D02*
X97222000Y-155896000D01*
X97222000Y-155896000D02*
X97222000Y-161096000D01*
G04 #@! TO.C,D11*
X120232000Y-132826000D02*
X116332000Y-132826000D01*
X120232000Y-130826000D02*
X116332000Y-130826000D01*
X120232000Y-132826000D02*
X120232000Y-130826000D01*
G04 #@! TO.C,D14*
X72406000Y-143093000D02*
X72406000Y-139193000D01*
X74406000Y-143093000D02*
X74406000Y-139193000D01*
X72406000Y-143093000D02*
X74406000Y-143093000D01*
G04 #@! TO.C,D13*
X72660000Y-149061000D02*
X72660000Y-145161000D01*
X74660000Y-149061000D02*
X74660000Y-145161000D01*
X72660000Y-149061000D02*
X74660000Y-149061000D01*
G04 #@! TO.C,Q1*
X76202000Y-143454000D02*
X77662000Y-143454000D01*
X76202000Y-146614000D02*
X78362000Y-146614000D01*
X76202000Y-146614000D02*
X76202000Y-145684000D01*
X76202000Y-143454000D02*
X76202000Y-144384000D01*
G04 #@! TO.C,Q2*
X75694000Y-137739000D02*
X77154000Y-137739000D01*
X75694000Y-140899000D02*
X77854000Y-140899000D01*
X75694000Y-140899000D02*
X75694000Y-139969000D01*
X75694000Y-137739000D02*
X75694000Y-138669000D01*
G04 #@! TO.C,R28*
X109726000Y-131513733D02*
X109726000Y-131856267D01*
X110746000Y-131513733D02*
X110746000Y-131856267D01*
G04 #@! TO.C,R29*
X112774000Y-131527733D02*
X112774000Y-131870267D01*
X113794000Y-131527733D02*
X113794000Y-131870267D01*
G04 #@! TO.C,R15*
X79300000Y-144772748D02*
X79300000Y-145295252D01*
X80720000Y-144772748D02*
X80720000Y-145295252D01*
G04 #@! TO.C,R17*
X83582252Y-145467000D02*
X83059748Y-145467000D01*
X83582252Y-146887000D02*
X83059748Y-146887000D01*
G04 #@! TO.C,R16*
X78665000Y-138930748D02*
X78665000Y-139453252D01*
X80085000Y-138930748D02*
X80085000Y-139453252D01*
G04 #@! TO.C,R18*
X82820252Y-139244000D02*
X82297748Y-139244000D01*
X82820252Y-140664000D02*
X82297748Y-140664000D01*
G04 #@! TO.C,R27*
X105843000Y-132063748D02*
X105843000Y-132586252D01*
X107263000Y-132063748D02*
X107263000Y-132586252D01*
G04 #@! TO.C,R26*
X103394252Y-132640000D02*
X102871748Y-132640000D01*
X103394252Y-134060000D02*
X102871748Y-134060000D01*
G04 #@! TO.C,F1*
X116115000Y-157184936D02*
X116115000Y-159989064D01*
X118835000Y-157184936D02*
X118835000Y-159989064D01*
G04 #@! TO.C,D8*
X108066000Y-140454000D02*
X112126000Y-140454000D01*
X108066000Y-138184000D02*
X108066000Y-140454000D01*
X112126000Y-138184000D02*
X108066000Y-138184000D01*
G04 #@! TO.C,D5*
X110244000Y-141014000D02*
X110244000Y-145074000D01*
X112514000Y-141014000D02*
X110244000Y-141014000D01*
X112514000Y-145074000D02*
X112514000Y-141014000D01*
G04 #@! TO.C,D10*
X107558000Y-151884000D02*
X111618000Y-151884000D01*
X107558000Y-149614000D02*
X107558000Y-151884000D01*
X111618000Y-149614000D02*
X107558000Y-149614000D01*
G04 #@! TO.C,L1*
X98367436Y-151474000D02*
X99571564Y-151474000D01*
X98367436Y-148754000D02*
X99571564Y-148754000D01*
G04 #@! TO.C,R11*
X115831252Y-148261000D02*
X115308748Y-148261000D01*
X115831252Y-149681000D02*
X115308748Y-149681000D01*
G04 #@! TO.C,R10*
X115840252Y-144959000D02*
X115317748Y-144959000D01*
X115840252Y-146379000D02*
X115317748Y-146379000D01*
G04 #@! TO.C,R9*
X115840252Y-141657000D02*
X115317748Y-141657000D01*
X115840252Y-143077000D02*
X115317748Y-143077000D01*
G04 #@! TO.C,R7*
X115840252Y-138355000D02*
X115317748Y-138355000D01*
X115840252Y-139775000D02*
X115317748Y-139775000D01*
G04 #@! TO.C,C1*
X81593563Y-156062000D02*
X82658000Y-154997563D01*
X76902437Y-156062000D02*
X75838000Y-154997563D01*
X76902437Y-156062000D02*
X78188000Y-156062000D01*
X81593563Y-156062000D02*
X80308000Y-156062000D01*
X82658000Y-154997563D02*
X82658000Y-149242000D01*
X75838000Y-154997563D02*
X75838000Y-149242000D01*
X75838000Y-149242000D02*
X78188000Y-149242000D01*
X82658000Y-149242000D02*
X80308000Y-149242000D01*
G04 #@! TO.C,C5*
X77626500Y-126391000D02*
X69566500Y-126391000D01*
X77626500Y-130911000D02*
X77626500Y-126391000D01*
X69566500Y-130911000D02*
X77626500Y-130911000D01*
G04 #@! TO.C,Y1*
X90185000Y-146154000D02*
G75*
G03X95235000Y-146154000I2525000J0D01*
G01*
X90185000Y-139904000D02*
G75*
G02X95235000Y-139904000I2525000J0D01*
G01*
X90185000Y-139904000D02*
X90185000Y-146154000D01*
X95235000Y-139904000D02*
X95235000Y-146154000D01*
G04 #@! TO.C,D2*
X87367000Y-151897000D02*
X83067000Y-151897000D01*
X83067000Y-151897000D02*
X83067000Y-159197000D01*
X87367000Y-151897000D02*
X87367000Y-159197000D01*
G04 #@! TO.C,D1*
X81879000Y-160385000D02*
X77979000Y-160385000D01*
X81879000Y-158385000D02*
X77979000Y-158385000D01*
X81879000Y-160385000D02*
X81879000Y-158385000D01*
G04 #@! TO.C,R1*
X74675064Y-157929000D02*
X70570936Y-157929000D01*
X74675064Y-161349000D02*
X70570936Y-161349000D01*
D13*
G04 #@! TO.C,U1*
X98515000Y-137883000D02*
X97090000Y-137883000D01*
X105765000Y-137658000D02*
X105440000Y-137658000D01*
X105765000Y-144908000D02*
X105440000Y-144908000D01*
X98515000Y-144908000D02*
X98840000Y-144908000D01*
X98515000Y-137658000D02*
X98840000Y-137658000D01*
X98515000Y-144908000D02*
X98515000Y-144583000D01*
X105765000Y-144908000D02*
X105765000Y-144583000D01*
X105765000Y-137658000D02*
X105765000Y-137983000D01*
X98515000Y-137658000D02*
X98515000Y-137883000D01*
G04 #@! TO.C,D12*
X110889714Y-161530380D02*
X110889714Y-160530380D01*
X111127809Y-160530380D01*
X111270666Y-160578000D01*
X111365904Y-160673238D01*
X111413523Y-160768476D01*
X111461142Y-160958952D01*
X111461142Y-161101809D01*
X111413523Y-161292285D01*
X111365904Y-161387523D01*
X111270666Y-161482761D01*
X111127809Y-161530380D01*
X110889714Y-161530380D01*
X112413523Y-161530380D02*
X111842095Y-161530380D01*
X112127809Y-161530380D02*
X112127809Y-160530380D01*
X112032571Y-160673238D01*
X111937333Y-160768476D01*
X111842095Y-160816095D01*
X112794476Y-160625619D02*
X112842095Y-160578000D01*
X112937333Y-160530380D01*
X113175428Y-160530380D01*
X113270666Y-160578000D01*
X113318285Y-160625619D01*
X113365904Y-160720857D01*
X113365904Y-160816095D01*
X113318285Y-160958952D01*
X112746857Y-161530380D01*
X113365904Y-161530380D01*
G04 #@! TO.C,C15*
X86654642Y-150216142D02*
X86607023Y-150263761D01*
X86464166Y-150311380D01*
X86368928Y-150311380D01*
X86226071Y-150263761D01*
X86130833Y-150168523D01*
X86083214Y-150073285D01*
X86035595Y-149882809D01*
X86035595Y-149739952D01*
X86083214Y-149549476D01*
X86130833Y-149454238D01*
X86226071Y-149359000D01*
X86368928Y-149311380D01*
X86464166Y-149311380D01*
X86607023Y-149359000D01*
X86654642Y-149406619D01*
X87607023Y-150311380D02*
X87035595Y-150311380D01*
X87321309Y-150311380D02*
X87321309Y-149311380D01*
X87226071Y-149454238D01*
X87130833Y-149549476D01*
X87035595Y-149597095D01*
X88511785Y-149311380D02*
X88035595Y-149311380D01*
X87987976Y-149787571D01*
X88035595Y-149739952D01*
X88130833Y-149692333D01*
X88368928Y-149692333D01*
X88464166Y-149739952D01*
X88511785Y-149787571D01*
X88559404Y-149882809D01*
X88559404Y-150120904D01*
X88511785Y-150216142D01*
X88464166Y-150263761D01*
X88368928Y-150311380D01*
X88130833Y-150311380D01*
X88035595Y-150263761D01*
X87987976Y-150216142D01*
G04 #@! TO.C,C16*
X98275142Y-132976857D02*
X98322761Y-133024476D01*
X98370380Y-133167333D01*
X98370380Y-133262571D01*
X98322761Y-133405428D01*
X98227523Y-133500666D01*
X98132285Y-133548285D01*
X97941809Y-133595904D01*
X97798952Y-133595904D01*
X97608476Y-133548285D01*
X97513238Y-133500666D01*
X97418000Y-133405428D01*
X97370380Y-133262571D01*
X97370380Y-133167333D01*
X97418000Y-133024476D01*
X97465619Y-132976857D01*
X98370380Y-132024476D02*
X98370380Y-132595904D01*
X98370380Y-132310190D02*
X97370380Y-132310190D01*
X97513238Y-132405428D01*
X97608476Y-132500666D01*
X97656095Y-132595904D01*
X97370380Y-131167333D02*
X97370380Y-131357809D01*
X97418000Y-131453047D01*
X97465619Y-131500666D01*
X97608476Y-131595904D01*
X97798952Y-131643523D01*
X98179904Y-131643523D01*
X98275142Y-131595904D01*
X98322761Y-131548285D01*
X98370380Y-131453047D01*
X98370380Y-131262571D01*
X98322761Y-131167333D01*
X98275142Y-131119714D01*
X98179904Y-131072095D01*
X97941809Y-131072095D01*
X97846571Y-131119714D01*
X97798952Y-131167333D01*
X97751333Y-131262571D01*
X97751333Y-131453047D01*
X97798952Y-131548285D01*
X97846571Y-131595904D01*
X97941809Y-131643523D01*
G04 #@! TO.C,J2*
X120951666Y-154900380D02*
X120951666Y-155614666D01*
X120904047Y-155757523D01*
X120808809Y-155852761D01*
X120665952Y-155900380D01*
X120570714Y-155900380D01*
X121380238Y-154995619D02*
X121427857Y-154948000D01*
X121523095Y-154900380D01*
X121761190Y-154900380D01*
X121856428Y-154948000D01*
X121904047Y-154995619D01*
X121951666Y-155090857D01*
X121951666Y-155186095D01*
X121904047Y-155328952D01*
X121332619Y-155900380D01*
X121951666Y-155900380D01*
G04 #@! TO.C,J3*
X119935666Y-126833380D02*
X119935666Y-127547666D01*
X119888047Y-127690523D01*
X119792809Y-127785761D01*
X119649952Y-127833380D01*
X119554714Y-127833380D01*
X120316619Y-126833380D02*
X120935666Y-126833380D01*
X120602333Y-127214333D01*
X120745190Y-127214333D01*
X120840428Y-127261952D01*
X120888047Y-127309571D01*
X120935666Y-127404809D01*
X120935666Y-127642904D01*
X120888047Y-127738142D01*
X120840428Y-127785761D01*
X120745190Y-127833380D01*
X120459476Y-127833380D01*
X120364238Y-127785761D01*
X120316619Y-127738142D01*
G04 #@! TO.C,J4*
X89070380Y-128349333D02*
X89784666Y-128349333D01*
X89927523Y-128396952D01*
X90022761Y-128492190D01*
X90070380Y-128635047D01*
X90070380Y-128730285D01*
X89403714Y-127444571D02*
X90070380Y-127444571D01*
X89022761Y-127682666D02*
X89737047Y-127920761D01*
X89737047Y-127301714D01*
G04 #@! TO.C,J5*
X105414380Y-158829333D02*
X106128666Y-158829333D01*
X106271523Y-158876952D01*
X106366761Y-158972190D01*
X106414380Y-159115047D01*
X106414380Y-159210285D01*
X105414380Y-157876952D02*
X105414380Y-158353142D01*
X105890571Y-158400761D01*
X105842952Y-158353142D01*
X105795333Y-158257904D01*
X105795333Y-158019809D01*
X105842952Y-157924571D01*
X105890571Y-157876952D01*
X105985809Y-157829333D01*
X106223904Y-157829333D01*
X106319142Y-157876952D01*
X106366761Y-157924571D01*
X106414380Y-158019809D01*
X106414380Y-158257904D01*
X106366761Y-158353142D01*
X106319142Y-158400761D01*
G04 #@! TO.C,D11*
X120578714Y-133040380D02*
X120578714Y-132040380D01*
X120816809Y-132040380D01*
X120959666Y-132088000D01*
X121054904Y-132183238D01*
X121102523Y-132278476D01*
X121150142Y-132468952D01*
X121150142Y-132611809D01*
X121102523Y-132802285D01*
X121054904Y-132897523D01*
X120959666Y-132992761D01*
X120816809Y-133040380D01*
X120578714Y-133040380D01*
X122102523Y-133040380D02*
X121531095Y-133040380D01*
X121816809Y-133040380D02*
X121816809Y-132040380D01*
X121721571Y-132183238D01*
X121626333Y-132278476D01*
X121531095Y-132326095D01*
X123054904Y-133040380D02*
X122483476Y-133040380D01*
X122769190Y-133040380D02*
X122769190Y-132040380D01*
X122673952Y-132183238D01*
X122578714Y-132278476D01*
X122483476Y-132326095D01*
G04 #@! TO.C,D14*
X72588380Y-139898285D02*
X71588380Y-139898285D01*
X71588380Y-139660190D01*
X71636000Y-139517333D01*
X71731238Y-139422095D01*
X71826476Y-139374476D01*
X72016952Y-139326857D01*
X72159809Y-139326857D01*
X72350285Y-139374476D01*
X72445523Y-139422095D01*
X72540761Y-139517333D01*
X72588380Y-139660190D01*
X72588380Y-139898285D01*
X72588380Y-138374476D02*
X72588380Y-138945904D01*
X72588380Y-138660190D02*
X71588380Y-138660190D01*
X71731238Y-138755428D01*
X71826476Y-138850666D01*
X71874095Y-138945904D01*
X71921714Y-137517333D02*
X72588380Y-137517333D01*
X71540761Y-137755428D02*
X72255047Y-137993523D01*
X72255047Y-137374476D01*
G04 #@! TO.C,D13*
X72572714Y-150566380D02*
X72572714Y-149566380D01*
X72810809Y-149566380D01*
X72953666Y-149614000D01*
X73048904Y-149709238D01*
X73096523Y-149804476D01*
X73144142Y-149994952D01*
X73144142Y-150137809D01*
X73096523Y-150328285D01*
X73048904Y-150423523D01*
X72953666Y-150518761D01*
X72810809Y-150566380D01*
X72572714Y-150566380D01*
X74096523Y-150566380D02*
X73525095Y-150566380D01*
X73810809Y-150566380D02*
X73810809Y-149566380D01*
X73715571Y-149709238D01*
X73620333Y-149804476D01*
X73525095Y-149852095D01*
X74429857Y-149566380D02*
X75048904Y-149566380D01*
X74715571Y-149947333D01*
X74858428Y-149947333D01*
X74953666Y-149994952D01*
X75001285Y-150042571D01*
X75048904Y-150137809D01*
X75048904Y-150375904D01*
X75001285Y-150471142D01*
X74953666Y-150518761D01*
X74858428Y-150566380D01*
X74572714Y-150566380D01*
X74477476Y-150518761D01*
X74429857Y-150471142D01*
G04 #@! TO.C,Q1*
X76866761Y-148081619D02*
X76771523Y-148034000D01*
X76676285Y-147938761D01*
X76533428Y-147795904D01*
X76438190Y-147748285D01*
X76342952Y-147748285D01*
X76390571Y-147986380D02*
X76295333Y-147938761D01*
X76200095Y-147843523D01*
X76152476Y-147653047D01*
X76152476Y-147319714D01*
X76200095Y-147129238D01*
X76295333Y-147034000D01*
X76390571Y-146986380D01*
X76581047Y-146986380D01*
X76676285Y-147034000D01*
X76771523Y-147129238D01*
X76819142Y-147319714D01*
X76819142Y-147653047D01*
X76771523Y-147843523D01*
X76676285Y-147938761D01*
X76581047Y-147986380D01*
X76390571Y-147986380D01*
X77771523Y-147986380D02*
X77200095Y-147986380D01*
X77485809Y-147986380D02*
X77485809Y-146986380D01*
X77390571Y-147129238D01*
X77295333Y-147224476D01*
X77200095Y-147272095D01*
G04 #@! TO.C,Q2*
X76358761Y-142366619D02*
X76263523Y-142319000D01*
X76168285Y-142223761D01*
X76025428Y-142080904D01*
X75930190Y-142033285D01*
X75834952Y-142033285D01*
X75882571Y-142271380D02*
X75787333Y-142223761D01*
X75692095Y-142128523D01*
X75644476Y-141938047D01*
X75644476Y-141604714D01*
X75692095Y-141414238D01*
X75787333Y-141319000D01*
X75882571Y-141271380D01*
X76073047Y-141271380D01*
X76168285Y-141319000D01*
X76263523Y-141414238D01*
X76311142Y-141604714D01*
X76311142Y-141938047D01*
X76263523Y-142128523D01*
X76168285Y-142223761D01*
X76073047Y-142271380D01*
X75882571Y-142271380D01*
X76692095Y-141366619D02*
X76739714Y-141319000D01*
X76834952Y-141271380D01*
X77073047Y-141271380D01*
X77168285Y-141319000D01*
X77215904Y-141366619D01*
X77263523Y-141461857D01*
X77263523Y-141557095D01*
X77215904Y-141699952D01*
X76644476Y-142271380D01*
X77263523Y-142271380D01*
G04 #@! TO.C,R28*
X112085380Y-133103857D02*
X111609190Y-133437190D01*
X112085380Y-133675285D02*
X111085380Y-133675285D01*
X111085380Y-133294333D01*
X111133000Y-133199095D01*
X111180619Y-133151476D01*
X111275857Y-133103857D01*
X111418714Y-133103857D01*
X111513952Y-133151476D01*
X111561571Y-133199095D01*
X111609190Y-133294333D01*
X111609190Y-133675285D01*
X111180619Y-132722904D02*
X111133000Y-132675285D01*
X111085380Y-132580047D01*
X111085380Y-132341952D01*
X111133000Y-132246714D01*
X111180619Y-132199095D01*
X111275857Y-132151476D01*
X111371095Y-132151476D01*
X111513952Y-132199095D01*
X112085380Y-132770523D01*
X112085380Y-132151476D01*
X111513952Y-131580047D02*
X111466333Y-131675285D01*
X111418714Y-131722904D01*
X111323476Y-131770523D01*
X111275857Y-131770523D01*
X111180619Y-131722904D01*
X111133000Y-131675285D01*
X111085380Y-131580047D01*
X111085380Y-131389571D01*
X111133000Y-131294333D01*
X111180619Y-131246714D01*
X111275857Y-131199095D01*
X111323476Y-131199095D01*
X111418714Y-131246714D01*
X111466333Y-131294333D01*
X111513952Y-131389571D01*
X111513952Y-131580047D01*
X111561571Y-131675285D01*
X111609190Y-131722904D01*
X111704428Y-131770523D01*
X111894904Y-131770523D01*
X111990142Y-131722904D01*
X112037761Y-131675285D01*
X112085380Y-131580047D01*
X112085380Y-131389571D01*
X112037761Y-131294333D01*
X111990142Y-131246714D01*
X111894904Y-131199095D01*
X111704428Y-131199095D01*
X111609190Y-131246714D01*
X111561571Y-131294333D01*
X111513952Y-131389571D01*
G04 #@! TO.C,R29*
X115260380Y-132722857D02*
X114784190Y-133056190D01*
X115260380Y-133294285D02*
X114260380Y-133294285D01*
X114260380Y-132913333D01*
X114308000Y-132818095D01*
X114355619Y-132770476D01*
X114450857Y-132722857D01*
X114593714Y-132722857D01*
X114688952Y-132770476D01*
X114736571Y-132818095D01*
X114784190Y-132913333D01*
X114784190Y-133294285D01*
X114355619Y-132341904D02*
X114308000Y-132294285D01*
X114260380Y-132199047D01*
X114260380Y-131960952D01*
X114308000Y-131865714D01*
X114355619Y-131818095D01*
X114450857Y-131770476D01*
X114546095Y-131770476D01*
X114688952Y-131818095D01*
X115260380Y-132389523D01*
X115260380Y-131770476D01*
X115260380Y-131294285D02*
X115260380Y-131103809D01*
X115212761Y-131008571D01*
X115165142Y-130960952D01*
X115022285Y-130865714D01*
X114831809Y-130818095D01*
X114450857Y-130818095D01*
X114355619Y-130865714D01*
X114308000Y-130913333D01*
X114260380Y-131008571D01*
X114260380Y-131199047D01*
X114308000Y-131294285D01*
X114355619Y-131341904D01*
X114450857Y-131389523D01*
X114688952Y-131389523D01*
X114784190Y-131341904D01*
X114831809Y-131294285D01*
X114879428Y-131199047D01*
X114879428Y-131008571D01*
X114831809Y-130913333D01*
X114784190Y-130865714D01*
X114688952Y-130818095D01*
G04 #@! TO.C,R15*
X82112380Y-144406857D02*
X81636190Y-144740190D01*
X82112380Y-144978285D02*
X81112380Y-144978285D01*
X81112380Y-144597333D01*
X81160000Y-144502095D01*
X81207619Y-144454476D01*
X81302857Y-144406857D01*
X81445714Y-144406857D01*
X81540952Y-144454476D01*
X81588571Y-144502095D01*
X81636190Y-144597333D01*
X81636190Y-144978285D01*
X82112380Y-143454476D02*
X82112380Y-144025904D01*
X82112380Y-143740190D02*
X81112380Y-143740190D01*
X81255238Y-143835428D01*
X81350476Y-143930666D01*
X81398095Y-144025904D01*
X81112380Y-142549714D02*
X81112380Y-143025904D01*
X81588571Y-143073523D01*
X81540952Y-143025904D01*
X81493333Y-142930666D01*
X81493333Y-142692571D01*
X81540952Y-142597333D01*
X81588571Y-142549714D01*
X81683809Y-142502095D01*
X81921904Y-142502095D01*
X82017142Y-142549714D01*
X82064761Y-142597333D01*
X82112380Y-142692571D01*
X82112380Y-142930666D01*
X82064761Y-143025904D01*
X82017142Y-143073523D01*
G04 #@! TO.C,R17*
X82678142Y-148279380D02*
X82344809Y-147803190D01*
X82106714Y-148279380D02*
X82106714Y-147279380D01*
X82487666Y-147279380D01*
X82582904Y-147327000D01*
X82630523Y-147374619D01*
X82678142Y-147469857D01*
X82678142Y-147612714D01*
X82630523Y-147707952D01*
X82582904Y-147755571D01*
X82487666Y-147803190D01*
X82106714Y-147803190D01*
X83630523Y-148279380D02*
X83059095Y-148279380D01*
X83344809Y-148279380D02*
X83344809Y-147279380D01*
X83249571Y-147422238D01*
X83154333Y-147517476D01*
X83059095Y-147565095D01*
X83963857Y-147279380D02*
X84630523Y-147279380D01*
X84201952Y-148279380D01*
G04 #@! TO.C,R16*
X81478380Y-137802857D02*
X81002190Y-138136190D01*
X81478380Y-138374285D02*
X80478380Y-138374285D01*
X80478380Y-137993333D01*
X80526000Y-137898095D01*
X80573619Y-137850476D01*
X80668857Y-137802857D01*
X80811714Y-137802857D01*
X80906952Y-137850476D01*
X80954571Y-137898095D01*
X81002190Y-137993333D01*
X81002190Y-138374285D01*
X81478380Y-136850476D02*
X81478380Y-137421904D01*
X81478380Y-137136190D02*
X80478380Y-137136190D01*
X80621238Y-137231428D01*
X80716476Y-137326666D01*
X80764095Y-137421904D01*
X80478380Y-135993333D02*
X80478380Y-136183809D01*
X80526000Y-136279047D01*
X80573619Y-136326666D01*
X80716476Y-136421904D01*
X80906952Y-136469523D01*
X81287904Y-136469523D01*
X81383142Y-136421904D01*
X81430761Y-136374285D01*
X81478380Y-136279047D01*
X81478380Y-136088571D01*
X81430761Y-135993333D01*
X81383142Y-135945714D01*
X81287904Y-135898095D01*
X81049809Y-135898095D01*
X80954571Y-135945714D01*
X80906952Y-135993333D01*
X80859333Y-136088571D01*
X80859333Y-136279047D01*
X80906952Y-136374285D01*
X80954571Y-136421904D01*
X81049809Y-136469523D01*
G04 #@! TO.C,R18*
X81916142Y-142056380D02*
X81582809Y-141580190D01*
X81344714Y-142056380D02*
X81344714Y-141056380D01*
X81725666Y-141056380D01*
X81820904Y-141104000D01*
X81868523Y-141151619D01*
X81916142Y-141246857D01*
X81916142Y-141389714D01*
X81868523Y-141484952D01*
X81820904Y-141532571D01*
X81725666Y-141580190D01*
X81344714Y-141580190D01*
X82868523Y-142056380D02*
X82297095Y-142056380D01*
X82582809Y-142056380D02*
X82582809Y-141056380D01*
X82487571Y-141199238D01*
X82392333Y-141294476D01*
X82297095Y-141342095D01*
X83439952Y-141484952D02*
X83344714Y-141437333D01*
X83297095Y-141389714D01*
X83249476Y-141294476D01*
X83249476Y-141246857D01*
X83297095Y-141151619D01*
X83344714Y-141104000D01*
X83439952Y-141056380D01*
X83630428Y-141056380D01*
X83725666Y-141104000D01*
X83773285Y-141151619D01*
X83820904Y-141246857D01*
X83820904Y-141294476D01*
X83773285Y-141389714D01*
X83725666Y-141437333D01*
X83630428Y-141484952D01*
X83439952Y-141484952D01*
X83344714Y-141532571D01*
X83297095Y-141580190D01*
X83249476Y-141675428D01*
X83249476Y-141865904D01*
X83297095Y-141961142D01*
X83344714Y-142008761D01*
X83439952Y-142056380D01*
X83630428Y-142056380D01*
X83725666Y-142008761D01*
X83773285Y-141961142D01*
X83820904Y-141865904D01*
X83820904Y-141675428D01*
X83773285Y-141580190D01*
X83725666Y-141532571D01*
X83630428Y-141484952D01*
G04 #@! TO.C,R27*
X108655380Y-132967857D02*
X108179190Y-133301190D01*
X108655380Y-133539285D02*
X107655380Y-133539285D01*
X107655380Y-133158333D01*
X107703000Y-133063095D01*
X107750619Y-133015476D01*
X107845857Y-132967857D01*
X107988714Y-132967857D01*
X108083952Y-133015476D01*
X108131571Y-133063095D01*
X108179190Y-133158333D01*
X108179190Y-133539285D01*
X107750619Y-132586904D02*
X107703000Y-132539285D01*
X107655380Y-132444047D01*
X107655380Y-132205952D01*
X107703000Y-132110714D01*
X107750619Y-132063095D01*
X107845857Y-132015476D01*
X107941095Y-132015476D01*
X108083952Y-132063095D01*
X108655380Y-132634523D01*
X108655380Y-132015476D01*
X107655380Y-131682142D02*
X107655380Y-131015476D01*
X108655380Y-131444047D01*
G04 #@! TO.C,R26*
X102490142Y-135452380D02*
X102156809Y-134976190D01*
X101918714Y-135452380D02*
X101918714Y-134452380D01*
X102299666Y-134452380D01*
X102394904Y-134500000D01*
X102442523Y-134547619D01*
X102490142Y-134642857D01*
X102490142Y-134785714D01*
X102442523Y-134880952D01*
X102394904Y-134928571D01*
X102299666Y-134976190D01*
X101918714Y-134976190D01*
X102871095Y-134547619D02*
X102918714Y-134500000D01*
X103013952Y-134452380D01*
X103252047Y-134452380D01*
X103347285Y-134500000D01*
X103394904Y-134547619D01*
X103442523Y-134642857D01*
X103442523Y-134738095D01*
X103394904Y-134880952D01*
X102823476Y-135452380D01*
X103442523Y-135452380D01*
X104299666Y-134452380D02*
X104109190Y-134452380D01*
X104013952Y-134500000D01*
X103966333Y-134547619D01*
X103871095Y-134690476D01*
X103823476Y-134880952D01*
X103823476Y-135261904D01*
X103871095Y-135357142D01*
X103918714Y-135404761D01*
X104013952Y-135452380D01*
X104204428Y-135452380D01*
X104299666Y-135404761D01*
X104347285Y-135357142D01*
X104394904Y-135261904D01*
X104394904Y-135023809D01*
X104347285Y-134928571D01*
X104299666Y-134880952D01*
X104204428Y-134833333D01*
X104013952Y-134833333D01*
X103918714Y-134880952D01*
X103871095Y-134928571D01*
X103823476Y-135023809D01*
G04 #@! TO.C,F1*
X119683571Y-158920333D02*
X119683571Y-159253666D01*
X120207380Y-159253666D02*
X119207380Y-159253666D01*
X119207380Y-158777476D01*
X120207380Y-157872714D02*
X120207380Y-158444142D01*
X120207380Y-158158428D02*
X119207380Y-158158428D01*
X119350238Y-158253666D01*
X119445476Y-158348904D01*
X119493095Y-158444142D01*
G04 #@! TO.C,D8*
X109787904Y-137951380D02*
X109787904Y-136951380D01*
X110026000Y-136951380D01*
X110168857Y-136999000D01*
X110264095Y-137094238D01*
X110311714Y-137189476D01*
X110359333Y-137379952D01*
X110359333Y-137522809D01*
X110311714Y-137713285D01*
X110264095Y-137808523D01*
X110168857Y-137903761D01*
X110026000Y-137951380D01*
X109787904Y-137951380D01*
X110930761Y-137379952D02*
X110835523Y-137332333D01*
X110787904Y-137284714D01*
X110740285Y-137189476D01*
X110740285Y-137141857D01*
X110787904Y-137046619D01*
X110835523Y-136999000D01*
X110930761Y-136951380D01*
X111121238Y-136951380D01*
X111216476Y-136999000D01*
X111264095Y-137046619D01*
X111311714Y-137141857D01*
X111311714Y-137189476D01*
X111264095Y-137284714D01*
X111216476Y-137332333D01*
X111121238Y-137379952D01*
X110930761Y-137379952D01*
X110835523Y-137427571D01*
X110787904Y-137475190D01*
X110740285Y-137570428D01*
X110740285Y-137760904D01*
X110787904Y-137856142D01*
X110835523Y-137903761D01*
X110930761Y-137951380D01*
X111121238Y-137951380D01*
X111216476Y-137903761D01*
X111264095Y-137856142D01*
X111311714Y-137760904D01*
X111311714Y-137570428D01*
X111264095Y-137475190D01*
X111216476Y-137427571D01*
X111121238Y-137379952D01*
G04 #@! TO.C,D5*
X113651380Y-144212095D02*
X112651380Y-144212095D01*
X112651380Y-143974000D01*
X112699000Y-143831142D01*
X112794238Y-143735904D01*
X112889476Y-143688285D01*
X113079952Y-143640666D01*
X113222809Y-143640666D01*
X113413285Y-143688285D01*
X113508523Y-143735904D01*
X113603761Y-143831142D01*
X113651380Y-143974000D01*
X113651380Y-144212095D01*
X112651380Y-142735904D02*
X112651380Y-143212095D01*
X113127571Y-143259714D01*
X113079952Y-143212095D01*
X113032333Y-143116857D01*
X113032333Y-142878761D01*
X113079952Y-142783523D01*
X113127571Y-142735904D01*
X113222809Y-142688285D01*
X113460904Y-142688285D01*
X113556142Y-142735904D01*
X113603761Y-142783523D01*
X113651380Y-142878761D01*
X113651380Y-143116857D01*
X113603761Y-143212095D01*
X113556142Y-143259714D01*
G04 #@! TO.C,D10*
X108803714Y-149381380D02*
X108803714Y-148381380D01*
X109041809Y-148381380D01*
X109184666Y-148429000D01*
X109279904Y-148524238D01*
X109327523Y-148619476D01*
X109375142Y-148809952D01*
X109375142Y-148952809D01*
X109327523Y-149143285D01*
X109279904Y-149238523D01*
X109184666Y-149333761D01*
X109041809Y-149381380D01*
X108803714Y-149381380D01*
X110327523Y-149381380D02*
X109756095Y-149381380D01*
X110041809Y-149381380D02*
X110041809Y-148381380D01*
X109946571Y-148524238D01*
X109851333Y-148619476D01*
X109756095Y-148667095D01*
X110946571Y-148381380D02*
X111041809Y-148381380D01*
X111137047Y-148429000D01*
X111184666Y-148476619D01*
X111232285Y-148571857D01*
X111279904Y-148762333D01*
X111279904Y-149000428D01*
X111232285Y-149190904D01*
X111184666Y-149286142D01*
X111137047Y-149333761D01*
X111041809Y-149381380D01*
X110946571Y-149381380D01*
X110851333Y-149333761D01*
X110803714Y-149286142D01*
X110756095Y-149190904D01*
X110708476Y-149000428D01*
X110708476Y-148762333D01*
X110756095Y-148571857D01*
X110803714Y-148476619D01*
X110851333Y-148429000D01*
X110946571Y-148381380D01*
G04 #@! TO.C,L1*
X98802833Y-148286380D02*
X98326642Y-148286380D01*
X98326642Y-147286380D01*
X99659976Y-148286380D02*
X99088547Y-148286380D01*
X99374261Y-148286380D02*
X99374261Y-147286380D01*
X99279023Y-147429238D01*
X99183785Y-147524476D01*
X99088547Y-147572095D01*
G04 #@! TO.C,R11*
X114927142Y-151073380D02*
X114593809Y-150597190D01*
X114355714Y-151073380D02*
X114355714Y-150073380D01*
X114736666Y-150073380D01*
X114831904Y-150121000D01*
X114879523Y-150168619D01*
X114927142Y-150263857D01*
X114927142Y-150406714D01*
X114879523Y-150501952D01*
X114831904Y-150549571D01*
X114736666Y-150597190D01*
X114355714Y-150597190D01*
X115879523Y-151073380D02*
X115308095Y-151073380D01*
X115593809Y-151073380D02*
X115593809Y-150073380D01*
X115498571Y-150216238D01*
X115403333Y-150311476D01*
X115308095Y-150359095D01*
X116831904Y-151073380D02*
X116260476Y-151073380D01*
X116546190Y-151073380D02*
X116546190Y-150073380D01*
X116450952Y-150216238D01*
X116355714Y-150311476D01*
X116260476Y-150359095D01*
G04 #@! TO.C,R10*
X114936142Y-147771380D02*
X114602809Y-147295190D01*
X114364714Y-147771380D02*
X114364714Y-146771380D01*
X114745666Y-146771380D01*
X114840904Y-146819000D01*
X114888523Y-146866619D01*
X114936142Y-146961857D01*
X114936142Y-147104714D01*
X114888523Y-147199952D01*
X114840904Y-147247571D01*
X114745666Y-147295190D01*
X114364714Y-147295190D01*
X115888523Y-147771380D02*
X115317095Y-147771380D01*
X115602809Y-147771380D02*
X115602809Y-146771380D01*
X115507571Y-146914238D01*
X115412333Y-147009476D01*
X115317095Y-147057095D01*
X116507571Y-146771380D02*
X116602809Y-146771380D01*
X116698047Y-146819000D01*
X116745666Y-146866619D01*
X116793285Y-146961857D01*
X116840904Y-147152333D01*
X116840904Y-147390428D01*
X116793285Y-147580904D01*
X116745666Y-147676142D01*
X116698047Y-147723761D01*
X116602809Y-147771380D01*
X116507571Y-147771380D01*
X116412333Y-147723761D01*
X116364714Y-147676142D01*
X116317095Y-147580904D01*
X116269476Y-147390428D01*
X116269476Y-147152333D01*
X116317095Y-146961857D01*
X116364714Y-146866619D01*
X116412333Y-146819000D01*
X116507571Y-146771380D01*
G04 #@! TO.C,R9*
X115412333Y-144469380D02*
X115079000Y-143993190D01*
X114840904Y-144469380D02*
X114840904Y-143469380D01*
X115221857Y-143469380D01*
X115317095Y-143517000D01*
X115364714Y-143564619D01*
X115412333Y-143659857D01*
X115412333Y-143802714D01*
X115364714Y-143897952D01*
X115317095Y-143945571D01*
X115221857Y-143993190D01*
X114840904Y-143993190D01*
X115888523Y-144469380D02*
X116079000Y-144469380D01*
X116174238Y-144421761D01*
X116221857Y-144374142D01*
X116317095Y-144231285D01*
X116364714Y-144040809D01*
X116364714Y-143659857D01*
X116317095Y-143564619D01*
X116269476Y-143517000D01*
X116174238Y-143469380D01*
X115983761Y-143469380D01*
X115888523Y-143517000D01*
X115840904Y-143564619D01*
X115793285Y-143659857D01*
X115793285Y-143897952D01*
X115840904Y-143993190D01*
X115888523Y-144040809D01*
X115983761Y-144088428D01*
X116174238Y-144088428D01*
X116269476Y-144040809D01*
X116317095Y-143993190D01*
X116364714Y-143897952D01*
G04 #@! TO.C,R7*
X115412333Y-141167380D02*
X115079000Y-140691190D01*
X114840904Y-141167380D02*
X114840904Y-140167380D01*
X115221857Y-140167380D01*
X115317095Y-140215000D01*
X115364714Y-140262619D01*
X115412333Y-140357857D01*
X115412333Y-140500714D01*
X115364714Y-140595952D01*
X115317095Y-140643571D01*
X115221857Y-140691190D01*
X114840904Y-140691190D01*
X115745666Y-140167380D02*
X116412333Y-140167380D01*
X115983761Y-141167380D01*
G04 #@! TO.C,C1*
X75287142Y-156123166D02*
X75334761Y-156170785D01*
X75382380Y-156313642D01*
X75382380Y-156408880D01*
X75334761Y-156551738D01*
X75239523Y-156646976D01*
X75144285Y-156694595D01*
X74953809Y-156742214D01*
X74810952Y-156742214D01*
X74620476Y-156694595D01*
X74525238Y-156646976D01*
X74430000Y-156551738D01*
X74382380Y-156408880D01*
X74382380Y-156313642D01*
X74430000Y-156170785D01*
X74477619Y-156123166D01*
X75382380Y-155170785D02*
X75382380Y-155742214D01*
X75382380Y-155456500D02*
X74382380Y-155456500D01*
X74525238Y-155551738D01*
X74620476Y-155646976D01*
X74668095Y-155742214D01*
G04 #@! TO.C,C5*
X73049833Y-132108142D02*
X73002214Y-132155761D01*
X72859357Y-132203380D01*
X72764119Y-132203380D01*
X72621261Y-132155761D01*
X72526023Y-132060523D01*
X72478404Y-131965285D01*
X72430785Y-131774809D01*
X72430785Y-131631952D01*
X72478404Y-131441476D01*
X72526023Y-131346238D01*
X72621261Y-131251000D01*
X72764119Y-131203380D01*
X72859357Y-131203380D01*
X73002214Y-131251000D01*
X73049833Y-131298619D01*
X73954595Y-131203380D02*
X73478404Y-131203380D01*
X73430785Y-131679571D01*
X73478404Y-131631952D01*
X73573642Y-131584333D01*
X73811738Y-131584333D01*
X73906976Y-131631952D01*
X73954595Y-131679571D01*
X74002214Y-131774809D01*
X74002214Y-132012904D01*
X73954595Y-132108142D01*
X73906976Y-132155761D01*
X73811738Y-132203380D01*
X73573642Y-132203380D01*
X73478404Y-132155761D01*
X73430785Y-132108142D01*
G04 #@! TO.C,Y1*
X96211190Y-143505190D02*
X96687380Y-143505190D01*
X95687380Y-143838523D02*
X96211190Y-143505190D01*
X95687380Y-143171857D01*
X96687380Y-142314714D02*
X96687380Y-142886142D01*
X96687380Y-142600428D02*
X95687380Y-142600428D01*
X95830238Y-142695666D01*
X95925476Y-142790904D01*
X95973095Y-142886142D01*
G04 #@! TO.C,D2*
X88669380Y-157235095D02*
X87669380Y-157235095D01*
X87669380Y-156997000D01*
X87717000Y-156854142D01*
X87812238Y-156758904D01*
X87907476Y-156711285D01*
X88097952Y-156663666D01*
X88240809Y-156663666D01*
X88431285Y-156711285D01*
X88526523Y-156758904D01*
X88621761Y-156854142D01*
X88669380Y-156997000D01*
X88669380Y-157235095D01*
X87764619Y-156282714D02*
X87717000Y-156235095D01*
X87669380Y-156139857D01*
X87669380Y-155901761D01*
X87717000Y-155806523D01*
X87764619Y-155758904D01*
X87859857Y-155711285D01*
X87955095Y-155711285D01*
X88097952Y-155758904D01*
X88669380Y-156330333D01*
X88669380Y-155711285D01*
G04 #@! TO.C,D1*
X78890904Y-161837380D02*
X78890904Y-160837380D01*
X79129000Y-160837380D01*
X79271857Y-160885000D01*
X79367095Y-160980238D01*
X79414714Y-161075476D01*
X79462333Y-161265952D01*
X79462333Y-161408809D01*
X79414714Y-161599285D01*
X79367095Y-161694523D01*
X79271857Y-161789761D01*
X79129000Y-161837380D01*
X78890904Y-161837380D01*
X80414714Y-161837380D02*
X79843285Y-161837380D01*
X80129000Y-161837380D02*
X80129000Y-160837380D01*
X80033761Y-160980238D01*
X79938523Y-161075476D01*
X79843285Y-161123095D01*
G04 #@! TO.C,R1*
X72456333Y-157551380D02*
X72123000Y-157075190D01*
X71884904Y-157551380D02*
X71884904Y-156551380D01*
X72265857Y-156551380D01*
X72361095Y-156599000D01*
X72408714Y-156646619D01*
X72456333Y-156741857D01*
X72456333Y-156884714D01*
X72408714Y-156979952D01*
X72361095Y-157027571D01*
X72265857Y-157075190D01*
X71884904Y-157075190D01*
X73408714Y-157551380D02*
X72837285Y-157551380D01*
X73123000Y-157551380D02*
X73123000Y-156551380D01*
X73027761Y-156694238D01*
X72932523Y-156789476D01*
X72837285Y-156837095D01*
G04 #@! TO.C,U1*
X97119095Y-136195380D02*
X97119095Y-137004904D01*
X97166714Y-137100142D01*
X97214333Y-137147761D01*
X97309571Y-137195380D01*
X97500047Y-137195380D01*
X97595285Y-137147761D01*
X97642904Y-137100142D01*
X97690523Y-137004904D01*
X97690523Y-136195380D01*
X98690523Y-137195380D02*
X98119095Y-137195380D01*
X98404809Y-137195380D02*
X98404809Y-136195380D01*
X98309571Y-136338238D01*
X98214333Y-136433476D01*
X98119095Y-136481095D01*
G04 #@! TD*
M02*
