G04 #@! TF.GenerationSoftware,KiCad,Pcbnew,5.0.2-bee76a0~70~ubuntu18.04.1*
G04 #@! TF.CreationDate,2020-01-04T15:46:48+02:00*
G04 #@! TF.ProjectId,swbb_node,73776262-5f6e-46f6-9465-2e6b69636164,rev?*
G04 #@! TF.SameCoordinates,Original*
G04 #@! TF.FileFunction,Copper,L1,Top*
G04 #@! TF.FilePolarity,Positive*
%FSLAX46Y46*%
G04 Gerber Fmt 4.6, Leading zero omitted, Abs format (unit mm)*
G04 Created by KiCad (PCBNEW 5.0.2-bee76a0~70~ubuntu18.04.1) date Сб 04 янв 2020 15:46:48*
%MOMM*%
%LPD*%
G01*
G04 APERTURE LIST*
G04 #@! TA.AperFunction,Conductor*
%ADD10C,0.100000*%
G04 #@! TD*
G04 #@! TA.AperFunction,SMDPad,CuDef*
%ADD11C,1.425000*%
G04 #@! TD*
G04 #@! TA.AperFunction,ComponentPad*
%ADD12C,1.800000*%
G04 #@! TD*
G04 #@! TA.AperFunction,ComponentPad*
%ADD13R,1.800000X1.800000*%
G04 #@! TD*
G04 #@! TA.AperFunction,SMDPad,CuDef*
%ADD14C,0.975000*%
G04 #@! TD*
G04 #@! TA.AperFunction,SMDPad,CuDef*
%ADD15C,1.150000*%
G04 #@! TD*
G04 #@! TA.AperFunction,ComponentPad*
%ADD16O,1.950000X1.700000*%
G04 #@! TD*
G04 #@! TA.AperFunction,ComponentPad*
%ADD17C,1.700000*%
G04 #@! TD*
G04 #@! TA.AperFunction,ComponentPad*
%ADD18O,1.700000X1.700000*%
G04 #@! TD*
G04 #@! TA.AperFunction,ComponentPad*
%ADD19R,1.700000X1.700000*%
G04 #@! TD*
G04 #@! TA.AperFunction,SMDPad,CuDef*
%ADD20R,0.900000X1.200000*%
G04 #@! TD*
G04 #@! TA.AperFunction,SMDPad,CuDef*
%ADD21R,1.200000X0.900000*%
G04 #@! TD*
G04 #@! TA.AperFunction,SMDPad,CuDef*
%ADD22R,0.900000X0.800000*%
G04 #@! TD*
G04 #@! TA.AperFunction,SMDPad,CuDef*
%ADD23C,0.950000*%
G04 #@! TD*
G04 #@! TA.AperFunction,SMDPad,CuDef*
%ADD24C,1.350000*%
G04 #@! TD*
G04 #@! TA.AperFunction,SMDPad,CuDef*
%ADD25C,1.600000*%
G04 #@! TD*
G04 #@! TA.AperFunction,SMDPad,CuDef*
%ADD26C,2.075000*%
G04 #@! TD*
G04 #@! TA.AperFunction,ComponentPad*
%ADD27C,1.500000*%
G04 #@! TD*
G04 #@! TA.AperFunction,SMDPad,CuDef*
%ADD28R,2.300000X3.500000*%
G04 #@! TD*
G04 #@! TA.AperFunction,SMDPad,CuDef*
%ADD29R,0.550000X1.600000*%
G04 #@! TD*
G04 #@! TA.AperFunction,SMDPad,CuDef*
%ADD30R,1.600000X0.550000*%
G04 #@! TD*
G04 #@! TA.AperFunction,ViaPad*
%ADD31C,0.800000*%
G04 #@! TD*
G04 #@! TA.AperFunction,Conductor*
%ADD32C,0.250000*%
G04 #@! TD*
G04 #@! TA.AperFunction,Conductor*
%ADD33C,0.500000*%
G04 #@! TD*
G04 #@! TA.AperFunction,Conductor*
%ADD34C,0.300000*%
G04 #@! TD*
G04 APERTURE END LIST*
D10*
G04 #@! TO.N,+5V*
G04 #@! TO.C,D12*
G36*
X111103504Y-158384204D02*
X111127773Y-158387804D01*
X111151571Y-158393765D01*
X111174671Y-158402030D01*
X111196849Y-158412520D01*
X111217893Y-158425133D01*
X111237598Y-158439747D01*
X111255777Y-158456223D01*
X111272253Y-158474402D01*
X111286867Y-158494107D01*
X111299480Y-158515151D01*
X111309970Y-158537329D01*
X111318235Y-158560429D01*
X111324196Y-158584227D01*
X111327796Y-158608496D01*
X111329000Y-158633000D01*
X111329000Y-159883000D01*
X111327796Y-159907504D01*
X111324196Y-159931773D01*
X111318235Y-159955571D01*
X111309970Y-159978671D01*
X111299480Y-160000849D01*
X111286867Y-160021893D01*
X111272253Y-160041598D01*
X111255777Y-160059777D01*
X111237598Y-160076253D01*
X111217893Y-160090867D01*
X111196849Y-160103480D01*
X111174671Y-160113970D01*
X111151571Y-160122235D01*
X111127773Y-160128196D01*
X111103504Y-160131796D01*
X111079000Y-160133000D01*
X110154000Y-160133000D01*
X110129496Y-160131796D01*
X110105227Y-160128196D01*
X110081429Y-160122235D01*
X110058329Y-160113970D01*
X110036151Y-160103480D01*
X110015107Y-160090867D01*
X109995402Y-160076253D01*
X109977223Y-160059777D01*
X109960747Y-160041598D01*
X109946133Y-160021893D01*
X109933520Y-160000849D01*
X109923030Y-159978671D01*
X109914765Y-159955571D01*
X109908804Y-159931773D01*
X109905204Y-159907504D01*
X109904000Y-159883000D01*
X109904000Y-158633000D01*
X109905204Y-158608496D01*
X109908804Y-158584227D01*
X109914765Y-158560429D01*
X109923030Y-158537329D01*
X109933520Y-158515151D01*
X109946133Y-158494107D01*
X109960747Y-158474402D01*
X109977223Y-158456223D01*
X109995402Y-158439747D01*
X110015107Y-158425133D01*
X110036151Y-158412520D01*
X110058329Y-158402030D01*
X110081429Y-158393765D01*
X110105227Y-158387804D01*
X110129496Y-158384204D01*
X110154000Y-158383000D01*
X111079000Y-158383000D01*
X111103504Y-158384204D01*
X111103504Y-158384204D01*
G37*
D11*
G04 #@! TD*
G04 #@! TO.P,D12,2*
G04 #@! TO.N,+5V*
X110616500Y-159258000D03*
D10*
G04 #@! TO.N,Net-(D12-Pad1)*
G04 #@! TO.C,D12*
G36*
X114078504Y-158384204D02*
X114102773Y-158387804D01*
X114126571Y-158393765D01*
X114149671Y-158402030D01*
X114171849Y-158412520D01*
X114192893Y-158425133D01*
X114212598Y-158439747D01*
X114230777Y-158456223D01*
X114247253Y-158474402D01*
X114261867Y-158494107D01*
X114274480Y-158515151D01*
X114284970Y-158537329D01*
X114293235Y-158560429D01*
X114299196Y-158584227D01*
X114302796Y-158608496D01*
X114304000Y-158633000D01*
X114304000Y-159883000D01*
X114302796Y-159907504D01*
X114299196Y-159931773D01*
X114293235Y-159955571D01*
X114284970Y-159978671D01*
X114274480Y-160000849D01*
X114261867Y-160021893D01*
X114247253Y-160041598D01*
X114230777Y-160059777D01*
X114212598Y-160076253D01*
X114192893Y-160090867D01*
X114171849Y-160103480D01*
X114149671Y-160113970D01*
X114126571Y-160122235D01*
X114102773Y-160128196D01*
X114078504Y-160131796D01*
X114054000Y-160133000D01*
X113129000Y-160133000D01*
X113104496Y-160131796D01*
X113080227Y-160128196D01*
X113056429Y-160122235D01*
X113033329Y-160113970D01*
X113011151Y-160103480D01*
X112990107Y-160090867D01*
X112970402Y-160076253D01*
X112952223Y-160059777D01*
X112935747Y-160041598D01*
X112921133Y-160021893D01*
X112908520Y-160000849D01*
X112898030Y-159978671D01*
X112889765Y-159955571D01*
X112883804Y-159931773D01*
X112880204Y-159907504D01*
X112879000Y-159883000D01*
X112879000Y-158633000D01*
X112880204Y-158608496D01*
X112883804Y-158584227D01*
X112889765Y-158560429D01*
X112898030Y-158537329D01*
X112908520Y-158515151D01*
X112921133Y-158494107D01*
X112935747Y-158474402D01*
X112952223Y-158456223D01*
X112970402Y-158439747D01*
X112990107Y-158425133D01*
X113011151Y-158412520D01*
X113033329Y-158402030D01*
X113056429Y-158393765D01*
X113080227Y-158387804D01*
X113104496Y-158384204D01*
X113129000Y-158383000D01*
X114054000Y-158383000D01*
X114078504Y-158384204D01*
X114078504Y-158384204D01*
G37*
D11*
G04 #@! TD*
G04 #@! TO.P,D12,1*
G04 #@! TO.N,Net-(D12-Pad1)*
X113591500Y-159258000D03*
D12*
G04 #@! TO.P,D15,2*
G04 #@! TO.N,Net-(D15-Pad2)*
X94996000Y-133096000D03*
D13*
G04 #@! TO.P,D15,1*
G04 #@! TO.N,GND*
X92456000Y-133096000D03*
G04 #@! TD*
D10*
G04 #@! TO.N,GND*
G04 #@! TO.C,C15*
G36*
X86627642Y-147510174D02*
X86651303Y-147513684D01*
X86674507Y-147519496D01*
X86697029Y-147527554D01*
X86718653Y-147537782D01*
X86739170Y-147550079D01*
X86758383Y-147564329D01*
X86776107Y-147580393D01*
X86792171Y-147598117D01*
X86806421Y-147617330D01*
X86818718Y-147637847D01*
X86828946Y-147659471D01*
X86837004Y-147681993D01*
X86842816Y-147705197D01*
X86846326Y-147728858D01*
X86847500Y-147752750D01*
X86847500Y-148665250D01*
X86846326Y-148689142D01*
X86842816Y-148712803D01*
X86837004Y-148736007D01*
X86828946Y-148758529D01*
X86818718Y-148780153D01*
X86806421Y-148800670D01*
X86792171Y-148819883D01*
X86776107Y-148837607D01*
X86758383Y-148853671D01*
X86739170Y-148867921D01*
X86718653Y-148880218D01*
X86697029Y-148890446D01*
X86674507Y-148898504D01*
X86651303Y-148904316D01*
X86627642Y-148907826D01*
X86603750Y-148909000D01*
X86116250Y-148909000D01*
X86092358Y-148907826D01*
X86068697Y-148904316D01*
X86045493Y-148898504D01*
X86022971Y-148890446D01*
X86001347Y-148880218D01*
X85980830Y-148867921D01*
X85961617Y-148853671D01*
X85943893Y-148837607D01*
X85927829Y-148819883D01*
X85913579Y-148800670D01*
X85901282Y-148780153D01*
X85891054Y-148758529D01*
X85882996Y-148736007D01*
X85877184Y-148712803D01*
X85873674Y-148689142D01*
X85872500Y-148665250D01*
X85872500Y-147752750D01*
X85873674Y-147728858D01*
X85877184Y-147705197D01*
X85882996Y-147681993D01*
X85891054Y-147659471D01*
X85901282Y-147637847D01*
X85913579Y-147617330D01*
X85927829Y-147598117D01*
X85943893Y-147580393D01*
X85961617Y-147564329D01*
X85980830Y-147550079D01*
X86001347Y-147537782D01*
X86022971Y-147527554D01*
X86045493Y-147519496D01*
X86068697Y-147513684D01*
X86092358Y-147510174D01*
X86116250Y-147509000D01*
X86603750Y-147509000D01*
X86627642Y-147510174D01*
X86627642Y-147510174D01*
G37*
D14*
G04 #@! TD*
G04 #@! TO.P,C15,2*
G04 #@! TO.N,GND*
X86360000Y-148209000D03*
D10*
G04 #@! TO.N,+5V*
G04 #@! TO.C,C15*
G36*
X88502642Y-147510174D02*
X88526303Y-147513684D01*
X88549507Y-147519496D01*
X88572029Y-147527554D01*
X88593653Y-147537782D01*
X88614170Y-147550079D01*
X88633383Y-147564329D01*
X88651107Y-147580393D01*
X88667171Y-147598117D01*
X88681421Y-147617330D01*
X88693718Y-147637847D01*
X88703946Y-147659471D01*
X88712004Y-147681993D01*
X88717816Y-147705197D01*
X88721326Y-147728858D01*
X88722500Y-147752750D01*
X88722500Y-148665250D01*
X88721326Y-148689142D01*
X88717816Y-148712803D01*
X88712004Y-148736007D01*
X88703946Y-148758529D01*
X88693718Y-148780153D01*
X88681421Y-148800670D01*
X88667171Y-148819883D01*
X88651107Y-148837607D01*
X88633383Y-148853671D01*
X88614170Y-148867921D01*
X88593653Y-148880218D01*
X88572029Y-148890446D01*
X88549507Y-148898504D01*
X88526303Y-148904316D01*
X88502642Y-148907826D01*
X88478750Y-148909000D01*
X87991250Y-148909000D01*
X87967358Y-148907826D01*
X87943697Y-148904316D01*
X87920493Y-148898504D01*
X87897971Y-148890446D01*
X87876347Y-148880218D01*
X87855830Y-148867921D01*
X87836617Y-148853671D01*
X87818893Y-148837607D01*
X87802829Y-148819883D01*
X87788579Y-148800670D01*
X87776282Y-148780153D01*
X87766054Y-148758529D01*
X87757996Y-148736007D01*
X87752184Y-148712803D01*
X87748674Y-148689142D01*
X87747500Y-148665250D01*
X87747500Y-147752750D01*
X87748674Y-147728858D01*
X87752184Y-147705197D01*
X87757996Y-147681993D01*
X87766054Y-147659471D01*
X87776282Y-147637847D01*
X87788579Y-147617330D01*
X87802829Y-147598117D01*
X87818893Y-147580393D01*
X87836617Y-147564329D01*
X87855830Y-147550079D01*
X87876347Y-147537782D01*
X87897971Y-147527554D01*
X87920493Y-147519496D01*
X87943697Y-147513684D01*
X87967358Y-147510174D01*
X87991250Y-147509000D01*
X88478750Y-147509000D01*
X88502642Y-147510174D01*
X88502642Y-147510174D01*
G37*
D14*
G04 #@! TD*
G04 #@! TO.P,C15,1*
G04 #@! TO.N,+5V*
X88235000Y-148209000D03*
D10*
G04 #@! TO.N,Net-(C16-Pad2)*
G04 #@! TO.C,C16*
G36*
X100042505Y-130735204D02*
X100066773Y-130738804D01*
X100090572Y-130744765D01*
X100113671Y-130753030D01*
X100135850Y-130763520D01*
X100156893Y-130776132D01*
X100176599Y-130790747D01*
X100194777Y-130807223D01*
X100211253Y-130825401D01*
X100225868Y-130845107D01*
X100238480Y-130866150D01*
X100248970Y-130888329D01*
X100257235Y-130911428D01*
X100263196Y-130935227D01*
X100266796Y-130959495D01*
X100268000Y-130983999D01*
X100268000Y-131634001D01*
X100266796Y-131658505D01*
X100263196Y-131682773D01*
X100257235Y-131706572D01*
X100248970Y-131729671D01*
X100238480Y-131751850D01*
X100225868Y-131772893D01*
X100211253Y-131792599D01*
X100194777Y-131810777D01*
X100176599Y-131827253D01*
X100156893Y-131841868D01*
X100135850Y-131854480D01*
X100113671Y-131864970D01*
X100090572Y-131873235D01*
X100066773Y-131879196D01*
X100042505Y-131882796D01*
X100018001Y-131884000D01*
X99117999Y-131884000D01*
X99093495Y-131882796D01*
X99069227Y-131879196D01*
X99045428Y-131873235D01*
X99022329Y-131864970D01*
X99000150Y-131854480D01*
X98979107Y-131841868D01*
X98959401Y-131827253D01*
X98941223Y-131810777D01*
X98924747Y-131792599D01*
X98910132Y-131772893D01*
X98897520Y-131751850D01*
X98887030Y-131729671D01*
X98878765Y-131706572D01*
X98872804Y-131682773D01*
X98869204Y-131658505D01*
X98868000Y-131634001D01*
X98868000Y-130983999D01*
X98869204Y-130959495D01*
X98872804Y-130935227D01*
X98878765Y-130911428D01*
X98887030Y-130888329D01*
X98897520Y-130866150D01*
X98910132Y-130845107D01*
X98924747Y-130825401D01*
X98941223Y-130807223D01*
X98959401Y-130790747D01*
X98979107Y-130776132D01*
X99000150Y-130763520D01*
X99022329Y-130753030D01*
X99045428Y-130744765D01*
X99069227Y-130738804D01*
X99093495Y-130735204D01*
X99117999Y-130734000D01*
X100018001Y-130734000D01*
X100042505Y-130735204D01*
X100042505Y-130735204D01*
G37*
D15*
G04 #@! TD*
G04 #@! TO.P,C16,2*
G04 #@! TO.N,Net-(C16-Pad2)*
X99568000Y-131309000D03*
D10*
G04 #@! TO.N,Reset*
G04 #@! TO.C,C16*
G36*
X100042505Y-132785204D02*
X100066773Y-132788804D01*
X100090572Y-132794765D01*
X100113671Y-132803030D01*
X100135850Y-132813520D01*
X100156893Y-132826132D01*
X100176599Y-132840747D01*
X100194777Y-132857223D01*
X100211253Y-132875401D01*
X100225868Y-132895107D01*
X100238480Y-132916150D01*
X100248970Y-132938329D01*
X100257235Y-132961428D01*
X100263196Y-132985227D01*
X100266796Y-133009495D01*
X100268000Y-133033999D01*
X100268000Y-133684001D01*
X100266796Y-133708505D01*
X100263196Y-133732773D01*
X100257235Y-133756572D01*
X100248970Y-133779671D01*
X100238480Y-133801850D01*
X100225868Y-133822893D01*
X100211253Y-133842599D01*
X100194777Y-133860777D01*
X100176599Y-133877253D01*
X100156893Y-133891868D01*
X100135850Y-133904480D01*
X100113671Y-133914970D01*
X100090572Y-133923235D01*
X100066773Y-133929196D01*
X100042505Y-133932796D01*
X100018001Y-133934000D01*
X99117999Y-133934000D01*
X99093495Y-133932796D01*
X99069227Y-133929196D01*
X99045428Y-133923235D01*
X99022329Y-133914970D01*
X99000150Y-133904480D01*
X98979107Y-133891868D01*
X98959401Y-133877253D01*
X98941223Y-133860777D01*
X98924747Y-133842599D01*
X98910132Y-133822893D01*
X98897520Y-133801850D01*
X98887030Y-133779671D01*
X98878765Y-133756572D01*
X98872804Y-133732773D01*
X98869204Y-133708505D01*
X98868000Y-133684001D01*
X98868000Y-133033999D01*
X98869204Y-133009495D01*
X98872804Y-132985227D01*
X98878765Y-132961428D01*
X98887030Y-132938329D01*
X98897520Y-132916150D01*
X98910132Y-132895107D01*
X98924747Y-132875401D01*
X98941223Y-132857223D01*
X98959401Y-132840747D01*
X98979107Y-132826132D01*
X99000150Y-132813520D01*
X99022329Y-132803030D01*
X99045428Y-132794765D01*
X99069227Y-132788804D01*
X99093495Y-132785204D01*
X99117999Y-132784000D01*
X100018001Y-132784000D01*
X100042505Y-132785204D01*
X100042505Y-132785204D01*
G37*
D15*
G04 #@! TD*
G04 #@! TO.P,C16,1*
G04 #@! TO.N,Reset*
X99568000Y-133359000D03*
D16*
G04 #@! TO.P,J2,7*
G04 #@! TO.N,Net-(F1-Pad1)*
X119761000Y-151525000D03*
G04 #@! TO.P,J2,6*
G04 #@! TO.N,Net-(J2-Pad6)*
X119761000Y-149025000D03*
G04 #@! TO.P,J2,5*
G04 #@! TO.N,Net-(J2-Pad5)*
X119761000Y-146525000D03*
G04 #@! TO.P,J2,4*
G04 #@! TO.N,Net-(J2-Pad4)*
X119761000Y-144025000D03*
G04 #@! TO.P,J2,3*
G04 #@! TO.N,Net-(J2-Pad3)*
X119761000Y-141525000D03*
G04 #@! TO.P,J2,2*
G04 #@! TO.N,GND*
X119761000Y-139025000D03*
D10*
G04 #@! TD*
G04 #@! TO.N,Net-(D11-Pad1)*
G04 #@! TO.C,J2*
G36*
X120510504Y-135676204D02*
X120534773Y-135679804D01*
X120558571Y-135685765D01*
X120581671Y-135694030D01*
X120603849Y-135704520D01*
X120624893Y-135717133D01*
X120644598Y-135731747D01*
X120662777Y-135748223D01*
X120679253Y-135766402D01*
X120693867Y-135786107D01*
X120706480Y-135807151D01*
X120716970Y-135829329D01*
X120725235Y-135852429D01*
X120731196Y-135876227D01*
X120734796Y-135900496D01*
X120736000Y-135925000D01*
X120736000Y-137125000D01*
X120734796Y-137149504D01*
X120731196Y-137173773D01*
X120725235Y-137197571D01*
X120716970Y-137220671D01*
X120706480Y-137242849D01*
X120693867Y-137263893D01*
X120679253Y-137283598D01*
X120662777Y-137301777D01*
X120644598Y-137318253D01*
X120624893Y-137332867D01*
X120603849Y-137345480D01*
X120581671Y-137355970D01*
X120558571Y-137364235D01*
X120534773Y-137370196D01*
X120510504Y-137373796D01*
X120486000Y-137375000D01*
X119036000Y-137375000D01*
X119011496Y-137373796D01*
X118987227Y-137370196D01*
X118963429Y-137364235D01*
X118940329Y-137355970D01*
X118918151Y-137345480D01*
X118897107Y-137332867D01*
X118877402Y-137318253D01*
X118859223Y-137301777D01*
X118842747Y-137283598D01*
X118828133Y-137263893D01*
X118815520Y-137242849D01*
X118805030Y-137220671D01*
X118796765Y-137197571D01*
X118790804Y-137173773D01*
X118787204Y-137149504D01*
X118786000Y-137125000D01*
X118786000Y-135925000D01*
X118787204Y-135900496D01*
X118790804Y-135876227D01*
X118796765Y-135852429D01*
X118805030Y-135829329D01*
X118815520Y-135807151D01*
X118828133Y-135786107D01*
X118842747Y-135766402D01*
X118859223Y-135748223D01*
X118877402Y-135731747D01*
X118897107Y-135717133D01*
X118918151Y-135704520D01*
X118940329Y-135694030D01*
X118963429Y-135685765D01*
X118987227Y-135679804D01*
X119011496Y-135676204D01*
X119036000Y-135675000D01*
X120486000Y-135675000D01*
X120510504Y-135676204D01*
X120510504Y-135676204D01*
G37*
D17*
G04 #@! TO.P,J2,1*
G04 #@! TO.N,Net-(D11-Pad1)*
X119761000Y-136525000D03*
G04 #@! TD*
D16*
G04 #@! TO.P,J1,8*
G04 #@! TO.N,Net-(J1-Pad8)*
X69469000Y-135281000D03*
G04 #@! TO.P,J1,7*
G04 #@! TO.N,Net-(J1-Pad7)*
X69469000Y-137781000D03*
G04 #@! TO.P,J1,6*
G04 #@! TO.N,GND*
X69469000Y-140281000D03*
G04 #@! TO.P,J1,5*
G04 #@! TO.N,Net-(J1-Pad5)*
X69469000Y-142781000D03*
G04 #@! TO.P,J1,4*
G04 #@! TO.N,Net-(D14-Pad2)*
X69469000Y-145281000D03*
G04 #@! TO.P,J1,3*
G04 #@! TO.N,Net-(D13-Pad2)*
X69469000Y-147781000D03*
G04 #@! TO.P,J1,2*
G04 #@! TO.N,GND*
X69469000Y-150281000D03*
D10*
G04 #@! TD*
G04 #@! TO.N,+12V*
G04 #@! TO.C,J1*
G36*
X70218504Y-151932204D02*
X70242773Y-151935804D01*
X70266571Y-151941765D01*
X70289671Y-151950030D01*
X70311849Y-151960520D01*
X70332893Y-151973133D01*
X70352598Y-151987747D01*
X70370777Y-152004223D01*
X70387253Y-152022402D01*
X70401867Y-152042107D01*
X70414480Y-152063151D01*
X70424970Y-152085329D01*
X70433235Y-152108429D01*
X70439196Y-152132227D01*
X70442796Y-152156496D01*
X70444000Y-152181000D01*
X70444000Y-153381000D01*
X70442796Y-153405504D01*
X70439196Y-153429773D01*
X70433235Y-153453571D01*
X70424970Y-153476671D01*
X70414480Y-153498849D01*
X70401867Y-153519893D01*
X70387253Y-153539598D01*
X70370777Y-153557777D01*
X70352598Y-153574253D01*
X70332893Y-153588867D01*
X70311849Y-153601480D01*
X70289671Y-153611970D01*
X70266571Y-153620235D01*
X70242773Y-153626196D01*
X70218504Y-153629796D01*
X70194000Y-153631000D01*
X68744000Y-153631000D01*
X68719496Y-153629796D01*
X68695227Y-153626196D01*
X68671429Y-153620235D01*
X68648329Y-153611970D01*
X68626151Y-153601480D01*
X68605107Y-153588867D01*
X68585402Y-153574253D01*
X68567223Y-153557777D01*
X68550747Y-153539598D01*
X68536133Y-153519893D01*
X68523520Y-153498849D01*
X68513030Y-153476671D01*
X68504765Y-153453571D01*
X68498804Y-153429773D01*
X68495204Y-153405504D01*
X68494000Y-153381000D01*
X68494000Y-152181000D01*
X68495204Y-152156496D01*
X68498804Y-152132227D01*
X68504765Y-152108429D01*
X68513030Y-152085329D01*
X68523520Y-152063151D01*
X68536133Y-152042107D01*
X68550747Y-152022402D01*
X68567223Y-152004223D01*
X68585402Y-151987747D01*
X68605107Y-151973133D01*
X68626151Y-151960520D01*
X68648329Y-151950030D01*
X68671429Y-151941765D01*
X68695227Y-151935804D01*
X68719496Y-151932204D01*
X68744000Y-151931000D01*
X70194000Y-151931000D01*
X70218504Y-151932204D01*
X70218504Y-151932204D01*
G37*
D17*
G04 #@! TO.P,J1,1*
G04 #@! TO.N,+12V*
X69469000Y-152781000D03*
G04 #@! TD*
D18*
G04 #@! TO.P,J3,4*
G04 #@! TO.N,GND*
X117475000Y-128016000D03*
G04 #@! TO.P,J3,3*
G04 #@! TO.N,A5_SCL*
X114935000Y-128016000D03*
G04 #@! TO.P,J3,2*
G04 #@! TO.N,A4_SDA*
X112395000Y-128016000D03*
D19*
G04 #@! TO.P,J3,1*
G04 #@! TO.N,+5V*
X109855000Y-128016000D03*
G04 #@! TD*
D18*
G04 #@! TO.P,J4,5*
G04 #@! TO.N,GND*
X102108000Y-128016000D03*
G04 #@! TO.P,J4,4*
G04 #@! TO.N,Net-(C16-Pad2)*
X99568000Y-128016000D03*
G04 #@! TO.P,J4,3*
G04 #@! TO.N,D1_TX*
X97028000Y-128016000D03*
G04 #@! TO.P,J4,2*
G04 #@! TO.N,D0_RX*
X94488000Y-128016000D03*
D19*
G04 #@! TO.P,J4,1*
G04 #@! TO.N,Net-(D16-Pad2)*
X91948000Y-128016000D03*
G04 #@! TD*
D18*
G04 #@! TO.P,J5,6*
G04 #@! TO.N,GND*
X98552000Y-159766000D03*
G04 #@! TO.P,J5,5*
G04 #@! TO.N,Reset*
X98552000Y-157226000D03*
G04 #@! TO.P,J5,4*
G04 #@! TO.N,D11_MOSI*
X101092000Y-159766000D03*
G04 #@! TO.P,J5,3*
G04 #@! TO.N,D13_SCK*
X101092000Y-157226000D03*
G04 #@! TO.P,J5,2*
G04 #@! TO.N,+5V*
X103632000Y-159766000D03*
D19*
G04 #@! TO.P,J5,1*
G04 #@! TO.N,D12_MISO*
X103632000Y-157226000D03*
G04 #@! TD*
D20*
G04 #@! TO.P,D11,2*
G04 #@! TO.N,+12V*
X116332000Y-131826000D03*
G04 #@! TO.P,D11,1*
G04 #@! TO.N,Net-(D11-Pad1)*
X119632000Y-131826000D03*
G04 #@! TD*
D21*
G04 #@! TO.P,D14,2*
G04 #@! TO.N,Net-(D14-Pad2)*
X73406000Y-139193000D03*
G04 #@! TO.P,D14,1*
G04 #@! TO.N,+12V*
X73406000Y-142493000D03*
G04 #@! TD*
G04 #@! TO.P,D13,2*
G04 #@! TO.N,Net-(D13-Pad2)*
X73660000Y-145161000D03*
G04 #@! TO.P,D13,1*
G04 #@! TO.N,+12V*
X73660000Y-148461000D03*
G04 #@! TD*
D22*
G04 #@! TO.P,Q1,3*
G04 #@! TO.N,Net-(D13-Pad2)*
X75962000Y-145034000D03*
G04 #@! TO.P,Q1,2*
G04 #@! TO.N,GND*
X77962000Y-144084000D03*
G04 #@! TO.P,Q1,1*
G04 #@! TO.N,Net-(Q1-Pad1)*
X77962000Y-145984000D03*
G04 #@! TD*
G04 #@! TO.P,Q2,3*
G04 #@! TO.N,Net-(D14-Pad2)*
X75454000Y-139319000D03*
G04 #@! TO.P,Q2,2*
G04 #@! TO.N,GND*
X77454000Y-138369000D03*
G04 #@! TO.P,Q2,1*
G04 #@! TO.N,Net-(Q2-Pad1)*
X77454000Y-140269000D03*
G04 #@! TD*
D10*
G04 #@! TO.N,+5V*
G04 #@! TO.C,R28*
G36*
X110496779Y-132036144D02*
X110519834Y-132039563D01*
X110542443Y-132045227D01*
X110564387Y-132053079D01*
X110585457Y-132063044D01*
X110605448Y-132075026D01*
X110624168Y-132088910D01*
X110641438Y-132104562D01*
X110657090Y-132121832D01*
X110670974Y-132140552D01*
X110682956Y-132160543D01*
X110692921Y-132181613D01*
X110700773Y-132203557D01*
X110706437Y-132226166D01*
X110709856Y-132249221D01*
X110711000Y-132272500D01*
X110711000Y-132847500D01*
X110709856Y-132870779D01*
X110706437Y-132893834D01*
X110700773Y-132916443D01*
X110692921Y-132938387D01*
X110682956Y-132959457D01*
X110670974Y-132979448D01*
X110657090Y-132998168D01*
X110641438Y-133015438D01*
X110624168Y-133031090D01*
X110605448Y-133044974D01*
X110585457Y-133056956D01*
X110564387Y-133066921D01*
X110542443Y-133074773D01*
X110519834Y-133080437D01*
X110496779Y-133083856D01*
X110473500Y-133085000D01*
X109998500Y-133085000D01*
X109975221Y-133083856D01*
X109952166Y-133080437D01*
X109929557Y-133074773D01*
X109907613Y-133066921D01*
X109886543Y-133056956D01*
X109866552Y-133044974D01*
X109847832Y-133031090D01*
X109830562Y-133015438D01*
X109814910Y-132998168D01*
X109801026Y-132979448D01*
X109789044Y-132959457D01*
X109779079Y-132938387D01*
X109771227Y-132916443D01*
X109765563Y-132893834D01*
X109762144Y-132870779D01*
X109761000Y-132847500D01*
X109761000Y-132272500D01*
X109762144Y-132249221D01*
X109765563Y-132226166D01*
X109771227Y-132203557D01*
X109779079Y-132181613D01*
X109789044Y-132160543D01*
X109801026Y-132140552D01*
X109814910Y-132121832D01*
X109830562Y-132104562D01*
X109847832Y-132088910D01*
X109866552Y-132075026D01*
X109886543Y-132063044D01*
X109907613Y-132053079D01*
X109929557Y-132045227D01*
X109952166Y-132039563D01*
X109975221Y-132036144D01*
X109998500Y-132035000D01*
X110473500Y-132035000D01*
X110496779Y-132036144D01*
X110496779Y-132036144D01*
G37*
D23*
G04 #@! TD*
G04 #@! TO.P,R28,2*
G04 #@! TO.N,+5V*
X110236000Y-132560000D03*
D10*
G04 #@! TO.N,A4_SDA*
G04 #@! TO.C,R28*
G36*
X110496779Y-130286144D02*
X110519834Y-130289563D01*
X110542443Y-130295227D01*
X110564387Y-130303079D01*
X110585457Y-130313044D01*
X110605448Y-130325026D01*
X110624168Y-130338910D01*
X110641438Y-130354562D01*
X110657090Y-130371832D01*
X110670974Y-130390552D01*
X110682956Y-130410543D01*
X110692921Y-130431613D01*
X110700773Y-130453557D01*
X110706437Y-130476166D01*
X110709856Y-130499221D01*
X110711000Y-130522500D01*
X110711000Y-131097500D01*
X110709856Y-131120779D01*
X110706437Y-131143834D01*
X110700773Y-131166443D01*
X110692921Y-131188387D01*
X110682956Y-131209457D01*
X110670974Y-131229448D01*
X110657090Y-131248168D01*
X110641438Y-131265438D01*
X110624168Y-131281090D01*
X110605448Y-131294974D01*
X110585457Y-131306956D01*
X110564387Y-131316921D01*
X110542443Y-131324773D01*
X110519834Y-131330437D01*
X110496779Y-131333856D01*
X110473500Y-131335000D01*
X109998500Y-131335000D01*
X109975221Y-131333856D01*
X109952166Y-131330437D01*
X109929557Y-131324773D01*
X109907613Y-131316921D01*
X109886543Y-131306956D01*
X109866552Y-131294974D01*
X109847832Y-131281090D01*
X109830562Y-131265438D01*
X109814910Y-131248168D01*
X109801026Y-131229448D01*
X109789044Y-131209457D01*
X109779079Y-131188387D01*
X109771227Y-131166443D01*
X109765563Y-131143834D01*
X109762144Y-131120779D01*
X109761000Y-131097500D01*
X109761000Y-130522500D01*
X109762144Y-130499221D01*
X109765563Y-130476166D01*
X109771227Y-130453557D01*
X109779079Y-130431613D01*
X109789044Y-130410543D01*
X109801026Y-130390552D01*
X109814910Y-130371832D01*
X109830562Y-130354562D01*
X109847832Y-130338910D01*
X109866552Y-130325026D01*
X109886543Y-130313044D01*
X109907613Y-130303079D01*
X109929557Y-130295227D01*
X109952166Y-130289563D01*
X109975221Y-130286144D01*
X109998500Y-130285000D01*
X110473500Y-130285000D01*
X110496779Y-130286144D01*
X110496779Y-130286144D01*
G37*
D23*
G04 #@! TD*
G04 #@! TO.P,R28,1*
G04 #@! TO.N,A4_SDA*
X110236000Y-130810000D03*
D10*
G04 #@! TO.N,+5V*
G04 #@! TO.C,R29*
G36*
X113544779Y-132050144D02*
X113567834Y-132053563D01*
X113590443Y-132059227D01*
X113612387Y-132067079D01*
X113633457Y-132077044D01*
X113653448Y-132089026D01*
X113672168Y-132102910D01*
X113689438Y-132118562D01*
X113705090Y-132135832D01*
X113718974Y-132154552D01*
X113730956Y-132174543D01*
X113740921Y-132195613D01*
X113748773Y-132217557D01*
X113754437Y-132240166D01*
X113757856Y-132263221D01*
X113759000Y-132286500D01*
X113759000Y-132861500D01*
X113757856Y-132884779D01*
X113754437Y-132907834D01*
X113748773Y-132930443D01*
X113740921Y-132952387D01*
X113730956Y-132973457D01*
X113718974Y-132993448D01*
X113705090Y-133012168D01*
X113689438Y-133029438D01*
X113672168Y-133045090D01*
X113653448Y-133058974D01*
X113633457Y-133070956D01*
X113612387Y-133080921D01*
X113590443Y-133088773D01*
X113567834Y-133094437D01*
X113544779Y-133097856D01*
X113521500Y-133099000D01*
X113046500Y-133099000D01*
X113023221Y-133097856D01*
X113000166Y-133094437D01*
X112977557Y-133088773D01*
X112955613Y-133080921D01*
X112934543Y-133070956D01*
X112914552Y-133058974D01*
X112895832Y-133045090D01*
X112878562Y-133029438D01*
X112862910Y-133012168D01*
X112849026Y-132993448D01*
X112837044Y-132973457D01*
X112827079Y-132952387D01*
X112819227Y-132930443D01*
X112813563Y-132907834D01*
X112810144Y-132884779D01*
X112809000Y-132861500D01*
X112809000Y-132286500D01*
X112810144Y-132263221D01*
X112813563Y-132240166D01*
X112819227Y-132217557D01*
X112827079Y-132195613D01*
X112837044Y-132174543D01*
X112849026Y-132154552D01*
X112862910Y-132135832D01*
X112878562Y-132118562D01*
X112895832Y-132102910D01*
X112914552Y-132089026D01*
X112934543Y-132077044D01*
X112955613Y-132067079D01*
X112977557Y-132059227D01*
X113000166Y-132053563D01*
X113023221Y-132050144D01*
X113046500Y-132049000D01*
X113521500Y-132049000D01*
X113544779Y-132050144D01*
X113544779Y-132050144D01*
G37*
D23*
G04 #@! TD*
G04 #@! TO.P,R29,2*
G04 #@! TO.N,+5V*
X113284000Y-132574000D03*
D10*
G04 #@! TO.N,A5_SCL*
G04 #@! TO.C,R29*
G36*
X113544779Y-130300144D02*
X113567834Y-130303563D01*
X113590443Y-130309227D01*
X113612387Y-130317079D01*
X113633457Y-130327044D01*
X113653448Y-130339026D01*
X113672168Y-130352910D01*
X113689438Y-130368562D01*
X113705090Y-130385832D01*
X113718974Y-130404552D01*
X113730956Y-130424543D01*
X113740921Y-130445613D01*
X113748773Y-130467557D01*
X113754437Y-130490166D01*
X113757856Y-130513221D01*
X113759000Y-130536500D01*
X113759000Y-131111500D01*
X113757856Y-131134779D01*
X113754437Y-131157834D01*
X113748773Y-131180443D01*
X113740921Y-131202387D01*
X113730956Y-131223457D01*
X113718974Y-131243448D01*
X113705090Y-131262168D01*
X113689438Y-131279438D01*
X113672168Y-131295090D01*
X113653448Y-131308974D01*
X113633457Y-131320956D01*
X113612387Y-131330921D01*
X113590443Y-131338773D01*
X113567834Y-131344437D01*
X113544779Y-131347856D01*
X113521500Y-131349000D01*
X113046500Y-131349000D01*
X113023221Y-131347856D01*
X113000166Y-131344437D01*
X112977557Y-131338773D01*
X112955613Y-131330921D01*
X112934543Y-131320956D01*
X112914552Y-131308974D01*
X112895832Y-131295090D01*
X112878562Y-131279438D01*
X112862910Y-131262168D01*
X112849026Y-131243448D01*
X112837044Y-131223457D01*
X112827079Y-131202387D01*
X112819227Y-131180443D01*
X112813563Y-131157834D01*
X112810144Y-131134779D01*
X112809000Y-131111500D01*
X112809000Y-130536500D01*
X112810144Y-130513221D01*
X112813563Y-130490166D01*
X112819227Y-130467557D01*
X112827079Y-130445613D01*
X112837044Y-130424543D01*
X112849026Y-130404552D01*
X112862910Y-130385832D01*
X112878562Y-130368562D01*
X112895832Y-130352910D01*
X112914552Y-130339026D01*
X112934543Y-130327044D01*
X112955613Y-130317079D01*
X112977557Y-130309227D01*
X113000166Y-130303563D01*
X113023221Y-130300144D01*
X113046500Y-130299000D01*
X113521500Y-130299000D01*
X113544779Y-130300144D01*
X113544779Y-130300144D01*
G37*
D23*
G04 #@! TD*
G04 #@! TO.P,R29,1*
G04 #@! TO.N,A5_SCL*
X113284000Y-130824000D03*
D10*
G04 #@! TO.N,Net-(Q1-Pad1)*
G04 #@! TO.C,R15*
G36*
X80484505Y-145485204D02*
X80508773Y-145488804D01*
X80532572Y-145494765D01*
X80555671Y-145503030D01*
X80577850Y-145513520D01*
X80598893Y-145526132D01*
X80618599Y-145540747D01*
X80636777Y-145557223D01*
X80653253Y-145575401D01*
X80667868Y-145595107D01*
X80680480Y-145616150D01*
X80690970Y-145638329D01*
X80699235Y-145661428D01*
X80705196Y-145685227D01*
X80708796Y-145709495D01*
X80710000Y-145733999D01*
X80710000Y-146384001D01*
X80708796Y-146408505D01*
X80705196Y-146432773D01*
X80699235Y-146456572D01*
X80690970Y-146479671D01*
X80680480Y-146501850D01*
X80667868Y-146522893D01*
X80653253Y-146542599D01*
X80636777Y-146560777D01*
X80618599Y-146577253D01*
X80598893Y-146591868D01*
X80577850Y-146604480D01*
X80555671Y-146614970D01*
X80532572Y-146623235D01*
X80508773Y-146629196D01*
X80484505Y-146632796D01*
X80460001Y-146634000D01*
X79559999Y-146634000D01*
X79535495Y-146632796D01*
X79511227Y-146629196D01*
X79487428Y-146623235D01*
X79464329Y-146614970D01*
X79442150Y-146604480D01*
X79421107Y-146591868D01*
X79401401Y-146577253D01*
X79383223Y-146560777D01*
X79366747Y-146542599D01*
X79352132Y-146522893D01*
X79339520Y-146501850D01*
X79329030Y-146479671D01*
X79320765Y-146456572D01*
X79314804Y-146432773D01*
X79311204Y-146408505D01*
X79310000Y-146384001D01*
X79310000Y-145733999D01*
X79311204Y-145709495D01*
X79314804Y-145685227D01*
X79320765Y-145661428D01*
X79329030Y-145638329D01*
X79339520Y-145616150D01*
X79352132Y-145595107D01*
X79366747Y-145575401D01*
X79383223Y-145557223D01*
X79401401Y-145540747D01*
X79421107Y-145526132D01*
X79442150Y-145513520D01*
X79464329Y-145503030D01*
X79487428Y-145494765D01*
X79511227Y-145488804D01*
X79535495Y-145485204D01*
X79559999Y-145484000D01*
X80460001Y-145484000D01*
X80484505Y-145485204D01*
X80484505Y-145485204D01*
G37*
D15*
G04 #@! TD*
G04 #@! TO.P,R15,2*
G04 #@! TO.N,Net-(Q1-Pad1)*
X80010000Y-146059000D03*
D10*
G04 #@! TO.N,GND*
G04 #@! TO.C,R15*
G36*
X80484505Y-143435204D02*
X80508773Y-143438804D01*
X80532572Y-143444765D01*
X80555671Y-143453030D01*
X80577850Y-143463520D01*
X80598893Y-143476132D01*
X80618599Y-143490747D01*
X80636777Y-143507223D01*
X80653253Y-143525401D01*
X80667868Y-143545107D01*
X80680480Y-143566150D01*
X80690970Y-143588329D01*
X80699235Y-143611428D01*
X80705196Y-143635227D01*
X80708796Y-143659495D01*
X80710000Y-143683999D01*
X80710000Y-144334001D01*
X80708796Y-144358505D01*
X80705196Y-144382773D01*
X80699235Y-144406572D01*
X80690970Y-144429671D01*
X80680480Y-144451850D01*
X80667868Y-144472893D01*
X80653253Y-144492599D01*
X80636777Y-144510777D01*
X80618599Y-144527253D01*
X80598893Y-144541868D01*
X80577850Y-144554480D01*
X80555671Y-144564970D01*
X80532572Y-144573235D01*
X80508773Y-144579196D01*
X80484505Y-144582796D01*
X80460001Y-144584000D01*
X79559999Y-144584000D01*
X79535495Y-144582796D01*
X79511227Y-144579196D01*
X79487428Y-144573235D01*
X79464329Y-144564970D01*
X79442150Y-144554480D01*
X79421107Y-144541868D01*
X79401401Y-144527253D01*
X79383223Y-144510777D01*
X79366747Y-144492599D01*
X79352132Y-144472893D01*
X79339520Y-144451850D01*
X79329030Y-144429671D01*
X79320765Y-144406572D01*
X79314804Y-144382773D01*
X79311204Y-144358505D01*
X79310000Y-144334001D01*
X79310000Y-143683999D01*
X79311204Y-143659495D01*
X79314804Y-143635227D01*
X79320765Y-143611428D01*
X79329030Y-143588329D01*
X79339520Y-143566150D01*
X79352132Y-143545107D01*
X79366747Y-143525401D01*
X79383223Y-143507223D01*
X79401401Y-143490747D01*
X79421107Y-143476132D01*
X79442150Y-143463520D01*
X79464329Y-143453030D01*
X79487428Y-143444765D01*
X79511227Y-143438804D01*
X79535495Y-143435204D01*
X79559999Y-143434000D01*
X80460001Y-143434000D01*
X80484505Y-143435204D01*
X80484505Y-143435204D01*
G37*
D15*
G04 #@! TD*
G04 #@! TO.P,R15,1*
G04 #@! TO.N,GND*
X80010000Y-144009000D03*
D10*
G04 #@! TO.N,Net-(Q1-Pad1)*
G04 #@! TO.C,R17*
G36*
X82645505Y-145478204D02*
X82669773Y-145481804D01*
X82693572Y-145487765D01*
X82716671Y-145496030D01*
X82738850Y-145506520D01*
X82759893Y-145519132D01*
X82779599Y-145533747D01*
X82797777Y-145550223D01*
X82814253Y-145568401D01*
X82828868Y-145588107D01*
X82841480Y-145609150D01*
X82851970Y-145631329D01*
X82860235Y-145654428D01*
X82866196Y-145678227D01*
X82869796Y-145702495D01*
X82871000Y-145726999D01*
X82871000Y-146627001D01*
X82869796Y-146651505D01*
X82866196Y-146675773D01*
X82860235Y-146699572D01*
X82851970Y-146722671D01*
X82841480Y-146744850D01*
X82828868Y-146765893D01*
X82814253Y-146785599D01*
X82797777Y-146803777D01*
X82779599Y-146820253D01*
X82759893Y-146834868D01*
X82738850Y-146847480D01*
X82716671Y-146857970D01*
X82693572Y-146866235D01*
X82669773Y-146872196D01*
X82645505Y-146875796D01*
X82621001Y-146877000D01*
X81970999Y-146877000D01*
X81946495Y-146875796D01*
X81922227Y-146872196D01*
X81898428Y-146866235D01*
X81875329Y-146857970D01*
X81853150Y-146847480D01*
X81832107Y-146834868D01*
X81812401Y-146820253D01*
X81794223Y-146803777D01*
X81777747Y-146785599D01*
X81763132Y-146765893D01*
X81750520Y-146744850D01*
X81740030Y-146722671D01*
X81731765Y-146699572D01*
X81725804Y-146675773D01*
X81722204Y-146651505D01*
X81721000Y-146627001D01*
X81721000Y-145726999D01*
X81722204Y-145702495D01*
X81725804Y-145678227D01*
X81731765Y-145654428D01*
X81740030Y-145631329D01*
X81750520Y-145609150D01*
X81763132Y-145588107D01*
X81777747Y-145568401D01*
X81794223Y-145550223D01*
X81812401Y-145533747D01*
X81832107Y-145519132D01*
X81853150Y-145506520D01*
X81875329Y-145496030D01*
X81898428Y-145487765D01*
X81922227Y-145481804D01*
X81946495Y-145478204D01*
X81970999Y-145477000D01*
X82621001Y-145477000D01*
X82645505Y-145478204D01*
X82645505Y-145478204D01*
G37*
D15*
G04 #@! TD*
G04 #@! TO.P,R17,2*
G04 #@! TO.N,Net-(Q1-Pad1)*
X82296000Y-146177000D03*
D10*
G04 #@! TO.N,D8_OUT1*
G04 #@! TO.C,R17*
G36*
X84695505Y-145478204D02*
X84719773Y-145481804D01*
X84743572Y-145487765D01*
X84766671Y-145496030D01*
X84788850Y-145506520D01*
X84809893Y-145519132D01*
X84829599Y-145533747D01*
X84847777Y-145550223D01*
X84864253Y-145568401D01*
X84878868Y-145588107D01*
X84891480Y-145609150D01*
X84901970Y-145631329D01*
X84910235Y-145654428D01*
X84916196Y-145678227D01*
X84919796Y-145702495D01*
X84921000Y-145726999D01*
X84921000Y-146627001D01*
X84919796Y-146651505D01*
X84916196Y-146675773D01*
X84910235Y-146699572D01*
X84901970Y-146722671D01*
X84891480Y-146744850D01*
X84878868Y-146765893D01*
X84864253Y-146785599D01*
X84847777Y-146803777D01*
X84829599Y-146820253D01*
X84809893Y-146834868D01*
X84788850Y-146847480D01*
X84766671Y-146857970D01*
X84743572Y-146866235D01*
X84719773Y-146872196D01*
X84695505Y-146875796D01*
X84671001Y-146877000D01*
X84020999Y-146877000D01*
X83996495Y-146875796D01*
X83972227Y-146872196D01*
X83948428Y-146866235D01*
X83925329Y-146857970D01*
X83903150Y-146847480D01*
X83882107Y-146834868D01*
X83862401Y-146820253D01*
X83844223Y-146803777D01*
X83827747Y-146785599D01*
X83813132Y-146765893D01*
X83800520Y-146744850D01*
X83790030Y-146722671D01*
X83781765Y-146699572D01*
X83775804Y-146675773D01*
X83772204Y-146651505D01*
X83771000Y-146627001D01*
X83771000Y-145726999D01*
X83772204Y-145702495D01*
X83775804Y-145678227D01*
X83781765Y-145654428D01*
X83790030Y-145631329D01*
X83800520Y-145609150D01*
X83813132Y-145588107D01*
X83827747Y-145568401D01*
X83844223Y-145550223D01*
X83862401Y-145533747D01*
X83882107Y-145519132D01*
X83903150Y-145506520D01*
X83925329Y-145496030D01*
X83948428Y-145487765D01*
X83972227Y-145481804D01*
X83996495Y-145478204D01*
X84020999Y-145477000D01*
X84671001Y-145477000D01*
X84695505Y-145478204D01*
X84695505Y-145478204D01*
G37*
D15*
G04 #@! TD*
G04 #@! TO.P,R17,1*
G04 #@! TO.N,D8_OUT1*
X84346000Y-146177000D03*
D10*
G04 #@! TO.N,Net-(Q2-Pad1)*
G04 #@! TO.C,R16*
G36*
X79849505Y-139643204D02*
X79873773Y-139646804D01*
X79897572Y-139652765D01*
X79920671Y-139661030D01*
X79942850Y-139671520D01*
X79963893Y-139684132D01*
X79983599Y-139698747D01*
X80001777Y-139715223D01*
X80018253Y-139733401D01*
X80032868Y-139753107D01*
X80045480Y-139774150D01*
X80055970Y-139796329D01*
X80064235Y-139819428D01*
X80070196Y-139843227D01*
X80073796Y-139867495D01*
X80075000Y-139891999D01*
X80075000Y-140542001D01*
X80073796Y-140566505D01*
X80070196Y-140590773D01*
X80064235Y-140614572D01*
X80055970Y-140637671D01*
X80045480Y-140659850D01*
X80032868Y-140680893D01*
X80018253Y-140700599D01*
X80001777Y-140718777D01*
X79983599Y-140735253D01*
X79963893Y-140749868D01*
X79942850Y-140762480D01*
X79920671Y-140772970D01*
X79897572Y-140781235D01*
X79873773Y-140787196D01*
X79849505Y-140790796D01*
X79825001Y-140792000D01*
X78924999Y-140792000D01*
X78900495Y-140790796D01*
X78876227Y-140787196D01*
X78852428Y-140781235D01*
X78829329Y-140772970D01*
X78807150Y-140762480D01*
X78786107Y-140749868D01*
X78766401Y-140735253D01*
X78748223Y-140718777D01*
X78731747Y-140700599D01*
X78717132Y-140680893D01*
X78704520Y-140659850D01*
X78694030Y-140637671D01*
X78685765Y-140614572D01*
X78679804Y-140590773D01*
X78676204Y-140566505D01*
X78675000Y-140542001D01*
X78675000Y-139891999D01*
X78676204Y-139867495D01*
X78679804Y-139843227D01*
X78685765Y-139819428D01*
X78694030Y-139796329D01*
X78704520Y-139774150D01*
X78717132Y-139753107D01*
X78731747Y-139733401D01*
X78748223Y-139715223D01*
X78766401Y-139698747D01*
X78786107Y-139684132D01*
X78807150Y-139671520D01*
X78829329Y-139661030D01*
X78852428Y-139652765D01*
X78876227Y-139646804D01*
X78900495Y-139643204D01*
X78924999Y-139642000D01*
X79825001Y-139642000D01*
X79849505Y-139643204D01*
X79849505Y-139643204D01*
G37*
D15*
G04 #@! TD*
G04 #@! TO.P,R16,2*
G04 #@! TO.N,Net-(Q2-Pad1)*
X79375000Y-140217000D03*
D10*
G04 #@! TO.N,GND*
G04 #@! TO.C,R16*
G36*
X79849505Y-137593204D02*
X79873773Y-137596804D01*
X79897572Y-137602765D01*
X79920671Y-137611030D01*
X79942850Y-137621520D01*
X79963893Y-137634132D01*
X79983599Y-137648747D01*
X80001777Y-137665223D01*
X80018253Y-137683401D01*
X80032868Y-137703107D01*
X80045480Y-137724150D01*
X80055970Y-137746329D01*
X80064235Y-137769428D01*
X80070196Y-137793227D01*
X80073796Y-137817495D01*
X80075000Y-137841999D01*
X80075000Y-138492001D01*
X80073796Y-138516505D01*
X80070196Y-138540773D01*
X80064235Y-138564572D01*
X80055970Y-138587671D01*
X80045480Y-138609850D01*
X80032868Y-138630893D01*
X80018253Y-138650599D01*
X80001777Y-138668777D01*
X79983599Y-138685253D01*
X79963893Y-138699868D01*
X79942850Y-138712480D01*
X79920671Y-138722970D01*
X79897572Y-138731235D01*
X79873773Y-138737196D01*
X79849505Y-138740796D01*
X79825001Y-138742000D01*
X78924999Y-138742000D01*
X78900495Y-138740796D01*
X78876227Y-138737196D01*
X78852428Y-138731235D01*
X78829329Y-138722970D01*
X78807150Y-138712480D01*
X78786107Y-138699868D01*
X78766401Y-138685253D01*
X78748223Y-138668777D01*
X78731747Y-138650599D01*
X78717132Y-138630893D01*
X78704520Y-138609850D01*
X78694030Y-138587671D01*
X78685765Y-138564572D01*
X78679804Y-138540773D01*
X78676204Y-138516505D01*
X78675000Y-138492001D01*
X78675000Y-137841999D01*
X78676204Y-137817495D01*
X78679804Y-137793227D01*
X78685765Y-137769428D01*
X78694030Y-137746329D01*
X78704520Y-137724150D01*
X78717132Y-137703107D01*
X78731747Y-137683401D01*
X78748223Y-137665223D01*
X78766401Y-137648747D01*
X78786107Y-137634132D01*
X78807150Y-137621520D01*
X78829329Y-137611030D01*
X78852428Y-137602765D01*
X78876227Y-137596804D01*
X78900495Y-137593204D01*
X78924999Y-137592000D01*
X79825001Y-137592000D01*
X79849505Y-137593204D01*
X79849505Y-137593204D01*
G37*
D15*
G04 #@! TD*
G04 #@! TO.P,R16,1*
G04 #@! TO.N,GND*
X79375000Y-138167000D03*
D10*
G04 #@! TO.N,Net-(Q2-Pad1)*
G04 #@! TO.C,R18*
G36*
X81883505Y-139255204D02*
X81907773Y-139258804D01*
X81931572Y-139264765D01*
X81954671Y-139273030D01*
X81976850Y-139283520D01*
X81997893Y-139296132D01*
X82017599Y-139310747D01*
X82035777Y-139327223D01*
X82052253Y-139345401D01*
X82066868Y-139365107D01*
X82079480Y-139386150D01*
X82089970Y-139408329D01*
X82098235Y-139431428D01*
X82104196Y-139455227D01*
X82107796Y-139479495D01*
X82109000Y-139503999D01*
X82109000Y-140404001D01*
X82107796Y-140428505D01*
X82104196Y-140452773D01*
X82098235Y-140476572D01*
X82089970Y-140499671D01*
X82079480Y-140521850D01*
X82066868Y-140542893D01*
X82052253Y-140562599D01*
X82035777Y-140580777D01*
X82017599Y-140597253D01*
X81997893Y-140611868D01*
X81976850Y-140624480D01*
X81954671Y-140634970D01*
X81931572Y-140643235D01*
X81907773Y-140649196D01*
X81883505Y-140652796D01*
X81859001Y-140654000D01*
X81208999Y-140654000D01*
X81184495Y-140652796D01*
X81160227Y-140649196D01*
X81136428Y-140643235D01*
X81113329Y-140634970D01*
X81091150Y-140624480D01*
X81070107Y-140611868D01*
X81050401Y-140597253D01*
X81032223Y-140580777D01*
X81015747Y-140562599D01*
X81001132Y-140542893D01*
X80988520Y-140521850D01*
X80978030Y-140499671D01*
X80969765Y-140476572D01*
X80963804Y-140452773D01*
X80960204Y-140428505D01*
X80959000Y-140404001D01*
X80959000Y-139503999D01*
X80960204Y-139479495D01*
X80963804Y-139455227D01*
X80969765Y-139431428D01*
X80978030Y-139408329D01*
X80988520Y-139386150D01*
X81001132Y-139365107D01*
X81015747Y-139345401D01*
X81032223Y-139327223D01*
X81050401Y-139310747D01*
X81070107Y-139296132D01*
X81091150Y-139283520D01*
X81113329Y-139273030D01*
X81136428Y-139264765D01*
X81160227Y-139258804D01*
X81184495Y-139255204D01*
X81208999Y-139254000D01*
X81859001Y-139254000D01*
X81883505Y-139255204D01*
X81883505Y-139255204D01*
G37*
D15*
G04 #@! TD*
G04 #@! TO.P,R18,2*
G04 #@! TO.N,Net-(Q2-Pad1)*
X81534000Y-139954000D03*
D10*
G04 #@! TO.N,D9#_OUT2*
G04 #@! TO.C,R18*
G36*
X83933505Y-139255204D02*
X83957773Y-139258804D01*
X83981572Y-139264765D01*
X84004671Y-139273030D01*
X84026850Y-139283520D01*
X84047893Y-139296132D01*
X84067599Y-139310747D01*
X84085777Y-139327223D01*
X84102253Y-139345401D01*
X84116868Y-139365107D01*
X84129480Y-139386150D01*
X84139970Y-139408329D01*
X84148235Y-139431428D01*
X84154196Y-139455227D01*
X84157796Y-139479495D01*
X84159000Y-139503999D01*
X84159000Y-140404001D01*
X84157796Y-140428505D01*
X84154196Y-140452773D01*
X84148235Y-140476572D01*
X84139970Y-140499671D01*
X84129480Y-140521850D01*
X84116868Y-140542893D01*
X84102253Y-140562599D01*
X84085777Y-140580777D01*
X84067599Y-140597253D01*
X84047893Y-140611868D01*
X84026850Y-140624480D01*
X84004671Y-140634970D01*
X83981572Y-140643235D01*
X83957773Y-140649196D01*
X83933505Y-140652796D01*
X83909001Y-140654000D01*
X83258999Y-140654000D01*
X83234495Y-140652796D01*
X83210227Y-140649196D01*
X83186428Y-140643235D01*
X83163329Y-140634970D01*
X83141150Y-140624480D01*
X83120107Y-140611868D01*
X83100401Y-140597253D01*
X83082223Y-140580777D01*
X83065747Y-140562599D01*
X83051132Y-140542893D01*
X83038520Y-140521850D01*
X83028030Y-140499671D01*
X83019765Y-140476572D01*
X83013804Y-140452773D01*
X83010204Y-140428505D01*
X83009000Y-140404001D01*
X83009000Y-139503999D01*
X83010204Y-139479495D01*
X83013804Y-139455227D01*
X83019765Y-139431428D01*
X83028030Y-139408329D01*
X83038520Y-139386150D01*
X83051132Y-139365107D01*
X83065747Y-139345401D01*
X83082223Y-139327223D01*
X83100401Y-139310747D01*
X83120107Y-139296132D01*
X83141150Y-139283520D01*
X83163329Y-139273030D01*
X83186428Y-139264765D01*
X83210227Y-139258804D01*
X83234495Y-139255204D01*
X83258999Y-139254000D01*
X83909001Y-139254000D01*
X83933505Y-139255204D01*
X83933505Y-139255204D01*
G37*
D15*
G04 #@! TD*
G04 #@! TO.P,R18,1*
G04 #@! TO.N,D9#_OUT2*
X83584000Y-139954000D03*
D10*
G04 #@! TO.N,A3_D17_Battery_Voltage*
G04 #@! TO.C,R27*
G36*
X107027505Y-132776204D02*
X107051773Y-132779804D01*
X107075572Y-132785765D01*
X107098671Y-132794030D01*
X107120850Y-132804520D01*
X107141893Y-132817132D01*
X107161599Y-132831747D01*
X107179777Y-132848223D01*
X107196253Y-132866401D01*
X107210868Y-132886107D01*
X107223480Y-132907150D01*
X107233970Y-132929329D01*
X107242235Y-132952428D01*
X107248196Y-132976227D01*
X107251796Y-133000495D01*
X107253000Y-133024999D01*
X107253000Y-133675001D01*
X107251796Y-133699505D01*
X107248196Y-133723773D01*
X107242235Y-133747572D01*
X107233970Y-133770671D01*
X107223480Y-133792850D01*
X107210868Y-133813893D01*
X107196253Y-133833599D01*
X107179777Y-133851777D01*
X107161599Y-133868253D01*
X107141893Y-133882868D01*
X107120850Y-133895480D01*
X107098671Y-133905970D01*
X107075572Y-133914235D01*
X107051773Y-133920196D01*
X107027505Y-133923796D01*
X107003001Y-133925000D01*
X106102999Y-133925000D01*
X106078495Y-133923796D01*
X106054227Y-133920196D01*
X106030428Y-133914235D01*
X106007329Y-133905970D01*
X105985150Y-133895480D01*
X105964107Y-133882868D01*
X105944401Y-133868253D01*
X105926223Y-133851777D01*
X105909747Y-133833599D01*
X105895132Y-133813893D01*
X105882520Y-133792850D01*
X105872030Y-133770671D01*
X105863765Y-133747572D01*
X105857804Y-133723773D01*
X105854204Y-133699505D01*
X105853000Y-133675001D01*
X105853000Y-133024999D01*
X105854204Y-133000495D01*
X105857804Y-132976227D01*
X105863765Y-132952428D01*
X105872030Y-132929329D01*
X105882520Y-132907150D01*
X105895132Y-132886107D01*
X105909747Y-132866401D01*
X105926223Y-132848223D01*
X105944401Y-132831747D01*
X105964107Y-132817132D01*
X105985150Y-132804520D01*
X106007329Y-132794030D01*
X106030428Y-132785765D01*
X106054227Y-132779804D01*
X106078495Y-132776204D01*
X106102999Y-132775000D01*
X107003001Y-132775000D01*
X107027505Y-132776204D01*
X107027505Y-132776204D01*
G37*
D15*
G04 #@! TD*
G04 #@! TO.P,R27,2*
G04 #@! TO.N,A3_D17_Battery_Voltage*
X106553000Y-133350000D03*
D10*
G04 #@! TO.N,GND*
G04 #@! TO.C,R27*
G36*
X107027505Y-130726204D02*
X107051773Y-130729804D01*
X107075572Y-130735765D01*
X107098671Y-130744030D01*
X107120850Y-130754520D01*
X107141893Y-130767132D01*
X107161599Y-130781747D01*
X107179777Y-130798223D01*
X107196253Y-130816401D01*
X107210868Y-130836107D01*
X107223480Y-130857150D01*
X107233970Y-130879329D01*
X107242235Y-130902428D01*
X107248196Y-130926227D01*
X107251796Y-130950495D01*
X107253000Y-130974999D01*
X107253000Y-131625001D01*
X107251796Y-131649505D01*
X107248196Y-131673773D01*
X107242235Y-131697572D01*
X107233970Y-131720671D01*
X107223480Y-131742850D01*
X107210868Y-131763893D01*
X107196253Y-131783599D01*
X107179777Y-131801777D01*
X107161599Y-131818253D01*
X107141893Y-131832868D01*
X107120850Y-131845480D01*
X107098671Y-131855970D01*
X107075572Y-131864235D01*
X107051773Y-131870196D01*
X107027505Y-131873796D01*
X107003001Y-131875000D01*
X106102999Y-131875000D01*
X106078495Y-131873796D01*
X106054227Y-131870196D01*
X106030428Y-131864235D01*
X106007329Y-131855970D01*
X105985150Y-131845480D01*
X105964107Y-131832868D01*
X105944401Y-131818253D01*
X105926223Y-131801777D01*
X105909747Y-131783599D01*
X105895132Y-131763893D01*
X105882520Y-131742850D01*
X105872030Y-131720671D01*
X105863765Y-131697572D01*
X105857804Y-131673773D01*
X105854204Y-131649505D01*
X105853000Y-131625001D01*
X105853000Y-130974999D01*
X105854204Y-130950495D01*
X105857804Y-130926227D01*
X105863765Y-130902428D01*
X105872030Y-130879329D01*
X105882520Y-130857150D01*
X105895132Y-130836107D01*
X105909747Y-130816401D01*
X105926223Y-130798223D01*
X105944401Y-130781747D01*
X105964107Y-130767132D01*
X105985150Y-130754520D01*
X106007329Y-130744030D01*
X106030428Y-130735765D01*
X106054227Y-130729804D01*
X106078495Y-130726204D01*
X106102999Y-130725000D01*
X107003001Y-130725000D01*
X107027505Y-130726204D01*
X107027505Y-130726204D01*
G37*
D15*
G04 #@! TD*
G04 #@! TO.P,R27,1*
G04 #@! TO.N,GND*
X106553000Y-131300000D03*
D10*
G04 #@! TO.N,+12V*
G04 #@! TO.C,R26*
G36*
X102457505Y-132651204D02*
X102481773Y-132654804D01*
X102505572Y-132660765D01*
X102528671Y-132669030D01*
X102550850Y-132679520D01*
X102571893Y-132692132D01*
X102591599Y-132706747D01*
X102609777Y-132723223D01*
X102626253Y-132741401D01*
X102640868Y-132761107D01*
X102653480Y-132782150D01*
X102663970Y-132804329D01*
X102672235Y-132827428D01*
X102678196Y-132851227D01*
X102681796Y-132875495D01*
X102683000Y-132899999D01*
X102683000Y-133800001D01*
X102681796Y-133824505D01*
X102678196Y-133848773D01*
X102672235Y-133872572D01*
X102663970Y-133895671D01*
X102653480Y-133917850D01*
X102640868Y-133938893D01*
X102626253Y-133958599D01*
X102609777Y-133976777D01*
X102591599Y-133993253D01*
X102571893Y-134007868D01*
X102550850Y-134020480D01*
X102528671Y-134030970D01*
X102505572Y-134039235D01*
X102481773Y-134045196D01*
X102457505Y-134048796D01*
X102433001Y-134050000D01*
X101782999Y-134050000D01*
X101758495Y-134048796D01*
X101734227Y-134045196D01*
X101710428Y-134039235D01*
X101687329Y-134030970D01*
X101665150Y-134020480D01*
X101644107Y-134007868D01*
X101624401Y-133993253D01*
X101606223Y-133976777D01*
X101589747Y-133958599D01*
X101575132Y-133938893D01*
X101562520Y-133917850D01*
X101552030Y-133895671D01*
X101543765Y-133872572D01*
X101537804Y-133848773D01*
X101534204Y-133824505D01*
X101533000Y-133800001D01*
X101533000Y-132899999D01*
X101534204Y-132875495D01*
X101537804Y-132851227D01*
X101543765Y-132827428D01*
X101552030Y-132804329D01*
X101562520Y-132782150D01*
X101575132Y-132761107D01*
X101589747Y-132741401D01*
X101606223Y-132723223D01*
X101624401Y-132706747D01*
X101644107Y-132692132D01*
X101665150Y-132679520D01*
X101687329Y-132669030D01*
X101710428Y-132660765D01*
X101734227Y-132654804D01*
X101758495Y-132651204D01*
X101782999Y-132650000D01*
X102433001Y-132650000D01*
X102457505Y-132651204D01*
X102457505Y-132651204D01*
G37*
D15*
G04 #@! TD*
G04 #@! TO.P,R26,2*
G04 #@! TO.N,+12V*
X102108000Y-133350000D03*
D10*
G04 #@! TO.N,A3_D17_Battery_Voltage*
G04 #@! TO.C,R26*
G36*
X104507505Y-132651204D02*
X104531773Y-132654804D01*
X104555572Y-132660765D01*
X104578671Y-132669030D01*
X104600850Y-132679520D01*
X104621893Y-132692132D01*
X104641599Y-132706747D01*
X104659777Y-132723223D01*
X104676253Y-132741401D01*
X104690868Y-132761107D01*
X104703480Y-132782150D01*
X104713970Y-132804329D01*
X104722235Y-132827428D01*
X104728196Y-132851227D01*
X104731796Y-132875495D01*
X104733000Y-132899999D01*
X104733000Y-133800001D01*
X104731796Y-133824505D01*
X104728196Y-133848773D01*
X104722235Y-133872572D01*
X104713970Y-133895671D01*
X104703480Y-133917850D01*
X104690868Y-133938893D01*
X104676253Y-133958599D01*
X104659777Y-133976777D01*
X104641599Y-133993253D01*
X104621893Y-134007868D01*
X104600850Y-134020480D01*
X104578671Y-134030970D01*
X104555572Y-134039235D01*
X104531773Y-134045196D01*
X104507505Y-134048796D01*
X104483001Y-134050000D01*
X103832999Y-134050000D01*
X103808495Y-134048796D01*
X103784227Y-134045196D01*
X103760428Y-134039235D01*
X103737329Y-134030970D01*
X103715150Y-134020480D01*
X103694107Y-134007868D01*
X103674401Y-133993253D01*
X103656223Y-133976777D01*
X103639747Y-133958599D01*
X103625132Y-133938893D01*
X103612520Y-133917850D01*
X103602030Y-133895671D01*
X103593765Y-133872572D01*
X103587804Y-133848773D01*
X103584204Y-133824505D01*
X103583000Y-133800001D01*
X103583000Y-132899999D01*
X103584204Y-132875495D01*
X103587804Y-132851227D01*
X103593765Y-132827428D01*
X103602030Y-132804329D01*
X103612520Y-132782150D01*
X103625132Y-132761107D01*
X103639747Y-132741401D01*
X103656223Y-132723223D01*
X103674401Y-132706747D01*
X103694107Y-132692132D01*
X103715150Y-132679520D01*
X103737329Y-132669030D01*
X103760428Y-132660765D01*
X103784227Y-132654804D01*
X103808495Y-132651204D01*
X103832999Y-132650000D01*
X104483001Y-132650000D01*
X104507505Y-132651204D01*
X104507505Y-132651204D01*
G37*
D15*
G04 #@! TD*
G04 #@! TO.P,R26,1*
G04 #@! TO.N,A3_D17_Battery_Voltage*
X104158000Y-133350000D03*
D10*
G04 #@! TO.N,Net-(D12-Pad1)*
G04 #@! TO.C,F1*
G36*
X118574505Y-160163204D02*
X118598773Y-160166804D01*
X118622572Y-160172765D01*
X118645671Y-160181030D01*
X118667850Y-160191520D01*
X118688893Y-160204132D01*
X118708599Y-160218747D01*
X118726777Y-160235223D01*
X118743253Y-160253401D01*
X118757868Y-160273107D01*
X118770480Y-160294150D01*
X118780970Y-160316329D01*
X118789235Y-160339428D01*
X118795196Y-160363227D01*
X118798796Y-160387495D01*
X118800000Y-160411999D01*
X118800000Y-161262001D01*
X118798796Y-161286505D01*
X118795196Y-161310773D01*
X118789235Y-161334572D01*
X118780970Y-161357671D01*
X118770480Y-161379850D01*
X118757868Y-161400893D01*
X118743253Y-161420599D01*
X118726777Y-161438777D01*
X118708599Y-161455253D01*
X118688893Y-161469868D01*
X118667850Y-161482480D01*
X118645671Y-161492970D01*
X118622572Y-161501235D01*
X118598773Y-161507196D01*
X118574505Y-161510796D01*
X118550001Y-161512000D01*
X116399999Y-161512000D01*
X116375495Y-161510796D01*
X116351227Y-161507196D01*
X116327428Y-161501235D01*
X116304329Y-161492970D01*
X116282150Y-161482480D01*
X116261107Y-161469868D01*
X116241401Y-161455253D01*
X116223223Y-161438777D01*
X116206747Y-161420599D01*
X116192132Y-161400893D01*
X116179520Y-161379850D01*
X116169030Y-161357671D01*
X116160765Y-161334572D01*
X116154804Y-161310773D01*
X116151204Y-161286505D01*
X116150000Y-161262001D01*
X116150000Y-160411999D01*
X116151204Y-160387495D01*
X116154804Y-160363227D01*
X116160765Y-160339428D01*
X116169030Y-160316329D01*
X116179520Y-160294150D01*
X116192132Y-160273107D01*
X116206747Y-160253401D01*
X116223223Y-160235223D01*
X116241401Y-160218747D01*
X116261107Y-160204132D01*
X116282150Y-160191520D01*
X116304329Y-160181030D01*
X116327428Y-160172765D01*
X116351227Y-160166804D01*
X116375495Y-160163204D01*
X116399999Y-160162000D01*
X118550001Y-160162000D01*
X118574505Y-160163204D01*
X118574505Y-160163204D01*
G37*
D24*
G04 #@! TD*
G04 #@! TO.P,F1,2*
G04 #@! TO.N,Net-(D12-Pad1)*
X117475000Y-160837000D03*
D10*
G04 #@! TO.N,Net-(F1-Pad1)*
G04 #@! TO.C,F1*
G36*
X118574505Y-155663204D02*
X118598773Y-155666804D01*
X118622572Y-155672765D01*
X118645671Y-155681030D01*
X118667850Y-155691520D01*
X118688893Y-155704132D01*
X118708599Y-155718747D01*
X118726777Y-155735223D01*
X118743253Y-155753401D01*
X118757868Y-155773107D01*
X118770480Y-155794150D01*
X118780970Y-155816329D01*
X118789235Y-155839428D01*
X118795196Y-155863227D01*
X118798796Y-155887495D01*
X118800000Y-155911999D01*
X118800000Y-156762001D01*
X118798796Y-156786505D01*
X118795196Y-156810773D01*
X118789235Y-156834572D01*
X118780970Y-156857671D01*
X118770480Y-156879850D01*
X118757868Y-156900893D01*
X118743253Y-156920599D01*
X118726777Y-156938777D01*
X118708599Y-156955253D01*
X118688893Y-156969868D01*
X118667850Y-156982480D01*
X118645671Y-156992970D01*
X118622572Y-157001235D01*
X118598773Y-157007196D01*
X118574505Y-157010796D01*
X118550001Y-157012000D01*
X116399999Y-157012000D01*
X116375495Y-157010796D01*
X116351227Y-157007196D01*
X116327428Y-157001235D01*
X116304329Y-156992970D01*
X116282150Y-156982480D01*
X116261107Y-156969868D01*
X116241401Y-156955253D01*
X116223223Y-156938777D01*
X116206747Y-156920599D01*
X116192132Y-156900893D01*
X116179520Y-156879850D01*
X116169030Y-156857671D01*
X116160765Y-156834572D01*
X116154804Y-156810773D01*
X116151204Y-156786505D01*
X116150000Y-156762001D01*
X116150000Y-155911999D01*
X116151204Y-155887495D01*
X116154804Y-155863227D01*
X116160765Y-155839428D01*
X116169030Y-155816329D01*
X116179520Y-155794150D01*
X116192132Y-155773107D01*
X116206747Y-155753401D01*
X116223223Y-155735223D01*
X116241401Y-155718747D01*
X116261107Y-155704132D01*
X116282150Y-155691520D01*
X116304329Y-155681030D01*
X116327428Y-155672765D01*
X116351227Y-155666804D01*
X116375495Y-155663204D01*
X116399999Y-155662000D01*
X118550001Y-155662000D01*
X118574505Y-155663204D01*
X118574505Y-155663204D01*
G37*
D24*
G04 #@! TD*
G04 #@! TO.P,F1,1*
G04 #@! TO.N,Net-(F1-Pad1)*
X117475000Y-156337000D03*
D10*
G04 #@! TO.N,Net-(C12-Pad1)*
G04 #@! TO.C,D8*
G36*
X112500504Y-138445204D02*
X112524773Y-138448804D01*
X112548571Y-138454765D01*
X112571671Y-138463030D01*
X112593849Y-138473520D01*
X112614893Y-138486133D01*
X112634598Y-138500747D01*
X112652777Y-138517223D01*
X112669253Y-138535402D01*
X112683867Y-138555107D01*
X112696480Y-138576151D01*
X112706970Y-138598329D01*
X112715235Y-138621429D01*
X112721196Y-138645227D01*
X112724796Y-138669496D01*
X112726000Y-138694000D01*
X112726000Y-139944000D01*
X112724796Y-139968504D01*
X112721196Y-139992773D01*
X112715235Y-140016571D01*
X112706970Y-140039671D01*
X112696480Y-140061849D01*
X112683867Y-140082893D01*
X112669253Y-140102598D01*
X112652777Y-140120777D01*
X112634598Y-140137253D01*
X112614893Y-140151867D01*
X112593849Y-140164480D01*
X112571671Y-140174970D01*
X112548571Y-140183235D01*
X112524773Y-140189196D01*
X112500504Y-140192796D01*
X112476000Y-140194000D01*
X111551000Y-140194000D01*
X111526496Y-140192796D01*
X111502227Y-140189196D01*
X111478429Y-140183235D01*
X111455329Y-140174970D01*
X111433151Y-140164480D01*
X111412107Y-140151867D01*
X111392402Y-140137253D01*
X111374223Y-140120777D01*
X111357747Y-140102598D01*
X111343133Y-140082893D01*
X111330520Y-140061849D01*
X111320030Y-140039671D01*
X111311765Y-140016571D01*
X111305804Y-139992773D01*
X111302204Y-139968504D01*
X111301000Y-139944000D01*
X111301000Y-138694000D01*
X111302204Y-138669496D01*
X111305804Y-138645227D01*
X111311765Y-138621429D01*
X111320030Y-138598329D01*
X111330520Y-138576151D01*
X111343133Y-138555107D01*
X111357747Y-138535402D01*
X111374223Y-138517223D01*
X111392402Y-138500747D01*
X111412107Y-138486133D01*
X111433151Y-138473520D01*
X111455329Y-138463030D01*
X111478429Y-138454765D01*
X111502227Y-138448804D01*
X111526496Y-138445204D01*
X111551000Y-138444000D01*
X112476000Y-138444000D01*
X112500504Y-138445204D01*
X112500504Y-138445204D01*
G37*
D11*
G04 #@! TD*
G04 #@! TO.P,D8,2*
G04 #@! TO.N,Net-(C12-Pad1)*
X112013500Y-139319000D03*
D10*
G04 #@! TO.N,D3_IN2*
G04 #@! TO.C,D8*
G36*
X109525504Y-138445204D02*
X109549773Y-138448804D01*
X109573571Y-138454765D01*
X109596671Y-138463030D01*
X109618849Y-138473520D01*
X109639893Y-138486133D01*
X109659598Y-138500747D01*
X109677777Y-138517223D01*
X109694253Y-138535402D01*
X109708867Y-138555107D01*
X109721480Y-138576151D01*
X109731970Y-138598329D01*
X109740235Y-138621429D01*
X109746196Y-138645227D01*
X109749796Y-138669496D01*
X109751000Y-138694000D01*
X109751000Y-139944000D01*
X109749796Y-139968504D01*
X109746196Y-139992773D01*
X109740235Y-140016571D01*
X109731970Y-140039671D01*
X109721480Y-140061849D01*
X109708867Y-140082893D01*
X109694253Y-140102598D01*
X109677777Y-140120777D01*
X109659598Y-140137253D01*
X109639893Y-140151867D01*
X109618849Y-140164480D01*
X109596671Y-140174970D01*
X109573571Y-140183235D01*
X109549773Y-140189196D01*
X109525504Y-140192796D01*
X109501000Y-140194000D01*
X108576000Y-140194000D01*
X108551496Y-140192796D01*
X108527227Y-140189196D01*
X108503429Y-140183235D01*
X108480329Y-140174970D01*
X108458151Y-140164480D01*
X108437107Y-140151867D01*
X108417402Y-140137253D01*
X108399223Y-140120777D01*
X108382747Y-140102598D01*
X108368133Y-140082893D01*
X108355520Y-140061849D01*
X108345030Y-140039671D01*
X108336765Y-140016571D01*
X108330804Y-139992773D01*
X108327204Y-139968504D01*
X108326000Y-139944000D01*
X108326000Y-138694000D01*
X108327204Y-138669496D01*
X108330804Y-138645227D01*
X108336765Y-138621429D01*
X108345030Y-138598329D01*
X108355520Y-138576151D01*
X108368133Y-138555107D01*
X108382747Y-138535402D01*
X108399223Y-138517223D01*
X108417402Y-138500747D01*
X108437107Y-138486133D01*
X108458151Y-138473520D01*
X108480329Y-138463030D01*
X108503429Y-138454765D01*
X108527227Y-138448804D01*
X108551496Y-138445204D01*
X108576000Y-138444000D01*
X109501000Y-138444000D01*
X109525504Y-138445204D01*
X109525504Y-138445204D01*
G37*
D11*
G04 #@! TD*
G04 #@! TO.P,D8,1*
G04 #@! TO.N,D3_IN2*
X109038500Y-139319000D03*
D10*
G04 #@! TO.N,GND*
G04 #@! TO.C,D5*
G36*
X112028504Y-144250204D02*
X112052773Y-144253804D01*
X112076571Y-144259765D01*
X112099671Y-144268030D01*
X112121849Y-144278520D01*
X112142893Y-144291133D01*
X112162598Y-144305747D01*
X112180777Y-144322223D01*
X112197253Y-144340402D01*
X112211867Y-144360107D01*
X112224480Y-144381151D01*
X112234970Y-144403329D01*
X112243235Y-144426429D01*
X112249196Y-144450227D01*
X112252796Y-144474496D01*
X112254000Y-144499000D01*
X112254000Y-145424000D01*
X112252796Y-145448504D01*
X112249196Y-145472773D01*
X112243235Y-145496571D01*
X112234970Y-145519671D01*
X112224480Y-145541849D01*
X112211867Y-145562893D01*
X112197253Y-145582598D01*
X112180777Y-145600777D01*
X112162598Y-145617253D01*
X112142893Y-145631867D01*
X112121849Y-145644480D01*
X112099671Y-145654970D01*
X112076571Y-145663235D01*
X112052773Y-145669196D01*
X112028504Y-145672796D01*
X112004000Y-145674000D01*
X110754000Y-145674000D01*
X110729496Y-145672796D01*
X110705227Y-145669196D01*
X110681429Y-145663235D01*
X110658329Y-145654970D01*
X110636151Y-145644480D01*
X110615107Y-145631867D01*
X110595402Y-145617253D01*
X110577223Y-145600777D01*
X110560747Y-145582598D01*
X110546133Y-145562893D01*
X110533520Y-145541849D01*
X110523030Y-145519671D01*
X110514765Y-145496571D01*
X110508804Y-145472773D01*
X110505204Y-145448504D01*
X110504000Y-145424000D01*
X110504000Y-144499000D01*
X110505204Y-144474496D01*
X110508804Y-144450227D01*
X110514765Y-144426429D01*
X110523030Y-144403329D01*
X110533520Y-144381151D01*
X110546133Y-144360107D01*
X110560747Y-144340402D01*
X110577223Y-144322223D01*
X110595402Y-144305747D01*
X110615107Y-144291133D01*
X110636151Y-144278520D01*
X110658329Y-144268030D01*
X110681429Y-144259765D01*
X110705227Y-144253804D01*
X110729496Y-144250204D01*
X110754000Y-144249000D01*
X112004000Y-144249000D01*
X112028504Y-144250204D01*
X112028504Y-144250204D01*
G37*
D11*
G04 #@! TD*
G04 #@! TO.P,D5,2*
G04 #@! TO.N,GND*
X111379000Y-144961500D03*
D10*
G04 #@! TO.N,Net-(C12-Pad1)*
G04 #@! TO.C,D5*
G36*
X112028504Y-141275204D02*
X112052773Y-141278804D01*
X112076571Y-141284765D01*
X112099671Y-141293030D01*
X112121849Y-141303520D01*
X112142893Y-141316133D01*
X112162598Y-141330747D01*
X112180777Y-141347223D01*
X112197253Y-141365402D01*
X112211867Y-141385107D01*
X112224480Y-141406151D01*
X112234970Y-141428329D01*
X112243235Y-141451429D01*
X112249196Y-141475227D01*
X112252796Y-141499496D01*
X112254000Y-141524000D01*
X112254000Y-142449000D01*
X112252796Y-142473504D01*
X112249196Y-142497773D01*
X112243235Y-142521571D01*
X112234970Y-142544671D01*
X112224480Y-142566849D01*
X112211867Y-142587893D01*
X112197253Y-142607598D01*
X112180777Y-142625777D01*
X112162598Y-142642253D01*
X112142893Y-142656867D01*
X112121849Y-142669480D01*
X112099671Y-142679970D01*
X112076571Y-142688235D01*
X112052773Y-142694196D01*
X112028504Y-142697796D01*
X112004000Y-142699000D01*
X110754000Y-142699000D01*
X110729496Y-142697796D01*
X110705227Y-142694196D01*
X110681429Y-142688235D01*
X110658329Y-142679970D01*
X110636151Y-142669480D01*
X110615107Y-142656867D01*
X110595402Y-142642253D01*
X110577223Y-142625777D01*
X110560747Y-142607598D01*
X110546133Y-142587893D01*
X110533520Y-142566849D01*
X110523030Y-142544671D01*
X110514765Y-142521571D01*
X110508804Y-142497773D01*
X110505204Y-142473504D01*
X110504000Y-142449000D01*
X110504000Y-141524000D01*
X110505204Y-141499496D01*
X110508804Y-141475227D01*
X110514765Y-141451429D01*
X110523030Y-141428329D01*
X110533520Y-141406151D01*
X110546133Y-141385107D01*
X110560747Y-141365402D01*
X110577223Y-141347223D01*
X110595402Y-141330747D01*
X110615107Y-141316133D01*
X110636151Y-141303520D01*
X110658329Y-141293030D01*
X110681429Y-141284765D01*
X110705227Y-141278804D01*
X110729496Y-141275204D01*
X110754000Y-141274000D01*
X112004000Y-141274000D01*
X112028504Y-141275204D01*
X112028504Y-141275204D01*
G37*
D11*
G04 #@! TD*
G04 #@! TO.P,D5,1*
G04 #@! TO.N,Net-(C12-Pad1)*
X111379000Y-141986500D03*
D10*
G04 #@! TO.N,Net-(C14-Pad1)*
G04 #@! TO.C,D10*
G36*
X111992504Y-149875204D02*
X112016773Y-149878804D01*
X112040571Y-149884765D01*
X112063671Y-149893030D01*
X112085849Y-149903520D01*
X112106893Y-149916133D01*
X112126598Y-149930747D01*
X112144777Y-149947223D01*
X112161253Y-149965402D01*
X112175867Y-149985107D01*
X112188480Y-150006151D01*
X112198970Y-150028329D01*
X112207235Y-150051429D01*
X112213196Y-150075227D01*
X112216796Y-150099496D01*
X112218000Y-150124000D01*
X112218000Y-151374000D01*
X112216796Y-151398504D01*
X112213196Y-151422773D01*
X112207235Y-151446571D01*
X112198970Y-151469671D01*
X112188480Y-151491849D01*
X112175867Y-151512893D01*
X112161253Y-151532598D01*
X112144777Y-151550777D01*
X112126598Y-151567253D01*
X112106893Y-151581867D01*
X112085849Y-151594480D01*
X112063671Y-151604970D01*
X112040571Y-151613235D01*
X112016773Y-151619196D01*
X111992504Y-151622796D01*
X111968000Y-151624000D01*
X111043000Y-151624000D01*
X111018496Y-151622796D01*
X110994227Y-151619196D01*
X110970429Y-151613235D01*
X110947329Y-151604970D01*
X110925151Y-151594480D01*
X110904107Y-151581867D01*
X110884402Y-151567253D01*
X110866223Y-151550777D01*
X110849747Y-151532598D01*
X110835133Y-151512893D01*
X110822520Y-151491849D01*
X110812030Y-151469671D01*
X110803765Y-151446571D01*
X110797804Y-151422773D01*
X110794204Y-151398504D01*
X110793000Y-151374000D01*
X110793000Y-150124000D01*
X110794204Y-150099496D01*
X110797804Y-150075227D01*
X110803765Y-150051429D01*
X110812030Y-150028329D01*
X110822520Y-150006151D01*
X110835133Y-149985107D01*
X110849747Y-149965402D01*
X110866223Y-149947223D01*
X110884402Y-149930747D01*
X110904107Y-149916133D01*
X110925151Y-149903520D01*
X110947329Y-149893030D01*
X110970429Y-149884765D01*
X110994227Y-149878804D01*
X111018496Y-149875204D01*
X111043000Y-149874000D01*
X111968000Y-149874000D01*
X111992504Y-149875204D01*
X111992504Y-149875204D01*
G37*
D11*
G04 #@! TD*
G04 #@! TO.P,D10,2*
G04 #@! TO.N,Net-(C14-Pad1)*
X111505500Y-150749000D03*
D10*
G04 #@! TO.N,A1_D15_IN4*
G04 #@! TO.C,D10*
G36*
X109017504Y-149875204D02*
X109041773Y-149878804D01*
X109065571Y-149884765D01*
X109088671Y-149893030D01*
X109110849Y-149903520D01*
X109131893Y-149916133D01*
X109151598Y-149930747D01*
X109169777Y-149947223D01*
X109186253Y-149965402D01*
X109200867Y-149985107D01*
X109213480Y-150006151D01*
X109223970Y-150028329D01*
X109232235Y-150051429D01*
X109238196Y-150075227D01*
X109241796Y-150099496D01*
X109243000Y-150124000D01*
X109243000Y-151374000D01*
X109241796Y-151398504D01*
X109238196Y-151422773D01*
X109232235Y-151446571D01*
X109223970Y-151469671D01*
X109213480Y-151491849D01*
X109200867Y-151512893D01*
X109186253Y-151532598D01*
X109169777Y-151550777D01*
X109151598Y-151567253D01*
X109131893Y-151581867D01*
X109110849Y-151594480D01*
X109088671Y-151604970D01*
X109065571Y-151613235D01*
X109041773Y-151619196D01*
X109017504Y-151622796D01*
X108993000Y-151624000D01*
X108068000Y-151624000D01*
X108043496Y-151622796D01*
X108019227Y-151619196D01*
X107995429Y-151613235D01*
X107972329Y-151604970D01*
X107950151Y-151594480D01*
X107929107Y-151581867D01*
X107909402Y-151567253D01*
X107891223Y-151550777D01*
X107874747Y-151532598D01*
X107860133Y-151512893D01*
X107847520Y-151491849D01*
X107837030Y-151469671D01*
X107828765Y-151446571D01*
X107822804Y-151422773D01*
X107819204Y-151398504D01*
X107818000Y-151374000D01*
X107818000Y-150124000D01*
X107819204Y-150099496D01*
X107822804Y-150075227D01*
X107828765Y-150051429D01*
X107837030Y-150028329D01*
X107847520Y-150006151D01*
X107860133Y-149985107D01*
X107874747Y-149965402D01*
X107891223Y-149947223D01*
X107909402Y-149930747D01*
X107929107Y-149916133D01*
X107950151Y-149903520D01*
X107972329Y-149893030D01*
X107995429Y-149884765D01*
X108019227Y-149878804D01*
X108043496Y-149875204D01*
X108068000Y-149874000D01*
X108993000Y-149874000D01*
X109017504Y-149875204D01*
X109017504Y-149875204D01*
G37*
D11*
G04 #@! TD*
G04 #@! TO.P,D10,1*
G04 #@! TO.N,A1_D15_IN4*
X108530500Y-150749000D03*
D10*
G04 #@! TO.N,Net-(C10-Pad1)*
G04 #@! TO.C,L1*
G36*
X100944004Y-148790204D02*
X100968273Y-148793804D01*
X100992071Y-148799765D01*
X101015171Y-148808030D01*
X101037349Y-148818520D01*
X101058393Y-148831133D01*
X101078098Y-148845747D01*
X101096277Y-148862223D01*
X101112753Y-148880402D01*
X101127367Y-148900107D01*
X101139980Y-148921151D01*
X101150470Y-148943329D01*
X101158735Y-148966429D01*
X101164696Y-148990227D01*
X101168296Y-149014496D01*
X101169500Y-149039000D01*
X101169500Y-151189000D01*
X101168296Y-151213504D01*
X101164696Y-151237773D01*
X101158735Y-151261571D01*
X101150470Y-151284671D01*
X101139980Y-151306849D01*
X101127367Y-151327893D01*
X101112753Y-151347598D01*
X101096277Y-151365777D01*
X101078098Y-151382253D01*
X101058393Y-151396867D01*
X101037349Y-151409480D01*
X101015171Y-151419970D01*
X100992071Y-151428235D01*
X100968273Y-151434196D01*
X100944004Y-151437796D01*
X100919500Y-151439000D01*
X99994500Y-151439000D01*
X99969996Y-151437796D01*
X99945727Y-151434196D01*
X99921929Y-151428235D01*
X99898829Y-151419970D01*
X99876651Y-151409480D01*
X99855607Y-151396867D01*
X99835902Y-151382253D01*
X99817723Y-151365777D01*
X99801247Y-151347598D01*
X99786633Y-151327893D01*
X99774020Y-151306849D01*
X99763530Y-151284671D01*
X99755265Y-151261571D01*
X99749304Y-151237773D01*
X99745704Y-151213504D01*
X99744500Y-151189000D01*
X99744500Y-149039000D01*
X99745704Y-149014496D01*
X99749304Y-148990227D01*
X99755265Y-148966429D01*
X99763530Y-148943329D01*
X99774020Y-148921151D01*
X99786633Y-148900107D01*
X99801247Y-148880402D01*
X99817723Y-148862223D01*
X99835902Y-148845747D01*
X99855607Y-148831133D01*
X99876651Y-148818520D01*
X99898829Y-148808030D01*
X99921929Y-148799765D01*
X99945727Y-148793804D01*
X99969996Y-148790204D01*
X99994500Y-148789000D01*
X100919500Y-148789000D01*
X100944004Y-148790204D01*
X100944004Y-148790204D01*
G37*
D11*
G04 #@! TD*
G04 #@! TO.P,L1,2*
G04 #@! TO.N,Net-(C10-Pad1)*
X100457000Y-150114000D03*
D10*
G04 #@! TO.N,+5V*
G04 #@! TO.C,L1*
G36*
X97969004Y-148790204D02*
X97993273Y-148793804D01*
X98017071Y-148799765D01*
X98040171Y-148808030D01*
X98062349Y-148818520D01*
X98083393Y-148831133D01*
X98103098Y-148845747D01*
X98121277Y-148862223D01*
X98137753Y-148880402D01*
X98152367Y-148900107D01*
X98164980Y-148921151D01*
X98175470Y-148943329D01*
X98183735Y-148966429D01*
X98189696Y-148990227D01*
X98193296Y-149014496D01*
X98194500Y-149039000D01*
X98194500Y-151189000D01*
X98193296Y-151213504D01*
X98189696Y-151237773D01*
X98183735Y-151261571D01*
X98175470Y-151284671D01*
X98164980Y-151306849D01*
X98152367Y-151327893D01*
X98137753Y-151347598D01*
X98121277Y-151365777D01*
X98103098Y-151382253D01*
X98083393Y-151396867D01*
X98062349Y-151409480D01*
X98040171Y-151419970D01*
X98017071Y-151428235D01*
X97993273Y-151434196D01*
X97969004Y-151437796D01*
X97944500Y-151439000D01*
X97019500Y-151439000D01*
X96994996Y-151437796D01*
X96970727Y-151434196D01*
X96946929Y-151428235D01*
X96923829Y-151419970D01*
X96901651Y-151409480D01*
X96880607Y-151396867D01*
X96860902Y-151382253D01*
X96842723Y-151365777D01*
X96826247Y-151347598D01*
X96811633Y-151327893D01*
X96799020Y-151306849D01*
X96788530Y-151284671D01*
X96780265Y-151261571D01*
X96774304Y-151237773D01*
X96770704Y-151213504D01*
X96769500Y-151189000D01*
X96769500Y-149039000D01*
X96770704Y-149014496D01*
X96774304Y-148990227D01*
X96780265Y-148966429D01*
X96788530Y-148943329D01*
X96799020Y-148921151D01*
X96811633Y-148900107D01*
X96826247Y-148880402D01*
X96842723Y-148862223D01*
X96860902Y-148845747D01*
X96880607Y-148831133D01*
X96901651Y-148818520D01*
X96923829Y-148808030D01*
X96946929Y-148799765D01*
X96970727Y-148793804D01*
X96994996Y-148790204D01*
X97019500Y-148789000D01*
X97944500Y-148789000D01*
X97969004Y-148790204D01*
X97969004Y-148790204D01*
G37*
D11*
G04 #@! TD*
G04 #@! TO.P,L1,1*
G04 #@! TO.N,+5V*
X97482000Y-150114000D03*
D10*
G04 #@! TO.N,Net-(C14-Pad1)*
G04 #@! TO.C,R11*
G36*
X114894505Y-148272204D02*
X114918773Y-148275804D01*
X114942572Y-148281765D01*
X114965671Y-148290030D01*
X114987850Y-148300520D01*
X115008893Y-148313132D01*
X115028599Y-148327747D01*
X115046777Y-148344223D01*
X115063253Y-148362401D01*
X115077868Y-148382107D01*
X115090480Y-148403150D01*
X115100970Y-148425329D01*
X115109235Y-148448428D01*
X115115196Y-148472227D01*
X115118796Y-148496495D01*
X115120000Y-148520999D01*
X115120000Y-149421001D01*
X115118796Y-149445505D01*
X115115196Y-149469773D01*
X115109235Y-149493572D01*
X115100970Y-149516671D01*
X115090480Y-149538850D01*
X115077868Y-149559893D01*
X115063253Y-149579599D01*
X115046777Y-149597777D01*
X115028599Y-149614253D01*
X115008893Y-149628868D01*
X114987850Y-149641480D01*
X114965671Y-149651970D01*
X114942572Y-149660235D01*
X114918773Y-149666196D01*
X114894505Y-149669796D01*
X114870001Y-149671000D01*
X114219999Y-149671000D01*
X114195495Y-149669796D01*
X114171227Y-149666196D01*
X114147428Y-149660235D01*
X114124329Y-149651970D01*
X114102150Y-149641480D01*
X114081107Y-149628868D01*
X114061401Y-149614253D01*
X114043223Y-149597777D01*
X114026747Y-149579599D01*
X114012132Y-149559893D01*
X113999520Y-149538850D01*
X113989030Y-149516671D01*
X113980765Y-149493572D01*
X113974804Y-149469773D01*
X113971204Y-149445505D01*
X113970000Y-149421001D01*
X113970000Y-148520999D01*
X113971204Y-148496495D01*
X113974804Y-148472227D01*
X113980765Y-148448428D01*
X113989030Y-148425329D01*
X113999520Y-148403150D01*
X114012132Y-148382107D01*
X114026747Y-148362401D01*
X114043223Y-148344223D01*
X114061401Y-148327747D01*
X114081107Y-148313132D01*
X114102150Y-148300520D01*
X114124329Y-148290030D01*
X114147428Y-148281765D01*
X114171227Y-148275804D01*
X114195495Y-148272204D01*
X114219999Y-148271000D01*
X114870001Y-148271000D01*
X114894505Y-148272204D01*
X114894505Y-148272204D01*
G37*
D15*
G04 #@! TD*
G04 #@! TO.P,R11,2*
G04 #@! TO.N,Net-(C14-Pad1)*
X114545000Y-148971000D03*
D10*
G04 #@! TO.N,Net-(J2-Pad6)*
G04 #@! TO.C,R11*
G36*
X116944505Y-148272204D02*
X116968773Y-148275804D01*
X116992572Y-148281765D01*
X117015671Y-148290030D01*
X117037850Y-148300520D01*
X117058893Y-148313132D01*
X117078599Y-148327747D01*
X117096777Y-148344223D01*
X117113253Y-148362401D01*
X117127868Y-148382107D01*
X117140480Y-148403150D01*
X117150970Y-148425329D01*
X117159235Y-148448428D01*
X117165196Y-148472227D01*
X117168796Y-148496495D01*
X117170000Y-148520999D01*
X117170000Y-149421001D01*
X117168796Y-149445505D01*
X117165196Y-149469773D01*
X117159235Y-149493572D01*
X117150970Y-149516671D01*
X117140480Y-149538850D01*
X117127868Y-149559893D01*
X117113253Y-149579599D01*
X117096777Y-149597777D01*
X117078599Y-149614253D01*
X117058893Y-149628868D01*
X117037850Y-149641480D01*
X117015671Y-149651970D01*
X116992572Y-149660235D01*
X116968773Y-149666196D01*
X116944505Y-149669796D01*
X116920001Y-149671000D01*
X116269999Y-149671000D01*
X116245495Y-149669796D01*
X116221227Y-149666196D01*
X116197428Y-149660235D01*
X116174329Y-149651970D01*
X116152150Y-149641480D01*
X116131107Y-149628868D01*
X116111401Y-149614253D01*
X116093223Y-149597777D01*
X116076747Y-149579599D01*
X116062132Y-149559893D01*
X116049520Y-149538850D01*
X116039030Y-149516671D01*
X116030765Y-149493572D01*
X116024804Y-149469773D01*
X116021204Y-149445505D01*
X116020000Y-149421001D01*
X116020000Y-148520999D01*
X116021204Y-148496495D01*
X116024804Y-148472227D01*
X116030765Y-148448428D01*
X116039030Y-148425329D01*
X116049520Y-148403150D01*
X116062132Y-148382107D01*
X116076747Y-148362401D01*
X116093223Y-148344223D01*
X116111401Y-148327747D01*
X116131107Y-148313132D01*
X116152150Y-148300520D01*
X116174329Y-148290030D01*
X116197428Y-148281765D01*
X116221227Y-148275804D01*
X116245495Y-148272204D01*
X116269999Y-148271000D01*
X116920001Y-148271000D01*
X116944505Y-148272204D01*
X116944505Y-148272204D01*
G37*
D15*
G04 #@! TD*
G04 #@! TO.P,R11,1*
G04 #@! TO.N,Net-(J2-Pad6)*
X116595000Y-148971000D03*
D10*
G04 #@! TO.N,Net-(C13-Pad1)*
G04 #@! TO.C,R10*
G36*
X114903505Y-144970204D02*
X114927773Y-144973804D01*
X114951572Y-144979765D01*
X114974671Y-144988030D01*
X114996850Y-144998520D01*
X115017893Y-145011132D01*
X115037599Y-145025747D01*
X115055777Y-145042223D01*
X115072253Y-145060401D01*
X115086868Y-145080107D01*
X115099480Y-145101150D01*
X115109970Y-145123329D01*
X115118235Y-145146428D01*
X115124196Y-145170227D01*
X115127796Y-145194495D01*
X115129000Y-145218999D01*
X115129000Y-146119001D01*
X115127796Y-146143505D01*
X115124196Y-146167773D01*
X115118235Y-146191572D01*
X115109970Y-146214671D01*
X115099480Y-146236850D01*
X115086868Y-146257893D01*
X115072253Y-146277599D01*
X115055777Y-146295777D01*
X115037599Y-146312253D01*
X115017893Y-146326868D01*
X114996850Y-146339480D01*
X114974671Y-146349970D01*
X114951572Y-146358235D01*
X114927773Y-146364196D01*
X114903505Y-146367796D01*
X114879001Y-146369000D01*
X114228999Y-146369000D01*
X114204495Y-146367796D01*
X114180227Y-146364196D01*
X114156428Y-146358235D01*
X114133329Y-146349970D01*
X114111150Y-146339480D01*
X114090107Y-146326868D01*
X114070401Y-146312253D01*
X114052223Y-146295777D01*
X114035747Y-146277599D01*
X114021132Y-146257893D01*
X114008520Y-146236850D01*
X113998030Y-146214671D01*
X113989765Y-146191572D01*
X113983804Y-146167773D01*
X113980204Y-146143505D01*
X113979000Y-146119001D01*
X113979000Y-145218999D01*
X113980204Y-145194495D01*
X113983804Y-145170227D01*
X113989765Y-145146428D01*
X113998030Y-145123329D01*
X114008520Y-145101150D01*
X114021132Y-145080107D01*
X114035747Y-145060401D01*
X114052223Y-145042223D01*
X114070401Y-145025747D01*
X114090107Y-145011132D01*
X114111150Y-144998520D01*
X114133329Y-144988030D01*
X114156428Y-144979765D01*
X114180227Y-144973804D01*
X114204495Y-144970204D01*
X114228999Y-144969000D01*
X114879001Y-144969000D01*
X114903505Y-144970204D01*
X114903505Y-144970204D01*
G37*
D15*
G04 #@! TD*
G04 #@! TO.P,R10,2*
G04 #@! TO.N,Net-(C13-Pad1)*
X114554000Y-145669000D03*
D10*
G04 #@! TO.N,Net-(J2-Pad5)*
G04 #@! TO.C,R10*
G36*
X116953505Y-144970204D02*
X116977773Y-144973804D01*
X117001572Y-144979765D01*
X117024671Y-144988030D01*
X117046850Y-144998520D01*
X117067893Y-145011132D01*
X117087599Y-145025747D01*
X117105777Y-145042223D01*
X117122253Y-145060401D01*
X117136868Y-145080107D01*
X117149480Y-145101150D01*
X117159970Y-145123329D01*
X117168235Y-145146428D01*
X117174196Y-145170227D01*
X117177796Y-145194495D01*
X117179000Y-145218999D01*
X117179000Y-146119001D01*
X117177796Y-146143505D01*
X117174196Y-146167773D01*
X117168235Y-146191572D01*
X117159970Y-146214671D01*
X117149480Y-146236850D01*
X117136868Y-146257893D01*
X117122253Y-146277599D01*
X117105777Y-146295777D01*
X117087599Y-146312253D01*
X117067893Y-146326868D01*
X117046850Y-146339480D01*
X117024671Y-146349970D01*
X117001572Y-146358235D01*
X116977773Y-146364196D01*
X116953505Y-146367796D01*
X116929001Y-146369000D01*
X116278999Y-146369000D01*
X116254495Y-146367796D01*
X116230227Y-146364196D01*
X116206428Y-146358235D01*
X116183329Y-146349970D01*
X116161150Y-146339480D01*
X116140107Y-146326868D01*
X116120401Y-146312253D01*
X116102223Y-146295777D01*
X116085747Y-146277599D01*
X116071132Y-146257893D01*
X116058520Y-146236850D01*
X116048030Y-146214671D01*
X116039765Y-146191572D01*
X116033804Y-146167773D01*
X116030204Y-146143505D01*
X116029000Y-146119001D01*
X116029000Y-145218999D01*
X116030204Y-145194495D01*
X116033804Y-145170227D01*
X116039765Y-145146428D01*
X116048030Y-145123329D01*
X116058520Y-145101150D01*
X116071132Y-145080107D01*
X116085747Y-145060401D01*
X116102223Y-145042223D01*
X116120401Y-145025747D01*
X116140107Y-145011132D01*
X116161150Y-144998520D01*
X116183329Y-144988030D01*
X116206428Y-144979765D01*
X116230227Y-144973804D01*
X116254495Y-144970204D01*
X116278999Y-144969000D01*
X116929001Y-144969000D01*
X116953505Y-144970204D01*
X116953505Y-144970204D01*
G37*
D15*
G04 #@! TD*
G04 #@! TO.P,R10,1*
G04 #@! TO.N,Net-(J2-Pad5)*
X116604000Y-145669000D03*
D10*
G04 #@! TO.N,Net-(C12-Pad1)*
G04 #@! TO.C,R9*
G36*
X114903505Y-141668204D02*
X114927773Y-141671804D01*
X114951572Y-141677765D01*
X114974671Y-141686030D01*
X114996850Y-141696520D01*
X115017893Y-141709132D01*
X115037599Y-141723747D01*
X115055777Y-141740223D01*
X115072253Y-141758401D01*
X115086868Y-141778107D01*
X115099480Y-141799150D01*
X115109970Y-141821329D01*
X115118235Y-141844428D01*
X115124196Y-141868227D01*
X115127796Y-141892495D01*
X115129000Y-141916999D01*
X115129000Y-142817001D01*
X115127796Y-142841505D01*
X115124196Y-142865773D01*
X115118235Y-142889572D01*
X115109970Y-142912671D01*
X115099480Y-142934850D01*
X115086868Y-142955893D01*
X115072253Y-142975599D01*
X115055777Y-142993777D01*
X115037599Y-143010253D01*
X115017893Y-143024868D01*
X114996850Y-143037480D01*
X114974671Y-143047970D01*
X114951572Y-143056235D01*
X114927773Y-143062196D01*
X114903505Y-143065796D01*
X114879001Y-143067000D01*
X114228999Y-143067000D01*
X114204495Y-143065796D01*
X114180227Y-143062196D01*
X114156428Y-143056235D01*
X114133329Y-143047970D01*
X114111150Y-143037480D01*
X114090107Y-143024868D01*
X114070401Y-143010253D01*
X114052223Y-142993777D01*
X114035747Y-142975599D01*
X114021132Y-142955893D01*
X114008520Y-142934850D01*
X113998030Y-142912671D01*
X113989765Y-142889572D01*
X113983804Y-142865773D01*
X113980204Y-142841505D01*
X113979000Y-142817001D01*
X113979000Y-141916999D01*
X113980204Y-141892495D01*
X113983804Y-141868227D01*
X113989765Y-141844428D01*
X113998030Y-141821329D01*
X114008520Y-141799150D01*
X114021132Y-141778107D01*
X114035747Y-141758401D01*
X114052223Y-141740223D01*
X114070401Y-141723747D01*
X114090107Y-141709132D01*
X114111150Y-141696520D01*
X114133329Y-141686030D01*
X114156428Y-141677765D01*
X114180227Y-141671804D01*
X114204495Y-141668204D01*
X114228999Y-141667000D01*
X114879001Y-141667000D01*
X114903505Y-141668204D01*
X114903505Y-141668204D01*
G37*
D15*
G04 #@! TD*
G04 #@! TO.P,R9,2*
G04 #@! TO.N,Net-(C12-Pad1)*
X114554000Y-142367000D03*
D10*
G04 #@! TO.N,Net-(J2-Pad4)*
G04 #@! TO.C,R9*
G36*
X116953505Y-141668204D02*
X116977773Y-141671804D01*
X117001572Y-141677765D01*
X117024671Y-141686030D01*
X117046850Y-141696520D01*
X117067893Y-141709132D01*
X117087599Y-141723747D01*
X117105777Y-141740223D01*
X117122253Y-141758401D01*
X117136868Y-141778107D01*
X117149480Y-141799150D01*
X117159970Y-141821329D01*
X117168235Y-141844428D01*
X117174196Y-141868227D01*
X117177796Y-141892495D01*
X117179000Y-141916999D01*
X117179000Y-142817001D01*
X117177796Y-142841505D01*
X117174196Y-142865773D01*
X117168235Y-142889572D01*
X117159970Y-142912671D01*
X117149480Y-142934850D01*
X117136868Y-142955893D01*
X117122253Y-142975599D01*
X117105777Y-142993777D01*
X117087599Y-143010253D01*
X117067893Y-143024868D01*
X117046850Y-143037480D01*
X117024671Y-143047970D01*
X117001572Y-143056235D01*
X116977773Y-143062196D01*
X116953505Y-143065796D01*
X116929001Y-143067000D01*
X116278999Y-143067000D01*
X116254495Y-143065796D01*
X116230227Y-143062196D01*
X116206428Y-143056235D01*
X116183329Y-143047970D01*
X116161150Y-143037480D01*
X116140107Y-143024868D01*
X116120401Y-143010253D01*
X116102223Y-142993777D01*
X116085747Y-142975599D01*
X116071132Y-142955893D01*
X116058520Y-142934850D01*
X116048030Y-142912671D01*
X116039765Y-142889572D01*
X116033804Y-142865773D01*
X116030204Y-142841505D01*
X116029000Y-142817001D01*
X116029000Y-141916999D01*
X116030204Y-141892495D01*
X116033804Y-141868227D01*
X116039765Y-141844428D01*
X116048030Y-141821329D01*
X116058520Y-141799150D01*
X116071132Y-141778107D01*
X116085747Y-141758401D01*
X116102223Y-141740223D01*
X116120401Y-141723747D01*
X116140107Y-141709132D01*
X116161150Y-141696520D01*
X116183329Y-141686030D01*
X116206428Y-141677765D01*
X116230227Y-141671804D01*
X116254495Y-141668204D01*
X116278999Y-141667000D01*
X116929001Y-141667000D01*
X116953505Y-141668204D01*
X116953505Y-141668204D01*
G37*
D15*
G04 #@! TD*
G04 #@! TO.P,R9,1*
G04 #@! TO.N,Net-(J2-Pad4)*
X116604000Y-142367000D03*
D10*
G04 #@! TO.N,Net-(C11-Pad1)*
G04 #@! TO.C,R7*
G36*
X114903505Y-138366204D02*
X114927773Y-138369804D01*
X114951572Y-138375765D01*
X114974671Y-138384030D01*
X114996850Y-138394520D01*
X115017893Y-138407132D01*
X115037599Y-138421747D01*
X115055777Y-138438223D01*
X115072253Y-138456401D01*
X115086868Y-138476107D01*
X115099480Y-138497150D01*
X115109970Y-138519329D01*
X115118235Y-138542428D01*
X115124196Y-138566227D01*
X115127796Y-138590495D01*
X115129000Y-138614999D01*
X115129000Y-139515001D01*
X115127796Y-139539505D01*
X115124196Y-139563773D01*
X115118235Y-139587572D01*
X115109970Y-139610671D01*
X115099480Y-139632850D01*
X115086868Y-139653893D01*
X115072253Y-139673599D01*
X115055777Y-139691777D01*
X115037599Y-139708253D01*
X115017893Y-139722868D01*
X114996850Y-139735480D01*
X114974671Y-139745970D01*
X114951572Y-139754235D01*
X114927773Y-139760196D01*
X114903505Y-139763796D01*
X114879001Y-139765000D01*
X114228999Y-139765000D01*
X114204495Y-139763796D01*
X114180227Y-139760196D01*
X114156428Y-139754235D01*
X114133329Y-139745970D01*
X114111150Y-139735480D01*
X114090107Y-139722868D01*
X114070401Y-139708253D01*
X114052223Y-139691777D01*
X114035747Y-139673599D01*
X114021132Y-139653893D01*
X114008520Y-139632850D01*
X113998030Y-139610671D01*
X113989765Y-139587572D01*
X113983804Y-139563773D01*
X113980204Y-139539505D01*
X113979000Y-139515001D01*
X113979000Y-138614999D01*
X113980204Y-138590495D01*
X113983804Y-138566227D01*
X113989765Y-138542428D01*
X113998030Y-138519329D01*
X114008520Y-138497150D01*
X114021132Y-138476107D01*
X114035747Y-138456401D01*
X114052223Y-138438223D01*
X114070401Y-138421747D01*
X114090107Y-138407132D01*
X114111150Y-138394520D01*
X114133329Y-138384030D01*
X114156428Y-138375765D01*
X114180227Y-138369804D01*
X114204495Y-138366204D01*
X114228999Y-138365000D01*
X114879001Y-138365000D01*
X114903505Y-138366204D01*
X114903505Y-138366204D01*
G37*
D15*
G04 #@! TD*
G04 #@! TO.P,R7,2*
G04 #@! TO.N,Net-(C11-Pad1)*
X114554000Y-139065000D03*
D10*
G04 #@! TO.N,Net-(J2-Pad3)*
G04 #@! TO.C,R7*
G36*
X116953505Y-138366204D02*
X116977773Y-138369804D01*
X117001572Y-138375765D01*
X117024671Y-138384030D01*
X117046850Y-138394520D01*
X117067893Y-138407132D01*
X117087599Y-138421747D01*
X117105777Y-138438223D01*
X117122253Y-138456401D01*
X117136868Y-138476107D01*
X117149480Y-138497150D01*
X117159970Y-138519329D01*
X117168235Y-138542428D01*
X117174196Y-138566227D01*
X117177796Y-138590495D01*
X117179000Y-138614999D01*
X117179000Y-139515001D01*
X117177796Y-139539505D01*
X117174196Y-139563773D01*
X117168235Y-139587572D01*
X117159970Y-139610671D01*
X117149480Y-139632850D01*
X117136868Y-139653893D01*
X117122253Y-139673599D01*
X117105777Y-139691777D01*
X117087599Y-139708253D01*
X117067893Y-139722868D01*
X117046850Y-139735480D01*
X117024671Y-139745970D01*
X117001572Y-139754235D01*
X116977773Y-139760196D01*
X116953505Y-139763796D01*
X116929001Y-139765000D01*
X116278999Y-139765000D01*
X116254495Y-139763796D01*
X116230227Y-139760196D01*
X116206428Y-139754235D01*
X116183329Y-139745970D01*
X116161150Y-139735480D01*
X116140107Y-139722868D01*
X116120401Y-139708253D01*
X116102223Y-139691777D01*
X116085747Y-139673599D01*
X116071132Y-139653893D01*
X116058520Y-139632850D01*
X116048030Y-139610671D01*
X116039765Y-139587572D01*
X116033804Y-139563773D01*
X116030204Y-139539505D01*
X116029000Y-139515001D01*
X116029000Y-138614999D01*
X116030204Y-138590495D01*
X116033804Y-138566227D01*
X116039765Y-138542428D01*
X116048030Y-138519329D01*
X116058520Y-138497150D01*
X116071132Y-138476107D01*
X116085747Y-138456401D01*
X116102223Y-138438223D01*
X116120401Y-138421747D01*
X116140107Y-138407132D01*
X116161150Y-138394520D01*
X116183329Y-138384030D01*
X116206428Y-138375765D01*
X116230227Y-138369804D01*
X116254495Y-138366204D01*
X116278999Y-138365000D01*
X116929001Y-138365000D01*
X116953505Y-138366204D01*
X116953505Y-138366204D01*
G37*
D15*
G04 #@! TD*
G04 #@! TO.P,R7,1*
G04 #@! TO.N,Net-(J2-Pad3)*
X116604000Y-139065000D03*
D10*
G04 #@! TO.N,GND*
G04 #@! TO.C,C1*
G36*
X79822504Y-148453204D02*
X79846773Y-148456804D01*
X79870571Y-148462765D01*
X79893671Y-148471030D01*
X79915849Y-148481520D01*
X79936893Y-148494133D01*
X79956598Y-148508747D01*
X79974777Y-148525223D01*
X79991253Y-148543402D01*
X80005867Y-148563107D01*
X80018480Y-148584151D01*
X80028970Y-148606329D01*
X80037235Y-148629429D01*
X80043196Y-148653227D01*
X80046796Y-148677496D01*
X80048000Y-148702000D01*
X80048000Y-151527000D01*
X80046796Y-151551504D01*
X80043196Y-151575773D01*
X80037235Y-151599571D01*
X80028970Y-151622671D01*
X80018480Y-151644849D01*
X80005867Y-151665893D01*
X79991253Y-151685598D01*
X79974777Y-151703777D01*
X79956598Y-151720253D01*
X79936893Y-151734867D01*
X79915849Y-151747480D01*
X79893671Y-151757970D01*
X79870571Y-151766235D01*
X79846773Y-151772196D01*
X79822504Y-151775796D01*
X79798000Y-151777000D01*
X78698000Y-151777000D01*
X78673496Y-151775796D01*
X78649227Y-151772196D01*
X78625429Y-151766235D01*
X78602329Y-151757970D01*
X78580151Y-151747480D01*
X78559107Y-151734867D01*
X78539402Y-151720253D01*
X78521223Y-151703777D01*
X78504747Y-151685598D01*
X78490133Y-151665893D01*
X78477520Y-151644849D01*
X78467030Y-151622671D01*
X78458765Y-151599571D01*
X78452804Y-151575773D01*
X78449204Y-151551504D01*
X78448000Y-151527000D01*
X78448000Y-148702000D01*
X78449204Y-148677496D01*
X78452804Y-148653227D01*
X78458765Y-148629429D01*
X78467030Y-148606329D01*
X78477520Y-148584151D01*
X78490133Y-148563107D01*
X78504747Y-148543402D01*
X78521223Y-148525223D01*
X78539402Y-148508747D01*
X78559107Y-148494133D01*
X78580151Y-148481520D01*
X78602329Y-148471030D01*
X78625429Y-148462765D01*
X78649227Y-148456804D01*
X78673496Y-148453204D01*
X78698000Y-148452000D01*
X79798000Y-148452000D01*
X79822504Y-148453204D01*
X79822504Y-148453204D01*
G37*
D25*
G04 #@! TD*
G04 #@! TO.P,C1,2*
G04 #@! TO.N,GND*
X79248000Y-150114500D03*
D10*
G04 #@! TO.N,Net-(C1-Pad1)*
G04 #@! TO.C,C1*
G36*
X79822504Y-153528204D02*
X79846773Y-153531804D01*
X79870571Y-153537765D01*
X79893671Y-153546030D01*
X79915849Y-153556520D01*
X79936893Y-153569133D01*
X79956598Y-153583747D01*
X79974777Y-153600223D01*
X79991253Y-153618402D01*
X80005867Y-153638107D01*
X80018480Y-153659151D01*
X80028970Y-153681329D01*
X80037235Y-153704429D01*
X80043196Y-153728227D01*
X80046796Y-153752496D01*
X80048000Y-153777000D01*
X80048000Y-156602000D01*
X80046796Y-156626504D01*
X80043196Y-156650773D01*
X80037235Y-156674571D01*
X80028970Y-156697671D01*
X80018480Y-156719849D01*
X80005867Y-156740893D01*
X79991253Y-156760598D01*
X79974777Y-156778777D01*
X79956598Y-156795253D01*
X79936893Y-156809867D01*
X79915849Y-156822480D01*
X79893671Y-156832970D01*
X79870571Y-156841235D01*
X79846773Y-156847196D01*
X79822504Y-156850796D01*
X79798000Y-156852000D01*
X78698000Y-156852000D01*
X78673496Y-156850796D01*
X78649227Y-156847196D01*
X78625429Y-156841235D01*
X78602329Y-156832970D01*
X78580151Y-156822480D01*
X78559107Y-156809867D01*
X78539402Y-156795253D01*
X78521223Y-156778777D01*
X78504747Y-156760598D01*
X78490133Y-156740893D01*
X78477520Y-156719849D01*
X78467030Y-156697671D01*
X78458765Y-156674571D01*
X78452804Y-156650773D01*
X78449204Y-156626504D01*
X78448000Y-156602000D01*
X78448000Y-153777000D01*
X78449204Y-153752496D01*
X78452804Y-153728227D01*
X78458765Y-153704429D01*
X78467030Y-153681329D01*
X78477520Y-153659151D01*
X78490133Y-153638107D01*
X78504747Y-153618402D01*
X78521223Y-153600223D01*
X78539402Y-153583747D01*
X78559107Y-153569133D01*
X78580151Y-153556520D01*
X78602329Y-153546030D01*
X78625429Y-153537765D01*
X78649227Y-153531804D01*
X78673496Y-153528204D01*
X78698000Y-153527000D01*
X79798000Y-153527000D01*
X79822504Y-153528204D01*
X79822504Y-153528204D01*
G37*
D25*
G04 #@! TD*
G04 #@! TO.P,C1,1*
G04 #@! TO.N,Net-(C1-Pad1)*
X79248000Y-155189500D03*
D10*
G04 #@! TO.N,GND*
G04 #@! TO.C,C5*
G36*
X70916004Y-127377204D02*
X70940273Y-127380804D01*
X70964071Y-127386765D01*
X70987171Y-127395030D01*
X71009349Y-127405520D01*
X71030393Y-127418133D01*
X71050098Y-127432747D01*
X71068277Y-127449223D01*
X71084753Y-127467402D01*
X71099367Y-127487107D01*
X71111980Y-127508151D01*
X71122470Y-127530329D01*
X71130735Y-127553429D01*
X71136696Y-127577227D01*
X71140296Y-127601496D01*
X71141500Y-127626000D01*
X71141500Y-129676000D01*
X71140296Y-129700504D01*
X71136696Y-129724773D01*
X71130735Y-129748571D01*
X71122470Y-129771671D01*
X71111980Y-129793849D01*
X71099367Y-129814893D01*
X71084753Y-129834598D01*
X71068277Y-129852777D01*
X71050098Y-129869253D01*
X71030393Y-129883867D01*
X71009349Y-129896480D01*
X70987171Y-129906970D01*
X70964071Y-129915235D01*
X70940273Y-129921196D01*
X70916004Y-129924796D01*
X70891500Y-129926000D01*
X69316500Y-129926000D01*
X69291996Y-129924796D01*
X69267727Y-129921196D01*
X69243929Y-129915235D01*
X69220829Y-129906970D01*
X69198651Y-129896480D01*
X69177607Y-129883867D01*
X69157902Y-129869253D01*
X69139723Y-129852777D01*
X69123247Y-129834598D01*
X69108633Y-129814893D01*
X69096020Y-129793849D01*
X69085530Y-129771671D01*
X69077265Y-129748571D01*
X69071304Y-129724773D01*
X69067704Y-129700504D01*
X69066500Y-129676000D01*
X69066500Y-127626000D01*
X69067704Y-127601496D01*
X69071304Y-127577227D01*
X69077265Y-127553429D01*
X69085530Y-127530329D01*
X69096020Y-127508151D01*
X69108633Y-127487107D01*
X69123247Y-127467402D01*
X69139723Y-127449223D01*
X69157902Y-127432747D01*
X69177607Y-127418133D01*
X69198651Y-127405520D01*
X69220829Y-127395030D01*
X69243929Y-127386765D01*
X69267727Y-127380804D01*
X69291996Y-127377204D01*
X69316500Y-127376000D01*
X70891500Y-127376000D01*
X70916004Y-127377204D01*
X70916004Y-127377204D01*
G37*
D26*
G04 #@! TD*
G04 #@! TO.P,C5,2*
G04 #@! TO.N,GND*
X70104000Y-128651000D03*
D10*
G04 #@! TO.N,+5V*
G04 #@! TO.C,C5*
G36*
X77141004Y-127377204D02*
X77165273Y-127380804D01*
X77189071Y-127386765D01*
X77212171Y-127395030D01*
X77234349Y-127405520D01*
X77255393Y-127418133D01*
X77275098Y-127432747D01*
X77293277Y-127449223D01*
X77309753Y-127467402D01*
X77324367Y-127487107D01*
X77336980Y-127508151D01*
X77347470Y-127530329D01*
X77355735Y-127553429D01*
X77361696Y-127577227D01*
X77365296Y-127601496D01*
X77366500Y-127626000D01*
X77366500Y-129676000D01*
X77365296Y-129700504D01*
X77361696Y-129724773D01*
X77355735Y-129748571D01*
X77347470Y-129771671D01*
X77336980Y-129793849D01*
X77324367Y-129814893D01*
X77309753Y-129834598D01*
X77293277Y-129852777D01*
X77275098Y-129869253D01*
X77255393Y-129883867D01*
X77234349Y-129896480D01*
X77212171Y-129906970D01*
X77189071Y-129915235D01*
X77165273Y-129921196D01*
X77141004Y-129924796D01*
X77116500Y-129926000D01*
X75541500Y-129926000D01*
X75516996Y-129924796D01*
X75492727Y-129921196D01*
X75468929Y-129915235D01*
X75445829Y-129906970D01*
X75423651Y-129896480D01*
X75402607Y-129883867D01*
X75382902Y-129869253D01*
X75364723Y-129852777D01*
X75348247Y-129834598D01*
X75333633Y-129814893D01*
X75321020Y-129793849D01*
X75310530Y-129771671D01*
X75302265Y-129748571D01*
X75296304Y-129724773D01*
X75292704Y-129700504D01*
X75291500Y-129676000D01*
X75291500Y-127626000D01*
X75292704Y-127601496D01*
X75296304Y-127577227D01*
X75302265Y-127553429D01*
X75310530Y-127530329D01*
X75321020Y-127508151D01*
X75333633Y-127487107D01*
X75348247Y-127467402D01*
X75364723Y-127449223D01*
X75382902Y-127432747D01*
X75402607Y-127418133D01*
X75423651Y-127405520D01*
X75445829Y-127395030D01*
X75468929Y-127386765D01*
X75492727Y-127380804D01*
X75516996Y-127377204D01*
X75541500Y-127376000D01*
X77116500Y-127376000D01*
X77141004Y-127377204D01*
X77141004Y-127377204D01*
G37*
D26*
G04 #@! TD*
G04 #@! TO.P,C5,1*
G04 #@! TO.N,+5V*
X76329000Y-128651000D03*
D27*
G04 #@! TO.P,Y1,2*
G04 #@! TO.N,Net-(C8-Pad2)*
X92710000Y-145469000D03*
G04 #@! TO.P,Y1,1*
G04 #@! TO.N,Net-(C7-Pad1)*
X92710000Y-140589000D03*
G04 #@! TD*
D28*
G04 #@! TO.P,D2,1*
G04 #@! TO.N,Net-(C1-Pad1)*
X85217000Y-153797000D03*
G04 #@! TO.P,D2,2*
G04 #@! TO.N,GND*
X85217000Y-159197000D03*
G04 #@! TD*
D20*
G04 #@! TO.P,D1,2*
G04 #@! TO.N,Net-(D1-Pad2)*
X77979000Y-159385000D03*
G04 #@! TO.P,D1,1*
G04 #@! TO.N,Net-(C1-Pad1)*
X81279000Y-159385000D03*
G04 #@! TD*
D10*
G04 #@! TO.N,+12V*
G04 #@! TO.C,R1*
G36*
X70172505Y-157965204D02*
X70196773Y-157968804D01*
X70220572Y-157974765D01*
X70243671Y-157983030D01*
X70265850Y-157993520D01*
X70286893Y-158006132D01*
X70306599Y-158020747D01*
X70324777Y-158037223D01*
X70341253Y-158055401D01*
X70355868Y-158075107D01*
X70368480Y-158096150D01*
X70378970Y-158118329D01*
X70387235Y-158141428D01*
X70393196Y-158165227D01*
X70396796Y-158189495D01*
X70398000Y-158213999D01*
X70398000Y-161064001D01*
X70396796Y-161088505D01*
X70393196Y-161112773D01*
X70387235Y-161136572D01*
X70378970Y-161159671D01*
X70368480Y-161181850D01*
X70355868Y-161202893D01*
X70341253Y-161222599D01*
X70324777Y-161240777D01*
X70306599Y-161257253D01*
X70286893Y-161271868D01*
X70265850Y-161284480D01*
X70243671Y-161294970D01*
X70220572Y-161303235D01*
X70196773Y-161309196D01*
X70172505Y-161312796D01*
X70148001Y-161314000D01*
X69297999Y-161314000D01*
X69273495Y-161312796D01*
X69249227Y-161309196D01*
X69225428Y-161303235D01*
X69202329Y-161294970D01*
X69180150Y-161284480D01*
X69159107Y-161271868D01*
X69139401Y-161257253D01*
X69121223Y-161240777D01*
X69104747Y-161222599D01*
X69090132Y-161202893D01*
X69077520Y-161181850D01*
X69067030Y-161159671D01*
X69058765Y-161136572D01*
X69052804Y-161112773D01*
X69049204Y-161088505D01*
X69048000Y-161064001D01*
X69048000Y-158213999D01*
X69049204Y-158189495D01*
X69052804Y-158165227D01*
X69058765Y-158141428D01*
X69067030Y-158118329D01*
X69077520Y-158096150D01*
X69090132Y-158075107D01*
X69104747Y-158055401D01*
X69121223Y-158037223D01*
X69139401Y-158020747D01*
X69159107Y-158006132D01*
X69180150Y-157993520D01*
X69202329Y-157983030D01*
X69225428Y-157974765D01*
X69249227Y-157968804D01*
X69273495Y-157965204D01*
X69297999Y-157964000D01*
X70148001Y-157964000D01*
X70172505Y-157965204D01*
X70172505Y-157965204D01*
G37*
D24*
G04 #@! TD*
G04 #@! TO.P,R1,2*
G04 #@! TO.N,+12V*
X69723000Y-159639000D03*
D10*
G04 #@! TO.N,Net-(D1-Pad2)*
G04 #@! TO.C,R1*
G36*
X75972505Y-157965204D02*
X75996773Y-157968804D01*
X76020572Y-157974765D01*
X76043671Y-157983030D01*
X76065850Y-157993520D01*
X76086893Y-158006132D01*
X76106599Y-158020747D01*
X76124777Y-158037223D01*
X76141253Y-158055401D01*
X76155868Y-158075107D01*
X76168480Y-158096150D01*
X76178970Y-158118329D01*
X76187235Y-158141428D01*
X76193196Y-158165227D01*
X76196796Y-158189495D01*
X76198000Y-158213999D01*
X76198000Y-161064001D01*
X76196796Y-161088505D01*
X76193196Y-161112773D01*
X76187235Y-161136572D01*
X76178970Y-161159671D01*
X76168480Y-161181850D01*
X76155868Y-161202893D01*
X76141253Y-161222599D01*
X76124777Y-161240777D01*
X76106599Y-161257253D01*
X76086893Y-161271868D01*
X76065850Y-161284480D01*
X76043671Y-161294970D01*
X76020572Y-161303235D01*
X75996773Y-161309196D01*
X75972505Y-161312796D01*
X75948001Y-161314000D01*
X75097999Y-161314000D01*
X75073495Y-161312796D01*
X75049227Y-161309196D01*
X75025428Y-161303235D01*
X75002329Y-161294970D01*
X74980150Y-161284480D01*
X74959107Y-161271868D01*
X74939401Y-161257253D01*
X74921223Y-161240777D01*
X74904747Y-161222599D01*
X74890132Y-161202893D01*
X74877520Y-161181850D01*
X74867030Y-161159671D01*
X74858765Y-161136572D01*
X74852804Y-161112773D01*
X74849204Y-161088505D01*
X74848000Y-161064001D01*
X74848000Y-158213999D01*
X74849204Y-158189495D01*
X74852804Y-158165227D01*
X74858765Y-158141428D01*
X74867030Y-158118329D01*
X74877520Y-158096150D01*
X74890132Y-158075107D01*
X74904747Y-158055401D01*
X74921223Y-158037223D01*
X74939401Y-158020747D01*
X74959107Y-158006132D01*
X74980150Y-157993520D01*
X75002329Y-157983030D01*
X75025428Y-157974765D01*
X75049227Y-157968804D01*
X75073495Y-157965204D01*
X75097999Y-157964000D01*
X75948001Y-157964000D01*
X75972505Y-157965204D01*
X75972505Y-157965204D01*
G37*
D24*
G04 #@! TD*
G04 #@! TO.P,R1,1*
G04 #@! TO.N,Net-(D1-Pad2)*
X75523000Y-159639000D03*
D29*
G04 #@! TO.P,U1,32*
G04 #@! TO.N,D2_IN1*
X99340000Y-137033000D03*
G04 #@! TO.P,U1,31*
G04 #@! TO.N,D1_TX*
X100140000Y-137033000D03*
G04 #@! TO.P,U1,30*
G04 #@! TO.N,D0_RX*
X100940000Y-137033000D03*
G04 #@! TO.P,U1,29*
G04 #@! TO.N,Reset*
X101740000Y-137033000D03*
G04 #@! TO.P,U1,28*
G04 #@! TO.N,A5_SCL*
X102540000Y-137033000D03*
G04 #@! TO.P,U1,27*
G04 #@! TO.N,A4_SDA*
X103340000Y-137033000D03*
G04 #@! TO.P,U1,26*
G04 #@! TO.N,A3_D17_Battery_Voltage*
X104140000Y-137033000D03*
G04 #@! TO.P,U1,25*
G04 #@! TO.N,A2_D16_Power_Sens*
X104940000Y-137033000D03*
D30*
G04 #@! TO.P,U1,24*
G04 #@! TO.N,A1_D15_IN4*
X106390000Y-138483000D03*
G04 #@! TO.P,U1,23*
G04 #@! TO.N,A0_D14_IN3*
X106390000Y-139283000D03*
G04 #@! TO.P,U1,22*
G04 #@! TO.N,A7*
X106390000Y-140083000D03*
G04 #@! TO.P,U1,21*
G04 #@! TO.N,GND*
X106390000Y-140883000D03*
G04 #@! TO.P,U1,20*
G04 #@! TO.N,AREF*
X106390000Y-141683000D03*
G04 #@! TO.P,U1,19*
G04 #@! TO.N,A6*
X106390000Y-142483000D03*
G04 #@! TO.P,U1,18*
G04 #@! TO.N,Net-(C10-Pad1)*
X106390000Y-143283000D03*
G04 #@! TO.P,U1,17*
G04 #@! TO.N,D13_SCK*
X106390000Y-144083000D03*
D29*
G04 #@! TO.P,U1,16*
G04 #@! TO.N,D12_MISO*
X104940000Y-145533000D03*
G04 #@! TO.P,U1,15*
G04 #@! TO.N,D11_MOSI*
X104140000Y-145533000D03*
G04 #@! TO.P,U1,14*
G04 #@! TO.N,D10_SS*
X103340000Y-145533000D03*
G04 #@! TO.P,U1,13*
G04 #@! TO.N,D9#_OUT2*
X102540000Y-145533000D03*
G04 #@! TO.P,U1,12*
G04 #@! TO.N,D8_OUT1*
X101740000Y-145533000D03*
G04 #@! TO.P,U1,11*
G04 #@! TO.N,D7_PJON_SWBB*
X100940000Y-145533000D03*
G04 #@! TO.P,U1,10*
G04 #@! TO.N,D6_DE_RS485*
X100140000Y-145533000D03*
G04 #@! TO.P,U1,9*
G04 #@! TO.N,D5_swTX_RS485*
X99340000Y-145533000D03*
D30*
G04 #@! TO.P,U1,8*
G04 #@! TO.N,Net-(C8-Pad2)*
X97890000Y-144083000D03*
G04 #@! TO.P,U1,7*
G04 #@! TO.N,Net-(C7-Pad1)*
X97890000Y-143283000D03*
G04 #@! TO.P,U1,6*
G04 #@! TO.N,+5V*
X97890000Y-142483000D03*
G04 #@! TO.P,U1,5*
G04 #@! TO.N,GND*
X97890000Y-141683000D03*
G04 #@! TO.P,U1,4*
G04 #@! TO.N,+5V*
X97890000Y-140883000D03*
G04 #@! TO.P,U1,3*
G04 #@! TO.N,GND*
X97890000Y-140083000D03*
G04 #@! TO.P,U1,2*
G04 #@! TO.N,D4_swRX_RS485*
X97890000Y-139283000D03*
G04 #@! TO.P,U1,1*
G04 #@! TO.N,D3_IN2*
X97890000Y-138483000D03*
G04 #@! TD*
D31*
G04 #@! TO.N,Net-(C1-Pad1)*
X80929500Y-155189500D03*
X83439000Y-154686000D03*
G04 #@! TO.N,GND*
X86995000Y-159893000D03*
X67319000Y-141868000D03*
G04 #@! TO.N,+5V*
X111767000Y-132574000D03*
X99346800Y-142196100D03*
G04 #@! TO.N,Reset*
X88247500Y-132534600D03*
G04 #@! TO.N,Net-(C14-Pad1)*
X110041900Y-150810100D03*
G04 #@! TO.N,Net-(C11-Pad1)*
X113746500Y-137891500D03*
G04 #@! TO.N,Net-(C12-Pad1)*
X113276500Y-140393300D03*
G04 #@! TO.N,Net-(C13-Pad1)*
X113204600Y-148768800D03*
G04 #@! TO.N,D2_IN1*
X99379500Y-135604100D03*
G04 #@! TO.N,A5_SCL*
X101205100Y-132262800D03*
G04 #@! TO.N,A0_D14_IN3*
X103973603Y-141123997D03*
G04 #@! TO.N,Net-(C10-Pad1)*
X101428900Y-148336800D03*
X104945300Y-143817000D03*
G04 #@! TO.N,D3_IN2*
X105827000Y-137473500D03*
X102706010Y-141168900D03*
G04 #@! TO.N,D7_PJON_SWBB*
X94904900Y-148625100D03*
G04 #@! TO.N,A2_D16_Power_Sens*
X99726640Y-138470960D03*
G04 #@! TO.N,D6_DE_RS485*
X91973700Y-147315600D03*
G04 #@! TO.N,D5_swTX_RS485*
X88961800Y-146590300D03*
G04 #@! TO.N,D4_swRX_RS485*
X91477793Y-137817597D03*
G04 #@! TD*
D32*
G04 #@! TO.N,+12V*
X73660000Y-148461000D02*
X72734700Y-148461000D01*
X68814500Y-149038500D02*
X72157200Y-149038500D01*
X72157200Y-149038500D02*
X72734700Y-148461000D01*
X69723000Y-159639000D02*
X69469000Y-159385000D01*
D33*
X69469000Y-159385000D02*
X69469000Y-152781000D01*
D32*
X116332000Y-131826000D02*
X117107300Y-131826000D01*
D33*
X72009000Y-161925000D02*
X109875700Y-161925000D01*
X69723000Y-159639000D02*
X72009000Y-161925000D01*
D32*
X117747200Y-132465900D02*
X117107300Y-131826000D01*
X117747200Y-138817200D02*
X117747200Y-132465900D01*
X121121000Y-141082400D02*
X120313600Y-140275000D01*
X119214300Y-150275000D02*
X120368800Y-150275000D01*
X120368800Y-150275000D02*
X121121000Y-149522800D01*
X117933400Y-151555900D02*
X119214300Y-150275000D01*
X119205000Y-140275000D02*
X117747200Y-138817200D01*
D34*
X110236000Y-161925000D02*
X112141000Y-160020000D01*
D33*
X109875700Y-161925000D02*
X110236000Y-161925000D01*
D32*
X117933400Y-152846200D02*
X117933400Y-151555900D01*
X121121000Y-149522800D02*
X121121000Y-141082400D01*
X112141000Y-160020000D02*
X112141000Y-158638600D01*
X120313600Y-140275000D02*
X119205000Y-140275000D01*
X112141000Y-158638600D02*
X117933400Y-152846200D01*
X102108000Y-130175000D02*
X102108000Y-133350000D01*
X100838000Y-128905000D02*
X102108000Y-130175000D01*
X119253000Y-129680300D02*
X119253000Y-127000000D01*
X118491000Y-126238000D02*
X101600000Y-126238000D01*
X119253000Y-127000000D02*
X118491000Y-126238000D01*
X101600000Y-126238000D02*
X100838000Y-127000000D01*
X117107300Y-131826000D02*
X119253000Y-129680300D01*
X100838000Y-127000000D02*
X100838000Y-128905000D01*
D33*
X67691000Y-151638000D02*
X67691000Y-149733000D01*
D32*
X69469000Y-152781000D02*
X68834000Y-152781000D01*
D33*
X68834000Y-152781000D02*
X67691000Y-151638000D01*
D32*
X68004500Y-149038500D02*
X68814500Y-149038500D01*
X67691000Y-149733000D02*
X67691000Y-149352000D01*
X67691000Y-149352000D02*
X68004500Y-149038500D01*
X70143300Y-146531000D02*
X73406000Y-143268300D01*
X73406000Y-143268300D02*
X73406000Y-142493000D01*
X68353000Y-146531000D02*
X70143300Y-146531000D01*
D33*
X67691000Y-149733000D02*
X67691000Y-148463000D01*
X67691000Y-148463000D02*
X67056000Y-147828000D01*
X67056000Y-147828000D02*
X67056000Y-147193000D01*
D32*
X67056000Y-147193000D02*
X67564000Y-146685000D01*
X67564000Y-146685000D02*
X68072000Y-146685000D01*
D33*
X67056000Y-147193000D02*
X67691000Y-146558000D01*
X67691000Y-146558000D02*
X68199000Y-146558000D01*
G04 #@! TO.N,Net-(C1-Pad1)*
X81279000Y-159385000D02*
X81279000Y-158459700D01*
X80929500Y-155189500D02*
X80929500Y-158110200D01*
X80929500Y-158110200D02*
X81279000Y-158459700D01*
X79248000Y-155189500D02*
X80929500Y-155189500D01*
D34*
X84328000Y-154686000D02*
X85217000Y-153797000D01*
X83439000Y-154686000D02*
X84328000Y-154686000D01*
G04 #@! TO.N,GND*
X99060000Y-141324500D02*
X99680800Y-141324500D01*
X99695000Y-141324500D02*
X100293400Y-141922900D01*
X99060000Y-141351000D02*
X98701500Y-141709500D01*
D32*
X98656800Y-141683000D02*
X97890000Y-141683000D01*
X99015300Y-140083000D02*
X99015300Y-141324500D01*
X97890000Y-140083000D02*
X99015300Y-140083000D01*
D34*
X106189700Y-140883000D02*
X107315000Y-140883000D01*
X107515300Y-141097800D02*
X111379000Y-144961500D01*
D33*
X77163500Y-150114500D02*
X70935800Y-150114500D01*
X70935800Y-150114500D02*
X70769300Y-150281000D01*
X79248000Y-150114500D02*
X77163500Y-150114500D01*
X77962000Y-144084000D02*
X79935000Y-144084000D01*
D32*
X79935000Y-144084000D02*
X80010000Y-144009000D01*
D33*
X69469000Y-150281000D02*
X70769300Y-150281000D01*
X80010000Y-144009000D02*
X82479700Y-141539300D01*
D34*
X82479700Y-141539300D02*
X82479700Y-139302000D01*
D33*
X77454000Y-138369000D02*
X78229300Y-138369000D01*
X79375000Y-138167000D02*
X78431300Y-138167000D01*
D32*
X78431300Y-138167000D02*
X78229300Y-138369000D01*
D33*
X105489100Y-130221800D02*
X106553000Y-131285700D01*
D32*
X106553000Y-131285700D02*
X106553000Y-131300000D01*
D33*
X103283300Y-128016000D02*
X105489100Y-130221800D01*
X102108000Y-128016000D02*
X103283300Y-128016000D01*
D32*
X69469000Y-140281000D02*
X69469000Y-140208000D01*
X69469000Y-140208000D02*
X71247000Y-138430000D01*
X71120000Y-129667000D02*
X70104000Y-128651000D01*
D33*
X77454000Y-138369000D02*
X76678700Y-138369000D01*
D32*
X76678700Y-138369000D02*
X76576300Y-138266600D01*
D33*
X70104000Y-139573000D02*
X71247000Y-138430000D01*
X71628000Y-130175000D02*
X71120000Y-129667000D01*
X71247000Y-138430000D02*
X71628000Y-138049000D01*
X71628000Y-138049000D02*
X71628000Y-130175000D01*
X71591600Y-137922000D02*
X71247000Y-138266600D01*
X76576300Y-138266600D02*
X76231700Y-137922000D01*
X76231700Y-137922000D02*
X71591600Y-137922000D01*
X81779000Y-138167000D02*
X79375000Y-138167000D01*
D34*
X82479700Y-139302000D02*
X82479700Y-138867700D01*
D33*
X82479700Y-138867700D02*
X81779000Y-138167000D01*
D32*
X82479700Y-139008300D02*
X82479700Y-139302000D01*
D34*
X82931000Y-138557000D02*
X82479700Y-139008300D01*
D33*
X84328000Y-138557000D02*
X82931000Y-138557000D01*
X86360000Y-148209000D02*
X86360000Y-140589000D01*
X86360000Y-140589000D02*
X84328000Y-138557000D01*
X86040000Y-160020000D02*
X85217000Y-159197000D01*
X85913000Y-159893000D02*
X85217000Y-159197000D01*
X86995000Y-159893000D02*
X85913000Y-159893000D01*
X67994000Y-140281000D02*
X67310000Y-140965000D01*
X69469000Y-140281000D02*
X67994000Y-140281000D01*
X67319000Y-140974000D02*
X67319000Y-141868000D01*
X67310000Y-140965000D02*
X67319000Y-140974000D01*
X77962000Y-144084000D02*
X78133465Y-144255465D01*
X76835000Y-149786000D02*
X77163500Y-150114500D01*
X76835000Y-145755000D02*
X76835000Y-149786000D01*
X77912000Y-144084000D02*
X77089000Y-144907000D01*
X77962000Y-144084000D02*
X77912000Y-144084000D01*
X77089000Y-144907000D02*
X77089000Y-145196998D01*
X76835000Y-145755000D02*
X77089000Y-145196998D01*
X94795200Y-140083000D02*
X93396200Y-138684000D01*
D32*
X92456000Y-134321300D02*
X92456000Y-133096000D01*
D33*
X97890000Y-140083000D02*
X94795200Y-140083000D01*
X90170000Y-136607300D02*
X92456000Y-134321300D01*
X90170000Y-138049000D02*
X90170000Y-136607300D01*
X93396200Y-138684000D02*
X90805000Y-138684000D01*
X90805000Y-138684000D02*
X90170000Y-138049000D01*
X104140000Y-142240000D02*
X104394000Y-141986000D01*
X100234500Y-141922900D02*
X100551600Y-142240000D01*
X100551600Y-142240000D02*
X104140000Y-142240000D01*
D32*
X105370000Y-140883000D02*
X106390000Y-140883000D01*
X104263900Y-141922900D02*
X104330100Y-141922900D01*
X104330100Y-141922900D02*
X105370000Y-140883000D01*
X107315000Y-140883000D02*
X107515300Y-141083300D01*
X107515300Y-141083300D02*
X107515300Y-141097800D01*
X107515300Y-141097800D02*
X107478650Y-141061150D01*
X108077000Y-126746000D02*
X105489100Y-129333900D01*
X116967000Y-126746000D02*
X108077000Y-126746000D01*
X105489100Y-129333900D02*
X105489100Y-130221800D01*
X117475000Y-128016000D02*
X117475000Y-127254000D01*
X117475000Y-127254000D02*
X116967000Y-126746000D01*
G04 #@! TO.N,+5V*
X99015300Y-142483000D02*
X99302200Y-142196100D01*
X99302200Y-142196100D02*
X99346800Y-142196100D01*
X88235000Y-139501700D02*
X88235000Y-148209000D01*
X76329000Y-128651000D02*
X87179700Y-139501700D01*
X87179700Y-139501700D02*
X88235000Y-139501700D01*
X88235000Y-139501700D02*
X93313400Y-139501700D01*
X93313400Y-139501700D02*
X94694700Y-140883000D01*
X94694700Y-140883000D02*
X96764700Y-140883000D01*
X96764700Y-140883000D02*
X96764700Y-142483000D01*
X97890000Y-142483000D02*
X96764700Y-142483000D01*
X97890000Y-140883000D02*
X96764700Y-140883000D01*
X111767000Y-132574000D02*
X110250000Y-132574000D01*
X110250000Y-132574000D02*
X110236000Y-132560000D01*
X113284000Y-132574000D02*
X111767000Y-132574000D01*
X97890000Y-142483000D02*
X99015300Y-142483000D01*
X97482000Y-150114000D02*
X90140000Y-150114000D01*
X90140000Y-150114000D02*
X88235000Y-148209000D01*
D33*
X110616500Y-159258000D02*
X105315300Y-159258000D01*
X105315300Y-159258000D02*
X104807300Y-159766000D01*
X103632000Y-159766000D02*
X104807300Y-159766000D01*
D32*
X115570000Y-134860000D02*
X113284000Y-132574000D01*
X115570000Y-154051000D02*
X115570000Y-134860000D01*
X110616500Y-159258000D02*
X110616500Y-159004500D01*
X110616500Y-159004500D02*
X115570000Y-154051000D01*
D33*
G04 #@! TO.N,Net-(D1-Pad2)*
X77979000Y-159385000D02*
X77203700Y-159385000D01*
X75523000Y-159639000D02*
X76949700Y-159639000D01*
X76949700Y-159639000D02*
X77203700Y-159385000D01*
D32*
G04 #@! TO.N,Reset*
X101740000Y-135907700D02*
X101740000Y-135531000D01*
X101740000Y-135531000D02*
X99568000Y-133359000D01*
X101740000Y-137033000D02*
X101740000Y-135907700D01*
X88247600Y-132534600D02*
X88247500Y-132534600D01*
X98295900Y-132086900D02*
X98295900Y-127604400D01*
X98295900Y-127604400D02*
X97072500Y-126381000D01*
X89773000Y-126381000D02*
X88247600Y-127906400D01*
X99568000Y-133359000D02*
X98295900Y-132086900D01*
X88247600Y-127906400D02*
X88247600Y-132534600D01*
X97072500Y-126381000D02*
X89773000Y-126381000D01*
G04 #@! TO.N,D1_TX*
X100140000Y-135907700D02*
X100140000Y-135293000D01*
X100140000Y-135293000D02*
X99708800Y-134861800D01*
X99708800Y-134861800D02*
X98811600Y-134861800D01*
X98811600Y-134861800D02*
X93309800Y-129360000D01*
X93309800Y-129360000D02*
X93309800Y-127457500D01*
X93309800Y-127457500D02*
X93926600Y-126840700D01*
X93926600Y-126840700D02*
X95044800Y-126840700D01*
X95044800Y-126840700D02*
X95852700Y-127648600D01*
X95852700Y-127648600D02*
X95852700Y-128016000D01*
X97028000Y-128016000D02*
X95852700Y-128016000D01*
X100140000Y-137033000D02*
X100140000Y-135907700D01*
G04 #@! TO.N,D0_RX*
X100940000Y-135907700D02*
X100940000Y-135456100D01*
X100940000Y-135456100D02*
X99803600Y-134319700D01*
X99803600Y-134319700D02*
X98917600Y-134319700D01*
X98917600Y-134319700D02*
X94488000Y-129890100D01*
X94488000Y-129890100D02*
X94488000Y-128016000D01*
X100940000Y-137033000D02*
X100940000Y-135907700D01*
G04 #@! TO.N,D13_SCK*
X106390000Y-144083000D02*
X106390000Y-156629800D01*
X106390000Y-156629800D02*
X104618400Y-158401400D01*
X104618400Y-158401400D02*
X103279000Y-158401400D01*
X103279000Y-158401400D02*
X102362000Y-159318400D01*
X102362000Y-159318400D02*
X102362000Y-160239400D01*
X102362000Y-160239400D02*
X101620100Y-160981300D01*
X101620100Y-160981300D02*
X100628200Y-160981300D01*
X100628200Y-160981300D02*
X99898800Y-160251900D01*
X99898800Y-160251900D02*
X99898800Y-158419200D01*
X99898800Y-158419200D02*
X101092000Y-157226000D01*
G04 #@! TO.N,D11_MOSI*
X101092000Y-159766000D02*
X101092000Y-158590700D01*
X104140000Y-145533000D02*
X104140000Y-152622100D01*
X104140000Y-152622100D02*
X102267300Y-154494800D01*
X102267300Y-154494800D02*
X102267300Y-157782800D01*
X102267300Y-157782800D02*
X101459400Y-158590700D01*
X101459400Y-158590700D02*
X101092000Y-158590700D01*
G04 #@! TO.N,Net-(C14-Pad1)*
X111505500Y-150749000D02*
X112767000Y-150749000D01*
X112767000Y-150749000D02*
X114545000Y-148971000D01*
X110041900Y-150810100D02*
X111444400Y-150810100D01*
X111444400Y-150810100D02*
X111505500Y-150749000D01*
G04 #@! TO.N,Net-(C8-Pad2)*
X97890000Y-144083000D02*
X96764700Y-144083000D01*
X96764700Y-144083000D02*
X95378700Y-145469000D01*
X95378700Y-145469000D02*
X92710000Y-145469000D01*
G04 #@! TO.N,Net-(C7-Pad1)*
X97890000Y-143283000D02*
X96764700Y-143283000D01*
X96764700Y-143283000D02*
X95404000Y-143283000D01*
X95404000Y-143283000D02*
X92710000Y-140589000D01*
G04 #@! TO.N,Net-(C11-Pad1)*
X114554000Y-139065000D02*
X114554000Y-138699000D01*
X114554000Y-138699000D02*
X113746500Y-137891500D01*
G04 #@! TO.N,Net-(C12-Pad1)*
X113276500Y-141390200D02*
X111975300Y-141390200D01*
X111975300Y-141390200D02*
X111379000Y-141986500D01*
X114554000Y-142367000D02*
X113577200Y-141390200D01*
X113577200Y-141390200D02*
X113276500Y-141390200D01*
X113276500Y-141390200D02*
X113276500Y-140393300D01*
X112013500Y-139319000D02*
X113087800Y-140393300D01*
X113087800Y-140393300D02*
X113276500Y-140393300D01*
G04 #@! TO.N,Net-(C13-Pad1)*
X114554000Y-145669000D02*
X113204700Y-147018300D01*
X113204700Y-147018300D02*
X113204700Y-148768800D01*
X113204700Y-148768800D02*
X113204600Y-148768800D01*
G04 #@! TO.N,D2_IN1*
X99340000Y-137033000D02*
X99340000Y-135907700D01*
X99340000Y-135907700D02*
X99379500Y-135868200D01*
X99379500Y-135868200D02*
X99379500Y-135604100D01*
G04 #@! TO.N,A5_SCL*
X102540000Y-137033000D02*
X102540000Y-135418900D01*
X102540000Y-135418900D02*
X101205100Y-134084000D01*
X101205100Y-134084000D02*
X101205100Y-132262800D01*
X114935000Y-128016000D02*
X114935000Y-129191300D01*
X114935000Y-129191300D02*
X114916700Y-129191300D01*
X114916700Y-129191300D02*
X113284000Y-130824000D01*
G04 #@! TO.N,A4_SDA*
X112395000Y-129191300D02*
X111854700Y-129191300D01*
X111854700Y-129191300D02*
X110236000Y-130810000D01*
X103340000Y-137033000D02*
X103340000Y-135907700D01*
X103340000Y-135907700D02*
X103256600Y-135824300D01*
X103256600Y-135824300D02*
X103256600Y-132583900D01*
X103256600Y-132583900D02*
X103577200Y-132263300D01*
X103577200Y-132263300D02*
X108782700Y-132263300D01*
X108782700Y-132263300D02*
X110236000Y-130810000D01*
X112395000Y-128016000D02*
X112395000Y-129191300D01*
G04 #@! TO.N,A1_D15_IN4*
X112903000Y-146376500D02*
X108530500Y-150749000D01*
X107515300Y-138483000D02*
X107515300Y-140024000D01*
X106390000Y-138483000D02*
X107515300Y-138483000D01*
X112024400Y-143393400D02*
X112903000Y-144272000D01*
X107515300Y-140024000D02*
X110884700Y-143393400D01*
X110884700Y-143393400D02*
X112024400Y-143393400D01*
X112903000Y-144272000D02*
X112903000Y-146376500D01*
G04 #@! TO.N,A0_D14_IN3*
X103973603Y-140649397D02*
X103973603Y-141123997D01*
X105340000Y-139283000D02*
X103973603Y-140649397D01*
X106390000Y-139283000D02*
X105340000Y-139283000D01*
G04 #@! TO.N,Net-(C10-Pad1)*
X101428900Y-148336800D02*
X101428900Y-149142100D01*
X101428900Y-149142100D02*
X100457000Y-150114000D01*
X106390000Y-143283000D02*
X105264700Y-143283000D01*
X105264700Y-143283000D02*
X105264700Y-143497600D01*
X105264700Y-143497600D02*
X104945300Y-143817000D01*
G04 #@! TO.N,D9#_OUT2*
X102540000Y-145533000D02*
X102540000Y-150413500D01*
X102540000Y-150413500D02*
X100678400Y-152275100D01*
X100678400Y-152275100D02*
X88236800Y-152275100D01*
X88236800Y-152275100D02*
X83438700Y-147477000D01*
X83438700Y-147477000D02*
X83438700Y-140099300D01*
X83438700Y-140099300D02*
X83584000Y-139954000D01*
G04 #@! TO.N,D8_OUT1*
X101740000Y-145533000D02*
X101740000Y-146658300D01*
X101740000Y-146658300D02*
X100241800Y-148156500D01*
X100241800Y-148156500D02*
X99996300Y-148156500D01*
X99996300Y-148156500D02*
X98969500Y-149183300D01*
X98969500Y-149183300D02*
X98969500Y-150998900D01*
X98969500Y-150998900D02*
X98194300Y-151774100D01*
X98194300Y-151774100D02*
X88377500Y-151774100D01*
X88377500Y-151774100D02*
X84346000Y-147742600D01*
X84346000Y-147742600D02*
X84346000Y-146177000D01*
G04 #@! TO.N,D3_IN2*
X109038500Y-139319000D02*
X107193000Y-137473500D01*
X107193000Y-137473500D02*
X105827000Y-137473500D01*
X98665678Y-138483000D02*
X101351578Y-141168900D01*
X101351578Y-141168900D02*
X102140325Y-141168900D01*
X102140325Y-141168900D02*
X102706010Y-141168900D01*
X97890000Y-138483000D02*
X98665678Y-138483000D01*
G04 #@! TO.N,Net-(F1-Pad1)*
X117475000Y-156337000D02*
X119761000Y-154051000D01*
X119761000Y-154051000D02*
X119761000Y-151525000D01*
G04 #@! TO.N,Net-(J2-Pad5)*
X119761000Y-146525000D02*
X117460000Y-146525000D01*
X117460000Y-146525000D02*
X116604000Y-145669000D01*
G04 #@! TO.N,A3_D17_Battery_Voltage*
X104158000Y-133350000D02*
X104140000Y-133368000D01*
X104140000Y-133368000D02*
X104140000Y-135907700D01*
X104140000Y-137033000D02*
X104140000Y-135907700D01*
X106553000Y-133350000D02*
X104158000Y-133350000D01*
G04 #@! TO.N,D7_PJON_SWBB*
X94904900Y-148625100D02*
X95823900Y-147706100D01*
X95823900Y-147706100D02*
X99892200Y-147706100D01*
X99892200Y-147706100D02*
X100940000Y-146658300D01*
X100940000Y-145533000D02*
X100940000Y-146658300D01*
G04 #@! TO.N,Net-(Q2-Pad1)*
X79375000Y-140217000D02*
X81271000Y-140217000D01*
X81271000Y-140217000D02*
X81534000Y-139954000D01*
X77454000Y-140269000D02*
X79323000Y-140269000D01*
X79323000Y-140269000D02*
X79375000Y-140217000D01*
G04 #@! TO.N,Net-(J2-Pad6)*
X119761000Y-149025000D02*
X116649000Y-149025000D01*
X116649000Y-149025000D02*
X116595000Y-148971000D01*
G04 #@! TO.N,Net-(Q1-Pad1)*
X80010000Y-146059000D02*
X82178000Y-146059000D01*
X82178000Y-146059000D02*
X82296000Y-146177000D01*
X78737300Y-145984000D02*
X78812300Y-146059000D01*
X78812300Y-146059000D02*
X80010000Y-146059000D01*
X77962000Y-145984000D02*
X78737300Y-145984000D01*
G04 #@! TO.N,A2_D16_Power_Sens*
X104940000Y-137033000D02*
X104940000Y-138083000D01*
X100292325Y-138470960D02*
X99726640Y-138470960D01*
X104940000Y-138083000D02*
X104552040Y-138470960D01*
X104552040Y-138470960D02*
X100292325Y-138470960D01*
G04 #@! TO.N,Net-(J2-Pad3)*
X119761000Y-141525000D02*
X118460700Y-141525000D01*
X118460700Y-141525000D02*
X118460700Y-140921700D01*
X118460700Y-140921700D02*
X116604000Y-139065000D01*
G04 #@! TO.N,Net-(J2-Pad4)*
X119761000Y-144025000D02*
X118262000Y-144025000D01*
X118262000Y-144025000D02*
X116604000Y-142367000D01*
G04 #@! TO.N,Net-(D14-Pad2)*
X73406000Y-139193000D02*
X74331300Y-139193000D01*
X75454000Y-139319000D02*
X74457300Y-139319000D01*
X74457300Y-139319000D02*
X74331300Y-139193000D01*
X69476000Y-145281000D02*
X72009000Y-142748000D01*
X73406000Y-139968300D02*
X73406000Y-139193000D01*
X72009000Y-142748000D02*
X72009000Y-141859000D01*
X72517000Y-140857300D02*
X73406000Y-139968300D01*
X69469000Y-145281000D02*
X69476000Y-145281000D01*
X72009000Y-141859000D02*
X72517000Y-141351000D01*
X72517000Y-141351000D02*
X72517000Y-140857300D01*
G04 #@! TO.N,Net-(D13-Pad2)*
X74122700Y-145161000D02*
X71502700Y-147781000D01*
X71502700Y-147781000D02*
X69469000Y-147781000D01*
X74122700Y-145161000D02*
X74585300Y-145161000D01*
X73660000Y-145161000D02*
X74122700Y-145161000D01*
X75962000Y-145034000D02*
X74712300Y-145034000D01*
X74712300Y-145034000D02*
X74585300Y-145161000D01*
G04 #@! TO.N,D12_MISO*
X103632000Y-157226000D02*
X103632000Y-156050700D01*
X104940000Y-145533000D02*
X104940000Y-154742700D01*
X104940000Y-154742700D02*
X103632000Y-156050700D01*
G04 #@! TO.N,D6_DE_RS485*
X100140000Y-145533000D02*
X100140000Y-146658300D01*
X100140000Y-146658300D02*
X99542500Y-147255800D01*
X99542500Y-147255800D02*
X92033500Y-147255800D01*
X92033500Y-147255800D02*
X91973700Y-147315600D01*
G04 #@! TO.N,D5_swTX_RS485*
X99340000Y-146658300D02*
X92342200Y-146658300D01*
X92342200Y-146658300D02*
X92274200Y-146590300D01*
X92274200Y-146590300D02*
X88961800Y-146590300D01*
X99340000Y-145533000D02*
X99340000Y-146658300D01*
G04 #@! TO.N,D4_swRX_RS485*
X97890000Y-139283000D02*
X95289000Y-139283000D01*
X93823597Y-137817597D02*
X92043478Y-137817597D01*
X92043478Y-137817597D02*
X91477793Y-137817597D01*
X95289000Y-139283000D02*
X93823597Y-137817597D01*
D34*
G04 #@! TO.N,Net-(D12-Pad1)*
X117475000Y-160837000D02*
X115896000Y-159258000D01*
X115896000Y-159258000D02*
X113591500Y-159258000D01*
D32*
X115316000Y-159258000D02*
X113011500Y-159258000D01*
G04 #@! TO.N,Net-(D11-Pad1)*
X119632000Y-131826000D02*
X119632000Y-132751300D01*
X119632000Y-132751300D02*
X119761000Y-132880300D01*
X119761000Y-132880300D02*
X119761000Y-136525000D01*
G04 #@! TO.N,Net-(C16-Pad2)*
X99568000Y-128016000D02*
X99568000Y-131309000D01*
G04 #@! TD*
M02*
