M48
;DRILL file {KiCad 5.0.2-bee76a0~70~ubuntu18.04.1} date Сб 04 янв 2020 16:29:36
;FORMAT={-:-/ absolute / metric / decimal}
FMAT,2
METRIC,TZ
T1C0.400
T2C0.800
T3C0.900
T4C0.950
T5C1.000
%
G90
G05
T1
X67.319Y-141.868
X80.929Y-155.189
X83.439Y-154.686
X86.995Y-159.893
X88.248Y-132.535
X88.962Y-146.59
X91.478Y-137.818
X91.974Y-147.316
X94.905Y-148.625
X99.347Y-142.196
X99.379Y-135.604
X99.727Y-138.471
X101.205Y-132.263
X101.429Y-148.337
X102.706Y-141.169
X103.974Y-141.124
X104.945Y-143.817
X105.827Y-137.474
X110.042Y-150.81
X111.767Y-132.574
X113.205Y-148.769
X113.276Y-140.393
X113.746Y-137.892
T2
X92.71Y-140.589
X92.71Y-145.469
T3
X92.456Y-133.096
X94.996Y-133.096
T4
X69.469Y-135.281
X69.469Y-137.781
X69.469Y-140.281
X69.469Y-142.781
X69.469Y-145.281
X69.469Y-147.781
X69.469Y-150.281
X69.469Y-152.781
X119.761Y-136.525
X119.761Y-139.025
X119.761Y-141.525
X119.761Y-144.025
X119.761Y-146.525
X119.761Y-149.025
X119.761Y-151.525
T5
X109.855Y-128.016
X112.395Y-128.016
X114.935Y-128.016
X117.475Y-128.016
X91.948Y-128.016
X94.488Y-128.016
X97.028Y-128.016
X99.568Y-128.016
X102.108Y-128.016
X98.552Y-157.226
X98.552Y-159.766
X101.092Y-157.226
X101.092Y-159.766
X103.632Y-157.226
X103.632Y-159.766
T0
M30
