G04 #@! TF.GenerationSoftware,KiCad,Pcbnew,5.0.2-bee76a0~70~ubuntu18.04.1*
G04 #@! TF.CreationDate,2020-01-04T15:46:48+02:00*
G04 #@! TF.ProjectId,swbb_node,73776262-5f6e-46f6-9465-2e6b69636164,rev?*
G04 #@! TF.SameCoordinates,Original*
G04 #@! TF.FileFunction,Soldermask,Top*
G04 #@! TF.FilePolarity,Negative*
%FSLAX46Y46*%
G04 Gerber Fmt 4.6, Leading zero omitted, Abs format (unit mm)*
G04 Created by KiCad (PCBNEW 5.0.2-bee76a0~70~ubuntu18.04.1) date Сб 04 янв 2020 15:46:48*
%MOMM*%
%LPD*%
G01*
G04 APERTURE LIST*
%ADD10C,0.100000*%
G04 APERTURE END LIST*
D10*
G36*
X118697797Y-160115247D02*
X118733367Y-160126037D01*
X118766139Y-160143554D01*
X118794869Y-160167131D01*
X118818446Y-160195861D01*
X118835963Y-160228633D01*
X118846753Y-160264203D01*
X118851000Y-160307324D01*
X118851000Y-161366676D01*
X118846753Y-161409797D01*
X118835963Y-161445367D01*
X118818446Y-161478139D01*
X118794869Y-161506869D01*
X118766139Y-161530446D01*
X118733367Y-161547963D01*
X118697797Y-161558753D01*
X118654676Y-161563000D01*
X116295324Y-161563000D01*
X116252203Y-161558753D01*
X116216633Y-161547963D01*
X116183861Y-161530446D01*
X116155131Y-161506869D01*
X116131554Y-161478139D01*
X116114037Y-161445367D01*
X116103247Y-161409797D01*
X116099000Y-161366676D01*
X116099000Y-160307324D01*
X116103247Y-160264203D01*
X116114037Y-160228633D01*
X116131554Y-160195861D01*
X116155131Y-160167131D01*
X116183861Y-160143554D01*
X116216633Y-160126037D01*
X116252203Y-160115247D01*
X116295324Y-160111000D01*
X118654676Y-160111000D01*
X118697797Y-160115247D01*
X118697797Y-160115247D01*
G37*
G36*
X76095797Y-157917247D02*
X76131367Y-157928037D01*
X76164139Y-157945554D01*
X76192869Y-157969131D01*
X76216446Y-157997861D01*
X76233963Y-158030633D01*
X76244753Y-158066203D01*
X76249000Y-158109324D01*
X76249000Y-161168676D01*
X76244753Y-161211797D01*
X76233963Y-161247367D01*
X76216446Y-161280139D01*
X76192869Y-161308869D01*
X76164139Y-161332446D01*
X76131367Y-161349963D01*
X76095797Y-161360753D01*
X76052676Y-161365000D01*
X74993324Y-161365000D01*
X74950203Y-161360753D01*
X74914633Y-161349963D01*
X74881861Y-161332446D01*
X74853131Y-161308869D01*
X74829554Y-161280139D01*
X74812037Y-161247367D01*
X74801247Y-161211797D01*
X74797000Y-161168676D01*
X74797000Y-158109324D01*
X74801247Y-158066203D01*
X74812037Y-158030633D01*
X74829554Y-157997861D01*
X74853131Y-157969131D01*
X74881861Y-157945554D01*
X74914633Y-157928037D01*
X74950203Y-157917247D01*
X74993324Y-157913000D01*
X76052676Y-157913000D01*
X76095797Y-157917247D01*
X76095797Y-157917247D01*
G37*
G36*
X70295797Y-157917247D02*
X70331367Y-157928037D01*
X70364139Y-157945554D01*
X70392869Y-157969131D01*
X70416446Y-157997861D01*
X70433963Y-158030633D01*
X70444753Y-158066203D01*
X70449000Y-158109324D01*
X70449000Y-161168676D01*
X70444753Y-161211797D01*
X70433963Y-161247367D01*
X70416446Y-161280139D01*
X70392869Y-161308869D01*
X70364139Y-161332446D01*
X70331367Y-161349963D01*
X70295797Y-161360753D01*
X70252676Y-161365000D01*
X69193324Y-161365000D01*
X69150203Y-161360753D01*
X69114633Y-161349963D01*
X69081861Y-161332446D01*
X69053131Y-161308869D01*
X69029554Y-161280139D01*
X69012037Y-161247367D01*
X69001247Y-161211797D01*
X68997000Y-161168676D01*
X68997000Y-158109324D01*
X69001247Y-158066203D01*
X69012037Y-158030633D01*
X69029554Y-157997861D01*
X69053131Y-157969131D01*
X69081861Y-157945554D01*
X69114633Y-157928037D01*
X69150203Y-157917247D01*
X69193324Y-157913000D01*
X70252676Y-157913000D01*
X70295797Y-157917247D01*
X70295797Y-157917247D01*
G37*
G36*
X86418000Y-160998000D02*
X84016000Y-160998000D01*
X84016000Y-157396000D01*
X86418000Y-157396000D01*
X86418000Y-160998000D01*
X86418000Y-160998000D01*
G37*
G36*
X98662443Y-158871519D02*
X98728627Y-158878037D01*
X98841853Y-158912384D01*
X98898467Y-158929557D01*
X99037087Y-159003652D01*
X99054991Y-159013222D01*
X99090729Y-159042552D01*
X99192186Y-159125814D01*
X99275448Y-159227271D01*
X99304778Y-159263009D01*
X99304779Y-159263011D01*
X99388443Y-159419533D01*
X99388443Y-159419534D01*
X99439963Y-159589373D01*
X99457359Y-159766000D01*
X99439963Y-159942627D01*
X99412378Y-160033562D01*
X99388443Y-160112467D01*
X99352959Y-160178852D01*
X99304778Y-160268991D01*
X99298214Y-160276989D01*
X99192186Y-160406186D01*
X99090729Y-160489448D01*
X99054991Y-160518778D01*
X99054989Y-160518779D01*
X98898467Y-160602443D01*
X98841853Y-160619616D01*
X98728627Y-160653963D01*
X98662442Y-160660482D01*
X98596260Y-160667000D01*
X98507740Y-160667000D01*
X98441558Y-160660482D01*
X98375373Y-160653963D01*
X98262147Y-160619616D01*
X98205533Y-160602443D01*
X98049011Y-160518779D01*
X98049009Y-160518778D01*
X98013271Y-160489448D01*
X97911814Y-160406186D01*
X97805786Y-160276989D01*
X97799222Y-160268991D01*
X97751041Y-160178852D01*
X97715557Y-160112467D01*
X97691622Y-160033562D01*
X97664037Y-159942627D01*
X97646641Y-159766000D01*
X97664037Y-159589373D01*
X97715557Y-159419534D01*
X97715557Y-159419533D01*
X97799221Y-159263011D01*
X97799222Y-159263009D01*
X97828552Y-159227271D01*
X97911814Y-159125814D01*
X98013271Y-159042552D01*
X98049009Y-159013222D01*
X98066913Y-159003652D01*
X98205533Y-158929557D01*
X98262147Y-158912384D01*
X98375373Y-158878037D01*
X98441557Y-158871519D01*
X98507740Y-158865000D01*
X98596260Y-158865000D01*
X98662443Y-158871519D01*
X98662443Y-158871519D01*
G37*
G36*
X103742443Y-158871519D02*
X103808627Y-158878037D01*
X103921853Y-158912384D01*
X103978467Y-158929557D01*
X104117087Y-159003652D01*
X104134991Y-159013222D01*
X104170729Y-159042552D01*
X104272186Y-159125814D01*
X104355448Y-159227271D01*
X104384778Y-159263009D01*
X104384779Y-159263011D01*
X104468443Y-159419533D01*
X104468443Y-159419534D01*
X104519963Y-159589373D01*
X104537359Y-159766000D01*
X104519963Y-159942627D01*
X104492378Y-160033562D01*
X104468443Y-160112467D01*
X104432959Y-160178852D01*
X104384778Y-160268991D01*
X104378214Y-160276989D01*
X104272186Y-160406186D01*
X104170729Y-160489448D01*
X104134991Y-160518778D01*
X104134989Y-160518779D01*
X103978467Y-160602443D01*
X103921853Y-160619616D01*
X103808627Y-160653963D01*
X103742442Y-160660482D01*
X103676260Y-160667000D01*
X103587740Y-160667000D01*
X103521558Y-160660482D01*
X103455373Y-160653963D01*
X103342147Y-160619616D01*
X103285533Y-160602443D01*
X103129011Y-160518779D01*
X103129009Y-160518778D01*
X103093271Y-160489448D01*
X102991814Y-160406186D01*
X102885786Y-160276989D01*
X102879222Y-160268991D01*
X102831041Y-160178852D01*
X102795557Y-160112467D01*
X102771622Y-160033562D01*
X102744037Y-159942627D01*
X102726641Y-159766000D01*
X102744037Y-159589373D01*
X102795557Y-159419534D01*
X102795557Y-159419533D01*
X102879221Y-159263011D01*
X102879222Y-159263009D01*
X102908552Y-159227271D01*
X102991814Y-159125814D01*
X103093271Y-159042552D01*
X103129009Y-159013222D01*
X103146913Y-159003652D01*
X103285533Y-158929557D01*
X103342147Y-158912384D01*
X103455373Y-158878037D01*
X103521557Y-158871519D01*
X103587740Y-158865000D01*
X103676260Y-158865000D01*
X103742443Y-158871519D01*
X103742443Y-158871519D01*
G37*
G36*
X101202443Y-158871519D02*
X101268627Y-158878037D01*
X101381853Y-158912384D01*
X101438467Y-158929557D01*
X101577087Y-159003652D01*
X101594991Y-159013222D01*
X101630729Y-159042552D01*
X101732186Y-159125814D01*
X101815448Y-159227271D01*
X101844778Y-159263009D01*
X101844779Y-159263011D01*
X101928443Y-159419533D01*
X101928443Y-159419534D01*
X101979963Y-159589373D01*
X101997359Y-159766000D01*
X101979963Y-159942627D01*
X101952378Y-160033562D01*
X101928443Y-160112467D01*
X101892959Y-160178852D01*
X101844778Y-160268991D01*
X101838214Y-160276989D01*
X101732186Y-160406186D01*
X101630729Y-160489448D01*
X101594991Y-160518778D01*
X101594989Y-160518779D01*
X101438467Y-160602443D01*
X101381853Y-160619616D01*
X101268627Y-160653963D01*
X101202442Y-160660482D01*
X101136260Y-160667000D01*
X101047740Y-160667000D01*
X100981558Y-160660482D01*
X100915373Y-160653963D01*
X100802147Y-160619616D01*
X100745533Y-160602443D01*
X100589011Y-160518779D01*
X100589009Y-160518778D01*
X100553271Y-160489448D01*
X100451814Y-160406186D01*
X100345786Y-160276989D01*
X100339222Y-160268991D01*
X100291041Y-160178852D01*
X100255557Y-160112467D01*
X100231622Y-160033562D01*
X100204037Y-159942627D01*
X100186641Y-159766000D01*
X100204037Y-159589373D01*
X100255557Y-159419534D01*
X100255557Y-159419533D01*
X100339221Y-159263011D01*
X100339222Y-159263009D01*
X100368552Y-159227271D01*
X100451814Y-159125814D01*
X100553271Y-159042552D01*
X100589009Y-159013222D01*
X100606913Y-159003652D01*
X100745533Y-158929557D01*
X100802147Y-158912384D01*
X100915373Y-158878037D01*
X100981557Y-158871519D01*
X101047740Y-158865000D01*
X101136260Y-158865000D01*
X101202443Y-158871519D01*
X101202443Y-158871519D01*
G37*
G36*
X114204562Y-158336181D02*
X114239477Y-158346773D01*
X114271665Y-158363978D01*
X114299873Y-158387127D01*
X114323022Y-158415335D01*
X114340227Y-158447523D01*
X114350819Y-158482438D01*
X114355000Y-158524895D01*
X114355000Y-159991105D01*
X114350819Y-160033562D01*
X114340227Y-160068477D01*
X114323022Y-160100665D01*
X114299873Y-160128873D01*
X114271665Y-160152022D01*
X114239477Y-160169227D01*
X114204562Y-160179819D01*
X114162105Y-160184000D01*
X113020895Y-160184000D01*
X112978438Y-160179819D01*
X112943523Y-160169227D01*
X112911335Y-160152022D01*
X112883127Y-160128873D01*
X112859978Y-160100665D01*
X112842773Y-160068477D01*
X112832181Y-160033562D01*
X112828000Y-159991105D01*
X112828000Y-158524895D01*
X112832181Y-158482438D01*
X112842773Y-158447523D01*
X112859978Y-158415335D01*
X112883127Y-158387127D01*
X112911335Y-158363978D01*
X112943523Y-158346773D01*
X112978438Y-158336181D01*
X113020895Y-158332000D01*
X114162105Y-158332000D01*
X114204562Y-158336181D01*
X114204562Y-158336181D01*
G37*
G36*
X111229562Y-158336181D02*
X111264477Y-158346773D01*
X111296665Y-158363978D01*
X111324873Y-158387127D01*
X111348022Y-158415335D01*
X111365227Y-158447523D01*
X111375819Y-158482438D01*
X111380000Y-158524895D01*
X111380000Y-159991105D01*
X111375819Y-160033562D01*
X111365227Y-160068477D01*
X111348022Y-160100665D01*
X111324873Y-160128873D01*
X111296665Y-160152022D01*
X111264477Y-160169227D01*
X111229562Y-160179819D01*
X111187105Y-160184000D01*
X110045895Y-160184000D01*
X110003438Y-160179819D01*
X109968523Y-160169227D01*
X109936335Y-160152022D01*
X109908127Y-160128873D01*
X109884978Y-160100665D01*
X109867773Y-160068477D01*
X109857181Y-160033562D01*
X109853000Y-159991105D01*
X109853000Y-158524895D01*
X109857181Y-158482438D01*
X109867773Y-158447523D01*
X109884978Y-158415335D01*
X109908127Y-158387127D01*
X109936335Y-158363978D01*
X109968523Y-158346773D01*
X110003438Y-158336181D01*
X110045895Y-158332000D01*
X111187105Y-158332000D01*
X111229562Y-158336181D01*
X111229562Y-158336181D01*
G37*
G36*
X78480000Y-160036000D02*
X77478000Y-160036000D01*
X77478000Y-158734000D01*
X78480000Y-158734000D01*
X78480000Y-160036000D01*
X78480000Y-160036000D01*
G37*
G36*
X81780000Y-160036000D02*
X80778000Y-160036000D01*
X80778000Y-158734000D01*
X81780000Y-158734000D01*
X81780000Y-160036000D01*
X81780000Y-160036000D01*
G37*
G36*
X104533000Y-158127000D02*
X102731000Y-158127000D01*
X102731000Y-156325000D01*
X104533000Y-156325000D01*
X104533000Y-158127000D01*
X104533000Y-158127000D01*
G37*
G36*
X98662443Y-156331519D02*
X98728627Y-156338037D01*
X98841853Y-156372384D01*
X98898467Y-156389557D01*
X99037087Y-156463652D01*
X99054991Y-156473222D01*
X99090729Y-156502552D01*
X99192186Y-156585814D01*
X99275448Y-156687271D01*
X99304778Y-156723009D01*
X99304779Y-156723011D01*
X99388443Y-156879533D01*
X99395561Y-156903000D01*
X99439963Y-157049373D01*
X99457359Y-157226000D01*
X99439963Y-157402627D01*
X99405616Y-157515853D01*
X99388443Y-157572467D01*
X99314348Y-157711087D01*
X99304778Y-157728991D01*
X99275448Y-157764729D01*
X99192186Y-157866186D01*
X99116819Y-157928037D01*
X99054991Y-157978778D01*
X99054989Y-157978779D01*
X98898467Y-158062443D01*
X98843921Y-158078989D01*
X98728627Y-158113963D01*
X98662442Y-158120482D01*
X98596260Y-158127000D01*
X98507740Y-158127000D01*
X98441558Y-158120482D01*
X98375373Y-158113963D01*
X98260079Y-158078989D01*
X98205533Y-158062443D01*
X98049011Y-157978779D01*
X98049009Y-157978778D01*
X97987181Y-157928037D01*
X97911814Y-157866186D01*
X97828552Y-157764729D01*
X97799222Y-157728991D01*
X97789652Y-157711087D01*
X97715557Y-157572467D01*
X97698384Y-157515853D01*
X97664037Y-157402627D01*
X97646641Y-157226000D01*
X97664037Y-157049373D01*
X97708439Y-156903000D01*
X97715557Y-156879533D01*
X97799221Y-156723011D01*
X97799222Y-156723009D01*
X97828552Y-156687271D01*
X97911814Y-156585814D01*
X98013271Y-156502552D01*
X98049009Y-156473222D01*
X98066913Y-156463652D01*
X98205533Y-156389557D01*
X98262147Y-156372384D01*
X98375373Y-156338037D01*
X98441557Y-156331519D01*
X98507740Y-156325000D01*
X98596260Y-156325000D01*
X98662443Y-156331519D01*
X98662443Y-156331519D01*
G37*
G36*
X101202443Y-156331519D02*
X101268627Y-156338037D01*
X101381853Y-156372384D01*
X101438467Y-156389557D01*
X101577087Y-156463652D01*
X101594991Y-156473222D01*
X101630729Y-156502552D01*
X101732186Y-156585814D01*
X101815448Y-156687271D01*
X101844778Y-156723009D01*
X101844779Y-156723011D01*
X101928443Y-156879533D01*
X101935561Y-156903000D01*
X101979963Y-157049373D01*
X101997359Y-157226000D01*
X101979963Y-157402627D01*
X101945616Y-157515853D01*
X101928443Y-157572467D01*
X101854348Y-157711087D01*
X101844778Y-157728991D01*
X101815448Y-157764729D01*
X101732186Y-157866186D01*
X101656819Y-157928037D01*
X101594991Y-157978778D01*
X101594989Y-157978779D01*
X101438467Y-158062443D01*
X101383921Y-158078989D01*
X101268627Y-158113963D01*
X101202442Y-158120482D01*
X101136260Y-158127000D01*
X101047740Y-158127000D01*
X100981558Y-158120482D01*
X100915373Y-158113963D01*
X100800079Y-158078989D01*
X100745533Y-158062443D01*
X100589011Y-157978779D01*
X100589009Y-157978778D01*
X100527181Y-157928037D01*
X100451814Y-157866186D01*
X100368552Y-157764729D01*
X100339222Y-157728991D01*
X100329652Y-157711087D01*
X100255557Y-157572467D01*
X100238384Y-157515853D01*
X100204037Y-157402627D01*
X100186641Y-157226000D01*
X100204037Y-157049373D01*
X100248439Y-156903000D01*
X100255557Y-156879533D01*
X100339221Y-156723011D01*
X100339222Y-156723009D01*
X100368552Y-156687271D01*
X100451814Y-156585814D01*
X100553271Y-156502552D01*
X100589009Y-156473222D01*
X100606913Y-156463652D01*
X100745533Y-156389557D01*
X100802147Y-156372384D01*
X100915373Y-156338037D01*
X100981557Y-156331519D01*
X101047740Y-156325000D01*
X101136260Y-156325000D01*
X101202443Y-156331519D01*
X101202443Y-156331519D01*
G37*
G36*
X118697797Y-155615247D02*
X118733367Y-155626037D01*
X118766139Y-155643554D01*
X118794869Y-155667131D01*
X118818446Y-155695861D01*
X118835963Y-155728633D01*
X118846753Y-155764203D01*
X118851000Y-155807324D01*
X118851000Y-156866676D01*
X118846753Y-156909797D01*
X118835963Y-156945367D01*
X118818446Y-156978139D01*
X118794869Y-157006869D01*
X118766139Y-157030446D01*
X118733367Y-157047963D01*
X118697797Y-157058753D01*
X118654676Y-157063000D01*
X116295324Y-157063000D01*
X116252203Y-157058753D01*
X116216633Y-157047963D01*
X116183861Y-157030446D01*
X116155131Y-157006869D01*
X116131554Y-156978139D01*
X116114037Y-156945367D01*
X116103247Y-156909797D01*
X116099000Y-156866676D01*
X116099000Y-155807324D01*
X116103247Y-155764203D01*
X116114037Y-155728633D01*
X116131554Y-155695861D01*
X116155131Y-155667131D01*
X116183861Y-155643554D01*
X116216633Y-155626037D01*
X116252203Y-155615247D01*
X116295324Y-155611000D01*
X118654676Y-155611000D01*
X118697797Y-155615247D01*
X118697797Y-155615247D01*
G37*
G36*
X79953996Y-153480051D02*
X79987653Y-153490261D01*
X80018667Y-153506838D01*
X80045852Y-153529148D01*
X80068162Y-153556333D01*
X80084739Y-153587347D01*
X80094949Y-153621004D01*
X80099000Y-153662138D01*
X80099000Y-156716862D01*
X80094949Y-156757996D01*
X80084739Y-156791653D01*
X80068162Y-156822667D01*
X80045852Y-156849852D01*
X80018667Y-156872162D01*
X79987653Y-156888739D01*
X79953996Y-156898949D01*
X79912862Y-156903000D01*
X78583138Y-156903000D01*
X78542004Y-156898949D01*
X78508347Y-156888739D01*
X78477333Y-156872162D01*
X78450148Y-156849852D01*
X78427838Y-156822667D01*
X78411261Y-156791653D01*
X78401051Y-156757996D01*
X78397000Y-156716862D01*
X78397000Y-153662138D01*
X78401051Y-153621004D01*
X78411261Y-153587347D01*
X78427838Y-153556333D01*
X78450148Y-153529148D01*
X78477333Y-153506838D01*
X78508347Y-153490261D01*
X78542004Y-153480051D01*
X78583138Y-153476000D01*
X79912862Y-153476000D01*
X79953996Y-153480051D01*
X79953996Y-153480051D01*
G37*
G36*
X86418000Y-155598000D02*
X84016000Y-155598000D01*
X84016000Y-151996000D01*
X86418000Y-151996000D01*
X86418000Y-155598000D01*
X86418000Y-155598000D01*
G37*
G36*
X70352600Y-151883989D02*
X70385649Y-151894014D01*
X70416106Y-151910294D01*
X70442799Y-151932201D01*
X70464706Y-151958894D01*
X70480986Y-151989351D01*
X70491011Y-152022400D01*
X70495000Y-152062904D01*
X70495000Y-153499096D01*
X70491011Y-153539600D01*
X70480986Y-153572649D01*
X70464706Y-153603106D01*
X70442799Y-153629799D01*
X70416106Y-153651706D01*
X70385649Y-153667986D01*
X70352600Y-153678011D01*
X70312096Y-153682000D01*
X68625904Y-153682000D01*
X68585400Y-153678011D01*
X68552351Y-153667986D01*
X68521894Y-153651706D01*
X68495201Y-153629799D01*
X68473294Y-153603106D01*
X68457014Y-153572649D01*
X68446989Y-153539600D01*
X68443000Y-153499096D01*
X68443000Y-152062904D01*
X68446989Y-152022400D01*
X68457014Y-151989351D01*
X68473294Y-151958894D01*
X68495201Y-151932201D01*
X68521894Y-151910294D01*
X68552351Y-151894014D01*
X68585400Y-151883989D01*
X68625904Y-151880000D01*
X70312096Y-151880000D01*
X70352600Y-151883989D01*
X70352600Y-151883989D01*
G37*
G36*
X119996443Y-150630519D02*
X120062627Y-150637037D01*
X120175853Y-150671384D01*
X120232467Y-150688557D01*
X120371087Y-150762652D01*
X120388991Y-150772222D01*
X120403329Y-150783989D01*
X120526186Y-150884814D01*
X120609448Y-150986271D01*
X120638778Y-151022009D01*
X120638779Y-151022011D01*
X120722443Y-151178533D01*
X120735660Y-151222105D01*
X120773963Y-151348373D01*
X120791359Y-151525000D01*
X120773963Y-151701627D01*
X120722443Y-151871467D01*
X120659432Y-151989351D01*
X120638778Y-152027991D01*
X120625977Y-152043589D01*
X120526186Y-152165186D01*
X120424729Y-152248448D01*
X120388991Y-152277778D01*
X120388989Y-152277779D01*
X120232467Y-152361443D01*
X120175853Y-152378616D01*
X120062627Y-152412963D01*
X119996442Y-152419482D01*
X119930260Y-152426000D01*
X119591740Y-152426000D01*
X119525558Y-152419482D01*
X119459373Y-152412963D01*
X119346147Y-152378616D01*
X119289533Y-152361443D01*
X119133011Y-152277779D01*
X119133009Y-152277778D01*
X119097271Y-152248448D01*
X118995814Y-152165186D01*
X118896023Y-152043589D01*
X118883222Y-152027991D01*
X118862568Y-151989351D01*
X118799557Y-151871467D01*
X118748037Y-151701627D01*
X118730641Y-151525000D01*
X118748037Y-151348373D01*
X118786340Y-151222105D01*
X118799557Y-151178533D01*
X118883221Y-151022011D01*
X118883222Y-151022009D01*
X118912552Y-150986271D01*
X118995814Y-150884814D01*
X119118671Y-150783989D01*
X119133009Y-150772222D01*
X119150913Y-150762652D01*
X119289533Y-150688557D01*
X119346147Y-150671384D01*
X119459373Y-150637037D01*
X119525557Y-150630519D01*
X119591740Y-150624000D01*
X119930260Y-150624000D01*
X119996443Y-150630519D01*
X119996443Y-150630519D01*
G37*
G36*
X79953996Y-148405051D02*
X79987653Y-148415261D01*
X80018667Y-148431838D01*
X80045852Y-148454148D01*
X80068162Y-148481333D01*
X80084739Y-148512347D01*
X80094949Y-148546004D01*
X80099000Y-148587138D01*
X80099000Y-151641862D01*
X80094949Y-151682996D01*
X80084739Y-151716653D01*
X80068162Y-151747667D01*
X80045852Y-151774852D01*
X80018667Y-151797162D01*
X79987653Y-151813739D01*
X79953996Y-151823949D01*
X79912862Y-151828000D01*
X78583138Y-151828000D01*
X78542004Y-151823949D01*
X78508347Y-151813739D01*
X78477333Y-151797162D01*
X78450148Y-151774852D01*
X78427838Y-151747667D01*
X78411261Y-151716653D01*
X78401051Y-151682996D01*
X78397000Y-151641862D01*
X78397000Y-148587138D01*
X78401051Y-148546004D01*
X78411261Y-148512347D01*
X78427838Y-148481333D01*
X78450148Y-148454148D01*
X78477333Y-148431838D01*
X78508347Y-148415261D01*
X78542004Y-148405051D01*
X78583138Y-148401000D01*
X79912862Y-148401000D01*
X79953996Y-148405051D01*
X79953996Y-148405051D01*
G37*
G36*
X109143562Y-149827181D02*
X109178477Y-149837773D01*
X109210665Y-149854978D01*
X109238873Y-149878127D01*
X109262022Y-149906335D01*
X109279227Y-149938523D01*
X109289819Y-149973438D01*
X109294000Y-150015895D01*
X109294000Y-151482105D01*
X109289819Y-151524562D01*
X109279227Y-151559477D01*
X109262022Y-151591665D01*
X109238873Y-151619873D01*
X109210665Y-151643022D01*
X109178477Y-151660227D01*
X109143562Y-151670819D01*
X109101105Y-151675000D01*
X107959895Y-151675000D01*
X107917438Y-151670819D01*
X107882523Y-151660227D01*
X107850335Y-151643022D01*
X107822127Y-151619873D01*
X107798978Y-151591665D01*
X107781773Y-151559477D01*
X107771181Y-151524562D01*
X107767000Y-151482105D01*
X107767000Y-150015895D01*
X107771181Y-149973438D01*
X107781773Y-149938523D01*
X107798978Y-149906335D01*
X107822127Y-149878127D01*
X107850335Y-149854978D01*
X107882523Y-149837773D01*
X107917438Y-149827181D01*
X107959895Y-149823000D01*
X109101105Y-149823000D01*
X109143562Y-149827181D01*
X109143562Y-149827181D01*
G37*
G36*
X112118562Y-149827181D02*
X112153477Y-149837773D01*
X112185665Y-149854978D01*
X112213873Y-149878127D01*
X112237022Y-149906335D01*
X112254227Y-149938523D01*
X112264819Y-149973438D01*
X112269000Y-150015895D01*
X112269000Y-151482105D01*
X112264819Y-151524562D01*
X112254227Y-151559477D01*
X112237022Y-151591665D01*
X112213873Y-151619873D01*
X112185665Y-151643022D01*
X112153477Y-151660227D01*
X112118562Y-151670819D01*
X112076105Y-151675000D01*
X110934895Y-151675000D01*
X110892438Y-151670819D01*
X110857523Y-151660227D01*
X110825335Y-151643022D01*
X110797127Y-151619873D01*
X110773978Y-151591665D01*
X110756773Y-151559477D01*
X110746181Y-151524562D01*
X110742000Y-151482105D01*
X110742000Y-150015895D01*
X110746181Y-149973438D01*
X110756773Y-149938523D01*
X110773978Y-149906335D01*
X110797127Y-149878127D01*
X110825335Y-149854978D01*
X110857523Y-149837773D01*
X110892438Y-149827181D01*
X110934895Y-149823000D01*
X112076105Y-149823000D01*
X112118562Y-149827181D01*
X112118562Y-149827181D01*
G37*
G36*
X101070062Y-148742181D02*
X101104977Y-148752773D01*
X101137165Y-148769978D01*
X101165373Y-148793127D01*
X101188522Y-148821335D01*
X101205727Y-148853523D01*
X101216319Y-148888438D01*
X101220500Y-148930895D01*
X101220500Y-151297105D01*
X101216319Y-151339562D01*
X101205727Y-151374477D01*
X101188522Y-151406665D01*
X101165373Y-151434873D01*
X101137165Y-151458022D01*
X101104977Y-151475227D01*
X101070062Y-151485819D01*
X101027605Y-151490000D01*
X99886395Y-151490000D01*
X99843938Y-151485819D01*
X99809023Y-151475227D01*
X99776835Y-151458022D01*
X99748627Y-151434873D01*
X99725478Y-151406665D01*
X99708273Y-151374477D01*
X99697681Y-151339562D01*
X99693500Y-151297105D01*
X99693500Y-148930895D01*
X99697681Y-148888438D01*
X99708273Y-148853523D01*
X99725478Y-148821335D01*
X99748627Y-148793127D01*
X99776835Y-148769978D01*
X99809023Y-148752773D01*
X99843938Y-148742181D01*
X99886395Y-148738000D01*
X101027605Y-148738000D01*
X101070062Y-148742181D01*
X101070062Y-148742181D01*
G37*
G36*
X98095062Y-148742181D02*
X98129977Y-148752773D01*
X98162165Y-148769978D01*
X98190373Y-148793127D01*
X98213522Y-148821335D01*
X98230727Y-148853523D01*
X98241319Y-148888438D01*
X98245500Y-148930895D01*
X98245500Y-151297105D01*
X98241319Y-151339562D01*
X98230727Y-151374477D01*
X98213522Y-151406665D01*
X98190373Y-151434873D01*
X98162165Y-151458022D01*
X98129977Y-151475227D01*
X98095062Y-151485819D01*
X98052605Y-151490000D01*
X96911395Y-151490000D01*
X96868938Y-151485819D01*
X96834023Y-151475227D01*
X96801835Y-151458022D01*
X96773627Y-151434873D01*
X96750478Y-151406665D01*
X96733273Y-151374477D01*
X96722681Y-151339562D01*
X96718500Y-151297105D01*
X96718500Y-148930895D01*
X96722681Y-148888438D01*
X96733273Y-148853523D01*
X96750478Y-148821335D01*
X96773627Y-148793127D01*
X96801835Y-148769978D01*
X96834023Y-148752773D01*
X96868938Y-148742181D01*
X96911395Y-148738000D01*
X98052605Y-148738000D01*
X98095062Y-148742181D01*
X98095062Y-148742181D01*
G37*
G36*
X69704443Y-149386519D02*
X69770627Y-149393037D01*
X69883853Y-149427384D01*
X69940467Y-149444557D01*
X70049664Y-149502925D01*
X70096991Y-149528222D01*
X70128381Y-149553983D01*
X70234186Y-149640814D01*
X70317448Y-149742271D01*
X70346778Y-149778009D01*
X70346779Y-149778011D01*
X70430443Y-149934533D01*
X70442244Y-149973438D01*
X70481963Y-150104373D01*
X70499359Y-150281000D01*
X70481963Y-150457627D01*
X70447616Y-150570853D01*
X70430443Y-150627467D01*
X70397789Y-150688557D01*
X70346778Y-150783991D01*
X70317448Y-150819729D01*
X70234186Y-150921186D01*
X70132729Y-151004448D01*
X70096991Y-151033778D01*
X70096989Y-151033779D01*
X69940467Y-151117443D01*
X69883853Y-151134616D01*
X69770627Y-151168963D01*
X69704442Y-151175482D01*
X69638260Y-151182000D01*
X69299740Y-151182000D01*
X69233558Y-151175482D01*
X69167373Y-151168963D01*
X69054147Y-151134616D01*
X68997533Y-151117443D01*
X68841011Y-151033779D01*
X68841009Y-151033778D01*
X68805271Y-151004448D01*
X68703814Y-150921186D01*
X68620552Y-150819729D01*
X68591222Y-150783991D01*
X68540211Y-150688557D01*
X68507557Y-150627467D01*
X68490384Y-150570853D01*
X68456037Y-150457627D01*
X68438641Y-150281000D01*
X68456037Y-150104373D01*
X68495756Y-149973438D01*
X68507557Y-149934533D01*
X68591221Y-149778011D01*
X68591222Y-149778009D01*
X68620552Y-149742271D01*
X68703814Y-149640814D01*
X68809619Y-149553983D01*
X68841009Y-149528222D01*
X68888336Y-149502925D01*
X68997533Y-149444557D01*
X69054147Y-149427384D01*
X69167373Y-149393037D01*
X69233557Y-149386519D01*
X69299740Y-149380000D01*
X69638260Y-149380000D01*
X69704443Y-149386519D01*
X69704443Y-149386519D01*
G37*
G36*
X119996443Y-148130519D02*
X120062627Y-148137037D01*
X120175853Y-148171384D01*
X120232467Y-148188557D01*
X120299645Y-148224465D01*
X120388991Y-148272222D01*
X120403329Y-148283989D01*
X120526186Y-148384814D01*
X120583086Y-148454148D01*
X120638778Y-148522009D01*
X120638779Y-148522011D01*
X120722443Y-148678533D01*
X120726149Y-148690750D01*
X120773963Y-148848373D01*
X120791359Y-149025000D01*
X120773963Y-149201627D01*
X120739616Y-149314853D01*
X120722443Y-149371467D01*
X120710913Y-149393037D01*
X120638778Y-149527991D01*
X120638589Y-149528221D01*
X120526186Y-149665186D01*
X120424729Y-149748448D01*
X120388991Y-149777778D01*
X120388989Y-149777779D01*
X120232467Y-149861443D01*
X120210363Y-149868148D01*
X120062627Y-149912963D01*
X119996443Y-149919481D01*
X119930260Y-149926000D01*
X119591740Y-149926000D01*
X119525557Y-149919481D01*
X119459373Y-149912963D01*
X119311637Y-149868148D01*
X119289533Y-149861443D01*
X119133011Y-149777779D01*
X119133009Y-149777778D01*
X119097271Y-149748448D01*
X118995814Y-149665186D01*
X118883411Y-149528221D01*
X118883222Y-149527991D01*
X118811087Y-149393037D01*
X118799557Y-149371467D01*
X118782384Y-149314853D01*
X118748037Y-149201627D01*
X118730641Y-149025000D01*
X118748037Y-148848373D01*
X118795851Y-148690750D01*
X118799557Y-148678533D01*
X118883221Y-148522011D01*
X118883222Y-148522009D01*
X118938914Y-148454148D01*
X118995814Y-148384814D01*
X119118671Y-148283989D01*
X119133009Y-148272222D01*
X119222355Y-148224465D01*
X119289533Y-148188557D01*
X119346147Y-148171384D01*
X119459373Y-148137037D01*
X119525557Y-148130519D01*
X119591740Y-148124000D01*
X119930260Y-148124000D01*
X119996443Y-148130519D01*
X119996443Y-148130519D01*
G37*
G36*
X117058677Y-148224465D02*
X117096364Y-148235898D01*
X117131103Y-148254466D01*
X117161548Y-148279452D01*
X117186534Y-148309897D01*
X117205102Y-148344636D01*
X117216535Y-148382323D01*
X117221000Y-148427661D01*
X117221000Y-149514339D01*
X117216535Y-149559677D01*
X117205102Y-149597364D01*
X117186534Y-149632103D01*
X117161548Y-149662548D01*
X117131103Y-149687534D01*
X117096364Y-149706102D01*
X117058677Y-149717535D01*
X117013339Y-149722000D01*
X116176661Y-149722000D01*
X116131323Y-149717535D01*
X116093636Y-149706102D01*
X116058897Y-149687534D01*
X116028452Y-149662548D01*
X116003466Y-149632103D01*
X115984898Y-149597364D01*
X115973465Y-149559677D01*
X115969000Y-149514339D01*
X115969000Y-148427661D01*
X115973465Y-148382323D01*
X115984898Y-148344636D01*
X116003466Y-148309897D01*
X116028452Y-148279452D01*
X116058897Y-148254466D01*
X116093636Y-148235898D01*
X116131323Y-148224465D01*
X116176661Y-148220000D01*
X117013339Y-148220000D01*
X117058677Y-148224465D01*
X117058677Y-148224465D01*
G37*
G36*
X115008677Y-148224465D02*
X115046364Y-148235898D01*
X115081103Y-148254466D01*
X115111548Y-148279452D01*
X115136534Y-148309897D01*
X115155102Y-148344636D01*
X115166535Y-148382323D01*
X115171000Y-148427661D01*
X115171000Y-149514339D01*
X115166535Y-149559677D01*
X115155102Y-149597364D01*
X115136534Y-149632103D01*
X115111548Y-149662548D01*
X115081103Y-149687534D01*
X115046364Y-149706102D01*
X115008677Y-149717535D01*
X114963339Y-149722000D01*
X114126661Y-149722000D01*
X114081323Y-149717535D01*
X114043636Y-149706102D01*
X114008897Y-149687534D01*
X113978452Y-149662548D01*
X113953466Y-149632103D01*
X113934898Y-149597364D01*
X113923465Y-149559677D01*
X113919000Y-149514339D01*
X113919000Y-148427661D01*
X113923465Y-148382323D01*
X113934898Y-148344636D01*
X113953466Y-148309897D01*
X113978452Y-148279452D01*
X114008897Y-148254466D01*
X114043636Y-148235898D01*
X114081323Y-148224465D01*
X114126661Y-148220000D01*
X114963339Y-148220000D01*
X115008677Y-148224465D01*
X115008677Y-148224465D01*
G37*
G36*
X74311000Y-148962000D02*
X73009000Y-148962000D01*
X73009000Y-147960000D01*
X74311000Y-147960000D01*
X74311000Y-148962000D01*
X74311000Y-148962000D01*
G37*
G36*
X86731966Y-147462565D02*
X86770637Y-147474296D01*
X86806279Y-147493348D01*
X86837517Y-147518983D01*
X86863152Y-147550221D01*
X86882204Y-147585863D01*
X86893935Y-147624534D01*
X86898500Y-147670888D01*
X86898500Y-148747112D01*
X86893935Y-148793466D01*
X86882204Y-148832137D01*
X86863152Y-148867779D01*
X86837517Y-148899017D01*
X86806279Y-148924652D01*
X86770637Y-148943704D01*
X86731966Y-148955435D01*
X86685612Y-148960000D01*
X86034388Y-148960000D01*
X85988034Y-148955435D01*
X85949363Y-148943704D01*
X85913721Y-148924652D01*
X85882483Y-148899017D01*
X85856848Y-148867779D01*
X85837796Y-148832137D01*
X85826065Y-148793466D01*
X85821500Y-148747112D01*
X85821500Y-147670888D01*
X85826065Y-147624534D01*
X85837796Y-147585863D01*
X85856848Y-147550221D01*
X85882483Y-147518983D01*
X85913721Y-147493348D01*
X85949363Y-147474296D01*
X85988034Y-147462565D01*
X86034388Y-147458000D01*
X86685612Y-147458000D01*
X86731966Y-147462565D01*
X86731966Y-147462565D01*
G37*
G36*
X88606966Y-147462565D02*
X88645637Y-147474296D01*
X88681279Y-147493348D01*
X88712517Y-147518983D01*
X88738152Y-147550221D01*
X88757204Y-147585863D01*
X88768935Y-147624534D01*
X88773500Y-147670888D01*
X88773500Y-148747112D01*
X88768935Y-148793466D01*
X88757204Y-148832137D01*
X88738152Y-148867779D01*
X88712517Y-148899017D01*
X88681279Y-148924652D01*
X88645637Y-148943704D01*
X88606966Y-148955435D01*
X88560612Y-148960000D01*
X87909388Y-148960000D01*
X87863034Y-148955435D01*
X87824363Y-148943704D01*
X87788721Y-148924652D01*
X87757483Y-148899017D01*
X87731848Y-148867779D01*
X87712796Y-148832137D01*
X87701065Y-148793466D01*
X87696500Y-148747112D01*
X87696500Y-147670888D01*
X87701065Y-147624534D01*
X87712796Y-147585863D01*
X87731848Y-147550221D01*
X87757483Y-147518983D01*
X87788721Y-147493348D01*
X87824363Y-147474296D01*
X87863034Y-147462565D01*
X87909388Y-147458000D01*
X88560612Y-147458000D01*
X88606966Y-147462565D01*
X88606966Y-147462565D01*
G37*
G36*
X69704443Y-146886519D02*
X69770627Y-146893037D01*
X69883853Y-146927384D01*
X69940467Y-146944557D01*
X70079087Y-147018652D01*
X70096991Y-147028222D01*
X70132729Y-147057552D01*
X70234186Y-147140814D01*
X70317448Y-147242271D01*
X70346778Y-147278009D01*
X70346779Y-147278011D01*
X70430443Y-147434533D01*
X70430443Y-147434534D01*
X70481963Y-147604373D01*
X70499359Y-147781000D01*
X70481963Y-147957627D01*
X70481243Y-147960000D01*
X70430443Y-148127467D01*
X70369908Y-148240718D01*
X70346778Y-148283991D01*
X70333871Y-148299718D01*
X70234186Y-148421186D01*
X70132729Y-148504448D01*
X70096991Y-148533778D01*
X70096989Y-148533779D01*
X69940467Y-148617443D01*
X69883853Y-148634616D01*
X69770627Y-148668963D01*
X69704443Y-148675481D01*
X69638260Y-148682000D01*
X69299740Y-148682000D01*
X69233557Y-148675481D01*
X69167373Y-148668963D01*
X69054147Y-148634616D01*
X68997533Y-148617443D01*
X68841011Y-148533779D01*
X68841009Y-148533778D01*
X68805271Y-148504448D01*
X68703814Y-148421186D01*
X68604129Y-148299718D01*
X68591222Y-148283991D01*
X68568092Y-148240718D01*
X68507557Y-148127467D01*
X68456757Y-147960000D01*
X68456037Y-147957627D01*
X68438641Y-147781000D01*
X68456037Y-147604373D01*
X68507557Y-147434534D01*
X68507557Y-147434533D01*
X68591221Y-147278011D01*
X68591222Y-147278009D01*
X68620552Y-147242271D01*
X68703814Y-147140814D01*
X68805271Y-147057552D01*
X68841009Y-147028222D01*
X68858913Y-147018652D01*
X68997533Y-146944557D01*
X69054147Y-146927384D01*
X69167373Y-146893037D01*
X69233557Y-146886519D01*
X69299740Y-146880000D01*
X69638260Y-146880000D01*
X69704443Y-146886519D01*
X69704443Y-146886519D01*
G37*
G36*
X119996442Y-145630518D02*
X120062627Y-145637037D01*
X120144919Y-145662000D01*
X120232467Y-145688557D01*
X120300646Y-145725000D01*
X120388991Y-145772222D01*
X120403329Y-145783989D01*
X120526186Y-145884814D01*
X120603980Y-145979608D01*
X120638778Y-146022009D01*
X120638779Y-146022011D01*
X120722443Y-146178533D01*
X120729235Y-146200925D01*
X120773963Y-146348373D01*
X120791359Y-146525000D01*
X120773963Y-146701627D01*
X120743101Y-146803364D01*
X120722443Y-146871467D01*
X120692225Y-146928000D01*
X120638778Y-147027991D01*
X120638589Y-147028221D01*
X120526186Y-147165186D01*
X120424729Y-147248448D01*
X120388991Y-147277778D01*
X120388989Y-147277779D01*
X120232467Y-147361443D01*
X120175853Y-147378616D01*
X120062627Y-147412963D01*
X119996443Y-147419481D01*
X119930260Y-147426000D01*
X119591740Y-147426000D01*
X119525557Y-147419481D01*
X119459373Y-147412963D01*
X119346147Y-147378616D01*
X119289533Y-147361443D01*
X119133011Y-147277779D01*
X119133009Y-147277778D01*
X119097271Y-147248448D01*
X118995814Y-147165186D01*
X118883411Y-147028221D01*
X118883222Y-147027991D01*
X118829775Y-146928000D01*
X118799557Y-146871467D01*
X118778899Y-146803364D01*
X118748037Y-146701627D01*
X118730641Y-146525000D01*
X118748037Y-146348373D01*
X118792765Y-146200925D01*
X118799557Y-146178533D01*
X118883221Y-146022011D01*
X118883222Y-146022009D01*
X118918020Y-145979608D01*
X118995814Y-145884814D01*
X119118671Y-145783989D01*
X119133009Y-145772222D01*
X119221354Y-145725000D01*
X119289533Y-145688557D01*
X119377081Y-145662000D01*
X119459373Y-145637037D01*
X119525558Y-145630518D01*
X119591740Y-145624000D01*
X119930260Y-145624000D01*
X119996442Y-145630518D01*
X119996442Y-145630518D01*
G37*
G36*
X82759677Y-145430465D02*
X82797364Y-145441898D01*
X82832103Y-145460466D01*
X82862548Y-145485452D01*
X82887534Y-145515897D01*
X82906102Y-145550636D01*
X82917535Y-145588323D01*
X82922000Y-145633661D01*
X82922000Y-146720339D01*
X82917535Y-146765677D01*
X82906102Y-146803364D01*
X82887534Y-146838103D01*
X82862548Y-146868548D01*
X82832103Y-146893534D01*
X82797364Y-146912102D01*
X82759677Y-146923535D01*
X82714339Y-146928000D01*
X81877661Y-146928000D01*
X81832323Y-146923535D01*
X81794636Y-146912102D01*
X81759897Y-146893534D01*
X81729452Y-146868548D01*
X81704466Y-146838103D01*
X81685898Y-146803364D01*
X81674465Y-146765677D01*
X81670000Y-146720339D01*
X81670000Y-145633661D01*
X81674465Y-145588323D01*
X81685898Y-145550636D01*
X81704466Y-145515897D01*
X81729452Y-145485452D01*
X81759897Y-145460466D01*
X81794636Y-145441898D01*
X81832323Y-145430465D01*
X81877661Y-145426000D01*
X82714339Y-145426000D01*
X82759677Y-145430465D01*
X82759677Y-145430465D01*
G37*
G36*
X84809677Y-145430465D02*
X84847364Y-145441898D01*
X84882103Y-145460466D01*
X84912548Y-145485452D01*
X84937534Y-145515897D01*
X84956102Y-145550636D01*
X84967535Y-145588323D01*
X84972000Y-145633661D01*
X84972000Y-146720339D01*
X84967535Y-146765677D01*
X84956102Y-146803364D01*
X84937534Y-146838103D01*
X84912548Y-146868548D01*
X84882103Y-146893534D01*
X84847364Y-146912102D01*
X84809677Y-146923535D01*
X84764339Y-146928000D01*
X83927661Y-146928000D01*
X83882323Y-146923535D01*
X83844636Y-146912102D01*
X83809897Y-146893534D01*
X83779452Y-146868548D01*
X83754466Y-146838103D01*
X83735898Y-146803364D01*
X83724465Y-146765677D01*
X83720000Y-146720339D01*
X83720000Y-145633661D01*
X83724465Y-145588323D01*
X83735898Y-145550636D01*
X83754466Y-145515897D01*
X83779452Y-145485452D01*
X83809897Y-145460466D01*
X83844636Y-145441898D01*
X83882323Y-145430465D01*
X83927661Y-145426000D01*
X84764339Y-145426000D01*
X84809677Y-145430465D01*
X84809677Y-145430465D01*
G37*
G36*
X80598677Y-145437465D02*
X80636364Y-145448898D01*
X80671103Y-145467466D01*
X80701548Y-145492452D01*
X80726534Y-145522897D01*
X80745102Y-145557636D01*
X80756535Y-145595323D01*
X80761000Y-145640661D01*
X80761000Y-146477339D01*
X80756535Y-146522677D01*
X80745102Y-146560364D01*
X80726534Y-146595103D01*
X80701548Y-146625548D01*
X80671103Y-146650534D01*
X80636364Y-146669102D01*
X80598677Y-146680535D01*
X80553339Y-146685000D01*
X79466661Y-146685000D01*
X79421323Y-146680535D01*
X79383636Y-146669102D01*
X79348897Y-146650534D01*
X79318452Y-146625548D01*
X79293466Y-146595103D01*
X79274898Y-146560364D01*
X79263465Y-146522677D01*
X79259000Y-146477339D01*
X79259000Y-145640661D01*
X79263465Y-145595323D01*
X79274898Y-145557636D01*
X79293466Y-145522897D01*
X79318452Y-145492452D01*
X79348897Y-145467466D01*
X79383636Y-145448898D01*
X79421323Y-145437465D01*
X79466661Y-145433000D01*
X80553339Y-145433000D01*
X80598677Y-145437465D01*
X80598677Y-145437465D01*
G37*
G36*
X78463000Y-146435000D02*
X77461000Y-146435000D01*
X77461000Y-145533000D01*
X78463000Y-145533000D01*
X78463000Y-146435000D01*
X78463000Y-146435000D01*
G37*
G36*
X117067677Y-144922465D02*
X117105364Y-144933898D01*
X117140103Y-144952466D01*
X117170548Y-144977452D01*
X117195534Y-145007897D01*
X117214102Y-145042636D01*
X117225535Y-145080323D01*
X117230000Y-145125661D01*
X117230000Y-146212339D01*
X117225535Y-146257677D01*
X117214102Y-146295364D01*
X117195534Y-146330103D01*
X117170548Y-146360548D01*
X117140103Y-146385534D01*
X117105364Y-146404102D01*
X117067677Y-146415535D01*
X117022339Y-146420000D01*
X116185661Y-146420000D01*
X116140323Y-146415535D01*
X116102636Y-146404102D01*
X116067897Y-146385534D01*
X116037452Y-146360548D01*
X116012466Y-146330103D01*
X115993898Y-146295364D01*
X115982465Y-146257677D01*
X115978000Y-146212339D01*
X115978000Y-145125661D01*
X115982465Y-145080323D01*
X115993898Y-145042636D01*
X116012466Y-145007897D01*
X116037452Y-144977452D01*
X116067897Y-144952466D01*
X116102636Y-144933898D01*
X116140323Y-144922465D01*
X116185661Y-144918000D01*
X117022339Y-144918000D01*
X117067677Y-144922465D01*
X117067677Y-144922465D01*
G37*
G36*
X115017677Y-144922465D02*
X115055364Y-144933898D01*
X115090103Y-144952466D01*
X115120548Y-144977452D01*
X115145534Y-145007897D01*
X115164102Y-145042636D01*
X115175535Y-145080323D01*
X115180000Y-145125661D01*
X115180000Y-146212339D01*
X115175535Y-146257677D01*
X115164102Y-146295364D01*
X115145534Y-146330103D01*
X115120548Y-146360548D01*
X115090103Y-146385534D01*
X115055364Y-146404102D01*
X115017677Y-146415535D01*
X114972339Y-146420000D01*
X114135661Y-146420000D01*
X114090323Y-146415535D01*
X114052636Y-146404102D01*
X114017897Y-146385534D01*
X113987452Y-146360548D01*
X113962466Y-146330103D01*
X113943898Y-146295364D01*
X113932465Y-146257677D01*
X113928000Y-146212339D01*
X113928000Y-145125661D01*
X113932465Y-145080323D01*
X113943898Y-145042636D01*
X113962466Y-145007897D01*
X113987452Y-144977452D01*
X114017897Y-144952466D01*
X114052636Y-144933898D01*
X114090323Y-144922465D01*
X114135661Y-144918000D01*
X114972339Y-144918000D01*
X115017677Y-144922465D01*
X115017677Y-144922465D01*
G37*
G36*
X105266000Y-146384000D02*
X99014000Y-146384000D01*
X99014000Y-144682000D01*
X105266000Y-144682000D01*
X105266000Y-146384000D01*
X105266000Y-146384000D01*
G37*
G36*
X92943643Y-144698781D02*
X93089415Y-144759162D01*
X93220611Y-144846824D01*
X93332176Y-144958389D01*
X93419838Y-145089585D01*
X93480219Y-145235357D01*
X93511000Y-145390107D01*
X93511000Y-145547893D01*
X93480219Y-145702643D01*
X93419838Y-145848415D01*
X93332176Y-145979611D01*
X93220611Y-146091176D01*
X93089415Y-146178838D01*
X92943643Y-146239219D01*
X92788893Y-146270000D01*
X92631107Y-146270000D01*
X92476357Y-146239219D01*
X92330585Y-146178838D01*
X92199389Y-146091176D01*
X92087824Y-145979611D01*
X92000162Y-145848415D01*
X91939781Y-145702643D01*
X91909000Y-145547893D01*
X91909000Y-145390107D01*
X91939781Y-145235357D01*
X92000162Y-145089585D01*
X92087824Y-144958389D01*
X92199389Y-144846824D01*
X92330585Y-144759162D01*
X92476357Y-144698781D01*
X92631107Y-144668000D01*
X92788893Y-144668000D01*
X92943643Y-144698781D01*
X92943643Y-144698781D01*
G37*
G36*
X69704443Y-144386519D02*
X69770627Y-144393037D01*
X69883706Y-144427339D01*
X69940467Y-144444557D01*
X70063581Y-144510364D01*
X70096991Y-144528222D01*
X70117560Y-144545103D01*
X70234186Y-144640814D01*
X70281758Y-144698782D01*
X70346778Y-144778009D01*
X70346779Y-144778011D01*
X70430443Y-144934533D01*
X70430443Y-144934534D01*
X70481963Y-145104373D01*
X70499359Y-145281000D01*
X70481963Y-145457627D01*
X70454581Y-145547892D01*
X70430443Y-145627467D01*
X70378310Y-145725000D01*
X70346778Y-145783991D01*
X70317448Y-145819729D01*
X70234186Y-145921186D01*
X70132729Y-146004448D01*
X70096991Y-146033778D01*
X70096989Y-146033779D01*
X69940467Y-146117443D01*
X69883853Y-146134616D01*
X69770627Y-146168963D01*
X69704443Y-146175481D01*
X69638260Y-146182000D01*
X69299740Y-146182000D01*
X69233557Y-146175481D01*
X69167373Y-146168963D01*
X69054147Y-146134616D01*
X68997533Y-146117443D01*
X68841011Y-146033779D01*
X68841009Y-146033778D01*
X68805271Y-146004448D01*
X68703814Y-145921186D01*
X68620552Y-145819729D01*
X68591222Y-145783991D01*
X68559690Y-145725000D01*
X68507557Y-145627467D01*
X68483419Y-145547892D01*
X68456037Y-145457627D01*
X68438641Y-145281000D01*
X68456037Y-145104373D01*
X68507557Y-144934534D01*
X68507557Y-144934533D01*
X68591221Y-144778011D01*
X68591222Y-144778009D01*
X68656242Y-144698782D01*
X68703814Y-144640814D01*
X68820440Y-144545103D01*
X68841009Y-144528222D01*
X68874419Y-144510364D01*
X68997533Y-144444557D01*
X69054294Y-144427339D01*
X69167373Y-144393037D01*
X69233557Y-144386519D01*
X69299740Y-144380000D01*
X69638260Y-144380000D01*
X69704443Y-144386519D01*
X69704443Y-144386519D01*
G37*
G36*
X112154562Y-144202181D02*
X112189477Y-144212773D01*
X112221665Y-144229978D01*
X112249873Y-144253127D01*
X112273022Y-144281335D01*
X112290227Y-144313523D01*
X112300819Y-144348438D01*
X112305000Y-144390895D01*
X112305000Y-145532105D01*
X112300819Y-145574562D01*
X112290227Y-145609477D01*
X112273022Y-145641665D01*
X112249873Y-145669873D01*
X112221665Y-145693022D01*
X112189477Y-145710227D01*
X112154562Y-145720819D01*
X112112105Y-145725000D01*
X110645895Y-145725000D01*
X110603438Y-145720819D01*
X110568523Y-145710227D01*
X110536335Y-145693022D01*
X110508127Y-145669873D01*
X110484978Y-145641665D01*
X110467773Y-145609477D01*
X110457181Y-145574562D01*
X110453000Y-145532105D01*
X110453000Y-144390895D01*
X110457181Y-144348438D01*
X110467773Y-144313523D01*
X110484978Y-144281335D01*
X110508127Y-144253127D01*
X110536335Y-144229978D01*
X110568523Y-144212773D01*
X110603438Y-144202181D01*
X110645895Y-144198000D01*
X112112105Y-144198000D01*
X112154562Y-144202181D01*
X112154562Y-144202181D01*
G37*
G36*
X74311000Y-145662000D02*
X73009000Y-145662000D01*
X73009000Y-144660000D01*
X74311000Y-144660000D01*
X74311000Y-145662000D01*
X74311000Y-145662000D01*
G37*
G36*
X76463000Y-145485000D02*
X75461000Y-145485000D01*
X75461000Y-144583000D01*
X76463000Y-144583000D01*
X76463000Y-145485000D01*
X76463000Y-145485000D01*
G37*
G36*
X119996442Y-143130518D02*
X120062627Y-143137037D01*
X120175853Y-143171384D01*
X120232467Y-143188557D01*
X120371087Y-143262652D01*
X120388991Y-143272222D01*
X120403329Y-143283989D01*
X120526186Y-143384814D01*
X120590119Y-143462718D01*
X120638778Y-143522009D01*
X120638779Y-143522011D01*
X120722443Y-143678533D01*
X120739616Y-143735147D01*
X120773963Y-143848373D01*
X120791359Y-144025000D01*
X120773963Y-144201627D01*
X120751261Y-144276465D01*
X120722443Y-144371467D01*
X120698679Y-144415925D01*
X120638778Y-144527991D01*
X120624734Y-144545103D01*
X120526186Y-144665186D01*
X120424729Y-144748448D01*
X120388991Y-144777778D01*
X120388989Y-144777779D01*
X120232467Y-144861443D01*
X120175853Y-144878616D01*
X120062627Y-144912963D01*
X119996443Y-144919481D01*
X119930260Y-144926000D01*
X119591740Y-144926000D01*
X119525557Y-144919481D01*
X119459373Y-144912963D01*
X119346147Y-144878616D01*
X119289533Y-144861443D01*
X119133011Y-144777779D01*
X119133009Y-144777778D01*
X119097271Y-144748448D01*
X118995814Y-144665186D01*
X118897266Y-144545103D01*
X118883222Y-144527991D01*
X118823321Y-144415925D01*
X118799557Y-144371467D01*
X118770739Y-144276465D01*
X118748037Y-144201627D01*
X118730641Y-144025000D01*
X118748037Y-143848373D01*
X118782384Y-143735147D01*
X118799557Y-143678533D01*
X118883221Y-143522011D01*
X118883222Y-143522009D01*
X118931881Y-143462718D01*
X118995814Y-143384814D01*
X119118671Y-143283989D01*
X119133009Y-143272222D01*
X119150913Y-143262652D01*
X119289533Y-143188557D01*
X119346147Y-143171384D01*
X119459373Y-143137037D01*
X119525558Y-143130518D01*
X119591740Y-143124000D01*
X119930260Y-143124000D01*
X119996442Y-143130518D01*
X119996442Y-143130518D01*
G37*
G36*
X80598677Y-143387465D02*
X80636364Y-143398898D01*
X80671103Y-143417466D01*
X80701548Y-143442452D01*
X80726534Y-143472897D01*
X80745102Y-143507636D01*
X80756535Y-143545323D01*
X80761000Y-143590661D01*
X80761000Y-144427339D01*
X80756535Y-144472677D01*
X80745102Y-144510364D01*
X80726534Y-144545103D01*
X80701548Y-144575548D01*
X80671103Y-144600534D01*
X80636364Y-144619102D01*
X80598677Y-144630535D01*
X80553339Y-144635000D01*
X79466661Y-144635000D01*
X79421323Y-144630535D01*
X79383636Y-144619102D01*
X79348897Y-144600534D01*
X79318452Y-144575548D01*
X79293466Y-144545103D01*
X79274898Y-144510364D01*
X79263465Y-144472677D01*
X79259000Y-144427339D01*
X79259000Y-143590661D01*
X79263465Y-143545323D01*
X79274898Y-143507636D01*
X79293466Y-143472897D01*
X79318452Y-143442452D01*
X79348897Y-143417466D01*
X79383636Y-143398898D01*
X79421323Y-143387465D01*
X79466661Y-143383000D01*
X80553339Y-143383000D01*
X80598677Y-143387465D01*
X80598677Y-143387465D01*
G37*
G36*
X78463000Y-144535000D02*
X77461000Y-144535000D01*
X77461000Y-143633000D01*
X78463000Y-143633000D01*
X78463000Y-144535000D01*
X78463000Y-144535000D01*
G37*
G36*
X107241000Y-144409000D02*
X105539000Y-144409000D01*
X105539000Y-138157000D01*
X107241000Y-138157000D01*
X107241000Y-144409000D01*
X107241000Y-144409000D01*
G37*
G36*
X98741000Y-144409000D02*
X97039000Y-144409000D01*
X97039000Y-138157000D01*
X98741000Y-138157000D01*
X98741000Y-144409000D01*
X98741000Y-144409000D01*
G37*
G36*
X69704443Y-141886519D02*
X69770627Y-141893037D01*
X69883853Y-141927384D01*
X69940467Y-141944557D01*
X70079087Y-142018652D01*
X70096991Y-142028222D01*
X70132729Y-142057552D01*
X70234186Y-142140814D01*
X70317448Y-142242271D01*
X70346778Y-142278009D01*
X70346779Y-142278011D01*
X70430443Y-142434533D01*
X70447616Y-142491147D01*
X70481963Y-142604373D01*
X70499359Y-142781000D01*
X70481963Y-142957627D01*
X70451349Y-143058548D01*
X70430443Y-143127467D01*
X70397789Y-143188557D01*
X70346778Y-143283991D01*
X70317448Y-143319729D01*
X70234186Y-143421186D01*
X70133322Y-143503962D01*
X70096991Y-143533778D01*
X70096989Y-143533779D01*
X69940467Y-143617443D01*
X69889181Y-143633000D01*
X69770627Y-143668963D01*
X69704442Y-143675482D01*
X69638260Y-143682000D01*
X69299740Y-143682000D01*
X69233558Y-143675482D01*
X69167373Y-143668963D01*
X69048819Y-143633000D01*
X68997533Y-143617443D01*
X68841011Y-143533779D01*
X68841009Y-143533778D01*
X68804678Y-143503962D01*
X68703814Y-143421186D01*
X68620552Y-143319729D01*
X68591222Y-143283991D01*
X68540211Y-143188557D01*
X68507557Y-143127467D01*
X68486651Y-143058548D01*
X68456037Y-142957627D01*
X68438641Y-142781000D01*
X68456037Y-142604373D01*
X68490384Y-142491147D01*
X68507557Y-142434533D01*
X68591221Y-142278011D01*
X68591222Y-142278009D01*
X68620552Y-142242271D01*
X68703814Y-142140814D01*
X68805271Y-142057552D01*
X68841009Y-142028222D01*
X68858913Y-142018652D01*
X68997533Y-141944557D01*
X69054147Y-141927384D01*
X69167373Y-141893037D01*
X69233557Y-141886519D01*
X69299740Y-141880000D01*
X69638260Y-141880000D01*
X69704443Y-141886519D01*
X69704443Y-141886519D01*
G37*
G36*
X117067677Y-141620465D02*
X117105364Y-141631898D01*
X117140103Y-141650466D01*
X117170548Y-141675452D01*
X117195534Y-141705897D01*
X117214102Y-141740636D01*
X117225535Y-141778323D01*
X117230000Y-141823661D01*
X117230000Y-142910339D01*
X117225535Y-142955677D01*
X117214102Y-142993364D01*
X117195534Y-143028103D01*
X117170548Y-143058548D01*
X117140103Y-143083534D01*
X117105364Y-143102102D01*
X117067677Y-143113535D01*
X117022339Y-143118000D01*
X116185661Y-143118000D01*
X116140323Y-143113535D01*
X116102636Y-143102102D01*
X116067897Y-143083534D01*
X116037452Y-143058548D01*
X116012466Y-143028103D01*
X115993898Y-142993364D01*
X115982465Y-142955677D01*
X115978000Y-142910339D01*
X115978000Y-141823661D01*
X115982465Y-141778323D01*
X115993898Y-141740636D01*
X116012466Y-141705897D01*
X116037452Y-141675452D01*
X116067897Y-141650466D01*
X116102636Y-141631898D01*
X116140323Y-141620465D01*
X116185661Y-141616000D01*
X117022339Y-141616000D01*
X117067677Y-141620465D01*
X117067677Y-141620465D01*
G37*
G36*
X115017677Y-141620465D02*
X115055364Y-141631898D01*
X115090103Y-141650466D01*
X115120548Y-141675452D01*
X115145534Y-141705897D01*
X115164102Y-141740636D01*
X115175535Y-141778323D01*
X115180000Y-141823661D01*
X115180000Y-142910339D01*
X115175535Y-142955677D01*
X115164102Y-142993364D01*
X115145534Y-143028103D01*
X115120548Y-143058548D01*
X115090103Y-143083534D01*
X115055364Y-143102102D01*
X115017677Y-143113535D01*
X114972339Y-143118000D01*
X114135661Y-143118000D01*
X114090323Y-143113535D01*
X114052636Y-143102102D01*
X114017897Y-143083534D01*
X113987452Y-143058548D01*
X113962466Y-143028103D01*
X113943898Y-142993364D01*
X113932465Y-142955677D01*
X113928000Y-142910339D01*
X113928000Y-141823661D01*
X113932465Y-141778323D01*
X113943898Y-141740636D01*
X113962466Y-141705897D01*
X113987452Y-141675452D01*
X114017897Y-141650466D01*
X114052636Y-141631898D01*
X114090323Y-141620465D01*
X114135661Y-141616000D01*
X114972339Y-141616000D01*
X115017677Y-141620465D01*
X115017677Y-141620465D01*
G37*
G36*
X74057000Y-142994000D02*
X72755000Y-142994000D01*
X72755000Y-141992000D01*
X74057000Y-141992000D01*
X74057000Y-142994000D01*
X74057000Y-142994000D01*
G37*
G36*
X112154562Y-141227181D02*
X112189477Y-141237773D01*
X112221665Y-141254978D01*
X112249873Y-141278127D01*
X112273022Y-141306335D01*
X112290227Y-141338523D01*
X112300819Y-141373438D01*
X112305000Y-141415895D01*
X112305000Y-142557105D01*
X112300819Y-142599562D01*
X112290227Y-142634477D01*
X112273022Y-142666665D01*
X112249873Y-142694873D01*
X112221665Y-142718022D01*
X112189477Y-142735227D01*
X112154562Y-142745819D01*
X112112105Y-142750000D01*
X110645895Y-142750000D01*
X110603438Y-142745819D01*
X110568523Y-142735227D01*
X110536335Y-142718022D01*
X110508127Y-142694873D01*
X110484978Y-142666665D01*
X110467773Y-142634477D01*
X110457181Y-142599562D01*
X110453000Y-142557105D01*
X110453000Y-141415895D01*
X110457181Y-141373438D01*
X110467773Y-141338523D01*
X110484978Y-141306335D01*
X110508127Y-141278127D01*
X110536335Y-141254978D01*
X110568523Y-141237773D01*
X110603438Y-141227181D01*
X110645895Y-141223000D01*
X112112105Y-141223000D01*
X112154562Y-141227181D01*
X112154562Y-141227181D01*
G37*
G36*
X119996443Y-140630519D02*
X120062627Y-140637037D01*
X120135461Y-140659131D01*
X120232467Y-140688557D01*
X120353222Y-140753103D01*
X120388991Y-140772222D01*
X120403329Y-140783989D01*
X120526186Y-140884814D01*
X120594795Y-140968416D01*
X120638778Y-141022009D01*
X120638779Y-141022011D01*
X120722443Y-141178533D01*
X120735932Y-141223000D01*
X120773963Y-141348373D01*
X120791359Y-141525000D01*
X120773963Y-141701627D01*
X120748970Y-141784017D01*
X120722443Y-141871467D01*
X120713513Y-141888173D01*
X120638778Y-142027991D01*
X120638589Y-142028221D01*
X120526186Y-142165186D01*
X120424729Y-142248448D01*
X120388991Y-142277778D01*
X120388989Y-142277779D01*
X120232467Y-142361443D01*
X120175853Y-142378616D01*
X120062627Y-142412963D01*
X119996442Y-142419482D01*
X119930260Y-142426000D01*
X119591740Y-142426000D01*
X119525558Y-142419482D01*
X119459373Y-142412963D01*
X119346147Y-142378616D01*
X119289533Y-142361443D01*
X119133011Y-142277779D01*
X119133009Y-142277778D01*
X119097271Y-142248448D01*
X118995814Y-142165186D01*
X118883411Y-142028221D01*
X118883222Y-142027991D01*
X118808487Y-141888173D01*
X118799557Y-141871467D01*
X118773030Y-141784017D01*
X118748037Y-141701627D01*
X118730641Y-141525000D01*
X118748037Y-141348373D01*
X118786068Y-141223000D01*
X118799557Y-141178533D01*
X118883221Y-141022011D01*
X118883222Y-141022009D01*
X118927205Y-140968416D01*
X118995814Y-140884814D01*
X119118671Y-140783989D01*
X119133009Y-140772222D01*
X119168778Y-140753103D01*
X119289533Y-140688557D01*
X119386539Y-140659131D01*
X119459373Y-140637037D01*
X119525557Y-140630519D01*
X119591740Y-140624000D01*
X119930260Y-140624000D01*
X119996443Y-140630519D01*
X119996443Y-140630519D01*
G37*
G36*
X92943643Y-139818781D02*
X93089415Y-139879162D01*
X93220611Y-139966824D01*
X93332176Y-140078389D01*
X93419838Y-140209585D01*
X93480219Y-140355357D01*
X93511000Y-140510107D01*
X93511000Y-140667893D01*
X93480219Y-140822643D01*
X93419838Y-140968415D01*
X93332176Y-141099611D01*
X93220611Y-141211176D01*
X93089415Y-141298838D01*
X92943643Y-141359219D01*
X92788893Y-141390000D01*
X92631107Y-141390000D01*
X92476357Y-141359219D01*
X92330585Y-141298838D01*
X92199389Y-141211176D01*
X92087824Y-141099611D01*
X92000162Y-140968415D01*
X91939781Y-140822643D01*
X91909000Y-140667893D01*
X91909000Y-140510107D01*
X91939781Y-140355357D01*
X92000162Y-140209585D01*
X92087824Y-140078389D01*
X92199389Y-139966824D01*
X92330585Y-139879162D01*
X92476357Y-139818781D01*
X92631107Y-139788000D01*
X92788893Y-139788000D01*
X92943643Y-139818781D01*
X92943643Y-139818781D01*
G37*
G36*
X69704443Y-139386519D02*
X69770627Y-139393037D01*
X69883853Y-139427384D01*
X69940467Y-139444557D01*
X70079087Y-139518652D01*
X70096991Y-139528222D01*
X70132729Y-139557552D01*
X70234186Y-139640814D01*
X70304180Y-139726103D01*
X70346778Y-139778009D01*
X70346779Y-139778011D01*
X70430443Y-139934533D01*
X70440238Y-139966824D01*
X70481963Y-140104373D01*
X70499359Y-140281000D01*
X70481963Y-140457627D01*
X70456163Y-140542677D01*
X70430443Y-140627467D01*
X70391387Y-140700535D01*
X70346778Y-140783991D01*
X70335994Y-140797131D01*
X70234186Y-140921186D01*
X70132729Y-141004448D01*
X70096991Y-141033778D01*
X70096989Y-141033779D01*
X69940467Y-141117443D01*
X69883853Y-141134616D01*
X69770627Y-141168963D01*
X69704442Y-141175482D01*
X69638260Y-141182000D01*
X69299740Y-141182000D01*
X69233558Y-141175482D01*
X69167373Y-141168963D01*
X69054147Y-141134616D01*
X68997533Y-141117443D01*
X68841011Y-141033779D01*
X68841009Y-141033778D01*
X68805271Y-141004448D01*
X68703814Y-140921186D01*
X68602006Y-140797131D01*
X68591222Y-140783991D01*
X68546613Y-140700535D01*
X68507557Y-140627467D01*
X68481837Y-140542677D01*
X68456037Y-140457627D01*
X68438641Y-140281000D01*
X68456037Y-140104373D01*
X68497762Y-139966824D01*
X68507557Y-139934533D01*
X68591221Y-139778011D01*
X68591222Y-139778009D01*
X68633820Y-139726103D01*
X68703814Y-139640814D01*
X68805271Y-139557552D01*
X68841009Y-139528222D01*
X68858913Y-139518652D01*
X68997533Y-139444557D01*
X69054147Y-139427384D01*
X69167373Y-139393037D01*
X69233557Y-139386519D01*
X69299740Y-139380000D01*
X69638260Y-139380000D01*
X69704443Y-139386519D01*
X69704443Y-139386519D01*
G37*
G36*
X79963677Y-139595465D02*
X80001364Y-139606898D01*
X80036103Y-139625466D01*
X80066548Y-139650452D01*
X80091534Y-139680897D01*
X80110102Y-139715636D01*
X80121535Y-139753323D01*
X80126000Y-139798661D01*
X80126000Y-140635339D01*
X80121535Y-140680677D01*
X80110102Y-140718364D01*
X80091534Y-140753103D01*
X80066548Y-140783548D01*
X80036103Y-140808534D01*
X80001364Y-140827102D01*
X79963677Y-140838535D01*
X79918339Y-140843000D01*
X78831661Y-140843000D01*
X78786323Y-140838535D01*
X78748636Y-140827102D01*
X78713897Y-140808534D01*
X78683452Y-140783548D01*
X78658466Y-140753103D01*
X78639898Y-140718364D01*
X78628465Y-140680677D01*
X78624000Y-140635339D01*
X78624000Y-139798661D01*
X78628465Y-139753323D01*
X78639898Y-139715636D01*
X78658466Y-139680897D01*
X78683452Y-139650452D01*
X78713897Y-139625466D01*
X78748636Y-139606898D01*
X78786323Y-139595465D01*
X78831661Y-139591000D01*
X79918339Y-139591000D01*
X79963677Y-139595465D01*
X79963677Y-139595465D01*
G37*
G36*
X77955000Y-140720000D02*
X76953000Y-140720000D01*
X76953000Y-139818000D01*
X77955000Y-139818000D01*
X77955000Y-140720000D01*
X77955000Y-140720000D01*
G37*
G36*
X84047677Y-139207465D02*
X84085364Y-139218898D01*
X84120103Y-139237466D01*
X84150548Y-139262452D01*
X84175534Y-139292897D01*
X84194102Y-139327636D01*
X84205535Y-139365323D01*
X84210000Y-139410661D01*
X84210000Y-140497339D01*
X84205535Y-140542677D01*
X84194102Y-140580364D01*
X84175534Y-140615103D01*
X84150548Y-140645548D01*
X84120103Y-140670534D01*
X84085364Y-140689102D01*
X84047677Y-140700535D01*
X84002339Y-140705000D01*
X83165661Y-140705000D01*
X83120323Y-140700535D01*
X83082636Y-140689102D01*
X83047897Y-140670534D01*
X83017452Y-140645548D01*
X82992466Y-140615103D01*
X82973898Y-140580364D01*
X82962465Y-140542677D01*
X82958000Y-140497339D01*
X82958000Y-139410661D01*
X82962465Y-139365323D01*
X82973898Y-139327636D01*
X82992466Y-139292897D01*
X83017452Y-139262452D01*
X83047897Y-139237466D01*
X83082636Y-139218898D01*
X83120323Y-139207465D01*
X83165661Y-139203000D01*
X84002339Y-139203000D01*
X84047677Y-139207465D01*
X84047677Y-139207465D01*
G37*
G36*
X81997677Y-139207465D02*
X82035364Y-139218898D01*
X82070103Y-139237466D01*
X82100548Y-139262452D01*
X82125534Y-139292897D01*
X82144102Y-139327636D01*
X82155535Y-139365323D01*
X82160000Y-139410661D01*
X82160000Y-140497339D01*
X82155535Y-140542677D01*
X82144102Y-140580364D01*
X82125534Y-140615103D01*
X82100548Y-140645548D01*
X82070103Y-140670534D01*
X82035364Y-140689102D01*
X81997677Y-140700535D01*
X81952339Y-140705000D01*
X81115661Y-140705000D01*
X81070323Y-140700535D01*
X81032636Y-140689102D01*
X80997897Y-140670534D01*
X80967452Y-140645548D01*
X80942466Y-140615103D01*
X80923898Y-140580364D01*
X80912465Y-140542677D01*
X80908000Y-140497339D01*
X80908000Y-139410661D01*
X80912465Y-139365323D01*
X80923898Y-139327636D01*
X80942466Y-139292897D01*
X80967452Y-139262452D01*
X80997897Y-139237466D01*
X81032636Y-139218898D01*
X81070323Y-139207465D01*
X81115661Y-139203000D01*
X81952339Y-139203000D01*
X81997677Y-139207465D01*
X81997677Y-139207465D01*
G37*
G36*
X112626562Y-138397181D02*
X112661477Y-138407773D01*
X112693665Y-138424978D01*
X112721873Y-138448127D01*
X112745022Y-138476335D01*
X112762227Y-138508523D01*
X112772819Y-138543438D01*
X112777000Y-138585895D01*
X112777000Y-140052105D01*
X112772819Y-140094562D01*
X112762227Y-140129477D01*
X112745022Y-140161665D01*
X112721873Y-140189873D01*
X112693665Y-140213022D01*
X112661477Y-140230227D01*
X112626562Y-140240819D01*
X112584105Y-140245000D01*
X111442895Y-140245000D01*
X111400438Y-140240819D01*
X111365523Y-140230227D01*
X111333335Y-140213022D01*
X111305127Y-140189873D01*
X111281978Y-140161665D01*
X111264773Y-140129477D01*
X111254181Y-140094562D01*
X111250000Y-140052105D01*
X111250000Y-138585895D01*
X111254181Y-138543438D01*
X111264773Y-138508523D01*
X111281978Y-138476335D01*
X111305127Y-138448127D01*
X111333335Y-138424978D01*
X111365523Y-138407773D01*
X111400438Y-138397181D01*
X111442895Y-138393000D01*
X112584105Y-138393000D01*
X112626562Y-138397181D01*
X112626562Y-138397181D01*
G37*
G36*
X109651562Y-138397181D02*
X109686477Y-138407773D01*
X109718665Y-138424978D01*
X109746873Y-138448127D01*
X109770022Y-138476335D01*
X109787227Y-138508523D01*
X109797819Y-138543438D01*
X109802000Y-138585895D01*
X109802000Y-140052105D01*
X109797819Y-140094562D01*
X109787227Y-140129477D01*
X109770022Y-140161665D01*
X109746873Y-140189873D01*
X109718665Y-140213022D01*
X109686477Y-140230227D01*
X109651562Y-140240819D01*
X109609105Y-140245000D01*
X108467895Y-140245000D01*
X108425438Y-140240819D01*
X108390523Y-140230227D01*
X108358335Y-140213022D01*
X108330127Y-140189873D01*
X108306978Y-140161665D01*
X108289773Y-140129477D01*
X108279181Y-140094562D01*
X108275000Y-140052105D01*
X108275000Y-138585895D01*
X108279181Y-138543438D01*
X108289773Y-138508523D01*
X108306978Y-138476335D01*
X108330127Y-138448127D01*
X108358335Y-138424978D01*
X108390523Y-138407773D01*
X108425438Y-138397181D01*
X108467895Y-138393000D01*
X109609105Y-138393000D01*
X109651562Y-138397181D01*
X109651562Y-138397181D01*
G37*
G36*
X119996443Y-138130519D02*
X120062627Y-138137037D01*
X120175853Y-138171384D01*
X120232467Y-138188557D01*
X120371087Y-138262652D01*
X120388991Y-138272222D01*
X120403329Y-138283989D01*
X120526186Y-138384814D01*
X120601284Y-138476323D01*
X120638778Y-138522009D01*
X120638779Y-138522011D01*
X120722443Y-138678533D01*
X120726528Y-138692000D01*
X120773963Y-138848373D01*
X120791359Y-139025000D01*
X120773963Y-139201627D01*
X120739616Y-139314853D01*
X120722443Y-139371467D01*
X120710913Y-139393037D01*
X120638778Y-139527991D01*
X120609448Y-139563729D01*
X120526186Y-139665186D01*
X120451957Y-139726103D01*
X120388991Y-139777778D01*
X120388989Y-139777779D01*
X120232467Y-139861443D01*
X120175853Y-139878616D01*
X120062627Y-139912963D01*
X119996443Y-139919481D01*
X119930260Y-139926000D01*
X119591740Y-139926000D01*
X119525557Y-139919481D01*
X119459373Y-139912963D01*
X119346147Y-139878616D01*
X119289533Y-139861443D01*
X119133011Y-139777779D01*
X119133009Y-139777778D01*
X119070043Y-139726103D01*
X118995814Y-139665186D01*
X118912552Y-139563729D01*
X118883222Y-139527991D01*
X118811087Y-139393037D01*
X118799557Y-139371467D01*
X118782384Y-139314853D01*
X118748037Y-139201627D01*
X118730641Y-139025000D01*
X118748037Y-138848373D01*
X118795472Y-138692000D01*
X118799557Y-138678533D01*
X118883221Y-138522011D01*
X118883222Y-138522009D01*
X118920716Y-138476323D01*
X118995814Y-138384814D01*
X119118671Y-138283989D01*
X119133009Y-138272222D01*
X119150913Y-138262652D01*
X119289533Y-138188557D01*
X119346147Y-138171384D01*
X119459373Y-138137037D01*
X119525557Y-138130519D01*
X119591740Y-138124000D01*
X119930260Y-138124000D01*
X119996443Y-138130519D01*
X119996443Y-138130519D01*
G37*
G36*
X115017677Y-138318465D02*
X115055364Y-138329898D01*
X115090103Y-138348466D01*
X115120548Y-138373452D01*
X115145534Y-138403897D01*
X115164102Y-138438636D01*
X115175535Y-138476323D01*
X115180000Y-138521661D01*
X115180000Y-139608339D01*
X115175535Y-139653677D01*
X115164102Y-139691364D01*
X115145534Y-139726103D01*
X115120548Y-139756548D01*
X115090103Y-139781534D01*
X115055364Y-139800102D01*
X115017677Y-139811535D01*
X114972339Y-139816000D01*
X114135661Y-139816000D01*
X114090323Y-139811535D01*
X114052636Y-139800102D01*
X114017897Y-139781534D01*
X113987452Y-139756548D01*
X113962466Y-139726103D01*
X113943898Y-139691364D01*
X113932465Y-139653677D01*
X113928000Y-139608339D01*
X113928000Y-138521661D01*
X113932465Y-138476323D01*
X113943898Y-138438636D01*
X113962466Y-138403897D01*
X113987452Y-138373452D01*
X114017897Y-138348466D01*
X114052636Y-138329898D01*
X114090323Y-138318465D01*
X114135661Y-138314000D01*
X114972339Y-138314000D01*
X115017677Y-138318465D01*
X115017677Y-138318465D01*
G37*
G36*
X117067677Y-138318465D02*
X117105364Y-138329898D01*
X117140103Y-138348466D01*
X117170548Y-138373452D01*
X117195534Y-138403897D01*
X117214102Y-138438636D01*
X117225535Y-138476323D01*
X117230000Y-138521661D01*
X117230000Y-139608339D01*
X117225535Y-139653677D01*
X117214102Y-139691364D01*
X117195534Y-139726103D01*
X117170548Y-139756548D01*
X117140103Y-139781534D01*
X117105364Y-139800102D01*
X117067677Y-139811535D01*
X117022339Y-139816000D01*
X116185661Y-139816000D01*
X116140323Y-139811535D01*
X116102636Y-139800102D01*
X116067897Y-139781534D01*
X116037452Y-139756548D01*
X116012466Y-139726103D01*
X115993898Y-139691364D01*
X115982465Y-139653677D01*
X115978000Y-139608339D01*
X115978000Y-138521661D01*
X115982465Y-138476323D01*
X115993898Y-138438636D01*
X116012466Y-138403897D01*
X116037452Y-138373452D01*
X116067897Y-138348466D01*
X116102636Y-138329898D01*
X116140323Y-138318465D01*
X116185661Y-138314000D01*
X117022339Y-138314000D01*
X117067677Y-138318465D01*
X117067677Y-138318465D01*
G37*
G36*
X75955000Y-139770000D02*
X74953000Y-139770000D01*
X74953000Y-138868000D01*
X75955000Y-138868000D01*
X75955000Y-139770000D01*
X75955000Y-139770000D01*
G37*
G36*
X74057000Y-139694000D02*
X72755000Y-139694000D01*
X72755000Y-138692000D01*
X74057000Y-138692000D01*
X74057000Y-139694000D01*
X74057000Y-139694000D01*
G37*
G36*
X77955000Y-138820000D02*
X76953000Y-138820000D01*
X76953000Y-137918000D01*
X77955000Y-137918000D01*
X77955000Y-138820000D01*
X77955000Y-138820000D01*
G37*
G36*
X79963677Y-137545465D02*
X80001364Y-137556898D01*
X80036103Y-137575466D01*
X80066548Y-137600452D01*
X80091534Y-137630897D01*
X80110102Y-137665636D01*
X80121535Y-137703323D01*
X80126000Y-137748661D01*
X80126000Y-138585339D01*
X80121535Y-138630677D01*
X80110102Y-138668364D01*
X80091534Y-138703103D01*
X80066548Y-138733548D01*
X80036103Y-138758534D01*
X80001364Y-138777102D01*
X79963677Y-138788535D01*
X79918339Y-138793000D01*
X78831661Y-138793000D01*
X78786323Y-138788535D01*
X78748636Y-138777102D01*
X78713897Y-138758534D01*
X78683452Y-138733548D01*
X78658466Y-138703103D01*
X78639898Y-138668364D01*
X78628465Y-138630677D01*
X78624000Y-138585339D01*
X78624000Y-137748661D01*
X78628465Y-137703323D01*
X78639898Y-137665636D01*
X78658466Y-137630897D01*
X78683452Y-137600452D01*
X78713897Y-137575466D01*
X78748636Y-137556898D01*
X78786323Y-137545465D01*
X78831661Y-137541000D01*
X79918339Y-137541000D01*
X79963677Y-137545465D01*
X79963677Y-137545465D01*
G37*
G36*
X69704443Y-136886519D02*
X69770627Y-136893037D01*
X69883853Y-136927384D01*
X69940467Y-136944557D01*
X70079087Y-137018652D01*
X70096991Y-137028222D01*
X70132729Y-137057552D01*
X70234186Y-137140814D01*
X70317448Y-137242271D01*
X70346778Y-137278009D01*
X70346779Y-137278011D01*
X70430443Y-137434533D01*
X70430443Y-137434534D01*
X70481963Y-137604373D01*
X70499359Y-137781000D01*
X70481963Y-137957627D01*
X70447616Y-138070853D01*
X70430443Y-138127467D01*
X70414657Y-138157000D01*
X70346778Y-138283991D01*
X70322150Y-138314000D01*
X70234186Y-138421186D01*
X70160062Y-138482017D01*
X70096991Y-138533778D01*
X70096989Y-138533779D01*
X69940467Y-138617443D01*
X69915610Y-138624983D01*
X69770627Y-138668963D01*
X69704443Y-138675481D01*
X69638260Y-138682000D01*
X69299740Y-138682000D01*
X69233557Y-138675481D01*
X69167373Y-138668963D01*
X69022390Y-138624983D01*
X68997533Y-138617443D01*
X68841011Y-138533779D01*
X68841009Y-138533778D01*
X68777938Y-138482017D01*
X68703814Y-138421186D01*
X68615850Y-138314000D01*
X68591222Y-138283991D01*
X68523343Y-138157000D01*
X68507557Y-138127467D01*
X68490384Y-138070853D01*
X68456037Y-137957627D01*
X68438641Y-137781000D01*
X68456037Y-137604373D01*
X68507557Y-137434534D01*
X68507557Y-137434533D01*
X68591221Y-137278011D01*
X68591222Y-137278009D01*
X68620552Y-137242271D01*
X68703814Y-137140814D01*
X68805271Y-137057552D01*
X68841009Y-137028222D01*
X68858913Y-137018652D01*
X68997533Y-136944557D01*
X69054147Y-136927384D01*
X69167373Y-136893037D01*
X69233557Y-136886519D01*
X69299740Y-136880000D01*
X69638260Y-136880000D01*
X69704443Y-136886519D01*
X69704443Y-136886519D01*
G37*
G36*
X105266000Y-137884000D02*
X99014000Y-137884000D01*
X99014000Y-136182000D01*
X105266000Y-136182000D01*
X105266000Y-137884000D01*
X105266000Y-137884000D01*
G37*
G36*
X120644600Y-135627989D02*
X120677649Y-135638014D01*
X120708106Y-135654294D01*
X120734799Y-135676201D01*
X120756706Y-135702894D01*
X120772986Y-135733351D01*
X120783011Y-135766400D01*
X120787000Y-135806904D01*
X120787000Y-137243096D01*
X120783011Y-137283600D01*
X120772986Y-137316649D01*
X120756706Y-137347106D01*
X120734799Y-137373799D01*
X120708106Y-137395706D01*
X120677649Y-137411986D01*
X120644600Y-137422011D01*
X120604096Y-137426000D01*
X118917904Y-137426000D01*
X118877400Y-137422011D01*
X118844351Y-137411986D01*
X118813894Y-137395706D01*
X118787201Y-137373799D01*
X118765294Y-137347106D01*
X118749014Y-137316649D01*
X118738989Y-137283600D01*
X118735000Y-137243096D01*
X118735000Y-135806904D01*
X118738989Y-135766400D01*
X118749014Y-135733351D01*
X118765294Y-135702894D01*
X118787201Y-135676201D01*
X118813894Y-135654294D01*
X118844351Y-135638014D01*
X118877400Y-135627989D01*
X118917904Y-135624000D01*
X120604096Y-135624000D01*
X120644600Y-135627989D01*
X120644600Y-135627989D01*
G37*
G36*
X69704442Y-134386518D02*
X69770627Y-134393037D01*
X69883853Y-134427384D01*
X69940467Y-134444557D01*
X70079087Y-134518652D01*
X70096991Y-134528222D01*
X70132729Y-134557552D01*
X70234186Y-134640814D01*
X70317448Y-134742271D01*
X70346778Y-134778009D01*
X70346779Y-134778011D01*
X70430443Y-134934533D01*
X70430443Y-134934534D01*
X70481963Y-135104373D01*
X70499359Y-135281000D01*
X70481963Y-135457627D01*
X70447616Y-135570853D01*
X70430443Y-135627467D01*
X70390808Y-135701617D01*
X70346778Y-135783991D01*
X70317448Y-135819729D01*
X70234186Y-135921186D01*
X70132729Y-136004448D01*
X70096991Y-136033778D01*
X70096989Y-136033779D01*
X69940467Y-136117443D01*
X69883853Y-136134616D01*
X69770627Y-136168963D01*
X69704443Y-136175481D01*
X69638260Y-136182000D01*
X69299740Y-136182000D01*
X69233557Y-136175481D01*
X69167373Y-136168963D01*
X69054147Y-136134616D01*
X68997533Y-136117443D01*
X68841011Y-136033779D01*
X68841009Y-136033778D01*
X68805271Y-136004448D01*
X68703814Y-135921186D01*
X68620552Y-135819729D01*
X68591222Y-135783991D01*
X68547192Y-135701617D01*
X68507557Y-135627467D01*
X68490384Y-135570853D01*
X68456037Y-135457627D01*
X68438641Y-135281000D01*
X68456037Y-135104373D01*
X68507557Y-134934534D01*
X68507557Y-134934533D01*
X68591221Y-134778011D01*
X68591222Y-134778009D01*
X68620552Y-134742271D01*
X68703814Y-134640814D01*
X68805271Y-134557552D01*
X68841009Y-134528222D01*
X68858913Y-134518652D01*
X68997533Y-134444557D01*
X69054147Y-134427384D01*
X69167373Y-134393037D01*
X69233558Y-134386518D01*
X69299740Y-134380000D01*
X69638260Y-134380000D01*
X69704442Y-134386518D01*
X69704442Y-134386518D01*
G37*
G36*
X102571677Y-132603465D02*
X102609364Y-132614898D01*
X102644103Y-132633466D01*
X102674548Y-132658452D01*
X102699534Y-132688897D01*
X102718102Y-132723636D01*
X102729535Y-132761323D01*
X102734000Y-132806661D01*
X102734000Y-133893339D01*
X102729535Y-133938677D01*
X102718102Y-133976364D01*
X102699534Y-134011103D01*
X102674548Y-134041548D01*
X102644103Y-134066534D01*
X102609364Y-134085102D01*
X102571677Y-134096535D01*
X102526339Y-134101000D01*
X101689661Y-134101000D01*
X101644323Y-134096535D01*
X101606636Y-134085102D01*
X101571897Y-134066534D01*
X101541452Y-134041548D01*
X101516466Y-134011103D01*
X101497898Y-133976364D01*
X101486465Y-133938677D01*
X101482000Y-133893339D01*
X101482000Y-132806661D01*
X101486465Y-132761323D01*
X101497898Y-132723636D01*
X101516466Y-132688897D01*
X101541452Y-132658452D01*
X101571897Y-132633466D01*
X101606636Y-132614898D01*
X101644323Y-132603465D01*
X101689661Y-132599000D01*
X102526339Y-132599000D01*
X102571677Y-132603465D01*
X102571677Y-132603465D01*
G37*
G36*
X104621677Y-132603465D02*
X104659364Y-132614898D01*
X104694103Y-132633466D01*
X104724548Y-132658452D01*
X104749534Y-132688897D01*
X104768102Y-132723636D01*
X104779535Y-132761323D01*
X104784000Y-132806661D01*
X104784000Y-133893339D01*
X104779535Y-133938677D01*
X104768102Y-133976364D01*
X104749534Y-134011103D01*
X104724548Y-134041548D01*
X104694103Y-134066534D01*
X104659364Y-134085102D01*
X104621677Y-134096535D01*
X104576339Y-134101000D01*
X103739661Y-134101000D01*
X103694323Y-134096535D01*
X103656636Y-134085102D01*
X103621897Y-134066534D01*
X103591452Y-134041548D01*
X103566466Y-134011103D01*
X103547898Y-133976364D01*
X103536465Y-133938677D01*
X103532000Y-133893339D01*
X103532000Y-132806661D01*
X103536465Y-132761323D01*
X103547898Y-132723636D01*
X103566466Y-132688897D01*
X103591452Y-132658452D01*
X103621897Y-132633466D01*
X103656636Y-132614898D01*
X103694323Y-132603465D01*
X103739661Y-132599000D01*
X104576339Y-132599000D01*
X104621677Y-132603465D01*
X104621677Y-132603465D01*
G37*
G36*
X93407000Y-134047000D02*
X91505000Y-134047000D01*
X91505000Y-132145000D01*
X93407000Y-132145000D01*
X93407000Y-134047000D01*
X93407000Y-134047000D01*
G37*
G36*
X95273396Y-132181546D02*
X95446466Y-132253234D01*
X95602230Y-132357312D01*
X95734688Y-132489770D01*
X95838766Y-132645534D01*
X95910454Y-132818604D01*
X95947000Y-133002333D01*
X95947000Y-133189667D01*
X95910454Y-133373396D01*
X95838766Y-133546466D01*
X95734688Y-133702230D01*
X95602230Y-133834688D01*
X95446466Y-133938766D01*
X95273396Y-134010454D01*
X95089667Y-134047000D01*
X94902333Y-134047000D01*
X94718604Y-134010454D01*
X94545534Y-133938766D01*
X94389770Y-133834688D01*
X94257312Y-133702230D01*
X94153234Y-133546466D01*
X94081546Y-133373396D01*
X94045000Y-133189667D01*
X94045000Y-133002333D01*
X94081546Y-132818604D01*
X94153234Y-132645534D01*
X94257312Y-132489770D01*
X94389770Y-132357312D01*
X94545534Y-132253234D01*
X94718604Y-132181546D01*
X94902333Y-132145000D01*
X95089667Y-132145000D01*
X95273396Y-132181546D01*
X95273396Y-132181546D01*
G37*
G36*
X100156677Y-132737465D02*
X100194364Y-132748898D01*
X100229103Y-132767466D01*
X100259548Y-132792452D01*
X100284534Y-132822897D01*
X100303102Y-132857636D01*
X100314535Y-132895323D01*
X100319000Y-132940661D01*
X100319000Y-133777339D01*
X100314535Y-133822677D01*
X100303102Y-133860364D01*
X100284534Y-133895103D01*
X100259548Y-133925548D01*
X100229103Y-133950534D01*
X100194364Y-133969102D01*
X100156677Y-133980535D01*
X100111339Y-133985000D01*
X99024661Y-133985000D01*
X98979323Y-133980535D01*
X98941636Y-133969102D01*
X98906897Y-133950534D01*
X98876452Y-133925548D01*
X98851466Y-133895103D01*
X98832898Y-133860364D01*
X98821465Y-133822677D01*
X98817000Y-133777339D01*
X98817000Y-132940661D01*
X98821465Y-132895323D01*
X98832898Y-132857636D01*
X98851466Y-132822897D01*
X98876452Y-132792452D01*
X98906897Y-132767466D01*
X98941636Y-132748898D01*
X98979323Y-132737465D01*
X99024661Y-132733000D01*
X100111339Y-132733000D01*
X100156677Y-132737465D01*
X100156677Y-132737465D01*
G37*
G36*
X107141677Y-132728465D02*
X107179364Y-132739898D01*
X107214103Y-132758466D01*
X107244548Y-132783452D01*
X107269534Y-132813897D01*
X107288102Y-132848636D01*
X107299535Y-132886323D01*
X107304000Y-132931661D01*
X107304000Y-133768339D01*
X107299535Y-133813677D01*
X107288102Y-133851364D01*
X107269534Y-133886103D01*
X107244548Y-133916548D01*
X107214103Y-133941534D01*
X107179364Y-133960102D01*
X107141677Y-133971535D01*
X107096339Y-133976000D01*
X106009661Y-133976000D01*
X105964323Y-133971535D01*
X105926636Y-133960102D01*
X105891897Y-133941534D01*
X105861452Y-133916548D01*
X105836466Y-133886103D01*
X105817898Y-133851364D01*
X105806465Y-133813677D01*
X105802000Y-133768339D01*
X105802000Y-132931661D01*
X105806465Y-132886323D01*
X105817898Y-132848636D01*
X105836466Y-132813897D01*
X105861452Y-132783452D01*
X105891897Y-132758466D01*
X105926636Y-132739898D01*
X105964323Y-132728465D01*
X106009661Y-132724000D01*
X107096339Y-132724000D01*
X107141677Y-132728465D01*
X107141677Y-132728465D01*
G37*
G36*
X113648499Y-132002445D02*
X113685993Y-132013819D01*
X113720557Y-132032294D01*
X113750847Y-132057153D01*
X113775706Y-132087443D01*
X113794181Y-132122007D01*
X113805555Y-132159501D01*
X113810000Y-132204638D01*
X113810000Y-132943362D01*
X113805555Y-132988499D01*
X113794181Y-133025993D01*
X113775706Y-133060557D01*
X113750847Y-133090847D01*
X113720557Y-133115706D01*
X113685993Y-133134181D01*
X113648499Y-133145555D01*
X113603362Y-133150000D01*
X112964638Y-133150000D01*
X112919501Y-133145555D01*
X112882007Y-133134181D01*
X112847443Y-133115706D01*
X112817153Y-133090847D01*
X112792294Y-133060557D01*
X112773819Y-133025993D01*
X112762445Y-132988499D01*
X112758000Y-132943362D01*
X112758000Y-132204638D01*
X112762445Y-132159501D01*
X112773819Y-132122007D01*
X112792294Y-132087443D01*
X112817153Y-132057153D01*
X112847443Y-132032294D01*
X112882007Y-132013819D01*
X112919501Y-132002445D01*
X112964638Y-131998000D01*
X113603362Y-131998000D01*
X113648499Y-132002445D01*
X113648499Y-132002445D01*
G37*
G36*
X110600499Y-131988445D02*
X110637993Y-131999819D01*
X110672557Y-132018294D01*
X110702847Y-132043153D01*
X110727706Y-132073443D01*
X110746181Y-132108007D01*
X110757555Y-132145501D01*
X110762000Y-132190638D01*
X110762000Y-132929362D01*
X110757555Y-132974499D01*
X110746181Y-133011993D01*
X110727706Y-133046557D01*
X110702847Y-133076847D01*
X110672557Y-133101706D01*
X110637993Y-133120181D01*
X110600499Y-133131555D01*
X110555362Y-133136000D01*
X109916638Y-133136000D01*
X109871501Y-133131555D01*
X109834007Y-133120181D01*
X109799443Y-133101706D01*
X109769153Y-133076847D01*
X109744294Y-133046557D01*
X109725819Y-133011993D01*
X109714445Y-132974499D01*
X109710000Y-132929362D01*
X109710000Y-132190638D01*
X109714445Y-132145501D01*
X109725819Y-132108007D01*
X109744294Y-132073443D01*
X109769153Y-132043153D01*
X109799443Y-132018294D01*
X109834007Y-131999819D01*
X109871501Y-131988445D01*
X109916638Y-131984000D01*
X110555362Y-131984000D01*
X110600499Y-131988445D01*
X110600499Y-131988445D01*
G37*
G36*
X120133000Y-132477000D02*
X119131000Y-132477000D01*
X119131000Y-131175000D01*
X120133000Y-131175000D01*
X120133000Y-132477000D01*
X120133000Y-132477000D01*
G37*
G36*
X116833000Y-132477000D02*
X115831000Y-132477000D01*
X115831000Y-131175000D01*
X116833000Y-131175000D01*
X116833000Y-132477000D01*
X116833000Y-132477000D01*
G37*
G36*
X100156677Y-130687465D02*
X100194364Y-130698898D01*
X100229103Y-130717466D01*
X100259548Y-130742452D01*
X100284534Y-130772897D01*
X100303102Y-130807636D01*
X100314535Y-130845323D01*
X100319000Y-130890661D01*
X100319000Y-131727339D01*
X100314535Y-131772677D01*
X100303102Y-131810364D01*
X100284534Y-131845103D01*
X100259548Y-131875548D01*
X100229103Y-131900534D01*
X100194364Y-131919102D01*
X100156677Y-131930535D01*
X100111339Y-131935000D01*
X99024661Y-131935000D01*
X98979323Y-131930535D01*
X98941636Y-131919102D01*
X98906897Y-131900534D01*
X98876452Y-131875548D01*
X98851466Y-131845103D01*
X98832898Y-131810364D01*
X98821465Y-131772677D01*
X98817000Y-131727339D01*
X98817000Y-130890661D01*
X98821465Y-130845323D01*
X98832898Y-130807636D01*
X98851466Y-130772897D01*
X98876452Y-130742452D01*
X98906897Y-130717466D01*
X98941636Y-130698898D01*
X98979323Y-130687465D01*
X99024661Y-130683000D01*
X100111339Y-130683000D01*
X100156677Y-130687465D01*
X100156677Y-130687465D01*
G37*
G36*
X107141677Y-130678465D02*
X107179364Y-130689898D01*
X107214103Y-130708466D01*
X107244548Y-130733452D01*
X107269534Y-130763897D01*
X107288102Y-130798636D01*
X107299535Y-130836323D01*
X107304000Y-130881661D01*
X107304000Y-131718339D01*
X107299535Y-131763677D01*
X107288102Y-131801364D01*
X107269534Y-131836103D01*
X107244548Y-131866548D01*
X107214103Y-131891534D01*
X107179364Y-131910102D01*
X107141677Y-131921535D01*
X107096339Y-131926000D01*
X106009661Y-131926000D01*
X105964323Y-131921535D01*
X105926636Y-131910102D01*
X105891897Y-131891534D01*
X105861452Y-131866548D01*
X105836466Y-131836103D01*
X105817898Y-131801364D01*
X105806465Y-131763677D01*
X105802000Y-131718339D01*
X105802000Y-130881661D01*
X105806465Y-130836323D01*
X105817898Y-130798636D01*
X105836466Y-130763897D01*
X105861452Y-130733452D01*
X105891897Y-130708466D01*
X105926636Y-130689898D01*
X105964323Y-130678465D01*
X106009661Y-130674000D01*
X107096339Y-130674000D01*
X107141677Y-130678465D01*
X107141677Y-130678465D01*
G37*
G36*
X113648499Y-130252445D02*
X113685993Y-130263819D01*
X113720557Y-130282294D01*
X113750847Y-130307153D01*
X113775706Y-130337443D01*
X113794181Y-130372007D01*
X113805555Y-130409501D01*
X113810000Y-130454638D01*
X113810000Y-131193362D01*
X113805555Y-131238499D01*
X113794181Y-131275993D01*
X113775706Y-131310557D01*
X113750847Y-131340847D01*
X113720557Y-131365706D01*
X113685993Y-131384181D01*
X113648499Y-131395555D01*
X113603362Y-131400000D01*
X112964638Y-131400000D01*
X112919501Y-131395555D01*
X112882007Y-131384181D01*
X112847443Y-131365706D01*
X112817153Y-131340847D01*
X112792294Y-131310557D01*
X112773819Y-131275993D01*
X112762445Y-131238499D01*
X112758000Y-131193362D01*
X112758000Y-130454638D01*
X112762445Y-130409501D01*
X112773819Y-130372007D01*
X112792294Y-130337443D01*
X112817153Y-130307153D01*
X112847443Y-130282294D01*
X112882007Y-130263819D01*
X112919501Y-130252445D01*
X112964638Y-130248000D01*
X113603362Y-130248000D01*
X113648499Y-130252445D01*
X113648499Y-130252445D01*
G37*
G36*
X110600499Y-130238445D02*
X110637993Y-130249819D01*
X110672557Y-130268294D01*
X110702847Y-130293153D01*
X110727706Y-130323443D01*
X110746181Y-130358007D01*
X110757555Y-130395501D01*
X110762000Y-130440638D01*
X110762000Y-131179362D01*
X110757555Y-131224499D01*
X110746181Y-131261993D01*
X110727706Y-131296557D01*
X110702847Y-131326847D01*
X110672557Y-131351706D01*
X110637993Y-131370181D01*
X110600499Y-131381555D01*
X110555362Y-131386000D01*
X109916638Y-131386000D01*
X109871501Y-131381555D01*
X109834007Y-131370181D01*
X109799443Y-131351706D01*
X109769153Y-131326847D01*
X109744294Y-131296557D01*
X109725819Y-131261993D01*
X109714445Y-131224499D01*
X109710000Y-131179362D01*
X109710000Y-130440638D01*
X109714445Y-130395501D01*
X109725819Y-130358007D01*
X109744294Y-130323443D01*
X109769153Y-130293153D01*
X109799443Y-130268294D01*
X109834007Y-130249819D01*
X109871501Y-130238445D01*
X109916638Y-130234000D01*
X110555362Y-130234000D01*
X110600499Y-130238445D01*
X110600499Y-130238445D01*
G37*
G36*
X71057633Y-127328810D02*
X71088924Y-127338302D01*
X71117761Y-127353716D01*
X71143039Y-127374461D01*
X71163784Y-127399739D01*
X71179198Y-127428576D01*
X71188690Y-127459867D01*
X71192500Y-127498550D01*
X71192500Y-129803450D01*
X71188690Y-129842133D01*
X71179198Y-129873424D01*
X71163784Y-129902261D01*
X71143039Y-129927539D01*
X71117761Y-129948284D01*
X71088924Y-129963698D01*
X71057633Y-129973190D01*
X71018950Y-129977000D01*
X69189050Y-129977000D01*
X69150367Y-129973190D01*
X69119076Y-129963698D01*
X69090239Y-129948284D01*
X69064961Y-129927539D01*
X69044216Y-129902261D01*
X69028802Y-129873424D01*
X69019310Y-129842133D01*
X69015500Y-129803450D01*
X69015500Y-127498550D01*
X69019310Y-127459867D01*
X69028802Y-127428576D01*
X69044216Y-127399739D01*
X69064961Y-127374461D01*
X69090239Y-127353716D01*
X69119076Y-127338302D01*
X69150367Y-127328810D01*
X69189050Y-127325000D01*
X71018950Y-127325000D01*
X71057633Y-127328810D01*
X71057633Y-127328810D01*
G37*
G36*
X77282633Y-127328810D02*
X77313924Y-127338302D01*
X77342761Y-127353716D01*
X77368039Y-127374461D01*
X77388784Y-127399739D01*
X77404198Y-127428576D01*
X77413690Y-127459867D01*
X77417500Y-127498550D01*
X77417500Y-129803450D01*
X77413690Y-129842133D01*
X77404198Y-129873424D01*
X77388784Y-129902261D01*
X77368039Y-129927539D01*
X77342761Y-129948284D01*
X77313924Y-129963698D01*
X77282633Y-129973190D01*
X77243950Y-129977000D01*
X75414050Y-129977000D01*
X75375367Y-129973190D01*
X75344076Y-129963698D01*
X75315239Y-129948284D01*
X75289961Y-129927539D01*
X75269216Y-129902261D01*
X75253802Y-129873424D01*
X75244310Y-129842133D01*
X75240500Y-129803450D01*
X75240500Y-127498550D01*
X75244310Y-127459867D01*
X75253802Y-127428576D01*
X75269216Y-127399739D01*
X75289961Y-127374461D01*
X75315239Y-127353716D01*
X75344076Y-127338302D01*
X75375367Y-127328810D01*
X75414050Y-127325000D01*
X77243950Y-127325000D01*
X77282633Y-127328810D01*
X77282633Y-127328810D01*
G37*
G36*
X94598443Y-127121519D02*
X94664627Y-127128037D01*
X94777853Y-127162384D01*
X94834467Y-127179557D01*
X94973087Y-127253652D01*
X94990991Y-127263222D01*
X95026729Y-127292552D01*
X95128186Y-127375814D01*
X95197165Y-127459867D01*
X95240778Y-127513009D01*
X95240779Y-127513011D01*
X95324443Y-127669533D01*
X95324443Y-127669534D01*
X95375963Y-127839373D01*
X95393359Y-128016000D01*
X95375963Y-128192627D01*
X95341616Y-128305853D01*
X95324443Y-128362467D01*
X95250348Y-128501087D01*
X95240778Y-128518991D01*
X95211448Y-128554729D01*
X95128186Y-128656186D01*
X95026729Y-128739448D01*
X94990991Y-128768778D01*
X94990989Y-128768779D01*
X94834467Y-128852443D01*
X94777853Y-128869616D01*
X94664627Y-128903963D01*
X94598442Y-128910482D01*
X94532260Y-128917000D01*
X94443740Y-128917000D01*
X94377558Y-128910482D01*
X94311373Y-128903963D01*
X94198147Y-128869616D01*
X94141533Y-128852443D01*
X93985011Y-128768779D01*
X93985009Y-128768778D01*
X93949271Y-128739448D01*
X93847814Y-128656186D01*
X93764552Y-128554729D01*
X93735222Y-128518991D01*
X93725652Y-128501087D01*
X93651557Y-128362467D01*
X93634384Y-128305853D01*
X93600037Y-128192627D01*
X93582641Y-128016000D01*
X93600037Y-127839373D01*
X93651557Y-127669534D01*
X93651557Y-127669533D01*
X93735221Y-127513011D01*
X93735222Y-127513009D01*
X93778835Y-127459867D01*
X93847814Y-127375814D01*
X93949271Y-127292552D01*
X93985009Y-127263222D01*
X94002913Y-127253652D01*
X94141533Y-127179557D01*
X94198147Y-127162384D01*
X94311373Y-127128037D01*
X94377557Y-127121519D01*
X94443740Y-127115000D01*
X94532260Y-127115000D01*
X94598443Y-127121519D01*
X94598443Y-127121519D01*
G37*
G36*
X117585443Y-127121519D02*
X117651627Y-127128037D01*
X117764853Y-127162384D01*
X117821467Y-127179557D01*
X117960087Y-127253652D01*
X117977991Y-127263222D01*
X118013729Y-127292552D01*
X118115186Y-127375814D01*
X118184165Y-127459867D01*
X118227778Y-127513009D01*
X118227779Y-127513011D01*
X118311443Y-127669533D01*
X118311443Y-127669534D01*
X118362963Y-127839373D01*
X118380359Y-128016000D01*
X118362963Y-128192627D01*
X118328616Y-128305853D01*
X118311443Y-128362467D01*
X118237348Y-128501087D01*
X118227778Y-128518991D01*
X118198448Y-128554729D01*
X118115186Y-128656186D01*
X118013729Y-128739448D01*
X117977991Y-128768778D01*
X117977989Y-128768779D01*
X117821467Y-128852443D01*
X117764853Y-128869616D01*
X117651627Y-128903963D01*
X117585442Y-128910482D01*
X117519260Y-128917000D01*
X117430740Y-128917000D01*
X117364558Y-128910482D01*
X117298373Y-128903963D01*
X117185147Y-128869616D01*
X117128533Y-128852443D01*
X116972011Y-128768779D01*
X116972009Y-128768778D01*
X116936271Y-128739448D01*
X116834814Y-128656186D01*
X116751552Y-128554729D01*
X116722222Y-128518991D01*
X116712652Y-128501087D01*
X116638557Y-128362467D01*
X116621384Y-128305853D01*
X116587037Y-128192627D01*
X116569641Y-128016000D01*
X116587037Y-127839373D01*
X116638557Y-127669534D01*
X116638557Y-127669533D01*
X116722221Y-127513011D01*
X116722222Y-127513009D01*
X116765835Y-127459867D01*
X116834814Y-127375814D01*
X116936271Y-127292552D01*
X116972009Y-127263222D01*
X116989913Y-127253652D01*
X117128533Y-127179557D01*
X117185147Y-127162384D01*
X117298373Y-127128037D01*
X117364557Y-127121519D01*
X117430740Y-127115000D01*
X117519260Y-127115000D01*
X117585443Y-127121519D01*
X117585443Y-127121519D01*
G37*
G36*
X97138443Y-127121519D02*
X97204627Y-127128037D01*
X97317853Y-127162384D01*
X97374467Y-127179557D01*
X97513087Y-127253652D01*
X97530991Y-127263222D01*
X97566729Y-127292552D01*
X97668186Y-127375814D01*
X97737165Y-127459867D01*
X97780778Y-127513009D01*
X97780779Y-127513011D01*
X97864443Y-127669533D01*
X97864443Y-127669534D01*
X97915963Y-127839373D01*
X97933359Y-128016000D01*
X97915963Y-128192627D01*
X97881616Y-128305853D01*
X97864443Y-128362467D01*
X97790348Y-128501087D01*
X97780778Y-128518991D01*
X97751448Y-128554729D01*
X97668186Y-128656186D01*
X97566729Y-128739448D01*
X97530991Y-128768778D01*
X97530989Y-128768779D01*
X97374467Y-128852443D01*
X97317853Y-128869616D01*
X97204627Y-128903963D01*
X97138442Y-128910482D01*
X97072260Y-128917000D01*
X96983740Y-128917000D01*
X96917558Y-128910482D01*
X96851373Y-128903963D01*
X96738147Y-128869616D01*
X96681533Y-128852443D01*
X96525011Y-128768779D01*
X96525009Y-128768778D01*
X96489271Y-128739448D01*
X96387814Y-128656186D01*
X96304552Y-128554729D01*
X96275222Y-128518991D01*
X96265652Y-128501087D01*
X96191557Y-128362467D01*
X96174384Y-128305853D01*
X96140037Y-128192627D01*
X96122641Y-128016000D01*
X96140037Y-127839373D01*
X96191557Y-127669534D01*
X96191557Y-127669533D01*
X96275221Y-127513011D01*
X96275222Y-127513009D01*
X96318835Y-127459867D01*
X96387814Y-127375814D01*
X96489271Y-127292552D01*
X96525009Y-127263222D01*
X96542913Y-127253652D01*
X96681533Y-127179557D01*
X96738147Y-127162384D01*
X96851373Y-127128037D01*
X96917557Y-127121519D01*
X96983740Y-127115000D01*
X97072260Y-127115000D01*
X97138443Y-127121519D01*
X97138443Y-127121519D01*
G37*
G36*
X99678443Y-127121519D02*
X99744627Y-127128037D01*
X99857853Y-127162384D01*
X99914467Y-127179557D01*
X100053087Y-127253652D01*
X100070991Y-127263222D01*
X100106729Y-127292552D01*
X100208186Y-127375814D01*
X100277165Y-127459867D01*
X100320778Y-127513009D01*
X100320779Y-127513011D01*
X100404443Y-127669533D01*
X100404443Y-127669534D01*
X100455963Y-127839373D01*
X100473359Y-128016000D01*
X100455963Y-128192627D01*
X100421616Y-128305853D01*
X100404443Y-128362467D01*
X100330348Y-128501087D01*
X100320778Y-128518991D01*
X100291448Y-128554729D01*
X100208186Y-128656186D01*
X100106729Y-128739448D01*
X100070991Y-128768778D01*
X100070989Y-128768779D01*
X99914467Y-128852443D01*
X99857853Y-128869616D01*
X99744627Y-128903963D01*
X99678442Y-128910482D01*
X99612260Y-128917000D01*
X99523740Y-128917000D01*
X99457558Y-128910482D01*
X99391373Y-128903963D01*
X99278147Y-128869616D01*
X99221533Y-128852443D01*
X99065011Y-128768779D01*
X99065009Y-128768778D01*
X99029271Y-128739448D01*
X98927814Y-128656186D01*
X98844552Y-128554729D01*
X98815222Y-128518991D01*
X98805652Y-128501087D01*
X98731557Y-128362467D01*
X98714384Y-128305853D01*
X98680037Y-128192627D01*
X98662641Y-128016000D01*
X98680037Y-127839373D01*
X98731557Y-127669534D01*
X98731557Y-127669533D01*
X98815221Y-127513011D01*
X98815222Y-127513009D01*
X98858835Y-127459867D01*
X98927814Y-127375814D01*
X99029271Y-127292552D01*
X99065009Y-127263222D01*
X99082913Y-127253652D01*
X99221533Y-127179557D01*
X99278147Y-127162384D01*
X99391373Y-127128037D01*
X99457557Y-127121519D01*
X99523740Y-127115000D01*
X99612260Y-127115000D01*
X99678443Y-127121519D01*
X99678443Y-127121519D01*
G37*
G36*
X102218443Y-127121519D02*
X102284627Y-127128037D01*
X102397853Y-127162384D01*
X102454467Y-127179557D01*
X102593087Y-127253652D01*
X102610991Y-127263222D01*
X102646729Y-127292552D01*
X102748186Y-127375814D01*
X102817165Y-127459867D01*
X102860778Y-127513009D01*
X102860779Y-127513011D01*
X102944443Y-127669533D01*
X102944443Y-127669534D01*
X102995963Y-127839373D01*
X103013359Y-128016000D01*
X102995963Y-128192627D01*
X102961616Y-128305853D01*
X102944443Y-128362467D01*
X102870348Y-128501087D01*
X102860778Y-128518991D01*
X102831448Y-128554729D01*
X102748186Y-128656186D01*
X102646729Y-128739448D01*
X102610991Y-128768778D01*
X102610989Y-128768779D01*
X102454467Y-128852443D01*
X102397853Y-128869616D01*
X102284627Y-128903963D01*
X102218442Y-128910482D01*
X102152260Y-128917000D01*
X102063740Y-128917000D01*
X101997558Y-128910482D01*
X101931373Y-128903963D01*
X101818147Y-128869616D01*
X101761533Y-128852443D01*
X101605011Y-128768779D01*
X101605009Y-128768778D01*
X101569271Y-128739448D01*
X101467814Y-128656186D01*
X101384552Y-128554729D01*
X101355222Y-128518991D01*
X101345652Y-128501087D01*
X101271557Y-128362467D01*
X101254384Y-128305853D01*
X101220037Y-128192627D01*
X101202641Y-128016000D01*
X101220037Y-127839373D01*
X101271557Y-127669534D01*
X101271557Y-127669533D01*
X101355221Y-127513011D01*
X101355222Y-127513009D01*
X101398835Y-127459867D01*
X101467814Y-127375814D01*
X101569271Y-127292552D01*
X101605009Y-127263222D01*
X101622913Y-127253652D01*
X101761533Y-127179557D01*
X101818147Y-127162384D01*
X101931373Y-127128037D01*
X101997557Y-127121519D01*
X102063740Y-127115000D01*
X102152260Y-127115000D01*
X102218443Y-127121519D01*
X102218443Y-127121519D01*
G37*
G36*
X110756000Y-128917000D02*
X108954000Y-128917000D01*
X108954000Y-127115000D01*
X110756000Y-127115000D01*
X110756000Y-128917000D01*
X110756000Y-128917000D01*
G37*
G36*
X92849000Y-128917000D02*
X91047000Y-128917000D01*
X91047000Y-127115000D01*
X92849000Y-127115000D01*
X92849000Y-128917000D01*
X92849000Y-128917000D01*
G37*
G36*
X115045443Y-127121519D02*
X115111627Y-127128037D01*
X115224853Y-127162384D01*
X115281467Y-127179557D01*
X115420087Y-127253652D01*
X115437991Y-127263222D01*
X115473729Y-127292552D01*
X115575186Y-127375814D01*
X115644165Y-127459867D01*
X115687778Y-127513009D01*
X115687779Y-127513011D01*
X115771443Y-127669533D01*
X115771443Y-127669534D01*
X115822963Y-127839373D01*
X115840359Y-128016000D01*
X115822963Y-128192627D01*
X115788616Y-128305853D01*
X115771443Y-128362467D01*
X115697348Y-128501087D01*
X115687778Y-128518991D01*
X115658448Y-128554729D01*
X115575186Y-128656186D01*
X115473729Y-128739448D01*
X115437991Y-128768778D01*
X115437989Y-128768779D01*
X115281467Y-128852443D01*
X115224853Y-128869616D01*
X115111627Y-128903963D01*
X115045442Y-128910482D01*
X114979260Y-128917000D01*
X114890740Y-128917000D01*
X114824558Y-128910482D01*
X114758373Y-128903963D01*
X114645147Y-128869616D01*
X114588533Y-128852443D01*
X114432011Y-128768779D01*
X114432009Y-128768778D01*
X114396271Y-128739448D01*
X114294814Y-128656186D01*
X114211552Y-128554729D01*
X114182222Y-128518991D01*
X114172652Y-128501087D01*
X114098557Y-128362467D01*
X114081384Y-128305853D01*
X114047037Y-128192627D01*
X114029641Y-128016000D01*
X114047037Y-127839373D01*
X114098557Y-127669534D01*
X114098557Y-127669533D01*
X114182221Y-127513011D01*
X114182222Y-127513009D01*
X114225835Y-127459867D01*
X114294814Y-127375814D01*
X114396271Y-127292552D01*
X114432009Y-127263222D01*
X114449913Y-127253652D01*
X114588533Y-127179557D01*
X114645147Y-127162384D01*
X114758373Y-127128037D01*
X114824557Y-127121519D01*
X114890740Y-127115000D01*
X114979260Y-127115000D01*
X115045443Y-127121519D01*
X115045443Y-127121519D01*
G37*
G36*
X112505443Y-127121519D02*
X112571627Y-127128037D01*
X112684853Y-127162384D01*
X112741467Y-127179557D01*
X112880087Y-127253652D01*
X112897991Y-127263222D01*
X112933729Y-127292552D01*
X113035186Y-127375814D01*
X113104165Y-127459867D01*
X113147778Y-127513009D01*
X113147779Y-127513011D01*
X113231443Y-127669533D01*
X113231443Y-127669534D01*
X113282963Y-127839373D01*
X113300359Y-128016000D01*
X113282963Y-128192627D01*
X113248616Y-128305853D01*
X113231443Y-128362467D01*
X113157348Y-128501087D01*
X113147778Y-128518991D01*
X113118448Y-128554729D01*
X113035186Y-128656186D01*
X112933729Y-128739448D01*
X112897991Y-128768778D01*
X112897989Y-128768779D01*
X112741467Y-128852443D01*
X112684853Y-128869616D01*
X112571627Y-128903963D01*
X112505442Y-128910482D01*
X112439260Y-128917000D01*
X112350740Y-128917000D01*
X112284558Y-128910482D01*
X112218373Y-128903963D01*
X112105147Y-128869616D01*
X112048533Y-128852443D01*
X111892011Y-128768779D01*
X111892009Y-128768778D01*
X111856271Y-128739448D01*
X111754814Y-128656186D01*
X111671552Y-128554729D01*
X111642222Y-128518991D01*
X111632652Y-128501087D01*
X111558557Y-128362467D01*
X111541384Y-128305853D01*
X111507037Y-128192627D01*
X111489641Y-128016000D01*
X111507037Y-127839373D01*
X111558557Y-127669534D01*
X111558557Y-127669533D01*
X111642221Y-127513011D01*
X111642222Y-127513009D01*
X111685835Y-127459867D01*
X111754814Y-127375814D01*
X111856271Y-127292552D01*
X111892009Y-127263222D01*
X111909913Y-127253652D01*
X112048533Y-127179557D01*
X112105147Y-127162384D01*
X112218373Y-127128037D01*
X112284557Y-127121519D01*
X112350740Y-127115000D01*
X112439260Y-127115000D01*
X112505443Y-127121519D01*
X112505443Y-127121519D01*
G37*
M02*
